# MagicaVoxel @ Ephtracy

# group
o 

# material
mtllib GasCan0.mtl
usemtl palette

# normals
vn -1 0 0
vn 1 0 0
vn 0 0 1
vn 0 0 -1
vn 0 -1 0
vn 0 1 0

# texcoords
vt 0.00976562 0.5
vt 0.240234 0.5
vt 0.244141 0.5

# verts
v -0.45 -0.75 0.05
v -0.45 -0.75 -0.05
v -0.45 -0.65 0.15
v -0.45 -0.65 0.05
v -0.45 -0.65 -0.05
v -0.45 -0.65 -0.15
v -0.45 0.15 0.15
v -0.45 0.15 0.05
v -0.45 0.15 -0.05
v -0.45 0.15 -0.15
v -0.45 0.25 0.05
v -0.45 0.25 -0.05
v -0.35 -0.75 0.15
v -0.35 -0.75 0.05
v -0.35 -0.75 -0.05
v -0.35 -0.75 -0.15
v -0.35 -0.65 0.15
v -0.35 -0.65 0.05
v -0.35 -0.65 -0.05
v -0.35 -0.65 -0.15
v -0.35 0.15 0.15
v -0.35 0.15 0.05
v -0.35 0.15 -0.05
v -0.35 0.15 -0.15
v -0.35 0.25 0.15
v -0.35 0.25 0.05
v -0.35 0.25 -0.05
v -0.35 0.25 -0.15
v 0.05 -0.05 0.05
v 0.05 -0.05 -0.05
v 0.05 0.05 0.15
v 0.05 0.05 0.05
v 0.05 0.05 -0.05
v 0.05 0.05 -0.15
v 0.05 0.15 0.05
v 0.05 0.15 -0.05
v 0.05 0.25 0.15
v 0.05 0.25 0.05
v 0.05 0.25 -0.05
v 0.05 0.25 -0.15
v -0.25 -0.05 0.05
v -0.25 -0.05 -0.05
v -0.25 0.05 0.15
v -0.25 0.05 0.05
v -0.25 0.05 -0.05
v -0.25 0.05 -0.15
v -0.25 0.15 0.05
v -0.25 0.15 -0.05
v -0.25 0.25 0.15
v -0.25 0.25 0.05
v -0.25 0.25 -0.05
v -0.25 0.25 -0.15
v 0.15 0.15 0.15
v 0.15 0.15 0.05
v 0.15 0.15 -0.05
v 0.15 0.15 -0.15
v 0.15 0.25 0.15
v 0.15 0.25 0.05
v 0.15 0.25 -0.05
v 0.15 0.25 -0.15
v 0.25 -0.75 0.15
v 0.25 -0.75 0.05
v 0.25 -0.75 -0.05
v 0.25 -0.75 -0.15
v 0.25 -0.65 0.15
v 0.25 -0.65 0.05
v 0.25 -0.65 -0.05
v 0.25 -0.65 -0.15
v 0.25 0.05 0.15
v 0.25 0.05 0.05
v 0.25 0.05 -0.05
v 0.25 0.05 -0.15
v 0.25 0.15 0.15
v 0.25 0.15 0.05
v 0.25 0.15 -0.05
v 0.25 0.15 -0.15
v 0.25 0.25 0.05
v 0.25 0.25 -0.05
v 0.35 -0.75 0.05
v 0.35 -0.75 -0.05
v 0.35 -0.65 0.15
v 0.35 -0.65 0.05
v 0.35 -0.65 -0.05
v 0.35 -0.65 -0.15
v 0.35 -0.05 0.05
v 0.35 -0.05 -0.05
v 0.35 0.05 0.15
v 0.35 0.05 0.05
v 0.35 0.05 -0.05
v 0.35 0.05 -0.15
v 0.45 -0.05 0.05
v 0.45 -0.05 -0.05
v 0.45 0.05 0.05
v 0.45 0.05 -0.05
v 0.55 0.05 0.05
v 0.55 0.05 -0.05
v 0.55 0.15 0.05
v 0.55 0.15 -0.05
v -0.45 -0.65 0.15
v -0.45 0.15 0.15
v -0.35 -0.75 0.15
v -0.35 -0.65 0.15
v -0.35 -0.55 0.15
v -0.35 -0.15 0.15
v -0.35 -0.05 0.15
v -0.35 0.15 0.15
v -0.35 0.25 0.15
v -0.25 -0.65 0.15
v -0.25 -0.55 0.15
v -0.25 -0.45 0.15
v -0.25 -0.25 0.15
v -0.25 -0.15 0.15
v -0.25 -0.05 0.15
v -0.25 0.05 0.15
v -0.25 0.25 0.15
v -0.15 -0.55 0.15
v -0.15 -0.45 0.15
v -0.15 -0.25 0.15
v -0.15 -0.15 0.15
v 0.05 -0.55 0.15
v 0.05 -0.45 0.15
v 0.05 -0.25 0.15
v 0.05 -0.15 0.15
v 0.05 0.05 0.15
v 0.05 0.25 0.15
v 0.15 -0.65 0.15
v 0.15 -0.55 0.15
v 0.15 -0.45 0.15
v 0.15 -0.25 0.15
v 0.15 -0.15 0.15
v 0.15 -0.05 0.15
v 0.15 0.15 0.15
v 0.15 0.25 0.15
v 0.25 -0.75 0.15
v 0.25 -0.65 0.15
v 0.25 -0.55 0.15
v 0.25 -0.15 0.15
v 0.25 -0.05 0.15
v 0.25 0.05 0.15
v 0.25 0.15 0.15
v 0.35 -0.65 0.15
v 0.35 0.05 0.15
v -0.45 -0.75 0.05
v -0.45 -0.65 0.05
v -0.45 0.15 0.05
v -0.45 0.25 0.05
v -0.35 -0.75 0.05
v -0.35 -0.65 0.05
v -0.35 0.15 0.05
v -0.35 0.25 0.05
v -0.25 0.15 0.05
v -0.25 0.25 0.05
v 0.05 0.15 0.05
v 0.05 0.25 0.05
v 0.15 0.15 0.05
v 0.15 0.25 0.05
v 0.25 -0.75 0.05
v 0.25 -0.65 0.05
v 0.25 0.05 0.05
v 0.25 0.15 0.05
v 0.25 0.25 0.05
v 0.35 -0.75 0.05
v 0.35 -0.65 0.05
v 0.35 -0.05 0.05
v 0.35 0.05 0.05
v 0.45 -0.05 0.05
v 0.45 0.05 0.05
v 0.55 0.05 0.05
v 0.55 0.15 0.05
v -0.25 -0.05 -0.05
v -0.25 0.05 -0.05
v 0.05 -0.05 -0.05
v 0.05 0.05 -0.05
v -0.25 -0.05 0.05
v -0.25 0.05 0.05
v 0.05 -0.05 0.05
v 0.05 0.05 0.05
v -0.45 -0.75 -0.05
v -0.45 -0.65 -0.05
v -0.45 0.15 -0.05
v -0.45 0.25 -0.05
v -0.35 -0.75 -0.05
v -0.35 -0.65 -0.05
v -0.35 0.15 -0.05
v -0.35 0.25 -0.05
v -0.25 0.15 -0.05
v -0.25 0.25 -0.05
v 0.05 0.15 -0.05
v 0.05 0.25 -0.05
v 0.15 0.15 -0.05
v 0.15 0.25 -0.05
v 0.25 -0.75 -0.05
v 0.25 -0.65 -0.05
v 0.25 0.05 -0.05
v 0.25 0.15 -0.05
v 0.25 0.25 -0.05
v 0.35 -0.75 -0.05
v 0.35 -0.65 -0.05
v 0.35 -0.05 -0.05
v 0.35 0.05 -0.05
v 0.45 -0.05 -0.05
v 0.45 0.05 -0.05
v 0.55 0.05 -0.05
v 0.55 0.15 -0.05
v -0.45 -0.65 -0.15
v -0.45 0.15 -0.15
v -0.35 -0.75 -0.15
v -0.35 -0.65 -0.15
v -0.35 -0.55 -0.15
v -0.35 -0.15 -0.15
v -0.35 -0.05 -0.15
v -0.35 0.15 -0.15
v -0.35 0.25 -0.15
v -0.25 -0.65 -0.15
v -0.25 -0.55 -0.15
v -0.25 -0.45 -0.15
v -0.25 -0.25 -0.15
v -0.25 -0.15 -0.15
v -0.25 -0.05 -0.15
v -0.25 0.05 -0.15
v -0.25 0.25 -0.15
v -0.15 -0.55 -0.15
v -0.15 -0.45 -0.15
v -0.15 -0.25 -0.15
v -0.15 -0.15 -0.15
v 0.05 -0.55 -0.15
v 0.05 -0.45 -0.15
v 0.05 -0.25 -0.15
v 0.05 -0.15 -0.15
v 0.05 0.05 -0.15
v 0.05 0.25 -0.15
v 0.15 -0.65 -0.15
v 0.15 -0.55 -0.15
v 0.15 -0.45 -0.15
v 0.15 -0.25 -0.15
v 0.15 -0.15 -0.15
v 0.15 -0.05 -0.15
v 0.15 0.15 -0.15
v 0.15 0.25 -0.15
v 0.25 -0.75 -0.15
v 0.25 -0.65 -0.15
v 0.25 -0.55 -0.15
v 0.25 -0.15 -0.15
v 0.25 -0.05 -0.15
v 0.25 0.05 -0.15
v 0.25 0.15 -0.15
v 0.35 -0.65 -0.15
v 0.35 0.05 -0.15
v -0.35 -0.75 0.15
v 0.25 -0.75 0.15
v -0.45 -0.75 0.05
v -0.35 -0.75 0.05
v 0.25 -0.75 0.05
v 0.35 -0.75 0.05
v -0.45 -0.75 -0.05
v -0.35 -0.75 -0.05
v 0.25 -0.75 -0.05
v 0.35 -0.75 -0.05
v -0.35 -0.75 -0.15
v 0.25 -0.75 -0.15
v -0.45 -0.65 0.15
v -0.35 -0.65 0.15
v 0.25 -0.65 0.15
v 0.35 -0.65 0.15
v -0.45 -0.65 0.05
v -0.35 -0.65 0.05
v 0.25 -0.65 0.05
v 0.35 -0.65 0.05
v -0.45 -0.65 -0.05
v -0.35 -0.65 -0.05
v 0.25 -0.65 -0.05
v 0.35 -0.65 -0.05
v -0.45 -0.65 -0.15
v -0.35 -0.65 -0.15
v 0.25 -0.65 -0.15
v 0.35 -0.65 -0.15
v 0.35 -0.05 0.05
v 0.45 -0.05 0.05
v 0.35 -0.05 -0.05
v 0.45 -0.05 -0.05
v 0.45 0.05 0.05
v 0.55 0.05 0.05
v 0.45 0.05 -0.05
v 0.55 0.05 -0.05
v -0.25 0.15 0.05
v 0.05 0.15 0.05
v -0.25 0.15 -0.05
v 0.05 0.15 -0.05
v -0.25 -0.05 0.05
v 0.05 -0.05 0.05
v -0.25 -0.05 -0.05
v 0.05 -0.05 -0.05
v -0.25 0.05 0.15
v 0.05 0.05 0.15
v 0.25 0.05 0.15
v 0.35 0.05 0.15
v -0.25 0.05 0.05
v 0.05 0.05 0.05
v 0.25 0.05 0.05
v 0.35 0.05 0.05
v -0.25 0.05 -0.05
v 0.05 0.05 -0.05
v 0.25 0.05 -0.05
v 0.35 0.05 -0.05
v -0.25 0.05 -0.15
v 0.05 0.05 -0.15
v 0.25 0.05 -0.15
v 0.35 0.05 -0.15
v -0.45 0.15 0.15
v -0.35 0.15 0.15
v 0.15 0.15 0.15
v 0.25 0.15 0.15
v -0.45 0.15 0.05
v -0.35 0.15 0.05
v 0.15 0.15 0.05
v 0.25 0.15 0.05
v 0.55 0.15 0.05
v -0.45 0.15 -0.05
v -0.35 0.15 -0.05
v 0.15 0.15 -0.05
v 0.25 0.15 -0.05
v 0.55 0.15 -0.05
v -0.45 0.15 -0.15
v -0.35 0.15 -0.15
v 0.15 0.15 -0.15
v 0.25 0.15 -0.15
v -0.35 0.25 0.15
v -0.25 0.25 0.15
v 0.05 0.25 0.15
v 0.15 0.25 0.15
v -0.45 0.25 0.05
v -0.35 0.25 0.05
v -0.25 0.25 0.05
v 0.05 0.25 0.05
v 0.15 0.25 0.05
v 0.25 0.25 0.05
v -0.45 0.25 -0.05
v -0.35 0.25 -0.05
v -0.25 0.25 -0.05
v 0.05 0.25 -0.05
v 0.15 0.25 -0.05
v 0.25 0.25 -0.05
v -0.35 0.25 -0.15
v -0.25 0.25 -0.15
v 0.05 0.25 -0.15
v 0.15 0.25 -0.15

# faces
f 4/2/1 2/2/1 1/2/1
f 5/2/1 2/2/1 4/2/1
f 7/2/1 4/2/1 3/2/1
f 7/2/1 6/2/1 5/2/1
f 7/2/1 5/2/1 4/2/1
f 8/2/1 6/2/1 7/2/1
f 9/2/1 6/2/1 8/2/1
f 10/2/1 6/2/1 9/2/1
f 11/2/1 9/2/1 8/2/1
f 12/2/1 9/2/1 11/2/1
f 17/2/1 14/2/1 13/2/1
f 18/2/1 14/2/1 17/2/1
f 19/2/1 16/2/1 15/2/1
f 20/2/1 16/2/1 19/2/1
f 25/2/1 22/2/1 21/2/1
f 26/2/1 22/2/1 25/2/1
f 27/2/1 24/2/1 23/2/1
f 28/2/1 24/2/1 27/2/1
f 32/2/1 30/2/1 29/2/1
f 33/2/1 30/2/1 32/2/1
f 35/2/1 32/2/1 31/2/1
f 35/2/1 34/2/1 33/2/1
f 35/2/1 33/2/1 32/2/1
f 36/2/1 34/2/1 35/2/1
f 37/2/1 35/2/1 31/2/1
f 38/2/1 35/2/1 37/2/1
f 39/2/1 34/2/1 36/2/1
f 40/2/1 34/2/1 39/2/1
f 41/2/2 42/2/2 44/2/2
f 44/2/2 42/2/2 45/2/2
f 43/2/2 44/2/2 47/2/2
f 45/2/2 46/2/2 47/2/2
f 44/2/2 45/2/2 47/2/2
f 47/2/2 46/2/2 48/2/2
f 43/2/2 47/2/2 49/2/2
f 49/2/2 47/2/2 50/2/2
f 48/2/2 46/2/2 51/2/2
f 51/2/2 46/2/2 52/2/2
f 53/2/2 54/2/2 57/2/2
f 57/2/2 54/2/2 58/2/2
f 55/2/2 56/2/2 59/2/2
f 59/2/2 56/2/2 60/2/2
f 61/2/2 62/2/2 65/2/2
f 65/2/2 62/2/2 66/2/2
f 63/2/2 64/2/2 67/2/2
f 67/2/2 64/2/2 68/2/2
f 69/2/2 70/2/2 73/2/2
f 73/2/2 70/2/2 74/2/2
f 71/2/2 72/2/2 75/2/2
f 75/2/2 72/2/2 76/2/2
f 74/2/2 75/2/2 77/2/2
f 77/2/2 75/2/2 78/2/2
f 79/2/2 80/2/2 82/2/2
f 82/2/2 80/2/2 83/2/2
f 81/2/2 82/2/2 85/2/2
f 83/2/2 84/2/2 85/2/2
f 82/2/2 83/2/2 85/2/2
f 85/2/2 84/2/2 86/2/2
f 81/2/2 85/2/2 87/2/2
f 87/2/2 85/2/2 88/2/2
f 86/2/2 84/2/2 89/2/2
f 89/2/2 84/2/2 90/2/2
f 91/1/2 92/1/2 93/1/2
f 93/1/2 92/1/2 94/1/2
f 95/1/2 96/1/2 97/1/2
f 97/1/2 96/1/2 98/1/2
f 102/2/3 100/2/3 99/2/3
f 103/2/3 100/2/3 102/2/3
f 104/2/3 100/2/3 103/2/3
f 105/2/3 100/2/3 104/2/3
f 106/2/3 100/2/3 105/2/3
f 108/2/3 102/2/3 101/2/3
f 108/3/3 103/3/3 102/3/3
f 109/2/3 104/2/3 103/2/3
f 109/3/3 103/3/3 108/3/3
f 110/2/3 104/2/3 109/2/3
f 111/2/3 104/2/3 110/2/3
f 112/3/3 105/3/3 104/3/3
f 112/2/3 104/2/3 111/2/3
f 113/2/3 107/2/3 106/2/3
f 113/3/3 105/3/3 112/3/3
f 113/2/3 106/2/3 105/2/3
f 114/2/3 107/2/3 113/2/3
f 115/2/3 107/2/3 114/2/3
f 116/3/3 110/3/3 109/3/3
f 116/2/3 109/2/3 108/2/3
f 117/2/3 111/2/3 110/2/3
f 117/3/3 110/3/3 116/3/3
f 118/3/3 112/3/3 111/3/3
f 118/2/3 111/2/3 117/2/3
f 119/2/3 114/2/3 113/2/3
f 119/3/3 112/3/3 118/3/3
f 119/2/3 113/2/3 112/2/3
f 120/2/3 117/2/3 116/2/3
f 120/2/3 116/2/3 108/2/3
f 121/3/3 118/3/3 117/3/3
f 121/2/3 117/2/3 120/2/3
f 122/2/3 119/2/3 118/2/3
f 122/3/3 118/3/3 121/3/3
f 123/2/3 114/2/3 119/2/3
f 123/2/3 119/2/3 122/2/3
f 124/2/3 114/2/3 123/2/3
f 126/2/3 108/2/3 101/2/3
f 126/2/3 120/2/3 108/2/3
f 127/3/3 121/3/3 120/3/3
f 127/2/3 120/2/3 126/2/3
f 128/2/3 122/2/3 121/2/3
f 128/3/3 121/3/3 127/3/3
f 129/3/3 123/3/3 122/3/3
f 129/2/3 122/2/3 128/2/3
f 130/2/3 125/2/3 124/2/3
f 130/3/3 123/3/3 129/3/3
f 130/2/3 124/2/3 123/2/3
f 131/2/3 125/2/3 130/2/3
f 132/2/3 125/2/3 131/2/3
f 133/2/3 125/2/3 132/2/3
f 134/2/3 126/2/3 101/2/3
f 135/3/3 127/3/3 126/3/3
f 135/2/3 126/2/3 134/2/3
f 136/2/3 129/2/3 128/2/3
f 136/3/3 127/3/3 135/3/3
f 136/2/3 128/2/3 127/2/3
f 136/2/3 130/2/3 129/2/3
f 137/3/3 131/3/3 130/3/3
f 137/2/3 130/2/3 136/2/3
f 138/2/3 132/2/3 131/2/3
f 138/3/3 131/3/3 137/3/3
f 139/2/3 132/2/3 138/2/3
f 140/2/3 132/2/3 139/2/3
f 141/2/3 137/2/3 136/2/3
f 141/2/3 139/2/3 138/2/3
f 141/2/3 138/2/3 137/2/3
f 141/2/3 136/2/3 135/2/3
f 142/2/3 139/2/3 141/2/3
f 147/2/3 144/2/3 143/2/3
f 148/2/3 144/2/3 147/2/3
f 149/2/3 146/2/3 145/2/3
f 150/2/3 146/2/3 149/2/3
f 153/2/3 152/2/3 151/2/3
f 154/2/3 152/2/3 153/2/3
f 160/2/3 156/2/3 155/2/3
f 161/2/3 156/2/3 160/2/3
f 162/2/3 158/2/3 157/2/3
f 163/2/3 158/2/3 162/2/3
f 165/1/3 160/1/3 159/1/3
f 166/1/3 165/1/3 164/1/3
f 167/1/3 160/1/3 165/1/3
f 167/1/3 165/1/3 166/1/3
f 168/1/3 160/1/3 167/1/3
f 169/1/3 160/1/3 168/1/3
f 172/2/3 171/2/3 170/2/3
f 173/2/3 171/2/3 172/2/3
f 174/2/4 175/2/4 176/2/4
f 176/2/4 175/2/4 177/2/4
f 178/2/4 179/2/4 182/2/4
f 182/2/4 179/2/4 183/2/4
f 180/2/4 181/2/4 184/2/4
f 184/2/4 181/2/4 185/2/4
f 186/2/4 187/2/4 188/2/4
f 188/2/4 187/2/4 189/2/4
f 190/2/4 191/2/4 195/2/4
f 195/2/4 191/2/4 196/2/4
f 192/2/4 193/2/4 197/2/4
f 197/2/4 193/2/4 198/2/4
f 194/1/4 195/1/4 200/1/4
f 199/1/4 200/1/4 201/1/4
f 200/1/4 195/1/4 202/1/4
f 201/1/4 200/1/4 202/1/4
f 202/1/4 195/1/4 203/1/4
f 203/1/4 195/1/4 204/1/4
f 205/2/4 206/2/4 208/2/4
f 208/2/4 206/2/4 209/2/4
f 209/2/4 206/2/4 210/2/4
f 210/2/4 206/2/4 211/2/4
f 211/2/4 206/2/4 212/2/4
f 207/2/4 208/2/4 214/2/4
f 208/3/4 209/3/4 214/3/4
f 209/2/4 210/2/4 215/2/4
f 214/3/4 209/3/4 215/3/4
f 215/2/4 210/2/4 216/2/4
f 216/2/4 210/2/4 217/2/4
f 210/3/4 211/3/4 218/3/4
f 217/2/4 210/2/4 218/2/4
f 212/2/4 213/2/4 219/2/4
f 218/3/4 211/3/4 219/3/4
f 211/2/4 212/2/4 219/2/4
f 219/2/4 213/2/4 220/2/4
f 220/2/4 213/2/4 221/2/4
f 215/3/4 216/3/4 222/3/4
f 214/2/4 215/2/4 222/2/4
f 216/2/4 217/2/4 223/2/4
f 222/3/4 216/3/4 223/3/4
f 217/3/4 218/3/4 224/3/4
f 223/2/4 217/2/4 224/2/4
f 219/2/4 220/2/4 225/2/4
f 224/3/4 218/3/4 225/3/4
f 218/2/4 219/2/4 225/2/4
f 222/2/4 223/2/4 226/2/4
f 214/2/4 222/2/4 226/2/4
f 223/3/4 224/3/4 227/3/4
f 226/2/4 223/2/4 227/2/4
f 224/2/4 225/2/4 228/2/4
f 227/3/4 224/3/4 228/3/4
f 225/2/4 220/2/4 229/2/4
f 228/2/4 225/2/4 229/2/4
f 229/2/4 220/2/4 230/2/4
f 207/2/4 214/2/4 232/2/4
f 214/2/4 226/2/4 232/2/4
f 226/3/4 227/3/4 233/3/4
f 232/2/4 226/2/4 233/2/4
f 227/2/4 228/2/4 234/2/4
f 233/3/4 227/3/4 234/3/4
f 228/3/4 229/3/4 235/3/4
f 234/2/4 228/2/4 235/2/4
f 230/2/4 231/2/4 236/2/4
f 235/3/4 229/3/4 236/3/4
f 229/2/4 230/2/4 236/2/4
f 236/2/4 231/2/4 237/2/4
f 237/2/4 231/2/4 238/2/4
f 238/2/4 231/2/4 239/2/4
f 207/2/4 232/2/4 240/2/4
f 232/3/4 233/3/4 241/3/4
f 240/2/4 232/2/4 241/2/4
f 234/2/4 235/2/4 242/2/4
f 241/3/4 233/3/4 242/3/4
f 233/2/4 234/2/4 242/2/4
f 235/2/4 236/2/4 242/2/4
f 236/3/4 237/3/4 243/3/4
f 242/2/4 236/2/4 243/2/4
f 237/2/4 238/2/4 244/2/4
f 243/3/4 237/3/4 244/3/4
f 244/2/4 238/2/4 245/2/4
f 245/2/4 238/2/4 246/2/4
f 242/2/4 243/2/4 247/2/4
f 244/2/4 245/2/4 247/2/4
f 243/2/4 244/2/4 247/2/4
f 241/2/4 242/2/4 247/2/4
f 247/2/4 245/2/4 248/2/4
f 252/2/5 250/2/5 249/2/5
f 253/2/5 250/2/5 252/2/5
f 255/2/5 252/2/5 251/2/5
f 255/2/5 254/2/5 253/2/5
f 255/2/5 253/2/5 252/2/5
f 256/2/5 254/2/5 255/2/5
f 257/2/5 254/2/5 256/2/5
f 258/2/5 254/2/5 257/2/5
f 259/2/5 257/2/5 256/2/5
f 260/2/5 257/2/5 259/2/5
f 265/2/5 262/2/5 261/2/5
f 266/2/5 262/2/5 265/2/5
f 267/2/5 264/2/5 263/2/5
f 268/2/5 264/2/5 267/2/5
f 273/2/5 270/2/5 269/2/5
f 274/2/5 270/2/5 273/2/5
f 275/2/5 272/2/5 271/2/5
f 276/2/5 272/2/5 275/2/5
f 279/1/5 278/1/5 277/1/5
f 280/1/5 278/1/5 279/1/5
f 283/1/5 282/1/5 281/1/5
f 284/1/5 282/1/5 283/1/5
f 287/2/5 286/2/5 285/2/5
f 288/2/5 286/2/5 287/2/5
f 289/2/6 290/2/6 291/2/6
f 291/2/6 290/2/6 292/2/6
f 293/2/6 294/2/6 297/2/6
f 297/2/6 294/2/6 298/2/6
f 295/2/6 296/2/6 299/2/6
f 299/2/6 296/2/6 300/2/6
f 301/2/6 302/2/6 305/2/6
f 305/2/6 302/2/6 306/2/6
f 303/2/6 304/2/6 307/2/6
f 307/2/6 304/2/6 308/2/6
f 309/2/6 310/2/6 313/2/6
f 313/2/6 310/2/6 314/2/6
f 311/2/6 312/2/6 315/2/6
f 315/2/6 312/2/6 316/2/6
f 316/1/6 317/1/6 321/1/6
f 321/1/6 317/1/6 322/1/6
f 318/2/6 319/2/6 323/2/6
f 323/2/6 319/2/6 324/2/6
f 320/2/6 321/2/6 325/2/6
f 325/2/6 321/2/6 326/2/6
f 327/2/6 328/2/6 332/2/6
f 332/2/6 328/2/6 333/2/6
f 329/2/6 330/2/6 334/2/6
f 334/2/6 330/2/6 335/2/6
f 332/2/6 333/2/6 337/2/6
f 335/2/6 336/2/6 337/2/6
f 334/2/6 335/2/6 337/2/6
f 333/2/6 334/2/6 337/2/6
f 331/2/6 332/2/6 337/2/6
f 337/2/6 336/2/6 338/2/6
f 338/2/6 336/2/6 339/2/6
f 339/2/6 336/2/6 340/2/6
f 340/2/6 336/2/6 341/2/6
f 341/2/6 336/2/6 342/2/6
f 338/2/6 339/2/6 343/2/6
f 343/2/6 339/2/6 344/2/6
f 340/2/6 341/2/6 345/2/6
f 345/2/6 341/2/6 346/2/6
