# MagicaVoxel @ Ephtracy

# group
o 

# material
mtllib TrafficLight0.mtl
usemtl palette

# normals
vn -1 0 0
vn 1 0 0
vn 0 0 1
vn 0 0 -1
vn 0 -1 0
vn 0 1 0

# texcoords
vt 0.00585938 0.5
vt 0.00976562 0.5
vt 0.0136719 0.5
vt 0.115234 0.5

# verts
v -0.2 1.3 -5.96046e-08
v -0.2 1.3 -0.1
v -0.2 1.9 -5.96046e-08
v -0.2 1.9 -0.1
v -0.2 2.3 0.0999999
v -0.2 2.3 -0.1
v -0.2 2.4 0.2
v -0.2 2.4 0.0999999
v -0.2 2.4 -0.1
v -0.2 2.4 -0.2
v -0.2 2.6 0.0999999
v -0.2 2.6 -0.1
v -0.2 2.7 0.0999999
v -0.2 2.7 -0.1
v -0.2 2.9 0.0999999
v -0.2 2.9 -0.1
v -0.2 3 0.0999999
v -0.2 3 -0.1
v -0.2 3.2 0.2
v -0.2 3.2 0.0999999
v -0.2 3.2 -0.1
v -0.2 3.2 -0.2
v -0.2 3.3 0.0999999
v -0.2 3.3 -0.1
v -0.0999999 0 0.2
v -0.0999999 0 -0.1
v -0.0999999 0.5 0.2
v -0.0999999 0.5 -0.1
v -0.0999999 1.2 -5.96046e-08
v -0.0999999 1.2 -0.1
v -0.0999999 1.3 -5.96046e-08
v -0.0999999 1.3 -0.1
v -0.0999999 1.9 -5.96046e-08
v -0.0999999 1.9 -0.1
v -0.0999999 2 -5.96046e-08
v -0.0999999 2 -0.1
v 5.96046e-08 0.5 0.0999999
v 5.96046e-08 0.5 -5.96046e-08
v 5.96046e-08 1.2 -5.96046e-08
v 5.96046e-08 1.3 -5.96046e-08
v 5.96046e-08 1.9 -5.96046e-08
v 5.96046e-08 2 -5.96046e-08
v 5.96046e-08 2.4 0.0999999
v 5.96046e-08 2.4 -5.96046e-08
v 0.1 2.1 -5.96046e-08
v 0.1 2.1 -0.1
v 0.1 2.2 -5.96046e-08
v 0.1 2.2 -0.1
v 0.2 0.5 0.0999999
v 0.2 0.5 -5.96046e-08
v 0.2 1.2 -5.96046e-08
v 0.2 1.3 0.0999999
v 0.2 1.3 -5.96046e-08
v 0.2 2.2 -5.96046e-08
v 0.2 2.2 -0.1
v 0.2 2.4 0.0999999
v 0.2 2.4 -5.96046e-08
v 0.2 2.4 -0.1
v 0.2 2.7 0.0999999
v 0.2 2.7 -5.96046e-08
v -0.0999999 2.3 0.0999999
v -0.0999999 2.3 -0.1
v -0.0999999 2.4 0.2
v -0.0999999 2.4 0.0999999
v -0.0999999 2.4 -0.1
v -0.0999999 2.4 -0.2
v -0.0999999 2.8 0.2
v -0.0999999 2.8 0.0999999
v -0.0999999 2.9 0.2
v -0.0999999 2.9 0.0999999
v -0.0999999 3.2 0.2
v -0.0999999 3.2 0.0999999
v -0.0999999 3.2 -0.1
v -0.0999999 3.2 -0.2
v -0.0999999 3.3 0.0999999
v -0.0999999 3.3 -0.1
v 5.96046e-08 2.4 -5.96046e-08
v 5.96046e-08 2.4 -0.1
v 5.96046e-08 2.8 -5.96046e-08
v 5.96046e-08 2.8 -0.1
v 5.96046e-08 2.9 -5.96046e-08
v 5.96046e-08 2.9 -0.1
v 5.96046e-08 3.1 0.0999999
v 5.96046e-08 3.1 -5.96046e-08
v 5.96046e-08 3.2 0.0999999
v 5.96046e-08 3.2 -0.1
v 0.1 0.5 0.0999999
v 0.1 0.5 -5.96046e-08
v 0.1 1.2 -5.96046e-08
v 0.1 1.3 0.0999999
v 0.1 1.3 -5.96046e-08
v 0.1 2.1 0.0999999
v 0.1 2.1 -5.96046e-08
v 0.1 2.2 -5.96046e-08
v 0.1 2.7 0.0999999
v 0.1 2.7 -5.96046e-08
v 0.1 2.8 0.2
v 0.1 2.8 0.0999999
v 0.1 2.8 -5.96046e-08
v 0.1 2.8 -0.1
v 0.1 2.9 0.2
v 0.1 2.9 0.0999999
v 0.1 2.9 -5.96046e-08
v 0.1 2.9 -0.1
v 0.1 3.1 0.0999999
v 0.1 3.1 -5.96046e-08
v 0.2 0 0.2
v 0.2 0 0.0999999
v 0.2 0 -5.96046e-08
v 0.2 0 -0.1
v 0.2 0.5 0.2
v 0.2 0.5 0.0999999
v 0.2 0.5 -5.96046e-08
v 0.2 0.5 -0.1
v 0.2 1.2 -5.96046e-08
v 0.2 1.2 -0.1
v 0.2 1.3 0.0999999
v 0.2 1.3 -5.96046e-08
v 0.2 1.3 -0.1
v 0.2 1.9 -5.96046e-08
v 0.2 1.9 -0.1
v 0.2 2 -5.96046e-08
v 0.2 2 -0.1
v 0.2 2.1 0.0999999
v 0.2 2.1 -5.96046e-08
v 0.2 2.1 -0.1
v 0.2 2.2 -5.96046e-08
v 0.2 2.2 -0.1
v 0.2 2.7 0.0999999
v 0.2 2.7 -5.96046e-08
v 0.2 2.8 0.0999999
v 0.2 2.8 -5.96046e-08
v 0.2 2.9 0.0999999
v 0.2 2.9 -5.96046e-08
v 0.3 0 0.0999999
v 0.3 0 -5.96046e-08
v 0.3 1.3 0.0999999
v 0.3 1.3 -5.96046e-08
v 0.3 1.3 -0.1
v 0.3 1.9 -5.96046e-08
v 0.3 1.9 -0.1
v 0.3 2.2 -5.96046e-08
v 0.3 2.2 -0.1
v 0.3 2.4 0.0999999
v 0.3 2.4 -5.96046e-08
v 0.3 2.4 -0.1
v 0.3 2.7 0.0999999
v 0.3 2.7 -5.96046e-08
v -0.2 2.4 0.2
v -0.2 3.2 0.2
v -0.0999999 0 0.2
v -0.0999999 0.5 0.2
v -0.0999999 2.4 0.2
v -0.0999999 2.8 0.2
v -0.0999999 2.9 0.2
v -0.0999999 3.2 0.2
v 0.1 2.8 0.2
v 0.1 2.9 0.2
v 0.2 0 0.2
v 0.2 0.5 0.2
v -0.2 2.3 0.0999999
v -0.2 2.4 0.0999999
v -0.2 3.2 0.0999999
v -0.2 3.3 0.0999999
v -0.0999999 2.3 0.0999999
v -0.0999999 2.4 0.0999999
v -0.0999999 2.8 0.0999999
v -0.0999999 2.9 0.0999999
v -0.0999999 3.2 0.0999999
v -0.0999999 3.3 0.0999999
v 5.96046e-08 0.5 0.0999999
v 5.96046e-08 2.4 0.0999999
v 5.96046e-08 2.8 0.0999999
v 5.96046e-08 2.9 0.0999999
v 5.96046e-08 3.1 0.0999999
v 5.96046e-08 3.2 0.0999999
v 0.1 0.5 0.0999999
v 0.1 1.3 0.0999999
v 0.1 2.1 0.0999999
v 0.1 2.7 0.0999999
v 0.1 2.8 0.0999999
v 0.1 2.9 0.0999999
v 0.1 3.1 0.0999999
v 0.2 0 0.0999999
v 0.2 0.5 0.0999999
v 0.2 1.3 0.0999999
v 0.2 2.1 0.0999999
v 0.2 2.4 0.0999999
v 0.2 2.7 0.0999999
v 0.2 2.8 0.0999999
v 0.2 2.9 0.0999999
v 0.3 0 0.0999999
v 0.3 1.3 0.0999999
v 0.3 2.4 0.0999999
v 0.3 2.7 0.0999999
v -0.2 1.3 -5.96046e-08
v -0.2 1.9 -5.96046e-08
v -0.0999999 1.2 -5.96046e-08
v -0.0999999 1.3 -5.96046e-08
v -0.0999999 1.9 -5.96046e-08
v -0.0999999 2 -5.96046e-08
v 5.96046e-08 1.2 -5.96046e-08
v 5.96046e-08 1.3 -5.96046e-08
v 5.96046e-08 1.9 -5.96046e-08
v 5.96046e-08 2 -5.96046e-08
v 0.1 1.2 -5.96046e-08
v 0.1 1.3 -5.96046e-08
v 0.1 2.1 -5.96046e-08
v 0.1 2.2 -5.96046e-08
v 0.2 1.2 -5.96046e-08
v 0.2 1.3 -5.96046e-08
v 0.2 1.9 -5.96046e-08
v 0.2 2.1 -5.96046e-08
v 0.2 2.2 -5.96046e-08
v 0.2 2.4 -5.96046e-08
v 0.3 1.3 -5.96046e-08
v 0.3 1.9 -5.96046e-08
v 0.3 2.2 -5.96046e-08
v 0.3 2.4 -5.96046e-08
v 5.96046e-08 0.5 -5.96046e-08
v 5.96046e-08 1.2 -5.96046e-08
v 5.96046e-08 2 -5.96046e-08
v 5.96046e-08 2.4 -5.96046e-08
v 5.96046e-08 2.8 -5.96046e-08
v 5.96046e-08 2.9 -5.96046e-08
v 5.96046e-08 3.1 -5.96046e-08
v 0.1 0.5 -5.96046e-08
v 0.1 1.2 -5.96046e-08
v 0.1 2.1 -5.96046e-08
v 0.1 2.2 -5.96046e-08
v 0.1 2.7 -5.96046e-08
v 0.1 2.8 -5.96046e-08
v 0.1 2.9 -5.96046e-08
v 0.1 3.1 -5.96046e-08
v 0.2 0 -5.96046e-08
v 0.2 0.5 -5.96046e-08
v 0.2 1.2 -5.96046e-08
v 0.2 1.3 -5.96046e-08
v 0.2 2 -5.96046e-08
v 0.2 2.1 -5.96046e-08
v 0.2 2.4 -5.96046e-08
v 0.2 2.7 -5.96046e-08
v 0.2 2.8 -5.96046e-08
v 0.2 2.9 -5.96046e-08
v 0.3 0 -5.96046e-08
v 0.3 1.3 -5.96046e-08
v 0.3 2.4 -5.96046e-08
v 0.3 2.7 -5.96046e-08
v -0.2 1.3 -0.1
v -0.2 1.9 -0.1
v -0.2 2.3 -0.1
v -0.2 2.4 -0.1
v -0.2 3.2 -0.1
v -0.2 3.3 -0.1
v -0.0999999 0 -0.1
v -0.0999999 0.5 -0.1
v -0.0999999 1.2 -0.1
v -0.0999999 1.3 -0.1
v -0.0999999 1.9 -0.1
v -0.0999999 2 -0.1
v -0.0999999 2.3 -0.1
v -0.0999999 2.4 -0.1
v -0.0999999 3.2 -0.1
v -0.0999999 3.3 -0.1
v 5.96046e-08 2.4 -0.1
v 5.96046e-08 2.8 -0.1
v 5.96046e-08 2.9 -0.1
v 5.96046e-08 3.2 -0.1
v 0.1 2.1 -0.1
v 0.1 2.2 -0.1
v 0.1 2.8 -0.1
v 0.1 2.9 -0.1
v 0.2 0 -0.1
v 0.2 0.5 -0.1
v 0.2 1.2 -0.1
v 0.2 1.3 -0.1
v 0.2 1.9 -0.1
v 0.2 2 -0.1
v 0.2 2.1 -0.1
v 0.2 2.2 -0.1
v 0.2 2.4 -0.1
v 0.3 1.3 -0.1
v 0.3 1.9 -0.1
v 0.3 2.2 -0.1
v 0.3 2.4 -0.1
v -0.2 2.4 -0.2
v -0.2 3.2 -0.2
v -0.0999999 2.4 -0.2
v -0.0999999 3.2 -0.2
v -0.0999999 0 0.2
v 0.2 0 0.2
v 0.2 0 0.0999999
v 0.3 0 0.0999999
v 0.2 0 -5.96046e-08
v 0.3 0 -5.96046e-08
v -0.0999999 0 -0.1
v 0.2 0 -0.1
v -0.0999999 1.2 -5.96046e-08
v 5.96046e-08 1.2 -5.96046e-08
v 0.1 1.2 -5.96046e-08
v 0.2 1.2 -5.96046e-08
v -0.0999999 1.2 -0.1
v 0.2 1.2 -0.1
v 0.1 1.3 0.0999999
v 0.2 1.3 0.0999999
v -0.2 1.3 -5.96046e-08
v -0.0999999 1.3 -5.96046e-08
v 0.1 1.3 -5.96046e-08
v 0.2 1.3 -5.96046e-08
v 0.3 1.3 -5.96046e-08
v -0.2 1.3 -0.1
v -0.0999999 1.3 -0.1
v 0.2 1.3 -0.1
v 0.3 1.3 -0.1
v 0.1 2.1 -5.96046e-08
v 0.2 2.1 -5.96046e-08
v 0.1 2.1 -0.1
v 0.2 2.1 -0.1
v 0.2 2.2 -5.96046e-08
v 0.3 2.2 -5.96046e-08
v 0.2 2.2 -0.1
v 0.3 2.2 -0.1
v -0.2 2.3 0.0999999
v -0.0999999 2.3 0.0999999
v -0.2 2.3 -0.1
v -0.0999999 2.3 -0.1
v -0.2 2.4 0.2
v -0.0999999 2.4 0.2
v -0.2 2.4 0.0999999
v -0.0999999 2.4 0.0999999
v 5.96046e-08 2.4 0.0999999
v 0.2 2.4 0.0999999
v 0.3 2.4 0.0999999
v 5.96046e-08 2.4 -5.96046e-08
v 0.2 2.4 -5.96046e-08
v 0.3 2.4 -5.96046e-08
v -0.2 2.4 -0.1
v -0.0999999 2.4 -0.1
v 5.96046e-08 2.4 -0.1
v -0.2 2.4 -0.2
v -0.0999999 2.4 -0.2
v 0.1 2.7 0.0999999
v 0.2 2.7 0.0999999
v 0.1 2.7 -5.96046e-08
v 0.2 2.7 -5.96046e-08
v -0.0999999 2.8 0.2
v 0.1 2.8 0.2
v -0.0999999 2.8 0.0999999
v 5.96046e-08 2.8 0.0999999
v 0.1 2.8 0.0999999
v 5.96046e-08 2.8 -5.96046e-08
v 0.1 2.8 -5.96046e-08
v 5.96046e-08 2.8 -0.1
v 0.1 2.8 -0.1
v -0.0999999 0.5 0.2
v 0.2 0.5 0.2
v 5.96046e-08 0.5 0.0999999
v 0.1 0.5 0.0999999
v 0.2 0.5 0.0999999
v 5.96046e-08 0.5 -5.96046e-08
v 0.1 0.5 -5.96046e-08
v 0.2 0.5 -5.96046e-08
v -0.0999999 0.5 -0.1
v 0.2 0.5 -0.1
v 0.2 1.3 0.0999999
v 0.3 1.3 0.0999999
v 0.2 1.3 -5.96046e-08
v 0.3 1.3 -5.96046e-08
v -0.2 1.9 -5.96046e-08
v -0.0999999 1.9 -5.96046e-08
v 0.2 1.9 -5.96046e-08
v 0.3 1.9 -5.96046e-08
v -0.2 1.9 -0.1
v -0.0999999 1.9 -0.1
v 0.2 1.9 -0.1
v 0.3 1.9 -0.1
v -0.0999999 2 -5.96046e-08
v 5.96046e-08 2 -5.96046e-08
v 0.2 2 -5.96046e-08
v -0.0999999 2 -0.1
v 0.2 2 -0.1
v 0.1 2.1 0.0999999
v 0.2 2.1 0.0999999
v 0.1 2.1 -5.96046e-08
v 0.2 2.1 -5.96046e-08
v 0.1 2.2 -5.96046e-08
v 0.2 2.2 -5.96046e-08
v 0.1 2.2 -0.1
v 0.2 2.2 -0.1
v 0.2 2.4 -5.96046e-08
v 0.3 2.4 -5.96046e-08
v 0.2 2.4 -0.1
v 0.3 2.4 -0.1
v 0.2 2.7 0.0999999
v 0.3 2.7 0.0999999
v 0.2 2.7 -5.96046e-08
v 0.3 2.7 -5.96046e-08
v -0.0999999 2.9 0.2
v 0.1 2.9 0.2
v -0.0999999 2.9 0.0999999
v 5.96046e-08 2.9 0.0999999
v 0.1 2.9 0.0999999
v 0.2 2.9 0.0999999
v 5.96046e-08 2.9 -5.96046e-08
v 0.1 2.9 -5.96046e-08
v 0.2 2.9 -5.96046e-08
v 5.96046e-08 2.9 -0.1
v 0.1 2.9 -0.1
v 5.96046e-08 3.1 0.0999999
v 0.1 3.1 0.0999999
v 5.96046e-08 3.1 -5.96046e-08
v 0.1 3.1 -5.96046e-08
v -0.2 3.2 0.2
v -0.0999999 3.2 0.2
v -0.2 3.2 0.0999999
v -0.0999999 3.2 0.0999999
v 5.96046e-08 3.2 0.0999999
v -0.2 3.2 -0.1
v -0.0999999 3.2 -0.1
v 5.96046e-08 3.2 -0.1
v -0.2 3.2 -0.2
v -0.0999999 3.2 -0.2
v -0.2 3.3 0.0999999
v -0.0999999 3.3 0.0999999
v -0.2 3.3 -0.1
v -0.0999999 3.3 -0.1

# faces
f 3/3/1 2/3/1 1/3/1
f 4/3/1 2/3/1 3/3/1
f 8/4/1 6/4/1 5/4/1
f 9/4/1 6/4/1 8/4/1
f 11/1/1 9/1/1 8/1/1
f 11/4/1 8/4/1 7/4/1
f 12/4/1 10/4/1 9/4/1
f 12/1/1 9/1/1 11/1/1
f 13/4/1 11/4/1 7/4/1
f 13/3/1 12/3/1 11/3/1
f 14/4/1 10/4/1 12/4/1
f 14/3/1 12/3/1 13/3/1
f 15/4/1 13/4/1 7/4/1
f 15/1/1 14/1/1 13/1/1
f 16/4/1 10/4/1 14/4/1
f 16/1/1 14/1/1 15/1/1
f 17/4/1 15/4/1 7/4/1
f 17/3/1 16/3/1 15/3/1
f 18/4/1 10/4/1 16/4/1
f 18/3/1 16/3/1 17/3/1
f 19/4/1 17/4/1 7/4/1
f 20/1/1 18/1/1 17/1/1
f 20/4/1 17/4/1 19/4/1
f 21/4/1 10/4/1 18/4/1
f 21/1/1 18/1/1 20/1/1
f 22/4/1 10/4/1 21/4/1
f 23/4/1 21/4/1 20/4/1
f 24/4/1 21/4/1 23/4/1
f 27/2/1 26/2/1 25/2/1
f 28/2/1 26/2/1 27/2/1
f 31/3/1 30/3/1 29/3/1
f 32/3/1 30/3/1 31/3/1
f 35/3/1 34/3/1 33/3/1
f 36/3/1 34/3/1 35/3/1
f 39/2/1 38/2/1 37/2/1
f 40/2/1 39/2/1 37/2/1
f 41/2/1 40/2/1 37/2/1
f 42/2/1 41/2/1 37/2/1
f 43/2/1 42/2/1 37/2/1
f 44/2/1 42/2/1 43/2/1
f 47/2/1 46/2/1 45/2/1
f 48/2/1 46/2/1 47/2/1
f 51/2/1 50/2/1 49/2/1
f 52/2/1 51/2/1 49/2/1
f 53/2/1 51/2/1 52/2/1
f 57/2/1 55/2/1 54/2/1
f 58/2/1 55/2/1 57/2/1
f 59/2/1 57/2/1 56/2/1
f 60/2/1 57/2/1 59/2/1
f 61/4/2 62/4/2 64/4/2
f 64/4/2 62/4/2 65/4/2
f 63/4/2 64/4/2 67/4/2
f 67/4/2 64/4/2 68/4/2
f 69/4/2 70/4/2 71/4/2
f 71/4/2 70/4/2 72/4/2
f 65/4/2 66/4/2 73/4/2
f 73/4/2 66/4/2 74/4/2
f 72/4/2 73/4/2 75/4/2
f 75/4/2 73/4/2 76/4/2
f 77/4/2 78/4/2 79/4/2
f 79/4/2 78/4/2 80/4/2
f 81/4/2 82/4/2 84/4/2
f 83/4/2 84/4/2 85/4/2
f 84/4/2 82/4/2 86/4/2
f 85/4/2 84/4/2 86/4/2
f 87/2/2 88/2/2 89/2/2
f 87/2/2 89/2/2 90/2/2
f 90/2/2 89/2/2 91/2/2
f 92/2/2 93/2/2 94/2/2
f 92/2/2 94/2/2 95/2/2
f 95/2/2 94/2/2 96/2/2
f 97/4/2 98/4/2 101/4/2
f 101/4/2 98/4/2 102/4/2
f 99/4/2 100/4/2 103/4/2
f 103/4/2 100/4/2 104/4/2
f 102/2/2 103/2/2 105/2/2
f 105/2/2 103/2/2 106/2/2
f 107/2/2 108/2/2 111/2/2
f 111/2/2 108/2/2 112/2/2
f 109/2/2 110/2/2 113/2/2
f 113/2/2 110/2/2 114/2/2
f 115/3/2 116/3/2 118/3/2
f 118/3/2 116/3/2 119/3/2
f 117/2/2 118/2/2 120/2/2
f 117/2/2 120/2/2 122/2/2
f 120/3/2 121/3/2 122/3/2
f 122/3/2 121/3/2 123/3/2
f 117/2/2 122/2/2 124/2/2
f 124/2/2 122/2/2 125/2/2
f 125/2/2 126/2/2 127/2/2
f 127/2/2 126/2/2 128/2/2
f 129/2/2 130/2/2 131/2/2
f 131/2/2 130/2/2 132/2/2
f 131/4/2 132/4/2 133/4/2
f 133/4/2 132/4/2 134/4/2
f 135/2/2 136/2/2 137/2/2
f 137/2/2 136/2/2 138/2/2
f 138/3/2 139/3/2 140/3/2
f 140/3/2 139/3/2 141/3/2
f 142/2/2 143/2/2 145/2/2
f 145/2/2 143/2/2 146/2/2
f 144/2/2 145/2/2 147/2/2
f 147/2/2 145/2/2 148/2/2
f 153/4/3 150/4/3 149/4/3
f 154/4/3 150/4/3 153/4/3
f 155/4/3 150/4/3 154/4/3
f 156/4/3 150/4/3 155/4/3
f 157/4/3 155/4/3 154/4/3
f 158/4/3 155/4/3 157/4/3
f 159/2/3 152/2/3 151/2/3
f 160/2/3 152/2/3 159/2/3
f 165/4/3 162/4/3 161/4/3
f 166/4/3 162/4/3 165/4/3
f 169/4/3 164/4/3 163/4/3
f 170/4/3 164/4/3 169/4/3
f 172/4/3 167/4/3 166/4/3
f 173/4/3 167/4/3 172/4/3
f 174/4/3 169/4/3 168/4/3
f 175/4/3 169/4/3 174/4/3
f 176/4/3 169/4/3 175/4/3
f 177/2/3 173/2/3 172/2/3
f 177/2/3 172/2/3 171/2/3
f 178/2/3 173/2/3 177/2/3
f 179/2/3 173/2/3 178/2/3
f 180/2/3 173/2/3 179/2/3
f 181/2/3 173/2/3 180/2/3
f 182/2/3 175/2/3 174/2/3
f 183/2/3 175/2/3 182/2/3
f 186/2/3 179/2/3 178/2/3
f 187/2/3 179/2/3 186/2/3
f 189/2/3 181/2/3 180/2/3
f 190/4/3 182/4/3 181/4/3
f 190/2/3 181/2/3 189/2/3
f 191/4/3 182/4/3 190/4/3
f 192/2/3 185/2/3 184/2/3
f 192/2/3 186/2/3 185/2/3
f 193/2/3 186/2/3 192/2/3
f 194/2/3 189/2/3 188/2/3
f 195/2/3 189/2/3 194/2/3
f 199/3/3 197/3/3 196/3/3
f 200/3/3 197/3/3 199/3/3
f 202/3/3 199/3/3 198/3/3
f 203/1/3 200/1/3 199/1/3
f 203/3/3 199/3/3 202/3/3
f 204/3/3 201/3/3 200/3/3
f 204/1/3 200/1/3 203/1/3
f 205/3/3 201/3/3 204/3/3
f 210/3/3 207/3/3 206/3/3
f 211/3/3 207/3/3 210/3/3
f 213/2/3 209/2/3 208/2/3
f 214/2/3 209/2/3 213/2/3
f 216/3/3 212/3/3 211/3/3
f 217/3/3 212/3/3 216/3/3
f 218/2/3 215/2/3 214/2/3
f 219/2/3 215/2/3 218/2/3
f 220/2/4 221/2/4 227/2/4
f 227/2/4 221/2/4 228/2/4
f 222/2/4 223/2/4 229/2/4
f 223/2/4 224/2/4 229/2/4
f 229/2/4 224/2/4 230/2/4
f 230/2/4 224/2/4 231/2/4
f 231/2/4 224/2/4 232/2/4
f 225/2/4 226/2/4 233/2/4
f 233/2/4 226/2/4 234/2/4
f 222/2/4 229/2/4 239/2/4
f 239/2/4 229/2/4 240/2/4
f 231/2/4 232/2/4 242/2/4
f 232/4/4 233/4/4 243/4/4
f 242/2/4 232/2/4 243/2/4
f 243/4/4 233/4/4 244/4/4
f 237/2/4 238/2/4 245/2/4
f 235/2/4 236/2/4 245/2/4
f 236/2/4 237/2/4 245/2/4
f 245/2/4 238/2/4 246/2/4
f 241/2/4 242/2/4 247/2/4
f 247/2/4 242/2/4 248/2/4
f 249/3/4 250/3/4 258/3/4
f 258/3/4 250/3/4 259/3/4
f 251/4/4 252/4/4 261/4/4
f 261/4/4 252/4/4 262/4/4
f 253/4/4 254/4/4 263/4/4
f 263/4/4 254/4/4 264/4/4
f 262/4/4 263/4/4 265/4/4
f 265/4/4 263/4/4 266/4/4
f 266/4/4 263/4/4 267/4/4
f 267/4/4 263/4/4 268/4/4
f 266/4/4 267/4/4 271/4/4
f 271/4/4 267/4/4 272/4/4
f 255/2/4 256/2/4 273/2/4
f 273/2/4 256/2/4 274/2/4
f 257/3/4 258/3/4 275/3/4
f 258/1/4 259/1/4 276/1/4
f 275/3/4 258/3/4 276/3/4
f 259/3/4 260/3/4 277/3/4
f 276/1/4 259/1/4 277/1/4
f 277/3/4 260/3/4 278/3/4
f 269/2/4 270/2/4 279/2/4
f 279/2/4 270/2/4 280/2/4
f 276/3/4 277/3/4 282/3/4
f 282/3/4 277/3/4 283/3/4
f 280/2/4 281/2/4 284/2/4
f 284/2/4 281/2/4 285/2/4
f 286/4/4 287/4/4 288/4/4
f 288/4/4 287/4/4 289/4/4
f 292/2/5 291/2/5 290/2/5
f 294/2/5 292/2/5 290/2/5
f 294/2/5 293/2/5 292/2/5
f 295/2/5 293/2/5 294/2/5
f 296/2/5 294/2/5 290/2/5
f 297/2/5 294/2/5 296/2/5
f 302/3/5 299/3/5 298/3/5
f 302/3/5 301/3/5 300/3/5
f 302/3/5 300/3/5 299/3/5
f 303/3/5 301/3/5 302/3/5
f 308/2/5 305/2/5 304/2/5
f 309/2/5 305/2/5 308/2/5
f 311/3/5 307/3/5 306/3/5
f 312/3/5 307/3/5 311/3/5
f 313/3/5 310/3/5 309/3/5
f 314/3/5 310/3/5 313/3/5
f 317/2/5 316/2/5 315/2/5
f 318/2/5 316/2/5 317/2/5
f 321/2/5 320/2/5 319/2/5
f 322/2/5 320/2/5 321/2/5
f 325/4/5 324/4/5 323/4/5
f 326/4/5 324/4/5 325/4/5
f 329/4/5 328/4/5 327/4/5
f 330/4/5 328/4/5 329/4/5
f 334/4/5 331/4/5 330/4/5
f 335/2/5 333/2/5 332/2/5
f 336/2/5 333/2/5 335/2/5
f 338/4/5 334/4/5 330/4/5
f 339/4/5 334/4/5 338/4/5
f 340/4/5 338/4/5 337/4/5
f 341/4/5 338/4/5 340/4/5
f 344/2/5 343/2/5 342/2/5
f 345/2/5 343/2/5 344/2/5
f 348/4/5 347/4/5 346/4/5
f 349/4/5 347/4/5 348/4/5
f 350/4/5 347/4/5 349/4/5
f 353/4/5 352/4/5 351/4/5
f 354/4/5 352/4/5 353/4/5
f 355/2/6 356/2/6 357/2/6
f 357/2/6 356/2/6 358/2/6
f 358/2/6 356/2/6 359/2/6
f 355/2/6 357/2/6 360/2/6
f 358/2/6 359/2/6 361/2/6
f 361/2/6 359/2/6 362/2/6
f 355/2/6 360/2/6 363/2/6
f 360/2/6 361/2/6 363/2/6
f 361/2/6 362/2/6 363/2/6
f 363/2/6 362/2/6 364/2/6
f 365/2/6 366/2/6 367/2/6
f 367/2/6 366/2/6 368/2/6
f 369/3/6 370/3/6 373/3/6
f 373/3/6 370/3/6 374/3/6
f 371/3/6 372/3/6 375/3/6
f 375/3/6 372/3/6 376/3/6
f 377/3/6 378/3/6 380/3/6
f 378/3/6 379/3/6 380/3/6
f 380/3/6 379/3/6 381/3/6
f 382/2/6 383/2/6 384/2/6
f 384/2/6 383/2/6 385/2/6
f 386/2/6 387/2/6 388/2/6
f 388/2/6 387/2/6 389/2/6
f 390/2/6 391/2/6 392/2/6
f 392/2/6 391/2/6 393/2/6
f 394/2/6 395/2/6 396/2/6
f 396/2/6 395/2/6 397/2/6
f 398/4/6 399/4/6 400/4/6
f 400/4/6 399/4/6 401/4/6
f 401/4/6 399/4/6 402/4/6
f 402/4/6 403/4/6 405/4/6
f 405/4/6 403/4/6 406/4/6
f 404/4/6 405/4/6 407/4/6
f 407/4/6 405/4/6 408/4/6
f 409/2/6 410/2/6 411/2/6
f 411/2/6 410/2/6 412/2/6
f 413/4/6 414/4/6 415/4/6
f 415/4/6 414/4/6 416/4/6
f 416/4/6 417/4/6 419/4/6
f 419/4/6 417/4/6 420/4/6
f 418/4/6 419/4/6 421/4/6
f 421/4/6 419/4/6 422/4/6
f 423/4/6 424/4/6 425/4/6
f 425/4/6 424/4/6 426/4/6
