# MagicaVoxel @ Ephtracy

# group
o 

# material
mtllib LabCarParkPillar.mtl
usemtl palette

# normals
vn -1 0 0
vn 1 0 0
vn 0 0 1
vn 0 0 -1
vn 0 -1 0
vn 0 1 0

# texcoords
vt 0.0175781 0.5
vt 0.0214844 0.5

# verts
v -0.5 -3 0.5
v -0.5 -3 -0.5
v -0.5 -2.8 0.5
v -0.5 -2.8 0.4
v -0.5 -2.8 -0.4
v -0.5 -2.8 -0.5
v -0.5 -2.7 0.4
v -0.5 -2.7 0.3
v -0.5 -2.6 -0.3
v -0.5 -2.6 -0.4
v -0.5 -2.5 0.3
v -0.5 -2.5 0
v -0.5 -2.4 0.3
v -0.5 -2.4 0.2
v -0.5 -2.4 -0.1
v -0.5 -2.4 -0.3
v -0.5 -2.2 0.3
v -0.5 -2.2 0.2
v -0.5 -2.2 0
v -0.5 -2.2 -0.1
v -0.5 2.2 0.1
v -0.5 2.2 0
v -0.5 2.2 -0.1
v -0.5 2.2 -0.2
v -0.5 2.3 0
v -0.5 2.3 -0.1
v -0.5 2.5 0.5
v -0.5 2.5 0.4
v -0.5 2.6 0.2
v -0.5 2.6 0.1
v -0.5 2.7 0.3
v -0.5 2.7 0.2
v -0.5 2.7 -0.2
v -0.5 2.7 -0.3
v -0.5 2.7 -0.4
v -0.5 2.7 -0.5
v -0.5 2.8 0.4
v -0.5 2.8 0.3
v -0.5 2.8 -0.3
v -0.5 2.8 -0.4
v -0.5 3 0.5
v -0.5 3 -0.5
v 0.5 -3 0.5
v 0.5 -3 -0.5
v 0.5 -2.7 0.5
v 0.5 -2.7 0.2
v 0.5 -2.7 -0.2
v 0.5 -2.7 -0.3
v 0.5 -2.6 0.2
v 0.5 -2.6 0.1
v 0.5 -2.6 -0.1
v 0.5 -2.6 -0.2
v 0.5 -2.6 -0.3
v 0.5 -2.6 -0.4
v 0.5 -2.5 0.1
v 0.5 -2.5 -0.1
v 0.5 -2.5 -0.4
v 0.5 -2.5 -0.5
v 0.5 2.3 0.5
v 0.5 2.3 0.4
v 0.5 2.3 -0.2
v 0.5 2.3 -0.3
v 0.5 2.4 0.1
v 0.5 2.4 0
v 0.5 2.4 -0.1
v 0.5 2.4 -0.2
v 0.5 2.5 0
v 0.5 2.5 -0.1
v 0.5 2.6 0.3
v 0.5 2.6 0.1
v 0.5 2.6 -0.3
v 0.5 2.6 -0.4
v 0.5 2.7 0.4
v 0.5 2.7 0.3
v 0.5 2.8 -0.4
v 0.5 2.8 -0.5
v 0.5 3 0.5
v 0.5 3 -0.5
v -0.5 -3 0.5
v -0.5 -2.8 0.5
v -0.5 2.5 0.5
v -0.5 3 0.5
v -0.4 -2.8 0.5
v -0.4 -2.6 0.5
v -0.4 2.5 0.5
v -0.4 2.7 0.5
v -0.3 2.6 0.5
v -0.3 2.7 0.5
v -0.2 -2.6 0.5
v -0.2 -2.5 0.5
v -0.2 2.6 0.5
v -0.2 2.8 0.5
v -0.1 2.2 0.5
v -0.1 2.8 0.5
v 0 -2.7 0.5
v 0 -2.5 0.5
v 0 2.2 0.5
v 0 2.3 0.5
v 0.1 2.1 0.5
v 0.1 2.2 0.5
v 0.1 2.3 0.5
v 0.1 2.5 0.5
v 0.2 2.1 0.5
v 0.2 2.2 0.5
v 0.2 2.5 0.5
v 0.3 2.2 0.5
v 0.3 2.5 0.5
v 0.4 2.3 0.5
v 0.4 2.5 0.5
v 0.5 -3 0.5
v 0.5 -2.7 0.5
v 0.5 2.3 0.5
v 0.5 3 0.5
v -0.5 -3 -0.5
v -0.5 -2.8 -0.5
v -0.5 2.7 -0.5
v -0.5 3 -0.5
v -0.4 -2.4 -0.5
v -0.4 -2.3 -0.5
v -0.4 2.6 -0.5
v -0.4 2.7 -0.5
v -0.3 -2.8 -0.5
v -0.3 -2.4 -0.5
v -0.3 -2.2 -0.5
v -0.3 -2 -0.5
v -0.3 2.4 -0.5
v -0.3 2.6 -0.5
v -0.2 -2.5 -0.5
v -0.2 -2.3 -0.5
v -0.2 -2.2 -0.5
v -0.2 -2 -0.5
v -0.2 2.4 -0.5
v -0.2 2.6 -0.5
v -0.1 -2.8 -0.5
v -0.1 -2.5 -0.5
v -0.1 2.2 -0.5
v -0.1 2.5 -0.5
v 0 2.2 -0.5
v 0 2.5 -0.5
v 0 2.6 -0.5
v 0 2.7 -0.5
v 0.1 2.7 -0.5
v 0.1 2.8 -0.5
v 0.2 -2.7 -0.5
v 0.2 -2.5 -0.5
v 0.3 -2.8 -0.5
v 0.3 -2.7 -0.5
v 0.3 -2.5 -0.5
v 0.3 -2.4 -0.5
v 0.3 2.4 -0.5
v 0.3 2.7 -0.5
v 0.4 -2.5 -0.5
v 0.4 -2.4 -0.5
v 0.4 2.4 -0.5
v 0.4 2.7 -0.5
v 0.5 -3 -0.5
v 0.5 -2.5 -0.5
v 0.5 2.8 -0.5
v 0.5 3 -0.5
v -0.5 -3 0.5
v 0.5 -3 0.5
v -0.4 -3 0.4
v 0.4 -3 0.4
v -0.4 -3 0.2
v 0.4 -3 0.2
v -0.4 -3 0.1
v 0.4 -3 0.1
v -0.4 -3 -0.1
v 0.4 -3 -0.1
v -0.4 -3 -0.2
v 0.4 -3 -0.2
v -0.4 -3 -0.4
v 0.4 -3 -0.4
v -0.5 -3 -0.5
v 0.5 -3 -0.5
v -0.5 3 0.5
v 0.5 3 0.5
v -0.5 3 -0.5
v 0.5 3 -0.5

# faces
f 3/1/1 2/1/1 1/1/1
f 4/1/1 2/1/1 3/1/1
f 5/1/1 2/1/1 4/1/1
f 6/1/1 2/1/1 5/1/1
f 7/2/1 4/2/1 3/2/1
f 7/1/1 5/1/1 4/1/1
f 8/1/1 5/1/1 7/1/1
f 9/1/1 5/1/1 8/1/1
f 10/2/1 6/2/1 5/2/1
f 10/1/1 5/1/1 9/1/1
f 11/1/1 9/1/1 8/1/1
f 11/2/1 8/2/1 7/2/1
f 12/1/1 9/1/1 11/1/1
f 13/2/1 11/2/1 7/2/1
f 13/2/1 12/2/1 11/2/1
f 14/2/1 12/2/1 13/2/1
f 15/1/1 9/1/1 12/1/1
f 16/2/1 10/2/1 9/2/1
f 16/1/1 9/1/1 15/1/1
f 17/2/1 13/2/1 7/2/1
f 17/1/1 14/1/1 13/1/1
f 18/2/1 12/2/1 14/2/1
f 18/1/1 14/1/1 17/1/1
f 19/1/1 15/1/1 12/1/1
f 19/2/1 12/2/1 18/2/1
f 20/2/1 16/2/1 15/2/1
f 20/1/1 15/1/1 19/1/1
f 21/2/1 18/2/1 17/2/1
f 21/2/1 19/2/1 18/2/1
f 21/2/1 20/2/1 19/2/1
f 22/2/1 20/2/1 21/2/1
f 23/2/1 16/2/1 20/2/1
f 23/2/1 20/2/1 22/2/1
f 24/2/1 16/2/1 23/2/1
f 25/1/1 22/1/1 21/1/1
f 25/2/1 23/2/1 22/2/1
f 26/1/1 24/1/1 23/1/1
f 26/2/1 23/2/1 25/2/1
f 27/2/1 7/2/1 3/2/1
f 27/2/1 17/2/1 7/2/1
f 27/2/1 21/2/1 17/2/1
f 28/2/1 21/2/1 27/2/1
f 29/2/1 21/2/1 28/2/1
f 30/1/1 26/1/1 25/1/1
f 30/2/1 21/2/1 29/2/1
f 30/1/1 25/1/1 21/1/1
f 31/2/1 29/2/1 28/2/1
f 32/1/1 30/1/1 29/1/1
f 32/2/1 29/2/1 31/2/1
f 33/1/1 24/1/1 26/1/1
f 33/1/1 30/1/1 32/1/1
f 33/2/1 16/2/1 24/2/1
f 33/1/1 26/1/1 30/1/1
f 34/2/1 10/2/1 16/2/1
f 34/2/1 16/2/1 33/2/1
f 35/2/1 6/2/1 10/2/1
f 35/2/1 10/2/1 34/2/1
f 36/2/1 6/2/1 35/2/1
f 37/2/1 31/2/1 28/2/1
f 37/1/1 28/1/1 27/1/1
f 38/1/1 34/1/1 33/1/1
f 38/2/1 31/2/1 37/2/1
f 38/1/1 32/1/1 31/1/1
f 38/1/1 33/1/1 32/1/1
f 39/2/1 35/2/1 34/2/1
f 39/1/1 34/1/1 38/1/1
f 40/1/1 36/1/1 35/1/1
f 40/2/1 35/2/1 39/2/1
f 41/1/1 37/1/1 27/1/1
f 41/1/1 38/1/1 37/1/1
f 41/1/1 40/1/1 39/1/1
f 41/1/1 39/1/1 38/1/1
f 42/1/1 36/1/1 40/1/1
f 42/1/1 40/1/1 41/1/1
f 43/1/2 44/1/2 45/1/2
f 45/1/2 44/1/2 46/1/2
f 46/1/2 44/1/2 47/1/2
f 47/1/2 44/1/2 48/1/2
f 45/2/2 46/2/2 49/2/2
f 46/1/2 47/1/2 49/1/2
f 49/1/2 47/1/2 50/1/2
f 50/1/2 47/1/2 51/1/2
f 47/2/2 48/2/2 52/2/2
f 51/1/2 47/1/2 52/1/2
f 48/1/2 44/1/2 53/1/2
f 52/2/2 48/2/2 53/2/2
f 53/1/2 44/1/2 54/1/2
f 50/1/2 51/1/2 55/1/2
f 49/2/2 50/2/2 55/2/2
f 51/2/2 52/2/2 56/2/2
f 55/1/2 51/1/2 56/1/2
f 53/2/2 54/2/2 56/2/2
f 52/2/2 53/2/2 56/2/2
f 54/1/2 44/1/2 57/1/2
f 56/2/2 54/2/2 57/2/2
f 57/1/2 44/1/2 58/1/2
f 49/2/2 55/2/2 59/2/2
f 55/2/2 56/2/2 59/2/2
f 57/2/2 58/2/2 59/2/2
f 56/2/2 57/2/2 59/2/2
f 45/2/2 49/2/2 59/2/2
f 59/2/2 58/2/2 60/2/2
f 60/2/2 58/2/2 61/2/2
f 61/2/2 58/2/2 62/2/2
f 60/2/2 61/2/2 63/2/2
f 63/2/2 61/2/2 64/2/2
f 64/2/2 61/2/2 65/2/2
f 61/1/2 62/1/2 66/1/2
f 65/2/2 61/2/2 66/2/2
f 64/2/2 65/2/2 67/2/2
f 63/1/2 64/1/2 67/1/2
f 65/1/2 66/1/2 68/1/2
f 67/2/2 65/2/2 68/2/2
f 60/2/2 63/2/2 69/2/2
f 63/1/2 67/1/2 70/1/2
f 69/2/2 63/2/2 70/2/2
f 67/1/2 68/1/2 70/1/2
f 62/2/2 58/2/2 71/2/2
f 70/1/2 68/1/2 71/1/2
f 66/1/2 62/1/2 71/1/2
f 68/1/2 66/1/2 71/1/2
f 71/2/2 58/2/2 72/2/2
f 59/1/2 60/1/2 73/1/2
f 60/2/2 69/2/2 73/2/2
f 69/1/2 70/1/2 74/1/2
f 73/2/2 69/2/2 74/2/2
f 71/1/2 72/1/2 74/1/2
f 70/1/2 71/1/2 74/1/2
f 72/2/2 58/2/2 75/2/2
f 74/1/2 72/1/2 75/1/2
f 73/1/2 74/1/2 75/1/2
f 75/2/2 58/2/2 76/2/2
f 59/1/2 73/1/2 77/1/2
f 73/1/2 75/1/2 77/1/2
f 75/1/2 76/1/2 77/1/2
f 77/1/2 76/1/2 78/1/2
f 83/1/3 80/1/3 79/1/3
f 83/2/3 81/2/3 80/2/3
f 84/2/3 81/2/3 83/2/3
f 85/1/3 82/1/3 81/1/3
f 85/2/3 81/2/3 84/2/3
f 86/1/3 82/1/3 85/1/3
f 87/2/3 85/2/3 84/2/3
f 87/2/3 86/2/3 85/2/3
f 88/1/3 82/1/3 86/1/3
f 88/2/3 86/2/3 87/2/3
f 89/1/3 84/1/3 83/1/3
f 89/2/3 87/2/3 84/2/3
f 90/2/3 87/2/3 89/2/3
f 91/1/3 88/1/3 87/1/3
f 91/2/3 87/2/3 90/2/3
f 92/1/3 82/1/3 88/1/3
f 92/1/3 88/1/3 91/1/3
f 93/2/3 91/2/3 90/2/3
f 93/2/3 92/2/3 91/2/3
f 94/1/3 82/1/3 92/1/3
f 94/2/3 92/2/3 93/2/3
f 95/1/3 90/1/3 89/1/3
f 95/1/3 89/1/3 83/1/3
f 96/2/3 93/2/3 90/2/3
f 96/1/3 90/1/3 95/1/3
f 97/1/3 94/1/3 93/1/3
f 97/2/3 93/2/3 96/2/3
f 98/1/3 94/1/3 97/1/3
f 99/2/3 96/2/3 95/2/3
f 99/2/3 97/2/3 96/2/3
f 99/2/3 98/2/3 97/2/3
f 100/2/3 98/2/3 99/2/3
f 101/1/3 94/1/3 98/1/3
f 101/2/3 98/2/3 100/2/3
f 102/1/3 94/1/3 101/1/3
f 103/1/3 100/1/3 99/1/3
f 103/2/3 99/2/3 95/2/3
f 104/2/3 102/2/3 101/2/3
f 104/1/3 100/1/3 103/1/3
f 104/2/3 101/2/3 100/2/3
f 105/1/3 94/1/3 102/1/3
f 105/2/3 102/2/3 104/2/3
f 106/2/3 104/2/3 103/2/3
f 106/1/3 105/1/3 104/1/3
f 107/1/3 94/1/3 105/1/3
f 107/1/3 105/1/3 106/1/3
f 108/2/3 107/2/3 106/2/3
f 109/1/3 94/1/3 107/1/3
f 109/2/3 107/2/3 108/2/3
f 110/1/3 95/1/3 83/1/3
f 110/1/3 83/1/3 79/1/3
f 111/2/3 106/2/3 103/2/3
f 111/1/3 95/1/3 110/1/3
f 111/2/3 103/2/3 95/2/3
f 111/2/3 108/2/3 106/2/3
f 112/1/3 109/1/3 108/1/3
f 112/2/3 108/2/3 111/2/3
f 113/1/3 94/1/3 109/1/3
f 113/1/3 109/1/3 112/1/3
f 113/1/3 82/1/3 94/1/3
f 115/2/4 116/2/4 118/2/4
f 118/2/4 116/2/4 119/2/4
f 119/2/4 116/2/4 120/2/4
f 116/1/4 117/1/4 121/1/4
f 120/2/4 116/2/4 121/2/4
f 114/1/4 115/1/4 122/1/4
f 115/2/4 118/2/4 122/2/4
f 118/1/4 119/1/4 123/1/4
f 122/2/4 118/2/4 123/2/4
f 119/2/4 120/2/4 124/2/4
f 124/2/4 120/2/4 125/2/4
f 125/2/4 120/2/4 126/2/4
f 120/1/4 121/1/4 127/1/4
f 126/2/4 120/2/4 127/2/4
f 122/1/4 123/1/4 128/1/4
f 123/1/4 119/1/4 129/1/4
f 128/1/4 123/1/4 129/1/4
f 119/2/4 124/2/4 129/2/4
f 124/1/4 125/1/4 130/1/4
f 129/2/4 124/2/4 130/2/4
f 125/2/4 126/2/4 131/2/4
f 130/1/4 125/1/4 131/1/4
f 126/1/4 127/1/4 132/1/4
f 131/2/4 126/2/4 132/2/4
f 127/1/4 121/1/4 133/1/4
f 132/1/4 127/1/4 133/1/4
f 122/1/4 128/1/4 134/1/4
f 114/1/4 122/1/4 134/1/4
f 129/2/4 130/2/4 135/2/4
f 134/1/4 128/1/4 135/1/4
f 132/2/4 133/2/4 135/2/4
f 128/2/4 129/2/4 135/2/4
f 130/2/4 131/2/4 135/2/4
f 131/2/4 132/2/4 135/2/4
f 135/2/4 133/2/4 136/2/4
f 136/2/4 133/2/4 137/2/4
f 134/2/4 135/2/4 138/2/4
f 135/2/4 136/2/4 138/2/4
f 136/1/4 137/1/4 138/1/4
f 137/2/4 133/2/4 139/2/4
f 138/1/4 137/1/4 139/1/4
f 133/1/4 121/1/4 140/1/4
f 139/2/4 133/2/4 140/2/4
f 121/1/4 117/1/4 141/1/4
f 140/1/4 121/1/4 141/1/4
f 139/2/4 140/2/4 142/2/4
f 141/1/4 117/1/4 142/1/4
f 140/2/4 141/2/4 142/2/4
f 138/2/4 139/2/4 142/2/4
f 142/1/4 117/1/4 143/1/4
f 134/2/4 138/2/4 144/2/4
f 138/2/4 142/2/4 144/2/4
f 142/2/4 143/2/4 144/2/4
f 144/2/4 143/2/4 145/2/4
f 114/1/4 134/1/4 146/1/4
f 134/2/4 144/2/4 146/2/4
f 144/1/4 145/1/4 147/1/4
f 146/2/4 144/2/4 147/2/4
f 145/2/4 143/2/4 148/2/4
f 147/1/4 145/1/4 148/1/4
f 148/2/4 143/2/4 149/2/4
f 149/2/4 143/2/4 150/2/4
f 150/2/4 143/2/4 151/2/4
f 146/1/4 147/1/4 152/1/4
f 147/1/4 148/1/4 152/1/4
f 148/1/4 149/1/4 152/1/4
f 149/2/4 150/2/4 153/2/4
f 152/1/4 149/1/4 153/1/4
f 150/1/4 151/1/4 154/1/4
f 153/2/4 150/2/4 154/2/4
f 151/2/4 143/2/4 155/2/4
f 154/1/4 151/1/4 155/1/4
f 114/1/4 146/1/4 156/1/4
f 146/1/4 152/1/4 156/1/4
f 153/2/4 154/2/4 157/2/4
f 156/1/4 152/1/4 157/1/4
f 152/2/4 153/2/4 157/2/4
f 154/2/4 155/2/4 157/2/4
f 143/1/4 117/1/4 158/1/4
f 157/2/4 155/2/4 158/2/4
f 155/2/4 143/2/4 158/2/4
f 158/1/4 117/1/4 159/1/4
f 162/1/5 161/1/5 160/1/5
f 163/1/5 161/1/5 162/1/5
f 164/1/5 162/1/5 160/1/5
f 164/2/5 163/2/5 162/2/5
f 165/1/5 161/1/5 163/1/5
f 165/2/5 163/2/5 164/2/5
f 166/1/5 164/1/5 160/1/5
f 166/1/5 165/1/5 164/1/5
f 167/1/5 161/1/5 165/1/5
f 167/1/5 165/1/5 166/1/5
f 168/1/5 166/1/5 160/1/5
f 168/2/5 167/2/5 166/2/5
f 169/1/5 161/1/5 167/1/5
f 169/2/5 167/2/5 168/2/5
f 170/1/5 168/1/5 160/1/5
f 170/1/5 169/1/5 168/1/5
f 171/1/5 161/1/5 169/1/5
f 171/1/5 169/1/5 170/1/5
f 172/1/5 170/1/5 160/1/5
f 172/2/5 171/2/5 170/2/5
f 173/1/5 161/1/5 171/1/5
f 173/2/5 171/2/5 172/2/5
f 174/1/5 172/1/5 160/1/5
f 174/1/5 173/1/5 172/1/5
f 175/1/5 161/1/5 173/1/5
f 175/1/5 173/1/5 174/1/5
f 176/1/6 177/1/6 178/1/6
f 178/1/6 177/1/6 179/1/6
