# MagicaVoxel @ Ephtracy

# group
o 

# material
mtllib LabLedgePanel.mtl
usemtl palette

# normals
vn -1 0 0
vn 1 0 0
vn 0 0 1
vn 0 0 -1
vn 0 -1 0
vn 0 1 0

# texcoords
vt 0.00585938 0.5
vt 0.00976562 0.5
vt 0.0292969 0.5
vt 0.0371094 0.5
vt 0.0410156 0.5
vt 0.0449219 0.5
vt 0.166016 0.5

# verts
v -2 -1.05 0.05
v -2 -1.05 -0.05
v -2 -0.95 0.15
v -2 -0.95 0.05
v -2 -0.95 -0.05
v -2 -0.95 -0.15
v -2 -0.55 0.05
v -2 -0.55 -0.05
v -2 -0.55 -0.15
v -2 -0.05 0.15
v -2 -0.05 0.05
v -2 -0.05 -0.05
v -2 0.0500001 0.05
v -2 0.0500001 -0.05
v -2 0.15 0.05
v -2 0.15 -0.05
v -2 0.85 0.05
v -2 0.85 -0.05
v -2 0.95 0.05
v -2 0.95 -0.05
v -2 1.05 0.05
v -2 1.05 -0.15
v -0.1 -0.55 -0.05
v -0.1 -0.55 -0.15
v -0.1 -0.05 0.05
v -0.1 -0.05 -0.05
v -0.1 0.0500001 0.05
v -0.1 0.0500001 -0.05
v -0.1 0.15 0.05
v -0.1 0.15 -0.05
v -0.1 0.85 0.05
v -0.1 0.85 -0.05
v -0.1 0.95 0.05
v -0.1 0.95 -0.05
v -0.1 1.05 0.05
v -0.1 1.05 -0.15
v 1.9 -0.55 -0.05
v 1.9 -0.55 -0.15
v 1.9 -0.05 0.05
v 1.9 -0.05 -0.05
v 1.9 0.0500001 0.05
v 1.9 0.0500001 -0.05
v 1.9 0.15 0.05
v 1.9 0.15 -0.05
v 1.9 0.85 0.05
v 1.9 0.85 -0.05
v 1.9 0.95 0.05
v 1.9 0.95 -0.05
v 1.9 1.05 0.05
v 1.9 1.05 -0.15
v -1.9 -0.55 -0.05
v -1.9 -0.55 -0.15
v -1.9 -0.05 0.05
v -1.9 -0.05 -0.05
v -1.9 0.0500001 0.05
v -1.9 0.0500001 -0.05
v -1.9 0.15 0.05
v -1.9 0.15 -0.05
v -1.9 0.85 0.05
v -1.9 0.85 -0.05
v -1.9 0.95 0.05
v -1.9 0.95 -0.05
v -1.9 1.05 0.05
v -1.9 1.05 -0.15
v 0.0999999 -0.55 -0.05
v 0.0999999 -0.55 -0.15
v 0.0999999 -0.05 0.05
v 0.0999999 -0.05 -0.05
v 0.0999999 0.0500001 0.05
v 0.0999999 0.0500001 -0.05
v 0.0999999 0.15 0.05
v 0.0999999 0.15 -0.05
v 0.0999999 0.85 0.05
v 0.0999999 0.85 -0.05
v 0.0999999 0.95 0.05
v 0.0999999 0.95 -0.05
v 0.0999999 1.05 0.05
v 0.0999999 1.05 -0.15
v 2 -1.05 0.05
v 2 -1.05 -0.05
v 2 -0.95 0.15
v 2 -0.95 0.05
v 2 -0.95 -0.05
v 2 -0.95 -0.15
v 2 -0.55 0.05
v 2 -0.55 -0.05
v 2 -0.55 -0.15
v 2 -0.05 0.15
v 2 -0.05 0.05
v 2 -0.05 -0.05
v 2 0.0500001 0.05
v 2 0.0500001 -0.05
v 2 0.15 0.05
v 2 0.15 -0.05
v 2 0.85 0.05
v 2 0.85 -0.05
v 2 0.95 0.05
v 2 0.95 -0.05
v 2 1.05 0.05
v 2 1.05 -0.15
v -2 -0.95 0.15
v -2 -0.05 0.15
v 2 -0.95 0.15
v 2 -0.05 0.15
v -2 -1.05 0.05
v -2 -0.95 0.05
v -2 -0.05 0.05
v -2 0.0500001 0.05
v -2 0.15 0.05
v -2 0.85 0.05
v -2 0.95 0.05
v -2 1.05 0.05
v -1.9 -0.05 0.05
v -1.9 0.0500001 0.05
v -1.9 0.15 0.05
v -1.9 0.85 0.05
v -1.9 0.95 0.05
v -1.9 1.05 0.05
v -0.1 -0.05 0.05
v -0.1 0.0500001 0.05
v -0.1 0.15 0.05
v -0.1 0.85 0.05
v -0.1 0.95 0.05
v -0.1 1.05 0.05
v 0.0999999 -0.05 0.05
v 0.0999999 0.0500001 0.05
v 0.0999999 0.15 0.05
v 0.0999999 0.85 0.05
v 0.0999999 0.95 0.05
v 0.0999999 1.05 0.05
v 1.9 -0.05 0.05
v 1.9 0.0500001 0.05
v 1.9 0.15 0.05
v 1.9 0.85 0.05
v 1.9 0.95 0.05
v 1.9 1.05 0.05
v 2 -1.05 0.05
v 2 -0.95 0.05
v 2 -0.05 0.05
v 2 0.0500001 0.05
v 2 0.15 0.05
v 2 0.85 0.05
v 2 0.95 0.05
v 2 1.05 0.05
v -2 -1.05 -0.05
v -2 -0.95 -0.05
v -1.9 -0.55 -0.05
v -1.9 -0.05 -0.05
v -1.9 0.0500001 -0.05
v -1.9 0.15 -0.05
v -1.9 0.85 -0.05
v -1.9 0.95 -0.05
v -0.1 -0.55 -0.05
v -0.1 -0.05 -0.05
v -0.1 0.0500001 -0.05
v -0.1 0.15 -0.05
v -0.1 0.85 -0.05
v -0.1 0.95 -0.05
v 0.0999999 -0.55 -0.05
v 0.0999999 -0.05 -0.05
v 0.0999999 0.0500001 -0.05
v 0.0999999 0.15 -0.05
v 0.0999999 0.85 -0.05
v 0.0999999 0.95 -0.05
v 1.9 -0.55 -0.05
v 1.9 -0.05 -0.05
v 1.9 0.0500001 -0.05
v 1.9 0.15 -0.05
v 1.9 0.85 -0.05
v 1.9 0.95 -0.05
v 2 -1.05 -0.05
v 2 -0.95 -0.05
v -2 -0.95 -0.15
v -2 -0.55 -0.15
v -2 1.05 -0.15
v -1.9 -0.55 -0.15
v -1.9 1.05 -0.15
v -0.1 -0.55 -0.15
v -0.1 1.05 -0.15
v 0.0999999 -0.55 -0.15
v 0.0999999 1.05 -0.15
v 1.9 -0.55 -0.15
v 1.9 1.05 -0.15
v 2 -0.95 -0.15
v 2 -0.55 -0.15
v 2 1.05 -0.15
v -2 -1.05 0.05
v 2 -1.05 0.05
v -2 -1.05 -0.05
v 2 -1.05 -0.05
v -2 -0.95 0.15
v 2 -0.95 0.15
v -2 -0.95 0.05
v 2 -0.95 0.05
v -2 -0.95 -0.05
v 2 -0.95 -0.05
v -2 -0.95 -0.15
v 2 -0.95 -0.15
v -1.9 0.0500001 0.05
v -0.1 0.0500001 0.05
v 0.0999999 0.0500001 0.05
v 1.9 0.0500001 0.05
v -1.9 0.0500001 -0.05
v -0.1 0.0500001 -0.05
v 0.0999999 0.0500001 -0.05
v 1.9 0.0500001 -0.05
v -1.9 0.85 0.05
v -0.1 0.85 0.05
v 0.0999999 0.85 0.05
v 1.9 0.85 0.05
v -1.9 0.85 -0.05
v -0.1 0.85 -0.05
v 0.0999999 0.85 -0.05
v 1.9 0.85 -0.05
v -1.9 -0.55 -0.05
v -0.1 -0.55 -0.05
v 0.0999999 -0.55 -0.05
v 1.9 -0.55 -0.05
v -1.9 -0.55 -0.15
v -0.1 -0.55 -0.15
v 0.0999999 -0.55 -0.15
v 1.9 -0.55 -0.15
v -2 -0.05 0.15
v 2 -0.05 0.15
v -2 -0.05 0.05
v -1.9 -0.05 0.05
v -0.1 -0.05 0.05
v 0.0999999 -0.05 0.05
v 1.9 -0.05 0.05
v 2 -0.05 0.05
v -1.9 -0.05 -0.05
v -0.1 -0.05 -0.05
v 0.0999999 -0.05 -0.05
v 1.9 -0.05 -0.05
v -1.9 0.15 0.05
v -0.1 0.15 0.05
v 0.0999999 0.15 0.05
v 1.9 0.15 0.05
v -1.9 0.15 -0.05
v -0.1 0.15 -0.05
v 0.0999999 0.15 -0.05
v 1.9 0.15 -0.05
v -1.9 0.95 0.05
v -0.1 0.95 0.05
v 0.0999999 0.95 0.05
v 1.9 0.95 0.05
v -1.9 0.95 -0.05
v -0.1 0.95 -0.05
v 0.0999999 0.95 -0.05
v 1.9 0.95 -0.05
v -2 1.05 0.05
v -1.9 1.05 0.05
v -0.1 1.05 0.05
v 0.0999999 1.05 0.05
v 1.9 1.05 0.05
v 2 1.05 0.05
v -2 1.05 -0.15
v -1.9 1.05 -0.15
v -0.1 1.05 -0.15
v 0.0999999 1.05 -0.15
v 1.9 1.05 -0.15
v 2 1.05 -0.15

# faces
f 4/7/1 2/7/1 1/7/1
f 5/7/1 2/7/1 4/7/1
f 7/4/1 4/4/1 3/4/1
f 7/1/1 6/1/1 5/1/1
f 7/1/1 5/1/1 4/1/1
f 8/1/1 6/1/1 7/1/1
f 9/1/1 6/1/1 8/1/1
f 10/4/1 7/4/1 3/4/1
f 11/6/1 8/6/1 7/6/1
f 11/4/1 7/4/1 10/4/1
f 12/2/1 9/2/1 8/2/1
f 12/6/1 8/6/1 11/6/1
f 13/2/1 12/2/1 11/2/1
f 14/2/1 9/2/1 12/2/1
f 14/2/1 12/2/1 13/2/1
f 15/3/1 14/3/1 13/3/1
f 16/2/1 9/2/1 14/2/1
f 16/3/1 14/3/1 15/3/1
f 17/2/1 16/2/1 15/2/1
f 18/2/1 9/2/1 16/2/1
f 18/2/1 16/2/1 17/2/1
f 19/3/1 18/3/1 17/3/1
f 20/2/1 9/2/1 18/2/1
f 20/3/1 18/3/1 19/3/1
f 21/2/1 20/2/1 19/2/1
f 22/2/1 9/2/1 20/2/1
f 22/2/1 20/2/1 21/2/1
f 26/2/1 24/2/1 23/2/1
f 27/2/1 26/2/1 25/2/1
f 28/2/1 24/2/1 26/2/1
f 28/2/1 26/2/1 27/2/1
f 30/2/1 24/2/1 28/2/1
f 31/2/1 30/2/1 29/2/1
f 32/2/1 24/2/1 30/2/1
f 32/2/1 30/2/1 31/2/1
f 34/2/1 24/2/1 32/2/1
f 35/2/1 34/2/1 33/2/1
f 36/2/1 24/2/1 34/2/1
f 36/2/1 34/2/1 35/2/1
f 40/2/1 38/2/1 37/2/1
f 41/2/1 40/2/1 39/2/1
f 42/2/1 38/2/1 40/2/1
f 42/2/1 40/2/1 41/2/1
f 44/2/1 38/2/1 42/2/1
f 45/2/1 44/2/1 43/2/1
f 46/2/1 38/2/1 44/2/1
f 46/2/1 44/2/1 45/2/1
f 48/2/1 38/2/1 46/2/1
f 49/2/1 48/2/1 47/2/1
f 50/2/1 38/2/1 48/2/1
f 50/2/1 48/2/1 49/2/1
f 51/2/2 52/2/2 54/2/2
f 53/2/2 54/2/2 55/2/2
f 54/2/2 52/2/2 56/2/2
f 55/2/2 54/2/2 56/2/2
f 56/2/2 52/2/2 58/2/2
f 57/2/2 58/2/2 59/2/2
f 58/2/2 52/2/2 60/2/2
f 59/2/2 58/2/2 60/2/2
f 60/2/2 52/2/2 62/2/2
f 61/2/2 62/2/2 63/2/2
f 62/2/2 52/2/2 64/2/2
f 63/2/2 62/2/2 64/2/2
f 65/2/2 66/2/2 68/2/2
f 67/2/2 68/2/2 69/2/2
f 68/2/2 66/2/2 70/2/2
f 69/2/2 68/2/2 70/2/2
f 70/2/2 66/2/2 72/2/2
f 71/2/2 72/2/2 73/2/2
f 72/2/2 66/2/2 74/2/2
f 73/2/2 72/2/2 74/2/2
f 74/2/2 66/2/2 76/2/2
f 75/2/2 76/2/2 77/2/2
f 76/2/2 66/2/2 78/2/2
f 77/2/2 76/2/2 78/2/2
f 79/7/2 80/7/2 82/7/2
f 82/7/2 80/7/2 83/7/2
f 81/4/2 82/4/2 85/4/2
f 83/1/2 84/1/2 85/1/2
f 82/1/2 83/1/2 85/1/2
f 85/1/2 84/1/2 86/1/2
f 86/1/2 84/1/2 87/1/2
f 81/4/2 85/4/2 88/4/2
f 85/6/2 86/6/2 89/6/2
f 88/4/2 85/4/2 89/4/2
f 86/2/2 87/2/2 90/2/2
f 89/6/2 86/6/2 90/6/2
f 89/2/2 90/2/2 91/2/2
f 90/2/2 87/2/2 92/2/2
f 91/2/2 90/2/2 92/2/2
f 91/3/2 92/3/2 93/3/2
f 92/2/2 87/2/2 94/2/2
f 93/3/2 92/3/2 94/3/2
f 93/2/2 94/2/2 95/2/2
f 94/2/2 87/2/2 96/2/2
f 95/2/2 94/2/2 96/2/2
f 95/3/2 96/3/2 97/3/2
f 96/2/2 87/2/2 98/2/2
f 97/3/2 96/3/2 98/3/2
f 97/2/2 98/2/2 99/2/2
f 98/2/2 87/2/2 100/2/2
f 99/2/2 98/2/2 100/2/2
f 103/4/3 102/4/3 101/4/3
f 104/4/3 102/4/3 103/4/3
f 113/2/3 108/2/3 107/2/3
f 114/3/3 109/3/3 108/3/3
f 114/2/3 108/2/3 113/2/3
f 115/2/3 110/2/3 109/2/3
f 115/3/3 109/3/3 114/3/3
f 116/3/3 111/3/3 110/3/3
f 116/2/3 110/2/3 115/2/3
f 117/2/3 112/2/3 111/2/3
f 117/3/3 111/3/3 116/3/3
f 118/2/3 112/2/3 117/2/3
f 120/3/3 115/3/3 114/3/3
f 121/3/3 115/3/3 120/3/3
f 122/3/3 117/3/3 116/3/3
f 123/3/3 117/3/3 122/3/3
f 125/2/3 120/2/3 119/2/3
f 126/3/3 121/3/3 120/3/3
f 126/2/3 120/2/3 125/2/3
f 127/2/3 122/2/3 121/2/3
f 127/3/3 121/3/3 126/3/3
f 128/3/3 123/3/3 122/3/3
f 128/2/3 122/2/3 127/2/3
f 129/2/3 124/2/3 123/2/3
f 129/3/3 123/3/3 128/3/3
f 130/2/3 124/2/3 129/2/3
f 132/3/3 127/3/3 126/3/3
f 133/3/3 127/3/3 132/3/3
f 134/3/3 129/3/3 128/3/3
f 135/3/3 129/3/3 134/3/3
f 137/7/3 106/7/3 105/7/3
f 138/7/3 106/7/3 137/7/3
f 139/2/3 132/2/3 131/2/3
f 140/3/3 133/3/3 132/3/3
f 140/2/3 132/2/3 139/2/3
f 141/2/3 134/2/3 133/2/3
f 141/3/3 133/3/3 140/3/3
f 142/3/3 135/3/3 134/3/3
f 142/2/3 134/2/3 141/2/3
f 143/2/3 136/2/3 135/2/3
f 143/3/3 135/3/3 142/3/3
f 144/2/3 136/2/3 143/2/3
f 147/4/4 148/4/4 153/4/4
f 153/4/4 148/4/4 154/4/4
f 149/3/4 150/3/4 155/3/4
f 155/3/4 150/3/4 156/3/4
f 151/3/4 152/3/4 157/3/4
f 157/3/4 152/3/4 158/3/4
f 159/4/4 160/4/4 165/4/4
f 165/4/4 160/4/4 166/4/4
f 161/3/4 162/3/4 167/3/4
f 167/3/4 162/3/4 168/3/4
f 163/3/4 164/3/4 169/3/4
f 169/3/4 164/3/4 170/3/4
f 145/7/4 146/7/4 171/7/4
f 171/7/4 146/7/4 172/7/4
f 173/1/4 174/1/4 176/1/4
f 174/2/4 175/2/4 176/2/4
f 176/2/4 175/2/4 177/2/4
f 173/1/4 176/1/4 178/1/4
f 173/1/4 178/1/4 180/1/4
f 178/2/4 179/2/4 180/2/4
f 180/2/4 179/2/4 181/2/4
f 173/1/4 180/1/4 182/1/4
f 173/1/4 182/1/4 184/1/4
f 182/2/4 183/2/4 185/2/4
f 184/1/4 182/1/4 185/1/4
f 185/2/4 183/2/4 186/2/4
f 189/7/5 188/7/5 187/7/5
f 190/7/5 188/7/5 189/7/5
f 193/4/5 192/4/5 191/4/5
f 194/4/5 192/4/5 193/4/5
f 197/1/5 196/1/5 195/1/5
f 198/1/5 196/1/5 197/1/5
f 203/3/5 200/3/5 199/3/5
f 204/3/5 200/3/5 203/3/5
f 205/3/5 202/3/5 201/3/5
f 206/3/5 202/3/5 205/3/5
f 211/3/5 208/3/5 207/3/5
f 212/3/5 208/3/5 211/3/5
f 213/3/5 210/3/5 209/3/5
f 214/3/5 210/3/5 213/3/5
f 215/1/6 216/1/6 219/1/6
f 219/1/6 216/1/6 220/1/6
f 217/1/6 218/1/6 221/1/6
f 221/1/6 218/1/6 222/1/6
f 223/4/6 224/4/6 225/4/6
f 225/4/6 224/4/6 226/4/6
f 226/4/6 224/4/6 227/4/6
f 227/4/6 224/4/6 228/4/6
f 228/4/6 224/4/6 229/4/6
f 229/4/6 224/4/6 230/4/6
f 226/4/6 227/4/6 231/4/6
f 231/4/6 227/4/6 232/4/6
f 228/4/6 229/4/6 233/4/6
f 233/4/6 229/4/6 234/4/6
f 235/3/6 236/3/6 239/3/6
f 239/3/6 236/3/6 240/3/6
f 237/3/6 238/3/6 241/3/6
f 241/3/6 238/3/6 242/3/6
f 243/3/6 244/3/6 247/3/6
f 247/3/6 244/3/6 248/3/6
f 245/3/6 246/3/6 249/3/6
f 249/3/6 246/3/6 250/3/6
f 251/2/6 252/2/6 257/2/6
f 257/2/6 252/2/6 258/2/6
f 253/2/6 254/2/6 259/2/6
f 259/2/6 254/2/6 260/2/6
f 255/2/6 256/2/6 261/2/6
f 261/2/6 256/2/6 262/2/6
