# MagicaVoxel @ Ephtracy

# group
o 

# material
mtllib LabWall1.mtl
usemtl palette

# normals
vn -1 0 0
vn 1 0 0
vn 0 0 1
vn 0 0 -1
vn 0 -1 0
vn 0 1 0

# texcoords
vt 0.150391 0.5
vt 0.166016 0.5

# verts
v -2 -2 -0.2
v -2 -2 -0.3
v -2 -0.9 -0.1
v -2 -0.9 -0.2
v -2 0 -0.1
v -2 0 -0.2
v -2 1.1 -0.1
v -2 1.1 -0.2
v -2 2 -0.1
v -2 2 -0.2
v -2 2 -0.3
v -1.9 -1.9 -0.1
v -1.9 -1.9 -0.2
v -1.9 -1 -0.1
v -1.9 -1 -0.2
v -1.9 0.0999999 -0.1
v -1.9 0.0999999 -0.2
v -1.9 1 -0.1
v -1.9 1 -0.2
v -0.9 -0.9 -0.1
v -0.9 -0.9 -0.2
v -0.9 0 -0.1
v -0.9 0 -0.2
v -0.9 1.1 -0.1
v -0.9 1.1 -0.2
v -0.9 2 -0.1
v -0.9 2 -0.2
v -0.3 -2 0.2
v -0.3 -2 -0.2
v -0.3 -1.9 -0.1
v -0.3 -1.9 -0.2
v -0.3 -1.8 0.2
v -0.3 -1.8 -0.1
v -0.3 -1.7 0.2
v -0.3 -1.7 -0.1
v -0.3 -1 -0.1
v -0.3 -1 -0.2
v -0.3 -0.9 -0.1
v -0.3 -0.9 -0.2
v -0.3 0 -0.1
v -0.3 0 -0.2
v -0.3 0.0999999 -0.1
v -0.3 0.0999999 -0.2
v -0.3 1 -0.1
v -0.3 1 -0.2
v -0.3 1.1 -0.1
v -0.3 1.1 -0.2
v -0.3 1.7 0.2
v -0.3 1.7 -0.1
v -0.3 1.8 0.2
v -0.3 1.8 -0.1
v -0.3 2 0.2
v -0.3 2 -0.1
v -0.2 -1.8 0.1
v -0.2 -1.8 0
v -0.2 -1.8 -0.1
v -0.2 -1.7 0.1
v -0.2 -1.7 0
v -0.2 -1.7 -0.1
v -0.2 1.7 0.1
v -0.2 1.7 0
v -0.2 1.7 -0.1
v -0.2 1.8 0.1
v -0.2 1.8 0
v -0.2 1.8 -0.1
v 0.0999999 -1.7 0.2
v 0.0999999 -1.7 0.1
v 0.0999999 1.7 0.2
v 0.0999999 1.7 0.1
v 1.1 -0.9 -0.1
v 1.1 -0.9 -0.2
v 1.1 0 -0.1
v 1.1 0 -0.2
v 1.1 1.1 -0.1
v 1.1 1.1 -0.2
v 1.1 2 -0.1
v 1.1 2 -0.2
v -1 -0.9 -0.1
v -1 -0.9 -0.2
v -1 0 -0.1
v -1 0 -0.2
v -1 1.1 -0.1
v -1 1.1 -0.2
v -1 2 -0.1
v -1 2 -0.2
v -0.1 -1.7 0.2
v -0.1 -1.7 0.1
v -0.1 1.7 0.2
v -0.1 1.7 0.1
v 0.2 -1.8 0.1
v 0.2 -1.8 0
v 0.2 -1.8 -0.1
v 0.2 -1.7 0.1
v 0.2 -1.7 0
v 0.2 -1.7 -0.1
v 0.2 1.7 0.1
v 0.2 1.7 0
v 0.2 1.7 -0.1
v 0.2 1.8 0.1
v 0.2 1.8 0
v 0.2 1.8 -0.1
v 0.3 -2 0.2
v 0.3 -2 -0.2
v 0.3 -1.9 -0.1
v 0.3 -1.9 -0.2
v 0.3 -1.8 0.2
v 0.3 -1.8 -0.1
v 0.3 -1.7 0.2
v 0.3 -1.7 -0.1
v 0.3 -1 -0.1
v 0.3 -1 -0.2
v 0.3 -0.9 -0.1
v 0.3 -0.9 -0.2
v 0.3 0 -0.1
v 0.3 0 -0.2
v 0.3 0.0999999 -0.1
v 0.3 0.0999999 -0.2
v 0.3 1 -0.1
v 0.3 1 -0.2
v 0.3 1.1 -0.1
v 0.3 1.1 -0.2
v 0.3 1.7 0.2
v 0.3 1.7 -0.1
v 0.3 1.8 0.2
v 0.3 1.8 -0.1
v 0.3 2 0.2
v 0.3 2 -0.1
v 1 -0.9 -0.1
v 1 -0.9 -0.2
v 1 0 -0.1
v 1 0 -0.2
v 1 1.1 -0.1
v 1 1.1 -0.2
v 1 2 -0.1
v 1 2 -0.2
v 2 -2 -0.2
v 2 -2 -0.3
v 2 -1.9 -0.1
v 2 -1.9 -0.2
v 2 -1 -0.1
v 2 -1 -0.2
v 2 -0.9 -0.1
v 2 -0.9 -0.2
v 2 0 -0.1
v 2 0 -0.2
v 2 0.0999999 -0.1
v 2 0.0999999 -0.2
v 2 1 -0.1
v 2 1 -0.2
v 2 1.1 -0.1
v 2 1.1 -0.2
v 2 2 -0.1
v 2 2 -0.2
v 2 2 -0.3
v -0.3 -2 0.2
v -0.3 -1.8 0.2
v -0.3 -1.7 0.2
v -0.3 1.7 0.2
v -0.3 1.8 0.2
v -0.3 2 0.2
v -0.1 -1.7 0.2
v -0.1 1.7 0.2
v 0.0999999 -1.7 0.2
v 0.0999999 1.7 0.2
v 0.3 -2 0.2
v 0.3 -1.8 0.2
v 0.3 -1.7 0.2
v 0.3 1.7 0.2
v 0.3 1.8 0.2
v 0.3 2 0.2
v -0.2 -1.8 0.1
v -0.2 -1.7 0.1
v -0.2 1.7 0.1
v -0.2 1.8 0.1
v -0.1 -1.7 0.1
v -0.1 1.7 0.1
v 0.0999999 -1.7 0.1
v 0.0999999 1.7 0.1
v 0.2 -1.8 0.1
v 0.2 -1.7 0.1
v 0.2 1.7 0.1
v 0.2 1.8 0.1
v -2 -0.9 -0.1
v -2 0 -0.1
v -2 1.1 -0.1
v -2 2 -0.1
v -1.9 -1.9 -0.1
v -1.9 -1 -0.1
v -1.9 0.0999999 -0.1
v -1.9 1 -0.1
v -1 -0.9 -0.1
v -1 0 -0.1
v -1 1.1 -0.1
v -1 2 -0.1
v -0.9 -0.9 -0.1
v -0.9 0 -0.1
v -0.9 1.1 -0.1
v -0.9 2 -0.1
v -0.3 -1.9 -0.1
v -0.3 -1.8 -0.1
v -0.3 -1.7 -0.1
v -0.3 -1 -0.1
v -0.3 -0.9 -0.1
v -0.3 0 -0.1
v -0.3 0.0999999 -0.1
v -0.3 1 -0.1
v -0.3 1.1 -0.1
v -0.3 1.7 -0.1
v -0.3 1.8 -0.1
v -0.3 2 -0.1
v -0.2 -1.8 -0.1
v -0.2 -1.7 -0.1
v -0.2 1.7 -0.1
v -0.2 1.8 -0.1
v 0.2 -1.8 -0.1
v 0.2 -1.7 -0.1
v 0.2 1.7 -0.1
v 0.2 1.8 -0.1
v 0.3 -1.9 -0.1
v 0.3 -1.8 -0.1
v 0.3 -1.7 -0.1
v 0.3 -1 -0.1
v 0.3 -0.9 -0.1
v 0.3 0 -0.1
v 0.3 0.0999999 -0.1
v 0.3 1 -0.1
v 0.3 1.1 -0.1
v 0.3 1.7 -0.1
v 0.3 1.8 -0.1
v 0.3 2 -0.1
v 1 -0.9 -0.1
v 1 0 -0.1
v 1 1.1 -0.1
v 1 2 -0.1
v 1.1 -0.9 -0.1
v 1.1 0 -0.1
v 1.1 1.1 -0.1
v 1.1 2 -0.1
v 2 -1.9 -0.1
v 2 -1 -0.1
v 2 -0.9 -0.1
v 2 0 -0.1
v 2 0.0999999 -0.1
v 2 1 -0.1
v 2 1.1 -0.1
v 2 2 -0.1
v -2 -2 -0.2
v -2 -0.9 -0.2
v -2 0 -0.2
v -2 1.1 -0.2
v -1.9 -1.9 -0.2
v -1.9 -1 -0.2
v -1.9 0.0999999 -0.2
v -1.9 1 -0.2
v -1 -0.9 -0.2
v -1 0 -0.2
v -1 1.1 -0.2
v -1 2 -0.2
v -0.9 -0.9 -0.2
v -0.9 0 -0.2
v -0.9 1.1 -0.2
v -0.9 2 -0.2
v -0.3 -2 -0.2
v -0.3 -1.9 -0.2
v -0.3 -1 -0.2
v -0.3 -0.9 -0.2
v -0.3 0 -0.2
v -0.3 0.0999999 -0.2
v -0.3 1 -0.2
v -0.3 1.1 -0.2
v 0.3 -2 -0.2
v 0.3 -1.9 -0.2
v 0.3 -1 -0.2
v 0.3 -0.9 -0.2
v 0.3 0 -0.2
v 0.3 0.0999999 -0.2
v 0.3 1 -0.2
v 0.3 1.1 -0.2
v 1 -0.9 -0.2
v 1 0 -0.2
v 1 1.1 -0.2
v 1 2 -0.2
v 1.1 -0.9 -0.2
v 1.1 0 -0.2
v 1.1 1.1 -0.2
v 1.1 2 -0.2
v 2 -2 -0.2
v 2 -1.9 -0.2
v 2 -1 -0.2
v 2 -0.9 -0.2
v 2 0 -0.2
v 2 0.0999999 -0.2
v 2 1 -0.2
v 2 1.1 -0.2
v -2 -2 -0.3
v -2 2 -0.3
v 2 -2 -0.3
v 2 2 -0.3
v -0.3 -2 0.2
v 0.3 -2 0.2
v -2 -2 -0.2
v -0.3 -2 -0.2
v 0.3 -2 -0.2
v 2 -2 -0.2
v -2 -2 -0.3
v 2 -2 -0.3
v -1.9 -1.9 -0.1
v -0.3 -1.9 -0.1
v 0.3 -1.9 -0.1
v 2 -1.9 -0.1
v -1.9 -1.9 -0.2
v -0.3 -1.9 -0.2
v 0.3 -1.9 -0.2
v 2 -1.9 -0.2
v -0.3 -1.7 0.2
v -0.1 -1.7 0.2
v 0.0999999 -1.7 0.2
v 0.3 -1.7 0.2
v -0.2 -1.7 0.1
v -0.1 -1.7 0.1
v 0.0999999 -1.7 0.1
v 0.2 -1.7 0.1
v -0.2 -1.7 0
v 0.2 -1.7 0
v -0.3 -1.7 -0.1
v -0.2 -1.7 -0.1
v 0.2 -1.7 -0.1
v 0.3 -1.7 -0.1
v -2 -0.9 -0.1
v -1 -0.9 -0.1
v -0.9 -0.9 -0.1
v -0.3 -0.9 -0.1
v 0.3 -0.9 -0.1
v 1 -0.9 -0.1
v 1.1 -0.9 -0.1
v 2 -0.9 -0.1
v -2 -0.9 -0.2
v -1 -0.9 -0.2
v -0.9 -0.9 -0.2
v -0.3 -0.9 -0.2
v 0.3 -0.9 -0.2
v 1 -0.9 -0.2
v 1.1 -0.9 -0.2
v 2 -0.9 -0.2
v -1.9 0.0999999 -0.1
v -0.3 0.0999999 -0.1
v 0.3 0.0999999 -0.1
v 2 0.0999999 -0.1
v -1.9 0.0999999 -0.2
v -0.3 0.0999999 -0.2
v 0.3 0.0999999 -0.2
v 2 0.0999999 -0.2
v -2 1.1 -0.1
v -1 1.1 -0.1
v -0.9 1.1 -0.1
v -0.3 1.1 -0.1
v 0.3 1.1 -0.1
v 1 1.1 -0.1
v 1.1 1.1 -0.1
v 2 1.1 -0.1
v -2 1.1 -0.2
v -1 1.1 -0.2
v -0.9 1.1 -0.2
v -0.3 1.1 -0.2
v 0.3 1.1 -0.2
v 1 1.1 -0.2
v 1.1 1.1 -0.2
v 2 1.1 -0.2
v -0.3 1.8 0.2
v 0.3 1.8 0.2
v -0.2 1.8 0.1
v 0.2 1.8 0.1
v -0.2 1.8 0
v 0.2 1.8 0
v -0.3 1.8 -0.1
v -0.2 1.8 -0.1
v 0.2 1.8 -0.1
v 0.3 1.8 -0.1
v -0.3 -1.8 0.2
v 0.3 -1.8 0.2
v -0.2 -1.8 0.1
v 0.2 -1.8 0.1
v -0.2 -1.8 0
v 0.2 -1.8 0
v -0.3 -1.8 -0.1
v -0.2 -1.8 -0.1
v 0.2 -1.8 -0.1
v 0.3 -1.8 -0.1
v -1.9 -1 -0.1
v -0.3 -1 -0.1
v 0.3 -1 -0.1
v 2 -1 -0.1
v -1.9 -1 -0.2
v -0.3 -1 -0.2
v 0.3 -1 -0.2
v 2 -1 -0.2
v -2 0 -0.1
v -1 0 -0.1
v -0.9 0 -0.1
v -0.3 0 -0.1
v 0.3 0 -0.1
v 1 0 -0.1
v 1.1 0 -0.1
v 2 0 -0.1
v -2 0 -0.2
v -1 0 -0.2
v -0.9 0 -0.2
v -0.3 0 -0.2
v 0.3 0 -0.2
v 1 0 -0.2
v 1.1 0 -0.2
v 2 0 -0.2
v -1.9 1 -0.1
v -0.3 1 -0.1
v 0.3 1 -0.1
v 2 1 -0.1
v -1.9 1 -0.2
v -0.3 1 -0.2
v 0.3 1 -0.2
v 2 1 -0.2
v -0.3 1.7 0.2
v -0.1 1.7 0.2
v 0.0999999 1.7 0.2
v 0.3 1.7 0.2
v -0.2 1.7 0.1
v -0.1 1.7 0.1
v 0.0999999 1.7 0.1
v 0.2 1.7 0.1
v -0.2 1.7 0
v 0.2 1.7 0
v -0.3 1.7 -0.1
v -0.2 1.7 -0.1
v 0.2 1.7 -0.1
v 0.3 1.7 -0.1
v -0.3 2 0.2
v 0.3 2 0.2
v -2 2 -0.1
v -1 2 -0.1
v -0.9 2 -0.1
v -0.3 2 -0.1
v 0.3 2 -0.1
v 1 2 -0.1
v 1.1 2 -0.1
v 2 2 -0.1
v -2 2 -0.2
v -1 2 -0.2
v -0.9 2 -0.2
v 1 2 -0.2
v 1.1 2 -0.2
v 2 2 -0.2
v -2 2 -0.3
v 2 2 -0.3

# faces
f 4/1/1 2/1/1 1/1/1
f 5/2/1 4/2/1 3/2/1
f 6/1/1 2/1/1 4/1/1
f 6/2/1 4/2/1 5/2/1
f 8/1/1 2/1/1 6/1/1
f 9/2/1 8/2/1 7/2/1
f 10/1/1 2/1/1 8/1/1
f 10/2/1 8/2/1 9/2/1
f 11/1/1 2/1/1 10/1/1
f 14/2/1 13/2/1 12/2/1
f 15/2/1 13/2/1 14/2/1
f 18/2/1 17/2/1 16/2/1
f 19/2/1 17/2/1 18/2/1
f 22/2/1 21/2/1 20/2/1
f 23/2/1 21/2/1 22/2/1
f 26/2/1 25/2/1 24/2/1
f 27/2/1 25/2/1 26/2/1
f 30/2/1 29/2/1 28/2/1
f 31/2/1 29/2/1 30/2/1
f 32/2/1 30/2/1 28/2/1
f 33/2/1 30/2/1 32/2/1
f 36/2/1 35/2/1 34/2/1
f 38/2/1 36/2/1 34/2/1
f 38/2/1 37/2/1 36/2/1
f 39/2/1 37/2/1 38/2/1
f 40/2/1 38/2/1 34/2/1
f 42/2/1 40/2/1 34/2/1
f 42/2/1 41/2/1 40/2/1
f 43/2/1 41/2/1 42/2/1
f 44/2/1 42/2/1 34/2/1
f 46/2/1 44/2/1 34/2/1
f 46/2/1 45/2/1 44/2/1
f 47/2/1 45/2/1 46/2/1
f 48/2/1 46/2/1 34/2/1
f 49/2/1 46/2/1 48/2/1
f 52/2/1 51/2/1 50/2/1
f 53/2/1 51/2/1 52/2/1
f 57/1/1 55/1/1 54/1/1
f 58/2/1 56/2/1 55/2/1
f 58/1/1 55/1/1 57/1/1
f 59/2/1 56/2/1 58/2/1
f 63/1/1 61/1/1 60/1/1
f 64/2/1 62/2/1 61/2/1
f 64/1/1 61/1/1 63/1/1
f 65/2/1 62/2/1 64/2/1
f 68/2/1 67/2/1 66/2/1
f 69/2/1 67/2/1 68/2/1
f 72/2/1 71/2/1 70/2/1
f 73/2/1 71/2/1 72/2/1
f 76/2/1 75/2/1 74/2/1
f 77/2/1 75/2/1 76/2/1
f 78/2/2 79/2/2 80/2/2
f 80/2/2 79/2/2 81/2/2
f 82/2/2 83/2/2 84/2/2
f 84/2/2 83/2/2 85/2/2
f 86/2/2 87/2/2 88/2/2
f 88/2/2 87/2/2 89/2/2
f 90/1/2 91/1/2 93/1/2
f 91/2/2 92/2/2 94/2/2
f 93/1/2 91/1/2 94/1/2
f 94/2/2 92/2/2 95/2/2
f 96/1/2 97/1/2 99/1/2
f 97/2/2 98/2/2 100/2/2
f 99/1/2 97/1/2 100/1/2
f 100/2/2 98/2/2 101/2/2
f 102/2/2 103/2/2 104/2/2
f 104/2/2 103/2/2 105/2/2
f 102/2/2 104/2/2 106/2/2
f 106/2/2 104/2/2 107/2/2
f 108/2/2 109/2/2 110/2/2
f 108/2/2 110/2/2 112/2/2
f 110/2/2 111/2/2 112/2/2
f 112/2/2 111/2/2 113/2/2
f 108/2/2 112/2/2 114/2/2
f 108/2/2 114/2/2 116/2/2
f 114/2/2 115/2/2 116/2/2
f 116/2/2 115/2/2 117/2/2
f 108/2/2 116/2/2 118/2/2
f 108/2/2 118/2/2 120/2/2
f 118/2/2 119/2/2 120/2/2
f 120/2/2 119/2/2 121/2/2
f 108/2/2 120/2/2 122/2/2
f 122/2/2 120/2/2 123/2/2
f 124/2/2 125/2/2 126/2/2
f 126/2/2 125/2/2 127/2/2
f 128/2/2 129/2/2 130/2/2
f 130/2/2 129/2/2 131/2/2
f 132/2/2 133/2/2 134/2/2
f 134/2/2 133/2/2 135/2/2
f 136/1/2 137/1/2 139/1/2
f 138/2/2 139/2/2 140/2/2
f 139/1/2 137/1/2 141/1/2
f 140/2/2 139/2/2 141/2/2
f 141/1/2 137/1/2 143/1/2
f 142/2/2 143/2/2 144/2/2
f 143/1/2 137/1/2 145/1/2
f 144/2/2 143/2/2 145/2/2
f 145/1/2 137/1/2 147/1/2
f 146/2/2 147/2/2 148/2/2
f 147/1/2 137/1/2 149/1/2
f 148/2/2 147/2/2 149/2/2
f 149/1/2 137/1/2 151/1/2
f 150/2/2 151/2/2 152/2/2
f 151/1/2 137/1/2 153/1/2
f 152/2/2 151/2/2 153/2/2
f 153/1/2 137/1/2 154/1/2
f 161/2/3 158/2/3 157/2/3
f 162/2/3 158/2/3 161/2/3
f 165/2/3 156/2/3 155/2/3
f 166/2/3 156/2/3 165/2/3
f 167/2/3 164/2/3 163/2/3
f 168/2/3 164/2/3 167/2/3
f 169/2/3 160/2/3 159/2/3
f 170/2/3 160/2/3 169/2/3
f 175/1/3 172/1/3 171/1/3
f 176/1/3 174/1/3 173/1/3
f 177/1/3 175/1/3 171/1/3
f 177/1/3 176/1/3 175/1/3
f 178/1/3 174/1/3 176/1/3
f 178/1/3 176/1/3 177/1/3
f 179/1/3 177/1/3 171/1/3
f 180/1/3 177/1/3 179/1/3
f 181/1/3 174/1/3 178/1/3
f 182/1/3 174/1/3 181/1/3
f 191/2/3 184/2/3 183/2/3
f 192/2/3 184/2/3 191/2/3
f 193/2/3 186/2/3 185/2/3
f 194/2/3 186/2/3 193/2/3
f 199/2/3 188/2/3 187/2/3
f 200/2/3 188/2/3 199/2/3
f 201/2/3 188/2/3 200/2/3
f 202/2/3 188/2/3 201/2/3
f 203/2/3 196/2/3 195/2/3
f 204/2/3 196/2/3 203/2/3
f 205/2/3 190/2/3 189/2/3
f 206/2/3 190/2/3 205/2/3
f 207/2/3 198/2/3 197/2/3
f 208/2/3 198/2/3 207/2/3
f 209/2/3 198/2/3 208/2/3
f 210/2/3 198/2/3 209/2/3
f 211/2/3 201/2/3 200/2/3
f 212/2/3 201/2/3 211/2/3
f 213/2/3 209/2/3 208/2/3
f 214/2/3 209/2/3 213/2/3
f 220/2/3 216/2/3 215/2/3
f 221/2/3 216/2/3 220/2/3
f 228/2/3 218/2/3 217/2/3
f 229/2/3 218/2/3 228/2/3
f 231/2/3 224/2/3 223/2/3
f 232/2/3 224/2/3 231/2/3
f 233/2/3 229/2/3 228/2/3
f 233/2/3 230/2/3 229/2/3
f 233/2/3 228/2/3 227/2/3
f 234/2/3 230/2/3 233/2/3
f 239/2/3 220/2/3 219/2/3
f 239/2/3 221/2/3 220/2/3
f 239/2/3 222/2/3 221/2/3
f 240/2/3 222/2/3 239/2/3
f 241/2/3 236/2/3 235/2/3
f 242/2/3 236/2/3 241/2/3
f 243/2/3 226/2/3 225/2/3
f 244/2/3 226/2/3 243/2/3
f 245/2/3 238/2/3 237/2/3
f 246/2/3 238/2/3 245/2/3
f 251/1/3 248/1/3 247/1/3
f 252/1/3 248/1/3 251/1/3
f 253/1/3 250/1/3 249/1/3
f 254/1/3 250/1/3 253/1/3
f 255/1/3 248/1/3 252/1/3
f 256/1/3 253/1/3 249/1/3
f 257/1/3 250/1/3 254/1/3
f 259/1/3 256/1/3 255/1/3
f 259/1/3 255/1/3 252/1/3
f 260/1/3 253/1/3 256/1/3
f 260/1/3 256/1/3 259/1/3
f 261/1/3 258/1/3 257/1/3
f 261/1/3 257/1/3 254/1/3
f 262/1/3 258/1/3 261/1/3
f 263/1/3 251/1/3 247/1/3
f 264/1/3 251/1/3 263/1/3
f 265/1/3 259/1/3 252/1/3
f 266/1/3 259/1/3 265/1/3
f 267/1/3 253/1/3 260/1/3
f 268/1/3 253/1/3 267/1/3
f 269/1/3 261/1/3 254/1/3
f 270/1/3 261/1/3 269/1/3
f 279/1/3 274/1/3 273/1/3
f 280/1/3 276/1/3 275/1/3
f 281/1/3 278/1/3 277/1/3
f 283/1/3 280/1/3 279/1/3
f 283/1/3 279/1/3 273/1/3
f 284/1/3 276/1/3 280/1/3
f 284/1/3 280/1/3 283/1/3
f 285/1/3 281/1/3 277/1/3
f 285/1/3 282/1/3 281/1/3
f 286/1/3 282/1/3 285/1/3
f 287/1/3 272/1/3 271/1/3
f 288/1/3 272/1/3 287/1/3
f 289/1/3 283/1/3 273/1/3
f 290/1/3 283/1/3 289/1/3
f 291/1/3 276/1/3 284/1/3
f 292/1/3 276/1/3 291/1/3
f 293/1/3 285/1/3 277/1/3
f 294/1/3 285/1/3 293/1/3
f 295/1/4 296/1/4 297/1/4
f 297/1/4 296/1/4 298/1/4
f 302/2/5 300/2/5 299/2/5
f 303/2/5 300/2/5 302/2/5
f 305/1/5 302/1/5 301/1/5
f 305/1/5 304/1/5 303/1/5
f 305/1/5 303/1/5 302/1/5
f 306/1/5 304/1/5 305/1/5
f 311/2/5 308/2/5 307/2/5
f 312/2/5 308/2/5 311/2/5
f 313/2/5 310/2/5 309/2/5
f 314/2/5 310/2/5 313/2/5
f 319/2/5 316/2/5 315/2/5
f 320/2/5 316/2/5 319/2/5
f 321/2/5 318/2/5 317/2/5
f 322/2/5 318/2/5 321/2/5
f 323/2/5 319/2/5 315/2/5
f 324/2/5 318/2/5 322/2/5
f 325/2/5 323/2/5 315/2/5
f 326/2/5 323/2/5 325/2/5
f 327/2/5 318/2/5 324/2/5
f 328/2/5 318/2/5 327/2/5
f 337/2/5 330/2/5 329/2/5
f 338/2/5 330/2/5 337/2/5
f 339/2/5 332/2/5 331/2/5
f 340/2/5 332/2/5 339/2/5
f 341/2/5 334/2/5 333/2/5
f 342/2/5 334/2/5 341/2/5
f 343/2/5 336/2/5 335/2/5
f 344/2/5 336/2/5 343/2/5
f 349/2/5 346/2/5 345/2/5
f 350/2/5 346/2/5 349/2/5
f 351/2/5 348/2/5 347/2/5
f 352/2/5 348/2/5 351/2/5
f 361/2/5 354/2/5 353/2/5
f 362/2/5 354/2/5 361/2/5
f 363/2/5 356/2/5 355/2/5
f 364/2/5 356/2/5 363/2/5
f 365/2/5 358/2/5 357/2/5
f 366/2/5 358/2/5 365/2/5
f 367/2/5 360/2/5 359/2/5
f 368/2/5 360/2/5 367/2/5
f 371/2/5 370/2/5 369/2/5
f 372/2/5 370/2/5 371/2/5
f 373/2/5 371/2/5 369/2/5
f 374/2/5 370/2/5 372/2/5
f 375/2/5 373/2/5 369/2/5
f 376/2/5 373/2/5 375/2/5
f 377/2/5 370/2/5 374/2/5
f 378/2/5 370/2/5 377/2/5
f 379/2/6 380/2/6 381/2/6
f 381/2/6 380/2/6 382/2/6
f 379/2/6 381/2/6 383/2/6
f 382/2/6 380/2/6 384/2/6
f 379/2/6 383/2/6 385/2/6
f 385/2/6 383/2/6 386/2/6
f 384/2/6 380/2/6 387/2/6
f 387/2/6 380/2/6 388/2/6
f 389/2/6 390/2/6 393/2/6
f 393/2/6 390/2/6 394/2/6
f 391/2/6 392/2/6 395/2/6
f 395/2/6 392/2/6 396/2/6
f 397/2/6 398/2/6 405/2/6
f 405/2/6 398/2/6 406/2/6
f 399/2/6 400/2/6 407/2/6
f 407/2/6 400/2/6 408/2/6
f 401/2/6 402/2/6 409/2/6
f 409/2/6 402/2/6 410/2/6
f 403/2/6 404/2/6 411/2/6
f 411/2/6 404/2/6 412/2/6
f 413/2/6 414/2/6 417/2/6
f 417/2/6 414/2/6 418/2/6
f 415/2/6 416/2/6 419/2/6
f 419/2/6 416/2/6 420/2/6
f 421/2/6 422/2/6 425/2/6
f 425/2/6 422/2/6 426/2/6
f 423/2/6 424/2/6 427/2/6
f 427/2/6 424/2/6 428/2/6
f 421/2/6 425/2/6 429/2/6
f 428/2/6 424/2/6 430/2/6
f 421/2/6 429/2/6 431/2/6
f 431/2/6 429/2/6 432/2/6
f 430/2/6 424/2/6 433/2/6
f 433/2/6 424/2/6 434/2/6
f 435/2/6 436/2/6 440/2/6
f 440/2/6 436/2/6 441/2/6
f 437/2/6 438/2/6 445/2/6
f 445/2/6 438/2/6 446/2/6
f 439/2/6 440/2/6 447/2/6
f 440/2/6 441/2/6 447/2/6
f 441/2/6 442/2/6 447/2/6
f 447/2/6 442/2/6 448/2/6
f 443/2/6 444/2/6 449/2/6
f 449/2/6 444/2/6 450/2/6
f 447/1/6 448/1/6 451/1/6
f 445/1/6 446/1/6 451/1/6
f 449/1/6 450/1/6 451/1/6
f 448/1/6 449/1/6 451/1/6
f 446/1/6 447/1/6 451/1/6
f 451/1/6 450/1/6 452/1/6
