# MagicaVoxel @ Ephtracy

# group
o 

# material
mtllib 4LaneRoadDividerBreak.mtl
usemtl palette

# normals
vn -1 0 0
vn 1 0 0
vn 0 0 1
vn 0 0 -1
vn 0 -1 0
vn 0 1 0

# texcoords
vt 0.00976562 0.5
vt 0.0214844 0.5
vt 0.0253906 0.5

# verts
v -8 -0.5 1
v -8 -0.5 0.9
v -8 -0.5 -0.9
v -8 -0.5 -1
v -8 -0.2 0.9
v -8 -0.2 0.7
v -8 -0.2 -0.7
v -8 -0.2 -0.9
v -8 -0.1 1
v -8 -0.1 0.7
v -8 -0.1 -0.7
v -8 -0.1 -1
v 6 -0.3 0.4
v 6 -0.3 -0.4
v 6 -0.1 0.4
v 6 -0.1 -0.4
v 6.1 -0.3 0.6
v 6.1 -0.3 0.4
v 6.1 -0.3 -0.4
v 6.1 -0.3 -0.6
v 6.1 -0.1 0.6
v 6.1 -0.1 0.4
v 6.1 -0.1 -0.4
v 6.1 -0.1 -0.6
v 6.2 -0.3 0.8
v 6.2 -0.3 0.6
v 6.2 -0.3 -0.6
v 6.2 -0.3 -0.8
v 6.2 -0.1 0.8
v 6.2 -0.1 0.6
v 6.2 -0.1 -0.6
v 6.2 -0.1 -0.8
v 6.3 -0.3 0.9
v 6.3 -0.3 0.8
v 6.3 -0.3 -0.8
v 6.3 -0.3 -0.9
v 6.3 -0.1 0.9
v 6.3 -0.1 0.8
v 6.3 -0.1 -0.8
v 6.3 -0.1 -0.9
v 6.5 -0.3 1
v 6.5 -0.3 0.9
v 6.5 -0.3 -0.9
v 6.5 -0.3 -1
v 6.5 -0.1 1
v 6.5 -0.1 0.9
v 6.5 -0.1 -0.9
v 6.5 -0.1 -1
v -6.5 -0.3 1
v -6.5 -0.3 0.9
v -6.5 -0.3 -0.9
v -6.5 -0.3 -1
v -6.5 -0.1 1
v -6.5 -0.1 0.9
v -6.5 -0.1 -0.9
v -6.5 -0.1 -1
v -6.3 -0.3 0.9
v -6.3 -0.3 0.8
v -6.3 -0.3 -0.8
v -6.3 -0.3 -0.9
v -6.3 -0.1 0.9
v -6.3 -0.1 0.8
v -6.3 -0.1 -0.8
v -6.3 -0.1 -0.9
v -6.2 -0.3 0.8
v -6.2 -0.3 0.6
v -6.2 -0.3 -0.6
v -6.2 -0.3 -0.8
v -6.2 -0.1 0.8
v -6.2 -0.1 0.6
v -6.2 -0.1 -0.6
v -6.2 -0.1 -0.8
v -6.1 -0.3 0.6
v -6.1 -0.3 0.4
v -6.1 -0.3 -0.4
v -6.1 -0.3 -0.6
v -6.1 -0.1 0.6
v -6.1 -0.1 0.4
v -6.1 -0.1 -0.4
v -6.1 -0.1 -0.6
v -6 -0.3 0.4
v -6 -0.3 -0.4
v -6 -0.1 0.4
v -6 -0.1 -0.4
v 8 -0.5 1
v 8 -0.5 0.9
v 8 -0.5 -0.9
v 8 -0.5 -1
v 8 -0.2 0.9
v 8 -0.2 0.7
v 8 -0.2 -0.7
v 8 -0.2 -0.9
v 8 -0.1 1
v 8 -0.1 0.7
v 8 -0.1 -0.7
v 8 -0.1 -1
v -8 -0.5 1
v -8 -0.1 1
v -6.5 -0.5 1
v -6.5 -0.3 1
v -6.5 -0.1 1
v 6.5 -0.5 1
v 6.5 -0.3 1
v 6.5 -0.1 1
v 8 -0.5 1
v 8 -0.1 1
v -6.5 -0.3 0.9
v -6.5 -0.1 0.9
v -6.3 -0.3 0.9
v -6.3 -0.1 0.9
v 6.3 -0.3 0.9
v 6.3 -0.1 0.9
v 6.5 -0.3 0.9
v 6.5 -0.1 0.9
v -6.3 -0.3 0.8
v -6.3 -0.1 0.8
v -6.2 -0.3 0.8
v -6.2 -0.1 0.8
v 6.2 -0.3 0.8
v 6.2 -0.1 0.8
v 6.3 -0.3 0.8
v 6.3 -0.1 0.8
v -6.2 -0.3 0.6
v -6.2 -0.1 0.6
v -6.1 -0.3 0.6
v -6.1 -0.1 0.6
v 6.1 -0.3 0.6
v 6.1 -0.1 0.6
v 6.2 -0.3 0.6
v 6.2 -0.1 0.6
v -6.1 -0.3 0.4
v -6.1 -0.1 0.4
v -6 -0.3 0.4
v -6 -0.1 0.4
v 6 -0.3 0.4
v 6 -0.1 0.4
v 6.1 -0.3 0.4
v 6.1 -0.1 0.4
v -6.1 -0.3 -0.4
v -6.1 -0.1 -0.4
v -6 -0.3 -0.4
v -6 -0.1 -0.4
v 6 -0.3 -0.4
v 6 -0.1 -0.4
v 6.1 -0.3 -0.4
v 6.1 -0.1 -0.4
v -6.2 -0.3 -0.6
v -6.2 -0.1 -0.6
v -6.1 -0.3 -0.6
v -6.1 -0.1 -0.6
v 6.1 -0.3 -0.6
v 6.1 -0.1 -0.6
v 6.2 -0.3 -0.6
v 6.2 -0.1 -0.6
v -6.3 -0.3 -0.8
v -6.3 -0.1 -0.8
v -6.2 -0.3 -0.8
v -6.2 -0.1 -0.8
v 6.2 -0.3 -0.8
v 6.2 -0.1 -0.8
v 6.3 -0.3 -0.8
v 6.3 -0.1 -0.8
v -6.5 -0.3 -0.9
v -6.5 -0.1 -0.9
v -6.3 -0.3 -0.9
v -6.3 -0.1 -0.9
v 6.3 -0.3 -0.9
v 6.3 -0.1 -0.9
v 6.5 -0.3 -0.9
v 6.5 -0.1 -0.9
v -8 -0.5 -1
v -8 -0.1 -1
v -6.5 -0.5 -1
v -6.5 -0.3 -1
v -6.5 -0.1 -1
v 6.5 -0.5 -1
v 6.5 -0.3 -1
v 6.5 -0.1 -1
v 8 -0.5 -1
v 8 -0.1 -1
v -8 -0.5 1
v -6.5 -0.5 1
v 6.5 -0.5 1
v 8 -0.5 1
v -8 -0.5 0.9
v -6.5 -0.5 0.9
v -6.3 -0.5 0.9
v 6.3 -0.5 0.9
v 6.5 -0.5 0.9
v 8 -0.5 0.9
v -6.3 -0.5 0.8
v -6.2 -0.5 0.8
v 6.2 -0.5 0.8
v 6.3 -0.5 0.8
v -6.2 -0.5 0.6
v -6.1 -0.5 0.6
v 6.1 -0.5 0.6
v 6.2 -0.5 0.6
v -6.1 -0.5 0.4
v -6 -0.5 0.4
v 6 -0.5 0.4
v 6.1 -0.5 0.4
v -6.1 -0.5 -0.4
v -6 -0.5 -0.4
v 6 -0.5 -0.4
v 6.1 -0.5 -0.4
v -6.2 -0.5 -0.6
v -6.1 -0.5 -0.6
v 6.1 -0.5 -0.6
v 6.2 -0.5 -0.6
v -6.3 -0.5 -0.8
v -6.2 -0.5 -0.8
v 6.2 -0.5 -0.8
v 6.3 -0.5 -0.8
v -8 -0.5 -0.9
v -6.5 -0.5 -0.9
v -6.3 -0.5 -0.9
v 6.3 -0.5 -0.9
v 6.5 -0.5 -0.9
v 8 -0.5 -0.9
v -8 -0.5 -1
v -6.5 -0.5 -1
v 6.5 -0.5 -1
v 8 -0.5 -1
v -6.5 -0.3 1
v 6.5 -0.3 1
v -6.5 -0.3 0.9
v -6.3 -0.3 0.9
v 6.3 -0.3 0.9
v 6.5 -0.3 0.9
v -6.3 -0.3 0.8
v -6.2 -0.3 0.8
v 6.2 -0.3 0.8
v 6.3 -0.3 0.8
v -6.2 -0.3 0.6
v -6.1 -0.3 0.6
v 6.1 -0.3 0.6
v 6.2 -0.3 0.6
v -6.1 -0.3 0.4
v -6 -0.3 0.4
v 6 -0.3 0.4
v 6.1 -0.3 0.4
v -6.1 -0.3 -0.4
v -6 -0.3 -0.4
v 6 -0.3 -0.4
v 6.1 -0.3 -0.4
v -6.2 -0.3 -0.6
v -6.1 -0.3 -0.6
v 6.1 -0.3 -0.6
v 6.2 -0.3 -0.6
v -6.3 -0.3 -0.8
v -6.2 -0.3 -0.8
v 6.2 -0.3 -0.8
v 6.3 -0.3 -0.8
v -6.5 -0.3 -0.9
v -6.3 -0.3 -0.9
v 6.3 -0.3 -0.9
v 6.5 -0.3 -0.9
v -6.5 -0.3 -1
v 6.5 -0.3 -1
v -8 -0.1 1
v -6.5 -0.1 1
v 6.5 -0.1 1
v 8 -0.1 1
v -6.5 -0.1 0.9
v -6.3 -0.1 0.9
v 6.3 -0.1 0.9
v 6.5 -0.1 0.9
v -6.3 -0.1 0.8
v -6.2 -0.1 0.8
v 6.2 -0.1 0.8
v 6.3 -0.1 0.8
v -8 -0.1 0.7
v -6.7 -0.1 0.7
v 6.7 -0.1 0.7
v 8 -0.1 0.7
v -6.7 -0.1 0.6
v -6.5 -0.1 0.6
v -6.2 -0.1 0.6
v -6.1 -0.1 0.6
v 6.1 -0.1 0.6
v 6.2 -0.1 0.6
v 6.5 -0.1 0.6
v 6.7 -0.1 0.6
v -6.5 -0.1 0.5
v -6.4 -0.1 0.5
v 6.4 -0.1 0.5
v 6.5 -0.1 0.5
v -6.1 -0.1 0.4
v -6 -0.1 0.4
v 6 -0.1 0.4
v 6.1 -0.1 0.4
v -6.4 -0.1 0.3
v -6.3 -0.1 0.3
v 6.3 -0.1 0.3
v 6.4 -0.1 0.3
v -6.4 -0.1 -0.3
v -6.3 -0.1 -0.3
v 6.3 -0.1 -0.3
v 6.4 -0.1 -0.3
v -6.1 -0.1 -0.4
v -6 -0.1 -0.4
v 6 -0.1 -0.4
v 6.1 -0.1 -0.4
v -6.5 -0.1 -0.5
v -6.4 -0.1 -0.5
v 6.4 -0.1 -0.5
v 6.5 -0.1 -0.5
v -6.7 -0.1 -0.6
v -6.5 -0.1 -0.6
v -6.2 -0.1 -0.6
v -6.1 -0.1 -0.6
v 6.1 -0.1 -0.6
v 6.2 -0.1 -0.6
v 6.5 -0.1 -0.6
v 6.7 -0.1 -0.6
v -8 -0.1 -0.7
v -6.7 -0.1 -0.7
v 6.7 -0.1 -0.7
v 8 -0.1 -0.7
v -6.3 -0.1 -0.8
v -6.2 -0.1 -0.8
v 6.2 -0.1 -0.8
v 6.3 -0.1 -0.8
v -6.5 -0.1 -0.9
v -6.3 -0.1 -0.9
v 6.3 -0.1 -0.9
v 6.5 -0.1 -0.9
v -8 -0.1 -1
v -6.5 -0.1 -1
v 6.5 -0.1 -1
v 8 -0.1 -1

# faces
f 5/2/1 2/2/1 1/2/1
f 5/3/1 3/3/1 2/3/1
f 6/3/1 3/3/1 5/3/1
f 7/3/1 3/3/1 6/3/1
f 8/2/1 4/2/1 3/2/1
f 8/3/1 3/3/1 7/3/1
f 9/2/1 5/2/1 1/2/1
f 9/2/1 6/2/1 5/2/1
f 10/1/1 7/1/1 6/1/1
f 10/2/1 6/2/1 9/2/1
f 11/2/1 8/2/1 7/2/1
f 11/1/1 7/1/1 10/1/1
f 12/2/1 4/2/1 8/2/1
f 12/2/1 8/2/1 11/2/1
f 15/2/1 14/2/1 13/2/1
f 16/2/1 14/2/1 15/2/1
f 21/2/1 18/2/1 17/2/1
f 22/2/1 18/2/1 21/2/1
f 23/2/1 20/2/1 19/2/1
f 24/2/1 20/2/1 23/2/1
f 29/2/1 26/2/1 25/2/1
f 30/2/1 26/2/1 29/2/1
f 31/2/1 28/2/1 27/2/1
f 32/2/1 28/2/1 31/2/1
f 37/2/1 34/2/1 33/2/1
f 38/2/1 34/2/1 37/2/1
f 39/2/1 36/2/1 35/2/1
f 40/2/1 36/2/1 39/2/1
f 45/2/1 42/2/1 41/2/1
f 46/2/1 42/2/1 45/2/1
f 47/2/1 44/2/1 43/2/1
f 48/2/1 44/2/1 47/2/1
f 49/2/2 50/2/2 53/2/2
f 53/2/2 50/2/2 54/2/2
f 51/2/2 52/2/2 55/2/2
f 55/2/2 52/2/2 56/2/2
f 57/2/2 58/2/2 61/2/2
f 61/2/2 58/2/2 62/2/2
f 59/2/2 60/2/2 63/2/2
f 63/2/2 60/2/2 64/2/2
f 65/2/2 66/2/2 69/2/2
f 69/2/2 66/2/2 70/2/2
f 67/2/2 68/2/2 71/2/2
f 71/2/2 68/2/2 72/2/2
f 73/2/2 74/2/2 77/2/2
f 77/2/2 74/2/2 78/2/2
f 75/2/2 76/2/2 79/2/2
f 79/2/2 76/2/2 80/2/2
f 81/2/2 82/2/2 83/2/2
f 83/2/2 82/2/2 84/2/2
f 85/2/2 86/2/2 89/2/2
f 86/3/2 87/3/2 89/3/2
f 89/3/2 87/3/2 90/3/2
f 90/3/2 87/3/2 91/3/2
f 87/2/2 88/2/2 92/2/2
f 91/3/2 87/3/2 92/3/2
f 85/2/2 89/2/2 93/2/2
f 89/2/2 90/2/2 93/2/2
f 90/1/2 91/1/2 94/1/2
f 93/2/2 90/2/2 94/2/2
f 91/2/2 92/2/2 95/2/2
f 94/1/2 91/1/2 95/1/2
f 92/2/2 88/2/2 96/2/2
f 95/2/2 92/2/2 96/2/2
f 99/2/3 98/2/3 97/2/3
f 100/2/3 98/2/3 99/2/3
f 101/2/3 98/2/3 100/2/3
f 102/1/3 100/1/3 99/1/3
f 103/1/3 100/1/3 102/1/3
f 105/2/3 103/2/3 102/2/3
f 105/2/3 104/2/3 103/2/3
f 106/2/3 104/2/3 105/2/3
f 109/2/3 108/2/3 107/2/3
f 110/2/3 108/2/3 109/2/3
f 113/2/3 112/2/3 111/2/3
f 114/2/3 112/2/3 113/2/3
f 117/2/3 116/2/3 115/2/3
f 118/2/3 116/2/3 117/2/3
f 121/2/3 120/2/3 119/2/3
f 122/2/3 120/2/3 121/2/3
f 125/2/3 124/2/3 123/2/3
f 126/2/3 124/2/3 125/2/3
f 129/2/3 128/2/3 127/2/3
f 130/2/3 128/2/3 129/2/3
f 133/2/3 132/2/3 131/2/3
f 134/2/3 132/2/3 133/2/3
f 137/2/3 136/2/3 135/2/3
f 138/2/3 136/2/3 137/2/3
f 139/2/4 140/2/4 141/2/4
f 141/2/4 140/2/4 142/2/4
f 143/2/4 144/2/4 145/2/4
f 145/2/4 144/2/4 146/2/4
f 147/2/4 148/2/4 149/2/4
f 149/2/4 148/2/4 150/2/4
f 151/2/4 152/2/4 153/2/4
f 153/2/4 152/2/4 154/2/4
f 155/2/4 156/2/4 157/2/4
f 157/2/4 156/2/4 158/2/4
f 159/2/4 160/2/4 161/2/4
f 161/2/4 160/2/4 162/2/4
f 163/2/4 164/2/4 165/2/4
f 165/2/4 164/2/4 166/2/4
f 167/2/4 168/2/4 169/2/4
f 169/2/4 168/2/4 170/2/4
f 171/2/4 172/2/4 173/2/4
f 173/2/4 172/2/4 174/2/4
f 174/2/4 172/2/4 175/2/4
f 173/1/4 174/1/4 176/1/4
f 176/1/4 174/1/4 177/1/4
f 176/2/4 177/2/4 179/2/4
f 177/2/4 178/2/4 179/2/4
f 179/2/4 178/2/4 180/2/4
f 185/2/5 182/2/5 181/2/5
f 186/1/5 183/1/5 182/1/5
f 186/2/5 182/2/5 185/2/5
f 187/1/5 183/1/5 186/1/5
f 188/1/5 183/1/5 187/1/5
f 189/2/5 184/2/5 183/2/5
f 189/1/5 183/1/5 188/1/5
f 190/2/5 184/2/5 189/2/5
f 191/1/5 188/1/5 187/1/5
f 191/3/5 186/3/5 185/3/5
f 191/3/5 187/3/5 186/3/5
f 192/1/5 188/1/5 191/1/5
f 193/1/5 188/1/5 192/1/5
f 194/3/5 190/3/5 189/3/5
f 194/1/5 188/1/5 193/1/5
f 194/3/5 189/3/5 188/3/5
f 195/1/5 193/1/5 192/1/5
f 195/3/5 192/3/5 191/3/5
f 196/1/5 193/1/5 195/1/5
f 197/1/5 193/1/5 196/1/5
f 198/3/5 194/3/5 193/3/5
f 198/1/5 193/1/5 197/1/5
f 199/1/5 197/1/5 196/1/5
f 199/3/5 196/3/5 195/3/5
f 200/1/5 197/1/5 199/1/5
f 201/1/5 197/1/5 200/1/5
f 202/3/5 198/3/5 197/3/5
f 202/1/5 197/1/5 201/1/5
f 203/3/5 199/3/5 195/3/5
f 203/3/5 200/3/5 199/3/5
f 204/1/5 201/1/5 200/1/5
f 204/3/5 200/3/5 203/3/5
f 205/3/5 202/3/5 201/3/5
f 205/1/5 201/1/5 204/1/5
f 206/3/5 198/3/5 202/3/5
f 206/3/5 202/3/5 205/3/5
f 207/3/5 195/3/5 191/3/5
f 207/3/5 203/3/5 195/3/5
f 208/1/5 206/1/5 205/1/5
f 208/3/5 203/3/5 207/3/5
f 208/1/5 205/1/5 204/1/5
f 208/1/5 204/1/5 203/1/5
f 209/3/5 198/3/5 206/3/5
f 209/1/5 206/1/5 208/1/5
f 210/3/5 194/3/5 198/3/5
f 210/3/5 198/3/5 209/3/5
f 211/3/5 191/3/5 185/3/5
f 211/3/5 207/3/5 191/3/5
f 212/1/5 209/1/5 208/1/5
f 212/3/5 207/3/5 211/3/5
f 212/1/5 208/1/5 207/1/5
f 212/1/5 210/1/5 209/1/5
f 213/3/5 194/3/5 210/3/5
f 213/1/5 210/1/5 212/1/5
f 214/3/5 190/3/5 194/3/5
f 214/3/5 194/3/5 213/3/5
f 215/3/5 211/3/5 185/3/5
f 216/3/5 211/3/5 215/3/5
f 217/1/5 213/1/5 212/1/5
f 217/3/5 211/3/5 216/3/5
f 217/1/5 212/1/5 211/1/5
f 217/1/5 214/1/5 213/1/5
f 218/3/5 190/3/5 214/3/5
f 218/1/5 214/1/5 217/1/5
f 219/3/5 190/3/5 218/3/5
f 220/3/5 190/3/5 219/3/5
f 221/2/5 216/2/5 215/2/5
f 222/1/5 217/1/5 216/1/5
f 222/2/5 216/2/5 221/2/5
f 222/1/5 218/1/5 217/1/5
f 222/1/5 219/1/5 218/1/5
f 223/2/5 220/2/5 219/2/5
f 223/1/5 219/1/5 222/1/5
f 224/2/5 220/2/5 223/2/5
f 225/1/6 226/1/6 227/1/6
f 227/1/6 226/1/6 228/1/6
f 228/1/6 226/1/6 229/1/6
f 229/1/6 226/1/6 230/1/6
f 228/1/6 229/1/6 231/1/6
f 231/1/6 229/1/6 232/1/6
f 232/1/6 229/1/6 233/1/6
f 233/1/6 229/1/6 234/1/6
f 232/1/6 233/1/6 235/1/6
f 235/1/6 233/1/6 236/1/6
f 236/1/6 233/1/6 237/1/6
f 237/1/6 233/1/6 238/1/6
f 236/1/6 237/1/6 239/1/6
f 239/1/6 237/1/6 240/1/6
f 240/1/6 237/1/6 241/1/6
f 241/1/6 237/1/6 242/1/6
f 240/1/6 241/1/6 244/1/6
f 244/1/6 241/1/6 245/1/6
f 243/1/6 244/1/6 248/1/6
f 245/1/6 246/1/6 248/1/6
f 244/1/6 245/1/6 248/1/6
f 248/1/6 246/1/6 249/1/6
f 248/1/6 249/1/6 252/1/6
f 249/1/6 250/1/6 252/1/6
f 247/1/6 248/1/6 252/1/6
f 252/1/6 250/1/6 253/1/6
f 252/1/6 253/1/6 256/1/6
f 253/1/6 254/1/6 256/1/6
f 251/1/6 252/1/6 256/1/6
f 256/1/6 254/1/6 257/1/6
f 256/1/6 257/1/6 259/1/6
f 257/1/6 258/1/6 259/1/6
f 255/1/6 256/1/6 259/1/6
f 259/1/6 258/1/6 260/1/6
f 261/2/6 262/2/6 265/2/6
f 263/2/6 264/2/6 268/2/6
f 265/2/6 266/2/6 269/2/6
f 267/2/6 268/2/6 272/2/6
f 269/2/6 270/2/6 273/2/6
f 261/2/6 265/2/6 273/2/6
f 265/2/6 269/2/6 273/2/6
f 273/2/6 270/2/6 274/2/6
f 271/2/6 272/2/6 275/2/6
f 272/2/6 268/2/6 275/2/6
f 268/2/6 264/2/6 275/2/6
f 275/2/6 264/2/6 276/2/6
f 274/2/6 270/2/6 277/2/6
f 273/1/6 274/1/6 277/1/6
f 277/2/6 270/2/6 278/2/6
f 278/2/6 270/2/6 279/2/6
f 271/2/6 275/2/6 282/2/6
f 282/2/6 275/2/6 283/2/6
f 275/1/6 276/1/6 284/1/6
f 283/2/6 275/2/6 284/2/6
f 279/2/6 280/2/6 285/2/6
f 277/1/6 278/1/6 285/1/6
f 278/2/6 279/2/6 285/2/6
f 285/2/6 280/2/6 286/2/6
f 282/2/6 283/2/6 287/2/6
f 281/2/6 282/2/6 287/2/6
f 283/1/6 284/1/6 288/1/6
f 287/2/6 283/2/6 288/2/6
f 286/2/6 280/2/6 289/2/6
f 281/2/6 287/2/6 292/2/6
f 289/2/6 290/2/6 293/2/6
f 285/1/6 286/1/6 293/1/6
f 286/2/6 289/2/6 293/2/6
f 293/2/6 290/2/6 294/2/6
f 291/2/6 292/2/6 295/2/6
f 292/2/6 287/2/6 295/2/6
f 287/1/6 288/1/6 296/1/6
f 295/2/6 287/2/6 296/2/6
f 293/1/6 294/1/6 297/1/6
f 285/1/6 293/1/6 297/1/6
f 294/2/6 290/2/6 298/2/6
f 297/1/6 294/1/6 298/1/6
f 291/2/6 295/2/6 299/2/6
f 295/1/6 296/1/6 299/1/6
f 296/1/6 288/1/6 300/1/6
f 299/1/6 296/1/6 300/1/6
f 298/2/6 290/2/6 301/2/6
f 297/2/6 298/2/6 301/2/6
f 301/2/6 290/2/6 302/2/6
f 291/2/6 299/2/6 303/2/6
f 299/2/6 300/2/6 303/2/6
f 303/2/6 300/2/6 304/2/6
f 285/1/6 297/1/6 305/1/6
f 277/1/6 285/1/6 305/1/6
f 297/2/6 301/2/6 306/2/6
f 305/1/6 297/1/6 306/1/6
f 304/2/6 300/2/6 307/2/6
f 300/1/6 288/1/6 307/1/6
f 288/1/6 284/1/6 308/1/6
f 307/1/6 288/1/6 308/1/6
f 273/1/6 277/1/6 309/1/6
f 277/1/6 305/1/6 309/1/6
f 305/2/6 306/2/6 310/2/6
f 309/1/6 305/1/6 310/1/6
f 306/2/6 301/2/6 311/2/6
f 310/2/6 306/2/6 311/2/6
f 311/2/6 301/2/6 312/2/6
f 304/2/6 307/2/6 313/2/6
f 307/2/6 308/2/6 313/2/6
f 313/2/6 308/2/6 314/2/6
f 308/1/6 284/1/6 315/1/6
f 314/2/6 308/2/6 315/2/6
f 284/1/6 276/1/6 316/1/6
f 315/1/6 284/1/6 316/1/6
f 273/1/6 309/1/6 317/1/6
f 309/2/6 310/2/6 318/2/6
f 317/1/6 309/1/6 318/1/6
f 310/2/6 311/2/6 318/2/6
f 316/1/6 276/1/6 319/1/6
f 314/2/6 315/2/6 319/2/6
f 315/2/6 316/2/6 319/2/6
f 319/1/6 276/1/6 320/1/6
f 318/2/6 311/2/6 321/2/6
f 317/2/6 318/2/6 321/2/6
f 321/2/6 311/2/6 322/2/6
f 319/2/6 320/2/6 323/2/6
f 314/2/6 319/2/6 323/2/6
f 323/2/6 320/2/6 324/2/6
f 317/2/6 321/2/6 325/2/6
f 325/2/6 321/2/6 326/2/6
f 324/2/6 320/2/6 327/2/6
f 327/2/6 320/2/6 328/2/6
f 317/2/6 325/2/6 329/2/6
f 329/2/6 325/2/6 330/2/6
f 328/2/6 320/2/6 331/2/6
f 331/2/6 320/2/6 332/2/6
