# MagicaVoxel @ Ephtracy

# group
o 

# material
mtllib LargePath0.mtl
usemtl palette

# normals
vn -1 0 0
vn 1 0 0
vn 0 0 1
vn 0 0 -1
vn 0 -1 0
vn 0 1 0

# texcoords
vt 0.00976562 0.5
vt 0.0253906 0.5
vt 0.0957031 0.5

# verts
v -8 -0.2 4
v -8 -0.2 -3.7
v -8 -0.2 -3.9
v -8 -0.2 -4
v -8 0.1 -3.7
v -8 0.1 -3.9
v -8 0.2 4
v -8 0.2 -3.7
v -8 0.2 -4
v 8 -0.2 4
v 8 -0.2 -3.7
v 8 -0.2 -3.9
v 8 -0.2 -4
v 8 0.1 -3.7
v 8 0.1 -3.9
v 8 0.2 4
v 8 0.2 -3.7
v 8 0.2 -4
v -8 -0.2 4
v -8 0.2 4
v 8 -0.2 4
v 8 0.2 4
v -8 -0.2 -4
v -8 0.2 -4
v 8 -0.2 -4
v 8 0.2 -4
v -8 -0.2 4
v 8 -0.2 4
v -8 -0.2 -3.7
v 8 -0.2 -3.7
v -8 -0.2 -3.9
v 8 -0.2 -3.9
v -8 -0.2 -4
v 8 -0.2 -4
v -8 0.2 4
v 8 0.2 4
v -8 0.2 -3.7
v 8 0.2 -3.7
v -8 0.2 -4
v 8 0.2 -4

# faces
f 5/1/1 2/1/1 1/1/1
f 5/2/1 3/2/1 2/2/1
f 6/3/1 4/3/1 3/3/1
f 6/2/1 3/2/1 5/2/1
f 7/1/1 5/1/1 1/1/1
f 8/3/1 6/3/1 5/3/1
f 8/1/1 5/1/1 7/1/1
f 9/3/1 4/3/1 6/3/1
f 9/3/1 6/3/1 8/3/1
f 10/1/2 11/1/2 14/1/2
f 11/2/2 12/2/2 14/2/2
f 12/3/2 13/3/2 15/3/2
f 14/2/2 12/2/2 15/2/2
f 10/1/2 14/1/2 16/1/2
f 14/3/2 15/3/2 17/3/2
f 16/1/2 14/1/2 17/1/2
f 15/3/2 13/3/2 18/3/2
f 17/3/2 15/3/2 18/3/2
f 21/1/3 20/1/3 19/1/3
f 22/1/3 20/1/3 21/1/3
f 23/3/4 24/3/4 25/3/4
f 25/3/4 24/3/4 26/3/4
f 29/1/5 28/1/5 27/1/5
f 30/1/5 28/1/5 29/1/5
f 31/2/5 30/2/5 29/2/5
f 32/2/5 30/2/5 31/2/5
f 33/3/5 32/3/5 31/3/5
f 34/3/5 32/3/5 33/3/5
f 35/1/6 36/1/6 37/1/6
f 37/1/6 36/1/6 38/1/6
f 37/3/6 38/3/6 39/3/6
f 39/3/6 38/3/6 40/3/6
