# MagicaVoxel @ Ephtracy

# group
o 

# material
mtllib Road0.mtl
usemtl palette

# normals
vn -1 0 0
vn 1 0 0
vn 0 0 1
vn 0 0 -1
vn 0 -1 0
vn 0 1 0

# texcoords
vt 0.00585938 0.5
vt 0.00976562 0.5
vt 0.0136719 0.5
vt 0.0175781 0.5
vt 0.0292969 0.5

# verts
v -2 -2 3
v -2 -2 2.8
v -2 -2 2.7
v -2 -2 2.6
v -2 -2 2.5
v -2 -2 -3
v -2 -1.9 3
v -2 -1.9 2.9
v -2 -1.9 2.8
v -2 -1.9 2.7
v -2 -1.9 2.6
v -2 -1.9 2.5
v -2 -1.9 2.4
v -2 -1.9 -2.6
v -2 -1.9 -2.7
v -2 -1.9 -2.8
v -2 -1.9 -3
v -2 -1.8 3
v -2 -1.8 2.9
v -2 -1.8 2.8
v -2 -1.8 2.7
v -2 -1.8 2.6
v -2 -1.8 2.5
v -2 -1.8 2.4
v -2 -1.8 -2.6
v -2 -1.8 -2.7
v -2 -1.8 -2.8
v -2 -1.8 -3
v -0.1 -1.9 2.8
v -0.1 -1.9 2.7
v -0.1 -1.9 2.6
v -0.1 -1.9 2.5
v -0.1 -1.8 2.8
v -0.1 -1.8 2.7
v -0.1 -1.8 2.6
v -0.1 -1.8 2.5
v 1.9 -1.9 2.8
v 1.9 -1.9 2.7
v 1.9 -1.9 2.6
v 1.9 -1.9 2.5
v 1.9 -1.8 2.8
v 1.9 -1.8 2.7
v 1.9 -1.8 2.6
v 1.9 -1.8 2.5
v 0 -1.9 2.8
v 0 -1.9 2.7
v 0 -1.9 2.6
v 0 -1.9 2.5
v 0 -1.8 2.8
v 0 -1.8 2.7
v 0 -1.8 2.6
v 0 -1.8 2.5
v 2 -2 3
v 2 -2 -3
v 2 -1.9 3
v 2 -1.9 2.9
v 2 -1.9 2.4
v 2 -1.9 -2.6
v 2 -1.9 -2.7
v 2 -1.9 -2.8
v 2 -1.9 -3
v 2 -1.8 3
v 2 -1.8 2.9
v 2 -1.8 2.4
v 2 -1.8 -2.6
v 2 -1.8 -2.7
v 2 -1.8 -2.8
v 2 -1.8 -3
v -2 -2 3
v -2 -1.9 3
v -2 -1.8 3
v 2 -2 3
v 2 -1.9 3
v 2 -1.8 3
v -2 -1.9 2.7
v -2 -1.8 2.7
v -0.1 -1.9 2.7
v -0.1 -1.8 2.7
v 0 -1.9 2.7
v 0 -1.8 2.7
v 1.9 -1.9 2.7
v 1.9 -1.8 2.7
v -2 -1.9 2.5
v -2 -1.8 2.5
v -0.1 -1.9 2.5
v -0.1 -1.8 2.5
v 0 -1.9 2.5
v 0 -1.8 2.5
v 1.9 -1.9 2.5
v 1.9 -1.8 2.5
v -2 -1.9 2.8
v -2 -1.8 2.8
v -0.1 -1.9 2.8
v -0.1 -1.8 2.8
v 0 -1.9 2.8
v 0 -1.8 2.8
v 1.9 -1.9 2.8
v 1.9 -1.8 2.8
v -2 -1.9 2.6
v -2 -1.8 2.6
v -0.1 -1.9 2.6
v -0.1 -1.8 2.6
v 0 -1.9 2.6
v 0 -1.8 2.6
v 1.9 -1.9 2.6
v 1.9 -1.8 2.6
v -2 -2 -3
v -2 -1.9 -3
v -2 -1.8 -3
v 2 -2 -3
v 2 -1.9 -3
v 2 -1.8 -3
v -2 -2 3
v 2 -2 3
v -2 -2 2.8
v -0.1 -2 2.8
v 0 -2 2.8
v 1.9 -2 2.8
v -2 -2 2.7
v -0.1 -2 2.7
v 0 -2 2.7
v 1.9 -2 2.7
v -2 -2 2.6
v -0.1 -2 2.6
v 0 -2 2.6
v 1.9 -2 2.6
v -2 -2 2.5
v -0.1 -2 2.5
v 0 -2 2.5
v 1.9 -2 2.5
v -2 -2 -3
v 2 -2 -3
v -2 -1.9 2.8
v -0.1 -1.9 2.8
v 0 -1.9 2.8
v 1.9 -1.9 2.8
v -2 -1.9 2.7
v -0.1 -1.9 2.7
v 0 -1.9 2.7
v 1.9 -1.9 2.7
v -2 -1.9 2.6
v -0.1 -1.9 2.6
v 0 -1.9 2.6
v 1.9 -1.9 2.6
v -2 -1.9 2.5
v -0.1 -1.9 2.5
v 0 -1.9 2.5
v 1.9 -1.9 2.5
v -2 -1.8 3
v 2 -1.8 3
v -2 -1.8 2.9
v 2 -1.8 2.9
v -2 -1.8 2.8
v -0.1 -1.8 2.8
v 0 -1.8 2.8
v 1.9 -1.8 2.8
v -2 -1.8 2.7
v -0.1 -1.8 2.7
v 0 -1.8 2.7
v 1.9 -1.8 2.7
v -2 -1.8 2.6
v -0.1 -1.8 2.6
v 0 -1.8 2.6
v 1.9 -1.8 2.6
v -2 -1.8 2.5
v -0.1 -1.8 2.5
v 0 -1.8 2.5
v 1.9 -1.8 2.5
v -2 -1.8 2.4
v 2 -1.8 2.4
v -0.7 -1.8 0.1
v 0.7 -1.8 0.1
v -0.7 -1.8 -0.0999999
v 0.7 -1.8 -0.0999999
v -2 -1.8 -2.6
v 2 -1.8 -2.6
v -2 -1.8 -2.7
v 2 -1.8 -2.7
v -2 -1.8 -2.8
v -1.7 -1.8 -2.8
v -1.1 -1.8 -2.8
v -0.5 -1.8 -2.8
v 0 -1.8 -2.8
v 0.4 -1.8 -2.8
v 1.1 -1.8 -2.8
v 1.7 -1.8 -2.8
v 1.9 -1.8 -2.8
v 2 -1.8 -2.8
v -1.7 -1.8 -2.9
v -1.1 -1.8 -2.9
v -0.5 -1.8 -2.9
v 0 -1.8 -2.9
v 0.4 -1.8 -2.9
v 1.1 -1.8 -2.9
v 1.7 -1.8 -2.9
v 1.9 -1.8 -2.9
v -2 -1.8 -3
v 2 -1.8 -3

# faces
f 7/4/1 2/4/1 1/4/1
f 8/4/1 2/4/1 7/4/1
f 9/1/1 3/1/1 2/1/1
f 9/4/1 2/4/1 8/4/1
f 10/4/1 4/4/1 3/4/1
f 10/1/1 3/1/1 9/1/1
f 11/1/1 5/1/1 4/1/1
f 11/4/1 4/4/1 10/4/1
f 12/4/1 6/4/1 5/4/1
f 12/1/1 5/1/1 11/1/1
f 13/4/1 6/4/1 12/4/1
f 14/4/1 6/4/1 13/4/1
f 15/4/1 6/4/1 14/4/1
f 16/4/1 6/4/1 15/4/1
f 17/4/1 6/4/1 16/4/1
f 18/3/1 8/3/1 7/3/1
f 19/2/1 9/2/1 8/2/1
f 19/3/1 8/3/1 18/3/1
f 20/2/1 9/2/1 19/2/1
f 21/2/1 11/2/1 10/2/1
f 22/2/1 11/2/1 21/2/1
f 23/2/1 13/2/1 12/2/1
f 24/4/1 14/4/1 13/4/1
f 24/2/1 13/2/1 23/2/1
f 25/5/1 15/5/1 14/5/1
f 25/4/1 14/4/1 24/4/1
f 26/4/1 16/4/1 15/4/1
f 26/5/1 15/5/1 25/5/1
f 27/3/1 17/3/1 16/3/1
f 27/4/1 16/4/1 26/4/1
f 28/3/1 17/3/1 27/3/1
f 33/2/1 30/2/1 29/2/1
f 34/2/1 30/2/1 33/2/1
f 35/2/1 32/2/1 31/2/1
f 36/2/1 32/2/1 35/2/1
f 41/2/1 38/2/1 37/2/1
f 42/2/1 38/2/1 41/2/1
f 43/2/1 40/2/1 39/2/1
f 44/2/1 40/2/1 43/2/1
f 45/2/2 46/2/2 49/2/2
f 49/2/2 46/2/2 50/2/2
f 47/2/2 48/2/2 51/2/2
f 51/2/2 48/2/2 52/2/2
f 53/4/2 54/4/2 55/4/2
f 55/4/2 54/4/2 56/4/2
f 56/4/2 54/4/2 57/4/2
f 57/4/2 54/4/2 58/4/2
f 58/4/2 54/4/2 59/4/2
f 59/4/2 54/4/2 60/4/2
f 60/4/2 54/4/2 61/4/2
f 55/3/2 56/3/2 62/3/2
f 56/2/2 57/2/2 63/2/2
f 62/3/2 56/3/2 63/3/2
f 57/4/2 58/4/2 64/4/2
f 63/2/2 57/2/2 64/2/2
f 58/5/2 59/5/2 65/5/2
f 64/4/2 58/4/2 65/4/2
f 59/4/2 60/4/2 66/4/2
f 65/5/2 59/5/2 66/5/2
f 60/3/2 61/3/2 67/3/2
f 66/4/2 60/4/2 67/4/2
f 67/3/2 61/3/2 68/3/2
f 72/4/3 70/4/3 69/4/3
f 73/3/3 71/3/3 70/3/3
f 73/4/3 70/4/3 72/4/3
f 74/3/3 71/3/3 73/3/3
f 77/2/3 76/2/3 75/2/3
f 78/2/3 76/2/3 77/2/3
f 81/2/3 80/2/3 79/2/3
f 82/2/3 80/2/3 81/2/3
f 85/2/3 84/2/3 83/2/3
f 86/2/3 84/2/3 85/2/3
f 89/2/3 88/2/3 87/2/3
f 90/2/3 88/2/3 89/2/3
f 91/2/4 92/2/4 93/2/4
f 93/2/4 92/2/4 94/2/4
f 95/2/4 96/2/4 97/2/4
f 97/2/4 96/2/4 98/2/4
f 99/2/4 100/2/4 101/2/4
f 101/2/4 100/2/4 102/2/4
f 103/2/4 104/2/4 105/2/4
f 105/2/4 104/2/4 106/2/4
f 107/4/4 108/4/4 110/4/4
f 108/3/4 109/3/4 111/3/4
f 110/4/4 108/4/4 111/4/4
f 111/3/4 109/3/4 112/3/4
f 115/4/5 114/4/5 113/4/5
f 116/4/5 114/4/5 115/4/5
f 117/4/5 114/4/5 116/4/5
f 118/4/5 114/4/5 117/4/5
f 119/1/5 116/1/5 115/1/5
f 120/4/5 117/4/5 116/4/5
f 120/1/5 116/1/5 119/1/5
f 121/1/5 118/1/5 117/1/5
f 121/4/5 117/4/5 120/4/5
f 122/4/5 114/4/5 118/4/5
f 122/1/5 118/1/5 121/1/5
f 123/4/5 121/4/5 120/4/5
f 123/4/5 120/4/5 119/4/5
f 123/4/5 122/4/5 121/4/5
f 124/4/5 122/4/5 123/4/5
f 125/4/5 122/4/5 124/4/5
f 126/4/5 114/4/5 122/4/5
f 126/4/5 122/4/5 125/4/5
f 127/1/5 124/1/5 123/1/5
f 128/4/5 125/4/5 124/4/5
f 128/1/5 124/1/5 127/1/5
f 129/1/5 126/1/5 125/1/5
f 129/4/5 125/4/5 128/4/5
f 130/4/5 114/4/5 126/4/5
f 130/1/5 126/1/5 129/1/5
f 131/4/5 129/4/5 128/4/5
f 131/4/5 128/4/5 127/4/5
f 131/4/5 130/4/5 129/4/5
f 132/4/5 114/4/5 130/4/5
f 132/4/5 130/4/5 131/4/5
f 133/1/6 134/1/6 137/1/6
f 137/1/6 134/1/6 138/1/6
f 135/1/6 136/1/6 139/1/6
f 139/1/6 136/1/6 140/1/6
f 141/1/6 142/1/6 145/1/6
f 145/1/6 142/1/6 146/1/6
f 143/1/6 144/1/6 147/1/6
f 147/1/6 144/1/6 148/1/6
f 149/3/6 150/3/6 151/3/6
f 151/3/6 150/3/6 152/3/6
f 151/2/6 152/2/6 153/2/6
f 153/2/6 152/2/6 154/2/6
f 154/2/6 152/2/6 155/2/6
f 155/2/6 152/2/6 156/2/6
f 154/2/6 155/2/6 158/2/6
f 158/2/6 155/2/6 159/2/6
f 156/2/6 152/2/6 160/2/6
f 158/2/6 159/2/6 161/2/6
f 159/2/6 160/2/6 161/2/6
f 157/2/6 158/2/6 161/2/6
f 161/2/6 160/2/6 162/2/6
f 162/2/6 160/2/6 163/2/6
f 160/2/6 152/2/6 164/2/6
f 163/2/6 160/2/6 164/2/6
f 162/2/6 163/2/6 166/2/6
f 166/2/6 163/2/6 167/2/6
f 164/2/6 152/2/6 168/2/6
f 166/2/6 167/2/6 169/2/6
f 167/2/6 168/2/6 169/2/6
f 165/2/6 166/2/6 169/2/6
f 168/2/6 152/2/6 170/2/6
f 169/2/6 168/2/6 170/2/6
f 169/4/6 170/4/6 171/4/6
f 171/4/6 170/4/6 172/4/6
f 169/4/6 171/4/6 173/4/6
f 171/5/6 172/5/6 173/5/6
f 172/4/6 170/4/6 174/4/6
f 173/5/6 172/5/6 174/5/6
f 169/4/6 173/4/6 175/4/6
f 173/4/6 174/4/6 175/4/6
f 174/4/6 170/4/6 176/4/6
f 175/4/6 174/4/6 176/4/6
f 175/5/6 176/5/6 177/5/6
f 177/5/6 176/5/6 178/5/6
f 177/4/6 178/4/6 179/4/6
f 179/4/6 178/4/6 180/4/6
f 180/4/6 178/4/6 181/4/6
f 181/4/6 178/4/6 182/4/6
f 182/4/6 178/4/6 183/4/6
f 183/4/6 178/4/6 184/4/6
f 184/4/6 178/4/6 185/4/6
f 185/4/6 178/4/6 186/4/6
f 186/4/6 178/4/6 187/4/6
f 187/4/6 178/4/6 188/4/6
f 179/3/6 180/3/6 189/3/6
f 180/4/6 181/4/6 189/4/6
f 181/3/6 182/3/6 190/3/6
f 189/4/6 181/4/6 190/4/6
f 182/4/6 183/4/6 191/4/6
f 190/3/6 182/3/6 191/3/6
f 183/3/6 184/3/6 192/3/6
f 191/4/6 183/4/6 192/4/6
f 184/4/6 185/4/6 193/4/6
f 192/3/6 184/3/6 193/3/6
f 185/3/6 186/3/6 194/3/6
f 193/4/6 185/4/6 194/4/6
f 186/4/6 187/4/6 195/4/6
f 194/3/6 186/3/6 195/3/6
f 187/3/6 188/3/6 196/3/6
f 195/4/6 187/4/6 196/4/6
f 194/3/6 195/3/6 197/3/6
f 179/3/6 189/3/6 197/3/6
f 195/3/6 196/3/6 197/3/6
f 193/3/6 194/3/6 197/3/6
f 192/3/6 193/3/6 197/3/6
f 191/3/6 192/3/6 197/3/6
f 190/3/6 191/3/6 197/3/6
f 189/3/6 190/3/6 197/3/6
f 196/3/6 188/3/6 198/3/6
f 197/3/6 196/3/6 198/3/6
