# MagicaVoxel @ Ephtracy

# group
o 

# material
mtllib Road0.mtl
usemtl palette

# normals
vn -1 0 0
vn 1 0 0
vn 0 0 1
vn 0 0 -1
vn 0 -1 0
vn 0 1 0

# texcoords
vt 0.00585938 0.5
vt 0.00976562 0.5
vt 0.0136719 0.5
vt 0.0175781 0.5
vt 0.0214844 0.5
vt 0.0292969 0.5

# verts
v -2 0 3
v -2 0 2.8
v -2 0 2.7
v -2 0 2.6
v -2 0 2.5
v -2 0 -3
v -2 0.1 3
v -2 0.1 2.9
v -2 0.1 2.8
v -2 0.1 2.7
v -2 0.1 2.6
v -2 0.1 2.5
v -2 0.1 2.4
v -2 0.1 2.3
v -2 0.1 2
v -2 0.1 1
v -2 0.1 0.7
v -2 0.1 -0.7
v -2 0.1 -1
v -2 0.1 -2.1
v -2 0.1 -2.3
v -2 0.1 -2.6
v -2 0.1 -2.7
v -2 0.1 -2.8
v -2 0.1 -3
v -2 0.2 3
v -2 0.2 2.9
v -2 0.2 2.8
v -2 0.2 2.7
v -2 0.2 2.6
v -2 0.2 2.5
v -2 0.2 2.4
v -2 0.2 2.3
v -2 0.2 2
v -2 0.2 1
v -2 0.2 0.7
v -2 0.2 -0.7
v -2 0.2 -1
v -2 0.2 -2.1
v -2 0.2 -2.3
v -2 0.2 -2.6
v -2 0.2 -2.7
v -2 0.2 -2.8
v -2 0.2 -3
v -0.0999999 0.1 2.8
v -0.0999999 0.1 2.7
v -0.0999999 0.1 2.6
v -0.0999999 0.1 2.5
v -0.0999999 0.2 2.8
v -0.0999999 0.2 2.7
v -0.0999999 0.2 2.6
v -0.0999999 0.2 2.5
v 1.9 0.1 2.8
v 1.9 0.1 2.7
v 1.9 0.1 2.6
v 1.9 0.1 2.5
v 1.9 0.2 2.8
v 1.9 0.2 2.7
v 1.9 0.2 2.6
v 1.9 0.2 2.5
v 2.38419e-07 0.1 2.8
v 2.38419e-07 0.1 2.7
v 2.38419e-07 0.1 2.6
v 2.38419e-07 0.1 2.5
v 2.38419e-07 0.2 2.8
v 2.38419e-07 0.2 2.7
v 2.38419e-07 0.2 2.6
v 2.38419e-07 0.2 2.5
v 2 0 3
v 2 0 -3
v 2 0.1 3
v 2 0.1 2.9
v 2 0.1 2.4
v 2 0.1 2.3
v 2 0.1 2
v 2 0.1 1
v 2 0.1 0.6
v 2 0.1 -0.7
v 2 0.1 -1
v 2 0.1 -2.1
v 2 0.1 -2.2
v 2 0.1 -2.6
v 2 0.1 -2.7
v 2 0.1 -2.8
v 2 0.1 -3
v 2 0.2 3
v 2 0.2 2.9
v 2 0.2 2.4
v 2 0.2 2.3
v 2 0.2 2
v 2 0.2 1
v 2 0.2 0.6
v 2 0.2 -0.7
v 2 0.2 -1
v 2 0.2 -2.1
v 2 0.2 -2.2
v 2 0.2 -2.6
v 2 0.2 -2.7
v 2 0.2 -2.8
v 2 0.2 -3
v -2 0 3
v -2 0.1 3
v -2 0.2 3
v 2 0 3
v 2 0.1 3
v 2 0.2 3
v -2 0.1 2.7
v -2 0.2 2.7
v -0.0999999 0.1 2.7
v -0.0999999 0.2 2.7
v 2.38419e-07 0.1 2.7
v 2.38419e-07 0.2 2.7
v 1.9 0.1 2.7
v 1.9 0.2 2.7
v -2 0.1 2.5
v -2 0.2 2.5
v -0.0999999 0.1 2.5
v -0.0999999 0.2 2.5
v 2.38419e-07 0.1 2.5
v 2.38419e-07 0.2 2.5
v 1.9 0.1 2.5
v 1.9 0.2 2.5
v -2 0.1 2.8
v -2 0.2 2.8
v -0.0999999 0.1 2.8
v -0.0999999 0.2 2.8
v 2.38419e-07 0.1 2.8
v 2.38419e-07 0.2 2.8
v 1.9 0.1 2.8
v 1.9 0.2 2.8
v -2 0.1 2.6
v -2 0.2 2.6
v -0.0999999 0.1 2.6
v -0.0999999 0.2 2.6
v 2.38419e-07 0.1 2.6
v 2.38419e-07 0.2 2.6
v 1.9 0.1 2.6
v 1.9 0.2 2.6
v -2 0 -3
v -2 0.1 -3
v -2 0.2 -3
v 2 0 -3
v 2 0.1 -3
v 2 0.2 -3
v -2 0 3
v 2 0 3
v -2 0 2.8
v -0.0999999 0 2.8
v 2.38419e-07 0 2.8
v 1.9 0 2.8
v -2 0 2.7
v -0.0999999 0 2.7
v 2.38419e-07 0 2.7
v 1.9 0 2.7
v -2 0 2.6
v -0.0999999 0 2.6
v 2.38419e-07 0 2.6
v 1.9 0 2.6
v -2 0 2.5
v -0.0999999 0 2.5
v 2.38419e-07 0 2.5
v 1.9 0 2.5
v -2 0 -3
v 2 0 -3
v -2 0.1 2.8
v -0.0999999 0.1 2.8
v 2.38419e-07 0.1 2.8
v 1.9 0.1 2.8
v -2 0.1 2.7
v -0.0999999 0.1 2.7
v 2.38419e-07 0.1 2.7
v 1.9 0.1 2.7
v -2 0.1 2.6
v -0.0999999 0.1 2.6
v 2.38419e-07 0.1 2.6
v 1.9 0.1 2.6
v -2 0.1 2.5
v -0.0999999 0.1 2.5
v 2.38419e-07 0.1 2.5
v 1.9 0.1 2.5
v -2 0.2 3
v 2 0.2 3
v -2 0.2 2.9
v 2 0.2 2.9
v -2 0.2 2.8
v -0.0999999 0.2 2.8
v 2.38419e-07 0.2 2.8
v 1.9 0.2 2.8
v -2 0.2 2.7
v -0.0999999 0.2 2.7
v 2.38419e-07 0.2 2.7
v 1.9 0.2 2.7
v -2 0.2 2.6
v -0.0999999 0.2 2.6
v 2.38419e-07 0.2 2.6
v 1.9 0.2 2.6
v -2 0.2 2.5
v -0.0999999 0.2 2.5
v 2.38419e-07 0.2 2.5
v 1.9 0.2 2.5
v -2 0.2 2.4
v 2 0.2 2.4
v -2 0.2 2.3
v -1.9 0.2 2.3
v -1.8 0.2 2.3
v -1.5 0.2 2.3
v -1.4 0.2 2.3
v -1.1 0.2 2.3
v -0.5 0.2 2.3
v -0.3 0.2 2.3
v -0.2 0.2 2.3
v 0.4 0.2 2.3
v 0.5 0.2 2.3
v 2 0.2 2.3
v -1.9 0.2 2.2
v -1.8 0.2 2.2
v -1.5 0.2 2.2
v -1.4 0.2 2.2
v -1.1 0.2 2.2
v -0.7 0.2 2.2
v -0.6 0.2 2.2
v -0.5 0.2 2.2
v -0.3 0.2 2.2
v -0.2 0.2 2.2
v 0.4 0.2 2.2
v 0.5 0.2 2.2
v 1.1 0.2 2.2
v 1.2 0.2 2.2
v -1.7 0.2 2.1
v -1.4 0.2 2.1
v -1 0.2 2.1
v -0.9 0.2 2.1
v -0.7 0.2 2.1
v -0.6 0.2 2.1
v 2.38419e-07 0.2 2.1
v 0.1 0.2 2.1
v 0.6 0.2 2.1
v 1.1 0.2 2.1
v 1.2 0.2 2.1
v 1.5 0.2 2.1
v 1.8 0.2 2.1
v 1.9 0.2 2.1
v -2 0.2 2
v -1.7 0.2 2
v -1.4 0.2 2
v -1 0.2 2
v -0.9 0.2 2
v 2.38419e-07 0.2 2
v 0.1 0.2 2
v 0.6 0.2 2
v 1.5 0.2 2
v 1.8 0.2 2
v 1.9 0.2 2
v 2 0.2 2
v -2 0.2 1
v -1.9 0.2 1
v -1.8 0.2 1
v -1.7 0.2 1
v -0.0999999 0.2 1
v 0.2 0.2 1
v 0.6 0.2 1
v 1 0.2 1
v 1.8 0.2 1
v 2 0.2 1
v -1.9 0.2 0.9
v -1.8 0.2 0.9
v -1.7 0.2 0.9
v -0.9 0.2 0.9
v -0.8 0.2 0.9
v -0.0999999 0.2 0.9
v 0.2 0.2 0.9
v 0.3 0.2 0.9
v 0.5 0.2 0.9
v 0.6 0.2 0.9
v 0.7 0.2 0.9
v 1 0.2 0.9
v 1.8 0.2 0.9
v -0.9 0.2 0.8
v -0.8 0.2 0.8
v -0.2 0.2 0.8
v 0.1 0.2 0.8
v 0.3 0.2 0.8
v 0.5 0.2 0.8
v 0.7 0.2 0.8
v 1 0.2 0.8
v -2 0.2 0.7
v -1.9 0.2 0.7
v -1.6 0.2 0.7
v -1.3 0.2 0.7
v -1.2 0.2 0.7
v -1.1 0.2 0.7
v -0.5 0.2 0.7
v -0.2 0.2 0.7
v 0.1 0.2 0.7
v 0.3 0.2 0.7
v 0.6 0.2 0.7
v 0.9 0.2 0.7
v 1.5 0.2 0.7
v 1.6 0.2 0.7
v -1.9 0.2 0.6
v -1.6 0.2 0.6
v -1.3 0.2 0.6
v -1.2 0.2 0.6
v -1.1 0.2 0.6
v -0.5 0.2 0.6
v 0.3 0.2 0.6
v 0.6 0.2 0.6
v 0.9 0.2 0.6
v 1.5 0.2 0.6
v 1.6 0.2 0.6
v 2 0.2 0.6
v -0.7 0.2 0.0999999
v 0.7 0.2 0.0999999
v -0.7 0.2 -0.1
v 0.7 0.2 -0.1
v -1.1 0.2 -0.6
v -0.7 0.2 -0.6
v -0.6 0.2 -0.6
v 2.38419e-07 0.2 -0.6
v 0.6 0.2 -0.6
v 1.2 0.2 -0.6
v -2 0.2 -0.7
v -1.9 0.2 -0.7
v -1.7 0.2 -0.7
v -1.6 0.2 -0.7
v -1.3 0.2 -0.7
v -1.1 0.2 -0.7
v -0.7 0.2 -0.7
v -0.6 0.2 -0.7
v 2.38419e-07 0.2 -0.7
v 0.2 0.2 -0.7
v 0.3 0.2 -0.7
v 0.6 0.2 -0.7
v 1.2 0.2 -0.7
v 1.7 0.2 -0.7
v 1.8 0.2 -0.7
v 2 0.2 -0.7
v -1.9 0.2 -0.8
v -1.7 0.2 -0.8
v -1.6 0.2 -0.8
v -1.5 0.2 -0.8
v -1.3 0.2 -0.8
v -0.9 0.2 -0.8
v -0.4 0.2 -0.8
v -0.3 0.2 -0.8
v 0.2 0.2 -0.8
v 0.3 0.2 -0.8
v 1.2 0.2 -0.8
v 1.3 0.2 -0.8
v 1.7 0.2 -0.8
v 1.8 0.2 -0.8
v -1.8 0.2 -0.9
v -1.5 0.2 -0.9
v -0.9 0.2 -0.9
v -0.4 0.2 -0.9
v -0.3 0.2 -0.9
v 0.2 0.2 -0.9
v 0.3 0.2 -0.9
v 0.4 0.2 -0.9
v 0.5 0.2 -0.9
v 0.6 0.2 -0.9
v 0.9 0.2 -0.9
v 1.2 0.2 -0.9
v 1.3 0.2 -0.9
v 1.8 0.2 -0.9
v -2 0.2 -1
v -1.8 0.2 -1
v 0.2 0.2 -1
v 0.3 0.2 -1
v 0.4 0.2 -1
v 0.5 0.2 -1
v 0.6 0.2 -1
v 0.9 0.2 -1
v 1.8 0.2 -1
v 2 0.2 -1
v -0.9 0.2 -1.9
v -0.6 0.2 -1.9
v -1.1 0.2 -2
v -0.9 0.2 -2
v -0.6 0.2 -2
v -0.0999999 0.2 -2
v 1.2 0.2 -2
v 1.8 0.2 -2
v -2 0.2 -2.1
v -1.1 0.2 -2.1
v -0.0999999 0.2 -2.1
v 0.5 0.2 -2.1
v 0.9 0.2 -2.1
v 1.2 0.2 -2.1
v 1.7 0.2 -2.1
v 1.8 0.2 -2.1
v 1.9 0.2 -2.1
v 2 0.2 -2.1
v -1.6 0.2 -2.2
v -1.5 0.2 -2.2
v -0.6 0.2 -2.2
v -0.2 0.2 -2.2
v 0.2 0.2 -2.2
v 0.5 0.2 -2.2
v 0.9 0.2 -2.2
v 1 0.2 -2.2
v 1.7 0.2 -2.2
v 1.8 0.2 -2.2
v 1.9 0.2 -2.2
v 2 0.2 -2.2
v -2 0.2 -2.3
v -1.6 0.2 -2.3
v -1.5 0.2 -2.3
v -0.6 0.2 -2.3
v -0.2 0.2 -2.3
v 0.2 0.2 -2.3
v 1 0.2 -2.3
v 1.8 0.2 -2.3
v -2 0.2 -2.6
v 2 0.2 -2.6
v -2 0.2 -2.7
v 2 0.2 -2.7
v -2 0.2 -2.8
v -1.7 0.2 -2.8
v -1.1 0.2 -2.8
v -0.5 0.2 -2.8
v 2.38419e-07 0.2 -2.8
v 0.4 0.2 -2.8
v 1.1 0.2 -2.8
v 1.7 0.2 -2.8
v 1.9 0.2 -2.8
v 2 0.2 -2.8
v -1.7 0.2 -2.9
v -1.1 0.2 -2.9
v -0.5 0.2 -2.9
v 2.38419e-07 0.2 -2.9
v 0.4 0.2 -2.9
v 1.1 0.2 -2.9
v 1.7 0.2 -2.9
v 1.9 0.2 -2.9
v -2 0.2 -3
v 2 0.2 -3

# faces
f 7/4/1 2/4/1 1/4/1
f 8/4/1 2/4/1 7/4/1
f 9/1/1 3/1/1 2/1/1
f 9/4/1 2/4/1 8/4/1
f 10/4/1 4/4/1 3/4/1
f 10/1/1 3/1/1 9/1/1
f 11/1/1 5/1/1 4/1/1
f 11/4/1 4/4/1 10/4/1
f 12/4/1 6/4/1 5/4/1
f 12/1/1 5/1/1 11/1/1
f 13/4/1 6/4/1 12/4/1
f 14/4/1 6/4/1 13/4/1
f 15/4/1 6/4/1 14/4/1
f 16/4/1 6/4/1 15/4/1
f 17/4/1 6/4/1 16/4/1
f 18/4/1 6/4/1 17/4/1
f 19/4/1 6/4/1 18/4/1
f 20/4/1 6/4/1 19/4/1
f 21/4/1 6/4/1 20/4/1
f 22/4/1 6/4/1 21/4/1
f 23/4/1 6/4/1 22/4/1
f 24/4/1 6/4/1 23/4/1
f 25/4/1 6/4/1 24/4/1
f 26/3/1 8/3/1 7/3/1
f 27/2/1 9/2/1 8/2/1
f 27/3/1 8/3/1 26/3/1
f 28/2/1 9/2/1 27/2/1
f 29/2/1 11/2/1 10/2/1
f 30/2/1 11/2/1 29/2/1
f 31/2/1 13/2/1 12/2/1
f 32/4/1 14/4/1 13/4/1
f 32/2/1 13/2/1 31/2/1
f 33/5/1 15/5/1 14/5/1
f 33/4/1 14/4/1 32/4/1
f 34/4/1 16/4/1 15/4/1
f 34/5/1 15/5/1 33/5/1
f 35/5/1 17/5/1 16/5/1
f 35/4/1 16/4/1 34/4/1
f 36/4/1 18/4/1 17/4/1
f 36/5/1 17/5/1 35/5/1
f 37/5/1 19/5/1 18/5/1
f 37/4/1 18/4/1 36/4/1
f 38/4/1 20/4/1 19/4/1
f 38/5/1 19/5/1 37/5/1
f 39/5/1 21/5/1 20/5/1
f 39/4/1 20/4/1 38/4/1
f 40/4/1 22/4/1 21/4/1
f 40/5/1 21/5/1 39/5/1
f 41/6/1 23/6/1 22/6/1
f 41/4/1 22/4/1 40/4/1
f 42/4/1 24/4/1 23/4/1
f 42/6/1 23/6/1 41/6/1
f 43/3/1 25/3/1 24/3/1
f 43/4/1 24/4/1 42/4/1
f 44/3/1 25/3/1 43/3/1
f 49/2/1 46/2/1 45/2/1
f 50/2/1 46/2/1 49/2/1
f 51/2/1 48/2/1 47/2/1
f 52/2/1 48/2/1 51/2/1
f 57/2/1 54/2/1 53/2/1
f 58/2/1 54/2/1 57/2/1
f 59/2/1 56/2/1 55/2/1
f 60/2/1 56/2/1 59/2/1
f 61/2/2 62/2/2 65/2/2
f 65/2/2 62/2/2 66/2/2
f 63/2/2 64/2/2 67/2/2
f 67/2/2 64/2/2 68/2/2
f 69/4/2 70/4/2 71/4/2
f 71/4/2 70/4/2 72/4/2
f 72/4/2 70/4/2 73/4/2
f 73/4/2 70/4/2 74/4/2
f 74/4/2 70/4/2 75/4/2
f 75/4/2 70/4/2 76/4/2
f 76/4/2 70/4/2 77/4/2
f 77/4/2 70/4/2 78/4/2
f 78/4/2 70/4/2 79/4/2
f 79/4/2 70/4/2 80/4/2
f 80/4/2 70/4/2 81/4/2
f 81/4/2 70/4/2 82/4/2
f 82/4/2 70/4/2 83/4/2
f 83/4/2 70/4/2 84/4/2
f 84/4/2 70/4/2 85/4/2
f 71/3/2 72/3/2 86/3/2
f 72/2/2 73/2/2 87/2/2
f 86/3/2 72/3/2 87/3/2
f 73/4/2 74/4/2 88/4/2
f 87/2/2 73/2/2 88/2/2
f 74/5/2 75/5/2 89/5/2
f 88/4/2 74/4/2 89/4/2
f 75/4/2 76/4/2 90/4/2
f 89/5/2 75/5/2 90/5/2
f 76/5/2 77/5/2 91/5/2
f 90/4/2 76/4/2 91/4/2
f 77/4/2 78/4/2 92/4/2
f 91/5/2 77/5/2 92/5/2
f 78/5/2 79/5/2 93/5/2
f 92/4/2 78/4/2 93/4/2
f 79/4/2 80/4/2 94/4/2
f 93/5/2 79/5/2 94/5/2
f 80/5/2 81/5/2 95/5/2
f 94/4/2 80/4/2 95/4/2
f 81/4/2 82/4/2 96/4/2
f 95/5/2 81/5/2 96/5/2
f 82/6/2 83/6/2 97/6/2
f 96/4/2 82/4/2 97/4/2
f 83/4/2 84/4/2 98/4/2
f 97/6/2 83/6/2 98/6/2
f 84/3/2 85/3/2 99/3/2
f 98/4/2 84/4/2 99/4/2
f 99/3/2 85/3/2 100/3/2
f 104/4/3 102/4/3 101/4/3
f 105/3/3 103/3/3 102/3/3
f 105/4/3 102/4/3 104/4/3
f 106/3/3 103/3/3 105/3/3
f 109/2/3 108/2/3 107/2/3
f 110/2/3 108/2/3 109/2/3
f 113/2/3 112/2/3 111/2/3
f 114/2/3 112/2/3 113/2/3
f 117/2/3 116/2/3 115/2/3
f 118/2/3 116/2/3 117/2/3
f 121/2/3 120/2/3 119/2/3
f 122/2/3 120/2/3 121/2/3
f 123/2/4 124/2/4 125/2/4
f 125/2/4 124/2/4 126/2/4
f 127/2/4 128/2/4 129/2/4
f 129/2/4 128/2/4 130/2/4
f 131/2/4 132/2/4 133/2/4
f 133/2/4 132/2/4 134/2/4
f 135/2/4 136/2/4 137/2/4
f 137/2/4 136/2/4 138/2/4
f 139/4/4 140/4/4 142/4/4
f 140/3/4 141/3/4 143/3/4
f 142/4/4 140/4/4 143/4/4
f 143/3/4 141/3/4 144/3/4
f 147/4/5 146/4/5 145/4/5
f 148/4/5 146/4/5 147/4/5
f 149/4/5 146/4/5 148/4/5
f 150/4/5 146/4/5 149/4/5
f 151/1/5 148/1/5 147/1/5
f 152/4/5 149/4/5 148/4/5
f 152/1/5 148/1/5 151/1/5
f 153/1/5 150/1/5 149/1/5
f 153/4/5 149/4/5 152/4/5
f 154/4/5 146/4/5 150/4/5
f 154/1/5 150/1/5 153/1/5
f 155/4/5 153/4/5 152/4/5
f 155/4/5 152/4/5 151/4/5
f 155/4/5 154/4/5 153/4/5
f 156/4/5 154/4/5 155/4/5
f 157/4/5 154/4/5 156/4/5
f 158/4/5 146/4/5 154/4/5
f 158/4/5 154/4/5 157/4/5
f 159/1/5 156/1/5 155/1/5
f 160/4/5 157/4/5 156/4/5
f 160/1/5 156/1/5 159/1/5
f 161/1/5 158/1/5 157/1/5
f 161/4/5 157/4/5 160/4/5
f 162/4/5 146/4/5 158/4/5
f 162/1/5 158/1/5 161/1/5
f 163/4/5 161/4/5 160/4/5
f 163/4/5 160/4/5 159/4/5
f 163/4/5 162/4/5 161/4/5
f 164/4/5 146/4/5 162/4/5
f 164/4/5 162/4/5 163/4/5
f 165/1/6 166/1/6 169/1/6
f 169/1/6 166/1/6 170/1/6
f 167/1/6 168/1/6 171/1/6
f 171/1/6 168/1/6 172/1/6
f 173/1/6 174/1/6 177/1/6
f 177/1/6 174/1/6 178/1/6
f 175/1/6 176/1/6 179/1/6
f 179/1/6 176/1/6 180/1/6
f 181/3/6 182/3/6 183/3/6
f 183/3/6 182/3/6 184/3/6
f 183/2/6 184/2/6 185/2/6
f 185/2/6 184/2/6 186/2/6
f 186/2/6 184/2/6 187/2/6
f 187/2/6 184/2/6 188/2/6
f 186/2/6 187/2/6 190/2/6
f 190/2/6 187/2/6 191/2/6
f 188/2/6 184/2/6 192/2/6
f 190/2/6 191/2/6 193/2/6
f 191/2/6 192/2/6 193/2/6
f 189/2/6 190/2/6 193/2/6
f 193/2/6 192/2/6 194/2/6
f 194/2/6 192/2/6 195/2/6
f 192/2/6 184/2/6 196/2/6
f 195/2/6 192/2/6 196/2/6
f 194/2/6 195/2/6 198/2/6
f 198/2/6 195/2/6 199/2/6
f 196/2/6 184/2/6 200/2/6
f 198/2/6 199/2/6 201/2/6
f 199/2/6 200/2/6 201/2/6
f 197/2/6 198/2/6 201/2/6
f 200/2/6 184/2/6 202/2/6
f 201/2/6 200/2/6 202/2/6
f 201/4/6 202/4/6 203/4/6
f 203/4/6 202/4/6 204/4/6
f 204/4/6 202/4/6 205/4/6
f 205/4/6 202/4/6 206/4/6
f 206/4/6 202/4/6 207/4/6
f 207/4/6 202/4/6 208/4/6
f 208/4/6 202/4/6 209/4/6
f 209/4/6 202/4/6 210/4/6
f 210/4/6 202/4/6 211/4/6
f 211/4/6 202/4/6 212/4/6
f 212/4/6 202/4/6 213/4/6
f 213/4/6 202/4/6 214/4/6
f 203/5/6 204/5/6 215/5/6
f 204/4/6 205/4/6 215/4/6
f 205/5/6 206/5/6 216/5/6
f 215/4/6 205/4/6 216/4/6
f 206/4/6 207/4/6 217/4/6
f 216/5/6 206/5/6 217/5/6
f 207/5/6 208/5/6 218/5/6
f 217/4/6 207/4/6 218/4/6
f 208/4/6 209/4/6 219/4/6
f 218/5/6 208/5/6 219/5/6
f 219/4/6 209/4/6 220/4/6
f 220/4/6 209/4/6 221/4/6
f 209/5/6 210/5/6 222/5/6
f 221/4/6 209/4/6 222/4/6
f 210/4/6 211/4/6 223/4/6
f 222/5/6 210/5/6 223/5/6
f 211/5/6 212/5/6 224/5/6
f 223/4/6 211/4/6 224/4/6
f 212/4/6 213/4/6 225/4/6
f 224/5/6 212/5/6 225/5/6
f 213/5/6 214/5/6 226/5/6
f 225/4/6 213/4/6 226/4/6
f 226/5/6 214/5/6 227/5/6
f 227/5/6 214/5/6 228/5/6
f 215/5/6 216/5/6 229/5/6
f 216/5/6 217/5/6 229/5/6
f 217/5/6 218/5/6 229/5/6
f 218/5/6 219/5/6 229/5/6
f 219/5/6 220/5/6 229/5/6
f 229/5/6 220/5/6 230/5/6
f 230/5/6 220/5/6 231/5/6
f 231/5/6 220/5/6 232/5/6
f 220/4/6 221/4/6 233/4/6
f 232/5/6 220/5/6 233/5/6
f 224/5/6 225/5/6 234/5/6
f 233/4/6 221/4/6 234/4/6
f 226/5/6 227/5/6 234/5/6
f 221/5/6 222/5/6 234/5/6
f 222/5/6 223/5/6 234/5/6
f 223/5/6 224/5/6 234/5/6
f 225/5/6 226/5/6 234/5/6
f 234/5/6 227/5/6 235/5/6
f 235/5/6 227/5/6 236/5/6
f 236/5/6 227/5/6 237/5/6
f 227/4/6 228/4/6 238/4/6
f 237/5/6 227/5/6 238/5/6
f 228/5/6 214/5/6 239/5/6
f 238/4/6 228/4/6 239/4/6
f 239/5/6 214/5/6 240/5/6
f 240/5/6 214/5/6 241/5/6
f 241/5/6 214/5/6 242/5/6
f 203/5/6 215/5/6 243/5/6
f 215/5/6 229/5/6 243/5/6
f 229/4/6 230/4/6 244/4/6
f 243/5/6 229/5/6 244/5/6
f 230/5/6 231/5/6 245/5/6
f 244/4/6 230/4/6 245/4/6
f 231/4/6 232/4/6 246/4/6
f 245/5/6 231/5/6 246/5/6
f 232/5/6 233/5/6 247/5/6
f 246/4/6 232/4/6 247/4/6
f 233/5/6 234/5/6 247/5/6
f 234/5/6 235/5/6 247/5/6
f 235/4/6 236/4/6 248/4/6
f 247/5/6 235/5/6 248/5/6
f 236/5/6 237/5/6 249/5/6
f 248/4/6 236/4/6 249/4/6
f 237/4/6 238/4/6 250/4/6
f 249/5/6 237/5/6 250/5/6
f 239/4/6 240/4/6 250/4/6
f 238/4/6 239/4/6 250/4/6
f 240/5/6 241/5/6 251/5/6
f 250/4/6 240/4/6 251/4/6
f 241/4/6 242/4/6 252/4/6
f 251/5/6 241/5/6 252/5/6
f 242/5/6 214/5/6 253/5/6
f 252/4/6 242/4/6 253/4/6
f 253/5/6 214/5/6 254/5/6
f 245/4/6 246/4/6 255/4/6
f 251/4/6 252/4/6 255/4/6
f 253/4/6 254/4/6 255/4/6
f 252/4/6 253/4/6 255/4/6
f 246/4/6 247/4/6 255/4/6
f 249/4/6 250/4/6 255/4/6
f 250/4/6 251/4/6 255/4/6
f 248/4/6 249/4/6 255/4/6
f 244/4/6 245/4/6 255/4/6
f 243/4/6 244/4/6 255/4/6
f 247/4/6 248/4/6 255/4/6
f 255/4/6 254/4/6 256/4/6
f 256/4/6 254/4/6 257/4/6
f 257/4/6 254/4/6 258/4/6
f 258/4/6 254/4/6 259/4/6
f 259/4/6 254/4/6 260/4/6
f 260/4/6 254/4/6 261/4/6
f 261/4/6 254/4/6 262/4/6
f 262/4/6 254/4/6 263/4/6
f 263/4/6 254/4/6 264/4/6
f 255/5/6 256/5/6 265/5/6
f 256/4/6 257/4/6 265/4/6
f 257/5/6 258/5/6 266/5/6
f 265/4/6 257/4/6 266/4/6
f 258/4/6 259/4/6 267/4/6
f 266/5/6 258/5/6 267/5/6
f 267/4/6 259/4/6 268/4/6
f 268/4/6 259/4/6 269/4/6
f 259/5/6 260/5/6 270/5/6
f 269/4/6 259/4/6 270/4/6
f 260/4/6 261/4/6 271/4/6
f 270/5/6 260/5/6 271/5/6
f 271/4/6 261/4/6 272/4/6
f 272/4/6 261/4/6 273/4/6
f 261/5/6 262/5/6 274/5/6
f 273/4/6 261/4/6 274/4/6
f 274/5/6 262/5/6 275/5/6
f 262/4/6 263/4/6 276/4/6
f 275/5/6 262/5/6 276/5/6
f 263/5/6 264/5/6 277/5/6
f 276/4/6 263/4/6 277/4/6
f 265/5/6 266/5/6 278/5/6
f 268/4/6 269/4/6 278/4/6
f 266/5/6 267/5/6 278/5/6
f 267/5/6 268/5/6 278/5/6
f 269/5/6 270/5/6 279/5/6
f 278/4/6 269/4/6 279/4/6
f 271/5/6 272/5/6 279/5/6
f 270/5/6 271/5/6 279/5/6
f 279/5/6 272/5/6 280/5/6
f 280/5/6 272/5/6 281/5/6
f 272/4/6 273/4/6 282/4/6
f 281/5/6 272/5/6 282/5/6
f 274/5/6 275/5/6 283/5/6
f 282/4/6 273/4/6 283/4/6
f 273/5/6 274/5/6 283/5/6
f 275/4/6 276/4/6 284/4/6
f 283/5/6 275/5/6 284/5/6
f 276/5/6 277/5/6 285/5/6
f 284/4/6 276/4/6 285/4/6
f 255/5/6 265/5/6 286/5/6
f 265/5/6 278/5/6 286/5/6
f 279/5/6 280/5/6 286/5/6
f 278/5/6 279/5/6 286/5/6
f 286/5/6 280/5/6 287/5/6
f 287/5/6 280/5/6 288/5/6
f 288/5/6 280/5/6 289/5/6
f 289/5/6 280/5/6 290/5/6
f 290/5/6 280/5/6 291/5/6
f 291/5/6 280/5/6 292/5/6
f 280/4/6 281/4/6 293/4/6
f 292/5/6 280/5/6 293/5/6
f 282/5/6 283/5/6 294/5/6
f 293/4/6 281/4/6 294/4/6
f 283/5/6 284/5/6 294/5/6
f 284/5/6 285/5/6 294/5/6
f 281/5/6 282/5/6 294/5/6
f 294/5/6 285/5/6 295/5/6
f 295/5/6 285/5/6 296/5/6
f 296/5/6 285/5/6 297/5/6
f 285/5/6 277/5/6 298/5/6
f 297/5/6 285/5/6 298/5/6
f 298/5/6 277/5/6 299/5/6
f 286/4/6 287/4/6 300/4/6
f 287/5/6 288/5/6 300/5/6
f 288/4/6 289/4/6 301/4/6
f 300/5/6 288/5/6 301/5/6
f 289/5/6 290/5/6 302/5/6
f 301/4/6 289/4/6 302/4/6
f 290/4/6 291/4/6 303/4/6
f 302/5/6 290/5/6 303/5/6
f 291/5/6 292/5/6 304/5/6
f 303/4/6 291/4/6 304/4/6
f 292/4/6 293/4/6 305/4/6
f 304/5/6 292/5/6 305/5/6
f 293/4/6 294/4/6 305/4/6
f 294/4/6 295/4/6 305/4/6
f 295/5/6 296/5/6 306/5/6
f 305/4/6 295/4/6 306/4/6
f 296/4/6 297/4/6 307/4/6
f 306/5/6 296/5/6 307/5/6
f 297/5/6 298/5/6 308/5/6
f 307/4/6 297/4/6 308/4/6
f 298/4/6 299/4/6 309/4/6
f 308/5/6 298/5/6 309/5/6
f 299/5/6 277/5/6 310/5/6
f 309/4/6 299/4/6 310/4/6
f 277/5/6 264/5/6 311/5/6
f 310/5/6 277/5/6 311/5/6
f 303/4/6 304/4/6 312/4/6
f 305/4/6 306/4/6 312/4/6
f 310/4/6 311/4/6 312/4/6
f 304/4/6 305/4/6 312/4/6
f 306/4/6 307/4/6 312/4/6
f 307/4/6 308/4/6 312/4/6
f 308/4/6 309/4/6 312/4/6
f 309/4/6 310/4/6 312/4/6
f 301/4/6 302/4/6 312/4/6
f 302/4/6 303/4/6 312/4/6
f 300/4/6 301/4/6 312/4/6
f 312/4/6 311/4/6 313/4/6
f 300/4/6 312/4/6 314/4/6
f 312/6/6 313/6/6 314/6/6
f 313/4/6 311/4/6 315/4/6
f 314/6/6 313/6/6 315/6/6
f 300/4/6 314/4/6 316/4/6
f 314/4/6 315/4/6 316/4/6
f 316/4/6 315/4/6 317/4/6
f 317/4/6 315/4/6 318/4/6
f 318/4/6 315/4/6 319/4/6
f 319/4/6 315/4/6 320/4/6
f 315/4/6 311/4/6 321/4/6
f 320/4/6 315/4/6 321/4/6
f 286/4/6 300/4/6 322/4/6
f 300/4/6 316/4/6 322/4/6
f 322/4/6 316/4/6 323/4/6
f 323/4/6 316/4/6 324/4/6
f 324/4/6 316/4/6 325/4/6
f 325/4/6 316/4/6 326/4/6
f 316/5/6 317/5/6 327/5/6
f 326/4/6 316/4/6 327/4/6
f 317/4/6 318/4/6 328/4/6
f 327/5/6 317/5/6 328/5/6
f 318/5/6 319/5/6 329/5/6
f 328/4/6 318/4/6 329/4/6
f 319/4/6 320/4/6 330/4/6
f 329/5/6 319/5/6 330/5/6
f 330/4/6 320/4/6 331/4/6
f 331/4/6 320/4/6 332/4/6
f 320/5/6 321/5/6 333/5/6
f 332/4/6 320/4/6 333/4/6
f 321/4/6 311/4/6 334/4/6
f 333/5/6 321/5/6 334/5/6
f 334/4/6 311/4/6 335/4/6
f 335/4/6 311/4/6 336/4/6
f 336/4/6 311/4/6 337/4/6
f 322/5/6 323/5/6 338/5/6
f 323/4/6 324/4/6 338/4/6
f 324/5/6 325/5/6 339/5/6
f 338/4/6 324/4/6 339/4/6
f 325/4/6 326/4/6 340/4/6
f 339/5/6 325/5/6 340/5/6
f 340/4/6 326/4/6 341/4/6
f 328/5/6 329/5/6 342/5/6
f 341/4/6 326/4/6 342/4/6
f 326/5/6 327/5/6 342/5/6
f 327/5/6 328/5/6 342/5/6
f 329/5/6 330/5/6 342/5/6
f 330/5/6 331/5/6 342/5/6
f 342/5/6 331/5/6 343/5/6
f 343/5/6 331/5/6 344/5/6
f 344/5/6 331/5/6 345/5/6
f 331/4/6 332/4/6 346/4/6
f 345/5/6 331/5/6 346/5/6
f 332/5/6 333/5/6 347/5/6
f 346/4/6 332/4/6 347/4/6
f 334/5/6 335/5/6 347/5/6
f 333/5/6 334/5/6 347/5/6
f 347/5/6 335/5/6 348/5/6
f 348/5/6 335/5/6 349/5/6
f 335/4/6 336/4/6 350/4/6
f 349/5/6 335/5/6 350/5/6
f 336/5/6 337/5/6 351/5/6
f 350/4/6 336/4/6 351/4/6
f 340/5/6 341/5/6 352/5/6
f 338/5/6 339/5/6 352/5/6
f 339/5/6 340/5/6 352/5/6
f 342/4/6 343/4/6 353/4/6
f 352/5/6 341/5/6 353/5/6
f 341/4/6 342/4/6 353/4/6
f 343/5/6 344/5/6 354/5/6
f 353/4/6 343/4/6 354/4/6
f 344/4/6 345/4/6 355/4/6
f 354/5/6 344/5/6 355/5/6
f 345/5/6 346/5/6 356/5/6
f 355/4/6 345/4/6 356/4/6
f 347/5/6 348/5/6 356/5/6
f 346/5/6 347/5/6 356/5/6
f 356/5/6 348/5/6 357/5/6
f 357/5/6 348/5/6 358/5/6
f 358/5/6 348/5/6 359/5/6
f 359/5/6 348/5/6 360/5/6
f 360/5/6 348/5/6 361/5/6
f 361/5/6 348/5/6 362/5/6
f 348/4/6 349/4/6 363/4/6
f 362/5/6 348/5/6 363/5/6
f 350/5/6 351/5/6 364/5/6
f 363/4/6 349/4/6 364/4/6
f 349/5/6 350/5/6 364/5/6
f 351/5/6 337/5/6 365/5/6
f 364/5/6 351/5/6 365/5/6
f 338/5/6 352/5/6 366/5/6
f 322/5/6 338/5/6 366/5/6
f 354/4/6 355/4/6 367/4/6
f 366/5/6 352/5/6 367/5/6
f 353/4/6 354/4/6 367/4/6
f 352/4/6 353/4/6 367/4/6
f 355/4/6 356/4/6 367/4/6
f 356/4/6 357/4/6 367/4/6
f 357/5/6 358/5/6 368/5/6
f 367/4/6 357/4/6 368/4/6
f 358/4/6 359/4/6 369/4/6
f 368/5/6 358/5/6 369/5/6
f 359/5/6 360/5/6 370/5/6
f 369/4/6 359/4/6 370/4/6
f 360/4/6 361/4/6 371/4/6
f 370/5/6 360/5/6 371/5/6
f 361/5/6 362/5/6 372/5/6
f 371/4/6 361/4/6 372/4/6
f 363/4/6 364/4/6 373/4/6
f 372/5/6 362/5/6 373/5/6
f 362/4/6 363/4/6 373/4/6
f 364/4/6 365/4/6 373/4/6
f 365/5/6 337/5/6 374/5/6
f 373/4/6 365/4/6 374/4/6
f 374/5/6 337/5/6 375/5/6
f 371/4/6 372/4/6 376/4/6
f 368/4/6 369/4/6 376/4/6
f 374/4/6 375/4/6 376/4/6
f 373/4/6 374/4/6 376/4/6
f 367/4/6 368/4/6 376/4/6
f 369/4/6 370/4/6 376/4/6
f 366/4/6 367/4/6 376/4/6
f 372/4/6 373/4/6 376/4/6
f 370/4/6 371/4/6 376/4/6
f 376/4/6 375/4/6 377/4/6
f 366/4/6 376/4/6 378/4/6
f 376/5/6 377/5/6 379/5/6
f 378/4/6 376/4/6 379/4/6
f 377/4/6 375/4/6 380/4/6
f 379/5/6 377/5/6 380/5/6
f 380/4/6 375/4/6 381/4/6
f 381/4/6 375/4/6 382/4/6
f 382/4/6 375/4/6 383/4/6
f 366/4/6 378/4/6 384/4/6
f 378/5/6 379/5/6 385/5/6
f 384/4/6 378/4/6 385/4/6
f 379/5/6 380/5/6 385/5/6
f 380/5/6 381/5/6 385/5/6
f 381/4/6 382/4/6 386/4/6
f 385/5/6 381/5/6 386/5/6
f 386/4/6 382/4/6 387/4/6
f 387/4/6 382/4/6 388/4/6
f 382/5/6 383/5/6 389/5/6
f 388/4/6 382/4/6 389/4/6
f 389/5/6 383/5/6 390/5/6
f 383/4/6 375/4/6 391/4/6
f 390/5/6 383/5/6 391/5/6
f 391/4/6 375/4/6 392/4/6
f 392/4/6 375/4/6 393/4/6
f 384/5/6 385/5/6 394/5/6
f 385/5/6 386/5/6 394/5/6
f 386/5/6 387/5/6 394/5/6
f 394/5/6 387/5/6 395/5/6
f 395/5/6 387/5/6 396/5/6
f 396/5/6 387/5/6 397/5/6
f 397/5/6 387/5/6 398/5/6
f 387/4/6 388/4/6 399/4/6
f 398/5/6 387/5/6 399/5/6
f 389/5/6 390/5/6 400/5/6
f 399/4/6 388/4/6 400/4/6
f 388/5/6 389/5/6 400/5/6
f 400/5/6 390/5/6 401/5/6
f 391/4/6 392/4/6 402/4/6
f 401/5/6 390/5/6 402/5/6
f 390/4/6 391/4/6 402/4/6
f 402/4/6 392/4/6 403/4/6
f 392/5/6 393/5/6 404/5/6
f 403/4/6 392/4/6 404/4/6
f 404/5/6 393/5/6 405/5/6
f 384/5/6 394/5/6 406/5/6
f 394/4/6 395/4/6 407/4/6
f 406/5/6 394/5/6 407/5/6
f 395/5/6 396/5/6 408/5/6
f 407/4/6 395/4/6 408/4/6
f 396/4/6 397/4/6 409/4/6
f 408/5/6 396/5/6 409/5/6
f 397/5/6 398/5/6 410/5/6
f 409/4/6 397/4/6 410/4/6
f 398/4/6 399/4/6 411/4/6
f 410/5/6 398/5/6 411/5/6
f 400/4/6 401/4/6 411/4/6
f 399/4/6 400/4/6 411/4/6
f 402/5/6 403/5/6 412/5/6
f 411/4/6 401/4/6 412/4/6
f 401/5/6 402/5/6 412/5/6
f 404/4/6 405/4/6 413/4/6
f 412/5/6 403/5/6 413/5/6
f 403/4/6 404/4/6 413/4/6
f 409/4/6 410/4/6 414/4/6
f 408/4/6 409/4/6 414/4/6
f 412/4/6 413/4/6 414/4/6
f 410/4/6 411/4/6 414/4/6
f 411/4/6 412/4/6 414/4/6
f 406/4/6 407/4/6 414/4/6
f 407/4/6 408/4/6 414/4/6
f 413/4/6 405/4/6 415/4/6
f 414/4/6 413/4/6 415/4/6
f 414/6/6 415/6/6 416/6/6
f 416/6/6 415/6/6 417/6/6
f 416/4/6 417/4/6 418/4/6
f 418/4/6 417/4/6 419/4/6
f 419/4/6 417/4/6 420/4/6
f 420/4/6 417/4/6 421/4/6
f 421/4/6 417/4/6 422/4/6
f 422/4/6 417/4/6 423/4/6
f 423/4/6 417/4/6 424/4/6
f 424/4/6 417/4/6 425/4/6
f 425/4/6 417/4/6 426/4/6
f 426/4/6 417/4/6 427/4/6
f 418/3/6 419/3/6 428/3/6
f 419/4/6 420/4/6 428/4/6
f 420/3/6 421/3/6 429/3/6
f 428/4/6 420/4/6 429/4/6
f 421/4/6 422/4/6 430/4/6
f 429/3/6 421/3/6 430/3/6
f 422/3/6 423/3/6 431/3/6
f 430/4/6 422/4/6 431/4/6
f 423/4/6 424/4/6 432/4/6
f 431/3/6 423/3/6 432/3/6
f 424/3/6 425/3/6 433/3/6
f 432/4/6 424/4/6 433/4/6
f 425/4/6 426/4/6 434/4/6
f 433/3/6 425/3/6 434/3/6
f 426/3/6 427/3/6 435/3/6
f 434/4/6 426/4/6 435/4/6
f 433/3/6 434/3/6 436/3/6
f 418/3/6 428/3/6 436/3/6
f 434/3/6 435/3/6 436/3/6
f 432/3/6 433/3/6 436/3/6
f 431/3/6 432/3/6 436/3/6
f 430/3/6 431/3/6 436/3/6
f 429/3/6 430/3/6 436/3/6
f 428/3/6 429/3/6 436/3/6
f 435/3/6 427/3/6 437/3/6
f 436/3/6 435/3/6 437/3/6
