# Made in Blockbench 4.12.6
mtllib Road_Standard_Straight.mtl

o cuboid
v 3.125 0.125 3.125
v 3.125 0.125 -3.125
v 3.125 0 3.125
v 3.125 0 -3.125
v 1.3124999999999996 0.25 3.125
v 1.3124999999999996 0.25 -3.125
v 2.375 0.21875 3.125
v 2.375 0.21875 -3.125
v 1.3124999999999996 0 -3.125
v 2.375 0 -3.125
v 1.3124999999999996 0 3.125
v 2.375 0 3.125
v -3.125 0.125 3.125
v -3.125 0.125 -3.125
v -3.125 0 3.125
v -3.125 0 -3.125
v -1.3124999999999996 0.25 3.125
v -1.3124999999999996 0.25 -3.125
v -2.375 0.21875 3.125
v -2.375 0.21875 -3.125
v -1.3124999999999996 0 -3.125
v -2.375 0 -3.125
v -1.3124999999999996 0 3.125
v -2.375 0 3.125
vt 0.533203125 0.689453125
vt 0.337890625 0.689453125
vt 0.337890625 0.685546875
vt 0.533203125 0.685546875
vt 0.19648593750000004 1
vt 0.17286601562500004 1
vt 0.17286601562499998 0.8046875
vt 0.19648593749999999 0.8046875
vt 0.1953125 0.80078125
vt 0.171875 0.80078125
vt 0.171875 0.60546875
vt 0.1953125 0.60546875
vt 0.50390625 0.705078125
vt 0.48046875 0.7080078125
vt 0.48046875 0.701171875
vt 0.50390625 0.701171875
vt 0.30859375 0.69140625
vt 0.33203125 0.69140625
vt 0.33203125 0.6982421875
vt 0.30859375 0.6953125
vt 0.0576171875 0.8046875
vt 0.1396484375 0.8046875
vt 0.1396484375 1
vt 0.0576171875 1
vt 0.1396484375 0.8046875
vt 0.17286601562499998 0.8046875
vt 0.17286601562500004 1
vt 0.1396484375 1
vt 0.447265625 0.69921875
vt 0.365234375 0.69921875
vt 0.365234375 0.69140625
vt 0.447265625 0.69140625
vt 0.365234375 0.69921875
vt 0.33203125 0.6982421875
vt 0.33203125 0.69140625
vt 0.365234375 0.69140625
vt 0.056640625 0.60546875
vt 0.138671875 0.60546875
vt 0.138671875 0.80078125
vt 0.056640625 0.80078125
vt 0.138671875 0.60546875
vt 0.171875 0.60546875
vt 0.171875 0.80078125
vt 0.138671875 0.80078125
vt 0.365234375 0.701171875
vt 0.447265625 0.701171875
vt 0.447265625 0.708984375
vt 0.365234375 0.708984375
vt 0.447265625 0.701171875
vt 0.48046875 0.701171875
vt 0.48046875 0.7080078125
vt 0.447265625 0.708984375
vt 0.533203125 0.6796875
vt 0.533203125 0.68359375
vt 0.337890625 0.68359375
vt 0.337890625 0.6796875
vt 0.024399609374999992 0.8046875
vt 0.024399609374999978 1
vt 0.0007796874999999731 1
vt 0.000779687499999987 0.8046875
vt 0.0234375 0.60546875
vt 0.0234375 0.80078125
vt 0 0.80078125
vt 0 0.60546875
vt 0.33203125 0.701171875
vt 0.33203125 0.7080078125
vt 0.30859375 0.705078125
vt 0.30859375 0.701171875
vt 0.48046875 0.6982421875
vt 0.48046875 0.69140625
vt 0.50390625 0.69140625
vt 0.50390625 0.6953125
vt 0.024399609374999978 1
vt 0.024399609374999992 0.8046875
vt 0.0576171875 0.8046875
vt 0.057617187499999986 1
vt 0.48046875 0.69140625
vt 0.48046875 0.6982421875
vt 0.447265625 0.69921875
vt 0.447265625 0.69140625
vt 0.0234375 0.80078125
vt 0.0234375 0.60546875
vt 0.056640625 0.60546875
vt 0.056640625 0.80078125
vt 0.33203125 0.7080078125
vt 0.33203125 0.701171875
vt 0.365234375 0.701171875
vt 0.365234375 0.708984375
vn 1 0 0
vn 0.12403473458920848 0.9922778767136679 0
vn 0 -1 0
vn 0 0 1
vn 0 0 -1
vn 0 1 0
vn 0.029399051601892726 0.9995677544643531 0
vn 0 0 -1
vn 0 0 -1
vn 0 -1 0
vn 0 -1 0
vn 0 0 1
vn 0 0 1
vn -1 0 0
vn -0.12403473458920848 0.9922778767136679 0
vn 0 -1 0
vn 0 0 1
vn 0 0 -1
vn -0.029399051601892726 0.9995677544643531 0
vn 0 0 -1
vn 0 -1 0
vn 0 0 1
usemtl m_45bd498c-37df-c4d8-527f-70fc4eaa7a73
f 2/1/1 1/2/1 3/3/1 4/4/1
f 2/5/2 8/6/2 7/7/2 1/8/2
f 3/9/3 12/10/3 10/11/3 4/12/3
f 1/13/4 7/14/4 12/15/4 3/16/4
f 4/17/5 10/18/5 8/19/5 2/20/5
f 17/21/6 5/22/6 6/23/6 18/24/6
f 5/25/7 7/26/7 8/27/7 6/28/7
f 18/29/8 6/30/8 9/31/8 21/32/8
f 6/33/9 8/34/9 10/35/9 9/36/9
f 21/37/10 9/38/10 11/39/10 23/40/10
f 9/41/11 10/42/11 12/43/11 11/44/11
f 23/45/12 11/46/12 5/47/12 17/48/12
f 11/49/13 12/50/13 7/51/13 5/52/13
f 15/53/14 13/54/14 14/55/14 16/56/14
f 19/57/15 20/58/15 14/59/15 13/60/15
f 22/61/16 24/62/16 15/63/16 16/64/16
f 24/65/17 19/66/17 13/67/17 15/68/17
f 20/69/18 22/70/18 16/71/18 14/72/18
f 20/73/19 19/74/19 17/75/19 18/76/19
f 22/77/20 20/78/20 18/79/20 21/80/20
f 24/81/21 22/82/21 21/83/21 23/84/21
f 19/85/22 24/86/22 23/87/22 17/88/22
o cuboid
v 3.625 0.3125 3.125
v 3.625 0.3125 -3.125
v 3.625 0 3.125
v 3.625 0 -3.125
v 5.1875 0.3125 3.125
v 5.1875 0.3125 -3.125
v 5.1875 0 3.125
v 5.1875 0 -3.125
vt 0.494140625 0.76953125
vt 0.494140625 0.779296875
vt 0.298828125 0.779296875
vt 0.298828125 0.76953125
vt 0.19921875 1
vt 0.19921875 0.8046875
vt 0.248046875 0.8046875
vt 0.248046875 1
vt 0.24609375 0.80078125
vt 0.197265625 0.80078125
vt 0.197265625 0.60546875
vt 0.24609375 0.60546875
vt 0.388671875 0.994140625
vt 0.33984375 0.994140625
vt 0.33984375 0.984375
vt 0.388671875 0.984375
vt 0.388671875 0.97265625
vt 0.388671875 0.982421875
vt 0.33984375 0.982421875
vt 0.33984375 0.97265625
vt 0.494140625 0.767578125
vt 0.298828125 0.767578125
vt 0.298828125 0.7578125
vt 0.494140625 0.7578125
vn -1 0 0
vn 0 1 0
vn 0 -1 0
vn 0 0 1
vn 0 0 -1
vn 1 0 0
usemtl m_45bd498c-37df-c4d8-527f-70fc4eaa7a73
f 27/89/23 25/90/23 26/91/23 28/92/23
f 26/93/24 25/94/24 29/95/24 30/96/24
f 31/97/25 27/98/25 28/99/25 32/100/25
f 29/101/26 25/102/26 27/103/26 31/104/26
f 28/105/27 26/106/27 30/107/27 32/108/27
f 30/109/28 29/110/28 31/111/28 32/112/28
o cuboid
v 3.125 0.125 3.125
v 3.125 0.125 -3.125
v 3.125 0 3.125
v 3.125 0 -3.125
v 3.375 0.125 3.125
v 3.375 0.125 -3.125
v 3.375 0 3.125
v 3.375 0 -3.125
vt 0.533203125 0.673828125
vt 0.533203125 0.677734375
vt 0.337890625 0.677734375
vt 0.337890625 0.673828125
vt 0.310546875 1
vt 0.310546875 0.8046875
vt 0.318359375 0.8046875
vt 0.318359375 1
vt 0.31640625 0.689453125
vt 0.30859375 0.689453125
vt 0.30859375 0.494140625
vt 0.31640625 0.494140625
vt 0.34765625 0.900390625
vt 0.33984375 0.900390625
vt 0.33984375 0.896484375
vt 0.34765625 0.896484375
vt 0.34765625 0.890625
vt 0.34765625 0.89453125
vt 0.33984375 0.89453125
vt 0.33984375 0.890625
vt 0.533203125 0.671875
vt 0.337890625 0.671875
vt 0.337890625 0.66796875
vt 0.533203125 0.66796875
vn -1 0 0
vn 0 1 0
vn 0 -1 0
vn 0 0 1
vn 0 0 -1
vn 1 0 0
usemtl m_45bd498c-37df-c4d8-527f-70fc4eaa7a73
f 35/113/29 33/114/29 34/115/29 36/116/29
f 34/117/30 33/118/30 37/119/30 38/120/30
f 39/121/31 35/122/31 36/123/31 40/124/31
f 37/125/32 33/126/32 35/127/32 39/128/32
f 36/129/33 34/130/33 38/131/33 40/132/33
f 38/133/34 37/134/34 39/135/34 40/136/34
o cuboid
v 3.375 0.3125 3.125
v 3.375 0.3125 -3.125
v 3.375 0 3.125
v 3.375 0 -3.125
v 3.625 0.3125 3.125
v 3.625 0.3125 -3.125
v 3.625 0 3.125
v 3.625 0 -3.125
vt 0.494140625 0.72265625
vt 0.494140625 0.732421875
vt 0.298828125 0.732421875
vt 0.298828125 0.72265625
vt 0.328125 0.689453125
vt 0.328125 0.494140625
vt 0.3359375 0.494140625
vt 0.3359375 0.689453125
vt 0.337890625 1
vt 0.330078125 1
vt 0.330078125 0.8046875
vt 0.337890625 0.8046875
vt 0.34765625 0.923828125
vt 0.33984375 0.923828125
vt 0.33984375 0.9140625
vt 0.34765625 0.9140625
vt 0.34765625 0.90234375
vt 0.34765625 0.912109375
vt 0.33984375 0.912109375
vt 0.33984375 0.90234375
vt 0.494140625 0.720703125
vt 0.298828125 0.720703125
vt 0.298828125 0.7109375
vt 0.494140625 0.7109375
vn -1 0 0
vn 0 1 0
vn 0 -1 0
vn 0 0 1
vn 0 0 -1
vn 1 0 0
usemtl m_45bd498c-37df-c4d8-527f-70fc4eaa7a73
f 43/137/35 41/138/35 42/139/35 44/140/35
f 42/141/36 41/142/36 45/143/36 46/144/36
f 47/145/37 43/146/37 44/147/37 48/148/37
f 45/149/38 41/150/38 43/151/38 47/152/38
f 44/153/39 42/154/39 46/155/39 48/156/39
f 46/157/40 45/158/40 47/159/40 48/160/40
o cuboid
v -3.375 0.125 3.125
v -3.375 0.125 -3.125
v -3.375 0 3.125
v -3.375 0 -3.125
v -3.125 0.125 3.125
v -3.125 0.125 -3.125
v -3.125 0 3.125
v -3.125 0 -3.125
vt 0.533203125 0.662109375
vt 0.533203125 0.666015625
vt 0.337890625 0.666015625
vt 0.337890625 0.662109375
vt 0.318359375 0.689453125
vt 0.318359375 0.494140625
vt 0.326171875 0.494140625
vt 0.326171875 0.689453125
vt 0.328125 1
vt 0.3203125 1
vt 0.3203125 0.8046875
vt 0.328125 0.8046875
vt 0.34765625 0.888671875
vt 0.33984375 0.888671875
vt 0.33984375 0.884765625
vt 0.34765625 0.884765625
vt 0.34765625 0.87890625
vt 0.34765625 0.8828125
vt 0.33984375 0.8828125
vt 0.33984375 0.87890625
vt 0.53515625 1
vt 0.33984375 1
vt 0.33984375 0.99609375
vt 0.53515625 0.99609375
vn -1 0 0
vn 0 1 0
vn 0 -1 0
vn 0 0 1
vn 0 0 -1
vn 1 0 0
usemtl m_45bd498c-37df-c4d8-527f-70fc4eaa7a73
f 51/161/41 49/162/41 50/163/41 52/164/41
f 50/165/42 49/166/42 53/167/42 54/168/42
f 55/169/43 51/170/43 52/171/43 56/172/43
f 53/173/44 49/174/44 51/175/44 55/176/44
f 52/177/45 50/178/45 54/179/45 56/180/45
f 54/181/46 53/182/46 55/183/46 56/184/46
o cuboid
v -3.625 0.3125 3.125
v -3.625 0.3125 -3.125
v -3.625 0 3.125
v -3.625 0 -3.125
v -3.375 0.3125 3.125
v -3.375 0.3125 -3.125
v -3.375 0 3.125
v -3.375 0 -3.125
vt 0.494140625 0.79296875
vt 0.494140625 0.802734375
vt 0.298828125 0.802734375
vt 0.298828125 0.79296875
vt 0.298828125 0.708984375
vt 0.298828125 0.513671875
vt 0.306640625 0.513671875
vt 0.306640625 0.708984375
vt 0.30859375 1
vt 0.30078125 1
vt 0.30078125 0.8046875
vt 0.30859375 0.8046875
vt 0.34765625 0.947265625
vt 0.33984375 0.947265625
vt 0.33984375 0.9375
vt 0.34765625 0.9375
vt 0.34765625 0.92578125
vt 0.34765625 0.935546875
vt 0.33984375 0.935546875
vt 0.33984375 0.92578125
vt 0.494140625 0.791015625
vt 0.298828125 0.791015625
vt 0.298828125 0.78125
vt 0.494140625 0.78125
vn -1 0 0
vn 0 1 0
vn 0 -1 0
vn 0 0 1
vn 0 0 -1
vn 1 0 0
usemtl m_45bd498c-37df-c4d8-527f-70fc4eaa7a73
f 59/185/47 57/186/47 58/187/47 60/188/47
f 58/189/48 57/190/48 61/191/48 62/192/48
f 63/193/49 59/194/49 60/195/49 64/196/49
f 61/197/50 57/198/50 59/199/50 63/200/50
f 60/201/51 58/202/51 62/203/51 64/204/51
f 62/205/52 61/206/52 63/207/52 64/208/52
o cuboid
v -5.1875 0.3125 3.125
v -5.1875 0.3125 -3.125
v -5.1875 0 3.125
v -5.1875 0 -3.125
v -3.625 0.3125 3.125
v -3.625 0.3125 -3.125
v -3.625 0 3.125
v -3.625 0 -3.125
vt 0.494140625 0.74609375
vt 0.494140625 0.755859375
vt 0.298828125 0.755859375
vt 0.298828125 0.74609375
vt 0.248046875 0.802734375
vt 0.248046875 0.607421875
vt 0.296875 0.607421875
vt 0.296875 0.802734375
vt 0.298828125 1
vt 0.25 1
vt 0.25 0.8046875
vt 0.298828125 0.8046875
vt 0.388671875 0.970703125
vt 0.33984375 0.970703125
vt 0.33984375 0.9609375
vt 0.388671875 0.9609375
vt 0.388671875 0.94921875
vt 0.388671875 0.958984375
vt 0.33984375 0.958984375
vt 0.33984375 0.94921875
vt 0.494140625 0.744140625
vt 0.298828125 0.744140625
vt 0.298828125 0.734375
vt 0.494140625 0.734375
vn -1 0 0
vn 0 1 0
vn 0 -1 0
vn 0 0 1
vn 0 0 -1
vn 1 0 0
usemtl m_45bd498c-37df-c4d8-527f-70fc4eaa7a73
f 67/209/53 65/210/53 66/211/53 68/212/53
f 66/213/54 65/214/54 69/215/54 70/216/54
f 71/217/55 67/218/55 68/219/55 72/220/55
f 69/221/56 65/222/56 67/223/56 71/224/56
f 68/225/57 66/226/57 70/227/57 72/228/57
f 70/229/58 69/230/58 71/231/58 72/232/58