# MagicaVoxel @ Ephtracy

# group
o 

# material
mtllib Path3.mtl
usemtl palette

# normals
vn -1 0 0
vn 1 0 0
vn 0 0 1
vn 0 0 -1
vn 0 -1 0
vn 0 1 0

# texcoords
vt 0.0175781 0.5
vt 0.0214844 0.5
vt 0.244141 0.5
vt 0.248047 0.5

# verts
v -1 0 2
v -1 0 1.1
v -1 0 1
v -1 0 0.0999999
v -1 0 -2.38419e-07
v -1 0 -0.9
v -1 0 -1
v -1 0 -1.1
v -1 0.2 2
v -1 0.2 1.1
v -1 0.2 1
v -1 0.2 0.0999999
v -1 0.2 -2.38419e-07
v -1 0.2 -0.9
v -1 0.2 -1
v -1 0.2 -1.1
v -0.9 0 -1.1
v -0.9 0 -1.3
v -0.9 0.2 2
v -0.9 0.2 1.8
v -0.9 0.2 1.4
v -0.9 0.2 1.1
v -0.9 0.2 1
v -0.9 0.2 0.8
v -0.9 0.2 0.6
v -0.9 0.2 0.0999999
v -0.9 0.2 -2.38419e-07
v -0.9 0.2 -0.9
v -0.9 0.2 -1
v -0.9 0.2 -1.1
v -0.9 0.2 -1.2
v -0.9 0.2 -1.3
v -0.9 0.3 2
v -0.9 0.3 1.8
v -0.9 0.3 1.4
v -0.9 0.3 1.1
v -0.9 0.3 1
v -0.9 0.3 0.8
v -0.9 0.3 0.6
v -0.9 0.3 0.0999999
v -0.9 0.3 -2.38419e-07
v -0.9 0.3 -0.9
v -0.9 0.3 -1
v -0.9 0.3 -1.2
v -0.8 0 -1.3
v -0.8 0 -1.6
v -0.8 0.2 -1.2
v -0.8 0.2 -1.3
v -0.8 0.2 -1.5
v -0.8 0.2 -1.6
v -0.8 0.3 -1.2
v -0.8 0.3 -1.5
v -0.7 0 -1.6
v -0.7 0 -1.7
v -0.7 0.2 -1.5
v -0.7 0.2 -1.6
v -0.7 0.2 -1.7
v -0.7 0.3 -1.5
v -0.7 0.3 -1.6
v -0.6 0 -1.7
v -0.6 0 -1.8
v -0.6 0.2 -1.6
v -0.6 0.2 -1.7
v -0.6 0.2 -1.8
v -0.6 0.3 -1.6
v -0.6 0.3 -1.7
v -0.5 0.2 -1.7
v -0.5 0.2 -1.8
v -0.5 0.3 -1.7
v -0.5 0.3 -1.8
v -0.3 0 -1.8
v -0.3 0 -1.9
v -0.3 0.2 -1.8
v -0.3 0.2 -1.9
v -0.2 0.2 -1.8
v -0.2 0.2 -1.9
v -0.2 0.3 -1.8
v -0.2 0.3 -1.9
v -0.1 0 -1.9
v -0.1 0 -2
v -0.1 0.2 -1.9
v -0.1 0.2 -2
v 1 0 2
v 1 0 -2.38419e-07
v 1 0.2 2
v 1 0.2 1.9
v 1 0.2 0.2
v 1 0.2 -2.38419e-07
v 1 0.3 2
v 1 0.3 1.9
v 1 0.3 0.2
v 1 0.3 -2.38419e-07
v 3 0 -2.38419e-07
v 3 0 -1.8
v 3 0 -1.9
v 3 0 -2
v 3 0.2 -2.38419e-07
v 3 0.2 -1.8
v 3 0.2 -1.9
v 3 0.2 -2
v 3 0.3 -2.38419e-07
v 3 0.3 -1.8
v 3 0.3 -1.9
v -1 0 2
v -1 0.2 2
v -0.9 0.2 2
v -0.9 0.3 2
v -0.8 0 2
v -0.8 0.3 2
v -0.5 0.2 2
v -0.5 0.3 2
v -0.2 0.2 2
v -0.2 0.3 2
v 0.9 0.2 2
v 0.9 0.3 2
v 1 0 2
v 1 0.2 2
v 1 0.3 2
v 1 0 -2.38419e-07
v 1 0.2 -2.38419e-07
v 1 0.3 -2.38419e-07
v 1.1 0.2 -2.38419e-07
v 1.1 0.3 -2.38419e-07
v 2.8 0.2 -2.38419e-07
v 2.8 0.3 -2.38419e-07
v 3 0 -2.38419e-07
v 3 0.2 -2.38419e-07
v 3 0.3 -2.38419e-07
v -1 0 -1.1
v -1 0.2 -1.1
v -0.9 0 -1.1
v -0.9 0.2 -1.1
v -0.9 0.2 -1.2
v -0.9 0.3 -1.2
v -0.8 0.2 -1.2
v -0.8 0.3 -1.2
v -0.9 0 -1.3
v -0.9 0.2 -1.3
v -0.8 0 -1.3
v -0.8 0.2 -1.3
v -0.8 0.2 -1.5
v -0.8 0.3 -1.5
v -0.7 0.2 -1.5
v -0.7 0.3 -1.5
v -0.8 0 -1.6
v -0.8 0.2 -1.6
v -0.7 0 -1.6
v -0.7 0.2 -1.6
v -0.7 0.3 -1.6
v -0.6 0.2 -1.6
v -0.6 0.3 -1.6
v -0.7 0 -1.7
v -0.7 0.2 -1.7
v -0.6 0 -1.7
v -0.6 0.2 -1.7
v -0.6 0.3 -1.7
v -0.5 0.2 -1.7
v -0.5 0.3 -1.7
v -0.6 0 -1.8
v -0.6 0.2 -1.8
v -0.5 0.2 -1.8
v -0.5 0.3 -1.8
v -0.3 0 -1.8
v -0.3 0.2 -1.8
v -0.2 0.2 -1.8
v -0.2 0.3 -1.8
v -0.3 0 -1.9
v -0.3 0.2 -1.9
v -0.2 0.2 -1.9
v -0.2 0.3 -1.9
v -0.1 0 -1.9
v -0.1 0.2 -1.9
v -0.1 0.3 -1.9
v 0 0.2 -1.9
v 0 0.3 -1.9
v 0.1 0.2 -1.9
v 0.1 0.3 -1.9
v 0.3 0.2 -1.9
v 0.3 0.3 -1.9
v 0.9 0.2 -1.9
v 0.9 0.3 -1.9
v 1 0.2 -1.9
v 1 0.3 -1.9
v 1.2 0.2 -1.9
v 1.2 0.3 -1.9
v 1.6 0.2 -1.9
v 1.6 0.3 -1.9
v 1.9 0.2 -1.9
v 1.9 0.3 -1.9
v 2 0.2 -1.9
v 2 0.3 -1.9
v 2.2 0.2 -1.9
v 2.2 0.3 -1.9
v 2.4 0.2 -1.9
v 2.4 0.3 -1.9
v 2.9 0.2 -1.9
v 2.9 0.3 -1.9
v 3 0.2 -1.9
v 3 0.3 -1.9
v -0.1 0 -2
v -0.1 0.2 -2
v 0 0 -2
v 0 0.2 -2
v 0.9 0 -2
v 0.9 0.2 -2
v 1 0 -2
v 1 0.2 -2
v 1.9 0 -2
v 1.9 0.2 -2
v 2 0 -2
v 2 0.2 -2
v 2.9 0 -2
v 2.9 0.2 -2
v 3 0 -2
v 3 0.2 -2
v -1 0 2
v -0.8 0 2
v 1 0 2
v -1 0 1.1
v -0.9 0 1.1
v -1 0 1
v -0.9 0 1
v -1 0 0.0999999
v -0.9 0 0.0999999
v -1 0 -2.38419e-07
v -0.9 0 -2.38419e-07
v 0.9 0 -2.38419e-07
v 1 0 -2.38419e-07
v 3 0 -2.38419e-07
v -1 0 -0.9
v -0.9 0 -0.9
v -1 0 -1
v -0.9 0 -1
v -1 0 -1.1
v -0.9 0 -1.1
v -0.8 0 -1.1
v -0.7 0 -1.1
v -0.9 0 -1.3
v -0.8 0 -1.3
v -0.7 0 -1.3
v -0.6 0 -1.3
v -0.6 0 -1.5
v -0.5 0 -1.5
v -0.8 0 -1.6
v -0.7 0 -1.6
v -0.5 0 -1.6
v -0.3 0 -1.6
v -0.7 0 -1.7
v -0.6 0 -1.7
v -0.3 0 -1.7
v -0.1 0 -1.7
v -0.6 0 -1.8
v -0.3 0 -1.8
v -0.1 0 -1.8
v 0.9 0 -1.8
v 1 0 -1.8
v 3 0 -1.8
v -0.3 0 -1.9
v -0.1 0 -1.9
v 0 0 -1.9
v 0.9 0 -1.9
v 1 0 -1.9
v 1.9 0 -1.9
v 2 0 -1.9
v 2.9 0 -1.9
v 3 0 -1.9
v -0.1 0 -2
v 0 0 -2
v 0.9 0 -2
v 1 0 -2
v 1.9 0 -2
v 2 0 -2
v 2.9 0 -2
v 3 0 -2
v -1 0.2 2
v -0.9 0.2 2
v -0.9 0.2 1.8
v -0.9 0.2 1.4
v -1 0.2 1.1
v -0.9 0.2 1.1
v -1 0.2 1
v -0.9 0.2 1
v -0.9 0.2 0.8
v -0.9 0.2 0.6
v -1 0.2 0.0999999
v -0.9 0.2 0.0999999
v -1 0.2 -2.38419e-07
v -0.9 0.2 -2.38419e-07
v -1 0.2 -0.9
v -0.9 0.2 -0.9
v -1 0.2 -1
v -0.9 0.2 -1
v -1 0.2 -1.1
v -0.9 0.2 -1.1
v -0.9 0.2 -1.2
v -0.8 0.2 -1.2
v -0.9 0.2 -1.3
v -0.8 0.2 -1.3
v -0.8 0.2 -1.5
v -0.7 0.2 -1.5
v -0.8 0.2 -1.6
v -0.7 0.2 -1.6
v -0.6 0.2 -1.6
v -0.7 0.2 -1.7
v -0.6 0.2 -1.7
v -0.5 0.2 -1.7
v -0.6 0.2 -1.8
v -0.5 0.2 -1.8
v -0.3 0.2 -1.8
v -0.2 0.2 -1.8
v -0.3 0.2 -1.9
v -0.2 0.2 -1.9
v -0.1 0.2 -1.9
v 0 0.2 -1.9
v 0.1 0.2 -1.9
v 0.3 0.2 -1.9
v 0.9 0.2 -1.9
v 1 0.2 -1.9
v 1.2 0.2 -1.9
v 1.6 0.2 -1.9
v 1.9 0.2 -1.9
v 2 0.2 -1.9
v 2.2 0.2 -1.9
v 2.4 0.2 -1.9
v 2.9 0.2 -1.9
v 3 0.2 -1.9
v -0.1 0.2 -2
v 0 0.2 -2
v 0.9 0.2 -2
v 1 0.2 -2
v 1.9 0.2 -2
v 2 0.2 -2
v 2.9 0.2 -2
v 3 0.2 -2
v -0.9 0.3 2
v -0.8 0.3 2
v -0.5 0.3 2
v -0.2 0.3 2
v 0.9 0.3 2
v 1 0.3 2
v -0.5 0.3 1.9
v -0.2 0.3 1.9
v 0.9 0.3 1.9
v 1 0.3 1.9
v -0.9 0.3 1.8
v -0.8 0.3 1.8
v -0.7 0.3 1.8
v -0.8 0.3 1.5
v -0.7 0.3 1.5
v -0.9 0.3 1.4
v -0.8 0.3 1.4
v -0.9 0.3 1.1
v -0.8 0.3 1.1
v -0.9 0.3 1
v -0.8 0.3 1
v -0.7 0.3 1
v -0.9 0.3 0.8
v -0.8 0.3 0.8
v -0.8 0.3 0.7
v -0.7 0.3 0.7
v -0.9 0.3 0.6
v -0.8 0.3 0.6
v -0.8 0.3 0.4
v -0.7 0.3 0.4
v -0.7 0.3 0.2
v -0.6 0.3 0.2
v 0.9 0.3 0.2
v 1 0.3 0.2
v -0.9 0.3 0.0999999
v -0.8 0.3 0.0999999
v -0.6 0.3 0.0999999
v 0.9 0.3 0.0999999
v -0.9 0.3 -2.38419e-07
v -0.8 0.3 -2.38419e-07
v -0.7 0.3 -2.38419e-07
v 0.8 0.3 -2.38419e-07
v 1 0.3 -2.38419e-07
v 1.1 0.3 -2.38419e-07
v 2.8 0.3 -2.38419e-07
v 3 0.3 -2.38419e-07
v 0.8 0.3 -0.1
v 0.9 0.3 -0.1
v 1 0.3 -0.1
v 1.1 0.3 -0.1
v 2.8 0.3 -0.1
v 2.9 0.3 -0.1
v -0.8 0.3 -0.2
v -0.7 0.3 -0.2
v -0.9 0.3 -0.9
v -0.8 0.3 -0.9
v -0.9 0.3 -1
v -0.8 0.3 -1
v -0.8 0.3 -1.1
v -0.7 0.3 -1.1
v -0.9 0.3 -1.2
v -0.8 0.3 -1.2
v 1 0.3 -1.2
v 1.1 0.3 -1.2
v -0.7 0.3 -1.3
v -0.6 0.3 -1.3
v -0.8 0.3 -1.5
v -0.7 0.3 -1.5
v -0.6 0.3 -1.5
v -0.5 0.3 -1.5
v 1 0.3 -1.5
v 1.1 0.3 -1.5
v -0.7 0.3 -1.6
v -0.6 0.3 -1.6
v -0.5 0.3 -1.6
v -0.3 0.3 -1.6
v 0.8 0.3 -1.6
v 0.9 0.3 -1.6
v 2.8 0.3 -1.6
v 2.9 0.3 -1.6
v -0.6 0.3 -1.7
v -0.5 0.3 -1.7
v -0.3 0.3 -1.7
v -0.1 0.3 -1.7
v 0.2 0.3 -1.7
v 0.6 0.3 -1.7
v 0.8 0.3 -1.7
v 1.2 0.3 -1.7
v 1.5 0.3 -1.7
v 2 0.3 -1.7
v 2.3 0.3 -1.7
v 2.6 0.3 -1.7
v 2.8 0.3 -1.7
v -0.5 0.3 -1.8
v -0.2 0.3 -1.8
v -0.1 0.3 -1.8
v 0 0.3 -1.8
v 0.1 0.3 -1.8
v 0.2 0.3 -1.8
v 0.3 0.3 -1.8
v 0.6 0.3 -1.8
v 0.9 0.3 -1.8
v 1 0.3 -1.8
v 1.2 0.3 -1.8
v 1.5 0.3 -1.8
v 1.6 0.3 -1.8
v 1.9 0.3 -1.8
v 2 0.3 -1.8
v 2.2 0.3 -1.8
v 2.3 0.3 -1.8
v 2.4 0.3 -1.8
v 2.6 0.3 -1.8
v 2.9 0.3 -1.8
v 3 0.3 -1.8
v -0.2 0.3 -1.9
v -0.1 0.3 -1.9
v 0 0.3 -1.9
v 0.1 0.3 -1.9
v 0.3 0.3 -1.9
v 0.9 0.3 -1.9
v 1 0.3 -1.9
v 1.2 0.3 -1.9
v 1.6 0.3 -1.9
v 1.9 0.3 -1.9
v 2 0.3 -1.9
v 2.2 0.3 -1.9
v 2.4 0.3 -1.9
v 2.9 0.3 -1.9
v 3 0.3 -1.9

# faces
f 9/3/1 2/3/1 1/3/1
f 10/4/1 3/4/1 2/4/1
f 10/3/1 2/3/1 9/3/1
f 11/3/1 4/3/1 3/3/1
f 11/4/1 3/4/1 10/4/1
f 12/4/1 5/4/1 4/4/1
f 12/3/1 4/3/1 11/3/1
f 13/3/1 6/3/1 5/3/1
f 13/4/1 5/4/1 12/4/1
f 14/4/1 7/4/1 6/4/1
f 14/3/1 6/3/1 13/3/1
f 15/3/1 8/3/1 7/3/1
f 15/4/1 7/4/1 14/4/1
f 16/3/1 8/3/1 15/3/1
f 30/3/1 18/3/1 17/3/1
f 31/3/1 18/3/1 30/3/1
f 32/3/1 18/3/1 31/3/1
f 33/3/1 20/3/1 19/3/1
f 34/4/1 21/4/1 20/4/1
f 34/3/1 20/3/1 33/3/1
f 35/3/1 22/3/1 21/3/1
f 35/4/1 21/4/1 34/4/1
f 36/4/1 23/4/1 22/4/1
f 36/3/1 22/3/1 35/3/1
f 37/3/1 24/3/1 23/3/1
f 37/4/1 23/4/1 36/4/1
f 38/4/1 25/4/1 24/4/1
f 38/3/1 24/3/1 37/3/1
f 39/3/1 26/3/1 25/3/1
f 39/4/1 25/4/1 38/4/1
f 40/4/1 27/4/1 26/4/1
f 40/3/1 26/3/1 39/3/1
f 41/3/1 28/3/1 27/3/1
f 41/4/1 27/4/1 40/4/1
f 42/4/1 29/4/1 28/4/1
f 42/3/1 28/3/1 41/3/1
f 43/3/1 30/3/1 29/3/1
f 43/4/1 29/4/1 42/4/1
f 43/3/1 31/3/1 30/3/1
f 44/3/1 31/3/1 43/3/1
f 48/3/1 46/3/1 45/3/1
f 49/3/1 46/3/1 48/3/1
f 50/3/1 46/3/1 49/3/1
f 51/3/1 48/3/1 47/3/1
f 51/3/1 49/3/1 48/3/1
f 52/3/1 49/3/1 51/3/1
f 56/3/1 54/3/1 53/3/1
f 57/3/1 54/3/1 56/3/1
f 58/3/1 56/3/1 55/3/1
f 59/3/1 56/3/1 58/3/1
f 63/3/1 61/3/1 60/3/1
f 64/3/1 61/3/1 63/3/1
f 65/3/1 63/3/1 62/3/1
f 66/3/1 63/3/1 65/3/1
f 69/3/1 68/3/1 67/3/1
f 70/3/1 68/3/1 69/3/1
f 73/3/1 72/3/1 71/3/1
f 74/3/1 72/3/1 73/3/1
f 77/3/1 76/3/1 75/3/1
f 78/3/1 76/3/1 77/3/1
f 81/4/1 80/4/1 79/4/1
f 82/4/1 80/4/1 81/4/1
f 83/2/2 84/2/2 85/2/2
f 85/2/2 84/2/2 86/2/2
f 86/2/2 84/2/2 87/2/2
f 87/2/2 84/2/2 88/2/2
f 85/1/2 86/1/2 89/1/2
f 86/2/2 87/2/2 90/2/2
f 89/1/2 86/1/2 90/1/2
f 87/1/2 88/1/2 91/1/2
f 90/2/2 87/2/2 91/2/2
f 91/1/2 88/1/2 92/1/2
f 93/2/2 94/2/2 97/2/2
f 94/3/2 95/3/2 98/3/2
f 97/2/2 94/2/2 98/2/2
f 95/4/2 96/4/2 99/4/2
f 98/3/2 95/3/2 99/3/2
f 99/4/2 96/4/2 100/4/2
f 97/1/2 98/1/2 101/1/2
f 98/4/2 99/4/2 102/4/2
f 101/1/2 98/1/2 102/1/2
f 102/4/2 99/4/2 103/4/2
f 106/3/3 105/3/3 104/3/3
f 108/3/3 106/3/3 104/3/3
f 108/3/3 107/3/3 106/3/3
f 109/3/3 107/3/3 108/3/3
f 110/2/3 109/2/3 108/2/3
f 111/2/3 109/2/3 110/2/3
f 112/2/3 110/2/3 108/2/3
f 112/1/3 111/1/3 110/1/3
f 113/1/3 111/1/3 112/1/3
f 114/2/3 112/2/3 108/2/3
f 114/2/3 113/2/3 112/2/3
f 115/2/3 113/2/3 114/2/3
f 116/2/3 114/2/3 108/2/3
f 117/1/3 115/1/3 114/1/3
f 117/2/3 114/2/3 116/2/3
f 118/1/3 115/1/3 117/1/3
f 122/2/3 120/2/3 119/2/3
f 122/1/3 121/1/3 120/1/3
f 123/1/3 121/1/3 122/1/3
f 124/2/3 122/2/3 119/2/3
f 124/2/3 123/2/3 122/2/3
f 125/2/3 123/2/3 124/2/3
f 126/2/3 124/2/3 119/2/3
f 127/1/3 125/1/3 124/1/3
f 127/2/3 124/2/3 126/2/3
f 128/1/3 125/1/3 127/1/3
f 129/3/4 130/3/4 131/3/4
f 131/3/4 130/3/4 132/3/4
f 133/3/4 134/3/4 135/3/4
f 135/3/4 134/3/4 136/3/4
f 137/3/4 138/3/4 139/3/4
f 139/3/4 138/3/4 140/3/4
f 141/3/4 142/3/4 143/3/4
f 143/3/4 142/3/4 144/3/4
f 145/3/4 146/3/4 147/3/4
f 147/3/4 146/3/4 148/3/4
f 148/3/4 149/3/4 150/3/4
f 150/3/4 149/3/4 151/3/4
f 152/3/4 153/3/4 154/3/4
f 154/3/4 153/3/4 155/3/4
f 155/3/4 156/3/4 157/3/4
f 157/3/4 156/3/4 158/3/4
f 159/3/4 160/3/4 161/3/4
f 159/3/4 161/3/4 163/3/4
f 161/3/4 162/3/4 163/3/4
f 163/3/4 162/3/4 164/3/4
f 164/3/4 162/3/4 165/3/4
f 165/3/4 162/3/4 166/3/4
f 167/3/4 168/3/4 169/3/4
f 167/3/4 169/3/4 171/3/4
f 169/3/4 170/3/4 171/3/4
f 171/3/4 170/3/4 172/3/4
f 172/3/4 170/3/4 173/3/4
f 172/4/4 173/4/4 174/4/4
f 174/4/4 173/4/4 175/4/4
f 174/3/4 175/3/4 176/3/4
f 176/3/4 175/3/4 177/3/4
f 176/4/4 177/4/4 178/4/4
f 178/4/4 177/4/4 179/4/4
f 178/3/4 179/3/4 180/3/4
f 180/3/4 179/3/4 181/3/4
f 180/4/4 181/4/4 182/4/4
f 182/4/4 181/4/4 183/4/4
f 182/3/4 183/3/4 184/3/4
f 184/3/4 183/3/4 185/3/4
f 184/4/4 185/4/4 186/4/4
f 186/4/4 185/4/4 187/4/4
f 186/3/4 187/3/4 188/3/4
f 188/3/4 187/3/4 189/3/4
f 188/4/4 189/4/4 190/4/4
f 190/4/4 189/4/4 191/4/4
f 190/3/4 191/3/4 192/3/4
f 192/3/4 191/3/4 193/3/4
f 192/4/4 193/4/4 194/4/4
f 194/4/4 193/4/4 195/4/4
f 194/3/4 195/3/4 196/3/4
f 196/3/4 195/3/4 197/3/4
f 196/4/4 197/4/4 198/4/4
f 198/4/4 197/4/4 199/4/4
f 200/4/4 201/4/4 202/4/4
f 202/4/4 201/4/4 203/4/4
f 202/3/4 203/3/4 204/3/4
f 204/3/4 203/3/4 205/3/4
f 204/4/4 205/4/4 206/4/4
f 206/4/4 205/4/4 207/4/4
f 206/3/4 207/3/4 208/3/4
f 208/3/4 207/3/4 209/3/4
f 208/4/4 209/4/4 210/4/4
f 210/4/4 209/4/4 211/4/4
f 210/3/4 211/3/4 212/3/4
f 212/3/4 211/3/4 213/3/4
f 212/4/4 213/4/4 214/4/4
f 214/4/4 213/4/4 215/4/4
f 219/3/5 217/3/5 216/3/5
f 220/3/5 217/3/5 219/3/5
f 221/4/5 220/4/5 219/4/5
f 222/3/5 217/3/5 220/3/5
f 222/4/5 220/4/5 221/4/5
f 223/3/5 222/3/5 221/3/5
f 224/3/5 217/3/5 222/3/5
f 224/3/5 222/3/5 223/3/5
f 225/4/5 224/4/5 223/4/5
f 226/3/5 217/3/5 224/3/5
f 226/4/5 224/4/5 225/4/5
f 227/2/5 218/2/5 217/2/5
f 228/2/5 218/2/5 227/2/5
f 230/3/5 226/3/5 225/3/5
f 231/3/5 217/3/5 226/3/5
f 231/3/5 226/3/5 230/3/5
f 232/4/5 231/4/5 230/4/5
f 233/3/5 217/3/5 231/3/5
f 233/4/5 231/4/5 232/4/5
f 234/3/5 233/3/5 232/3/5
f 235/3/5 217/3/5 233/3/5
f 235/3/5 233/3/5 234/3/5
f 236/2/5 227/2/5 217/2/5
f 236/3/5 217/3/5 235/3/5
f 237/2/5 227/2/5 236/2/5
f 238/3/5 236/3/5 235/3/5
f 238/3/5 237/3/5 236/3/5
f 239/3/5 237/3/5 238/3/5
f 240/2/5 227/2/5 237/2/5
f 240/3/5 237/3/5 239/3/5
f 241/2/5 227/2/5 240/2/5
f 242/2/5 227/2/5 241/2/5
f 242/3/5 241/3/5 240/3/5
f 242/3/5 240/3/5 239/3/5
f 243/2/5 227/2/5 242/2/5
f 244/3/5 242/3/5 239/3/5
f 244/3/5 243/3/5 242/3/5
f 245/3/5 243/3/5 244/3/5
f 246/2/5 227/2/5 243/2/5
f 246/3/5 243/3/5 245/3/5
f 247/2/5 227/2/5 246/2/5
f 248/3/5 246/3/5 245/3/5
f 248/3/5 247/3/5 246/3/5
f 249/3/5 247/3/5 248/3/5
f 250/2/5 227/2/5 247/2/5
f 250/3/5 247/3/5 249/3/5
f 251/2/5 227/2/5 250/2/5
f 252/3/5 250/3/5 249/3/5
f 252/3/5 251/3/5 250/3/5
f 253/3/5 251/3/5 252/3/5
f 254/2/5 227/2/5 251/2/5
f 254/3/5 251/3/5 253/3/5
f 255/1/5 228/1/5 227/1/5
f 255/2/5 227/2/5 254/2/5
f 256/2/5 229/2/5 228/2/5
f 256/1/5 228/1/5 255/1/5
f 257/2/5 229/2/5 256/2/5
f 258/3/5 255/3/5 254/3/5
f 258/3/5 254/3/5 253/3/5
f 258/3/5 257/3/5 256/3/5
f 258/3/5 256/3/5 255/3/5
f 259/3/5 257/3/5 258/3/5
f 260/3/5 257/3/5 259/3/5
f 261/3/5 257/3/5 260/3/5
f 262/3/5 257/3/5 261/3/5
f 263/3/5 257/3/5 262/3/5
f 264/3/5 257/3/5 263/3/5
f 265/3/5 257/3/5 264/3/5
f 266/3/5 257/3/5 265/3/5
f 267/4/5 260/4/5 259/4/5
f 268/3/5 261/3/5 260/3/5
f 268/4/5 260/4/5 267/4/5
f 269/4/5 262/4/5 261/4/5
f 269/3/5 261/3/5 268/3/5
f 270/3/5 263/3/5 262/3/5
f 270/4/5 262/4/5 269/4/5
f 271/4/5 264/4/5 263/4/5
f 271/3/5 263/3/5 270/3/5
f 272/3/5 265/3/5 264/3/5
f 272/4/5 264/4/5 271/4/5
f 273/4/5 266/4/5 265/4/5
f 273/3/5 265/3/5 272/3/5
f 274/4/5 266/4/5 273/4/5
f 275/3/6 276/3/6 277/3/6
f 275/3/6 277/3/6 278/3/6
f 275/3/6 278/3/6 279/3/6
f 279/3/6 278/3/6 280/3/6
f 279/4/6 280/4/6 281/4/6
f 281/4/6 280/4/6 282/4/6
f 281/3/6 282/3/6 283/3/6
f 281/3/6 283/3/6 284/3/6
f 281/3/6 284/3/6 285/3/6
f 285/3/6 284/3/6 286/3/6
f 285/4/6 286/4/6 287/4/6
f 287/4/6 286/4/6 288/4/6
f 287/3/6 288/3/6 289/3/6
f 289/3/6 288/3/6 290/3/6
f 289/4/6 290/4/6 291/4/6
f 291/4/6 290/4/6 292/4/6
f 291/3/6 292/3/6 293/3/6
f 293/3/6 292/3/6 294/3/6
f 295/3/6 296/3/6 297/3/6
f 297/3/6 296/3/6 298/3/6
f 299/3/6 300/3/6 301/3/6
f 301/3/6 300/3/6 302/3/6
f 302/3/6 303/3/6 304/3/6
f 304/3/6 303/3/6 305/3/6
f 305/3/6 306/3/6 307/3/6
f 307/3/6 306/3/6 308/3/6
f 309/3/6 310/3/6 311/3/6
f 311/3/6 310/3/6 312/3/6
f 313/4/6 314/4/6 327/4/6
f 314/3/6 315/3/6 328/3/6
f 327/4/6 314/4/6 328/4/6
f 315/3/6 316/3/6 328/3/6
f 316/3/6 317/3/6 328/3/6
f 317/4/6 318/4/6 329/4/6
f 328/3/6 317/3/6 329/3/6
f 318/3/6 319/3/6 330/3/6
f 329/4/6 318/4/6 330/4/6
f 319/3/6 320/3/6 330/3/6
f 320/3/6 321/3/6 330/3/6
f 321/4/6 322/4/6 331/4/6
f 330/3/6 321/3/6 331/3/6
f 324/3/6 325/3/6 332/3/6
f 331/4/6 322/4/6 332/4/6
f 323/3/6 324/3/6 332/3/6
f 322/3/6 323/3/6 332/3/6
f 325/4/6 326/4/6 333/4/6
f 332/3/6 325/3/6 333/3/6
f 333/4/6 326/4/6 334/4/6
f 336/2/6 337/2/6 341/2/6
f 337/1/6 338/1/6 341/1/6
f 338/2/6 339/2/6 342/2/6
f 341/1/6 338/1/6 342/1/6
f 339/1/6 340/1/6 343/1/6
f 342/2/6 339/2/6 343/2/6
f 343/1/6 340/1/6 344/1/6
f 335/3/6 336/3/6 345/3/6
f 341/2/6 342/2/6 346/2/6
f 345/3/6 336/3/6 346/3/6
f 336/2/6 341/2/6 346/2/6
f 343/2/6 344/2/6 346/2/6
f 342/2/6 343/2/6 346/2/6
f 346/2/6 344/2/6 347/2/6
f 345/4/6 346/4/6 348/4/6
f 346/1/6 347/1/6 348/1/6
f 347/2/6 344/2/6 349/2/6
f 348/1/6 347/1/6 349/1/6
f 345/4/6 348/4/6 350/4/6
f 348/2/6 349/2/6 351/2/6
f 350/4/6 348/4/6 351/4/6
f 350/3/6 351/3/6 352/3/6
f 351/2/6 349/2/6 353/2/6
f 352/3/6 351/3/6 353/3/6
f 352/4/6 353/4/6 354/4/6
f 353/2/6 349/2/6 355/2/6
f 354/4/6 353/4/6 355/4/6
f 349/2/6 344/2/6 356/2/6
f 355/2/6 349/2/6 356/2/6
f 354/3/6 355/3/6 357/3/6
f 355/1/6 356/1/6 358/1/6
f 357/3/6 355/3/6 358/3/6
f 357/4/6 358/4/6 359/4/6
f 358/1/6 356/1/6 359/1/6
f 356/2/6 344/2/6 360/2/6
f 359/1/6 356/1/6 360/1/6
f 357/4/6 359/4/6 361/4/6
f 359/2/6 360/2/6 362/2/6
f 361/4/6 359/4/6 362/4/6
f 361/3/6 362/3/6 363/3/6
f 362/2/6 360/2/6 363/2/6
f 360/2/6 344/2/6 364/2/6
f 363/2/6 360/2/6 364/2/6
f 363/1/6 364/1/6 365/1/6
f 364/2/6 344/2/6 365/2/6
f 365/2/6 344/2/6 366/2/6
f 366/2/6 344/2/6 367/2/6
f 367/2/6 344/2/6 368/2/6
f 361/3/6 363/3/6 369/3/6
f 363/1/6 365/1/6 370/1/6
f 369/3/6 363/3/6 370/3/6
f 365/1/6 366/1/6 370/1/6
f 366/2/6 367/2/6 371/2/6
f 370/1/6 366/1/6 371/1/6
f 367/1/6 368/1/6 372/1/6
f 371/2/6 367/2/6 372/2/6
f 369/4/6 370/4/6 373/4/6
f 370/1/6 371/1/6 374/1/6
f 373/4/6 370/4/6 374/4/6
f 371/1/6 372/1/6 374/1/6
f 374/1/6 372/1/6 375/1/6
f 375/1/6 372/1/6 376/1/6
f 372/1/6 368/1/6 377/1/6
f 376/1/6 372/1/6 377/1/6
f 376/1/6 377/1/6 381/1/6
f 375/2/6 376/2/6 381/2/6
f 377/1/6 378/1/6 381/1/6
f 381/1/6 378/1/6 382/1/6
f 382/1/6 378/1/6 383/1/6
f 378/2/6 379/2/6 384/2/6
f 383/1/6 378/1/6 384/1/6
f 379/1/6 380/1/6 385/1/6
f 384/2/6 379/2/6 385/2/6
f 385/1/6 380/1/6 386/1/6
f 374/1/6 375/1/6 387/1/6
f 373/3/6 374/3/6 387/3/6
f 375/2/6 381/2/6 388/2/6
f 387/1/6 375/1/6 388/1/6
f 381/2/6 382/2/6 388/2/6
f 373/3/6 387/3/6 389/3/6
f 387/2/6 388/2/6 390/2/6
f 389/3/6 387/3/6 390/3/6
f 389/4/6 390/4/6 391/4/6
f 390/2/6 388/2/6 392/2/6
f 391/4/6 390/4/6 392/4/6
f 391/3/6 392/3/6 393/3/6
f 392/2/6 388/2/6 393/2/6
f 388/2/6 382/2/6 394/2/6
f 393/2/6 388/2/6 394/2/6
f 391/3/6 393/3/6 395/3/6
f 393/3/6 394/3/6 395/3/6
f 395/3/6 394/3/6 396/3/6
f 383/2/6 384/2/6 397/2/6
f 382/1/6 383/1/6 397/1/6
f 385/2/6 386/2/6 397/2/6
f 384/2/6 385/2/6 397/2/6
f 397/2/6 386/2/6 398/2/6
f 396/3/6 394/3/6 399/3/6
f 394/2/6 382/2/6 399/2/6
f 399/2/6 382/2/6 400/2/6
f 396/3/6 399/3/6 401/3/6
f 399/3/6 400/3/6 401/3/6
f 401/3/6 400/3/6 402/3/6
f 400/2/6 382/2/6 403/2/6
f 402/3/6 400/3/6 403/3/6
f 403/2/6 382/2/6 404/2/6
f 397/1/6 398/1/6 405/1/6
f 382/1/6 397/1/6 405/1/6
f 398/2/6 386/2/6 406/2/6
f 405/1/6 398/1/6 406/1/6
f 403/3/6 404/3/6 407/3/6
f 402/3/6 403/3/6 407/3/6
f 407/3/6 404/3/6 408/3/6
f 404/2/6 382/2/6 409/2/6
f 408/3/6 404/3/6 409/3/6
f 409/2/6 382/2/6 410/2/6
f 410/2/6 382/2/6 411/2/6
f 382/1/6 405/1/6 412/1/6
f 411/2/6 382/2/6 412/2/6
f 406/2/6 386/2/6 413/2/6
f 405/2/6 406/2/6 413/2/6
f 386/1/6 380/1/6 414/1/6
f 413/2/6 386/2/6 414/2/6
f 408/3/6 409/3/6 415/3/6
f 409/3/6 410/3/6 415/3/6
f 415/3/6 410/3/6 416/3/6
f 410/2/6 411/2/6 417/2/6
f 416/3/6 410/3/6 417/3/6
f 417/2/6 411/2/6 418/2/6
f 418/2/6 411/2/6 419/2/6
f 419/2/6 411/2/6 420/2/6
f 411/1/6 412/1/6 421/1/6
f 420/2/6 411/2/6 421/2/6
f 405/2/6 413/2/6 422/2/6
f 422/2/6 413/2/6 423/2/6
f 423/2/6 413/2/6 424/2/6
f 424/2/6 413/2/6 425/2/6
f 425/2/6 413/2/6 426/2/6
f 413/1/6 414/1/6 427/1/6
f 426/2/6 413/2/6 427/2/6
f 416/3/6 417/3/6 428/3/6
f 417/3/6 418/3/6 428/3/6
f 428/3/6 418/3/6 429/3/6
f 418/1/6 419/1/6 430/1/6
f 429/3/6 418/3/6 430/3/6
f 430/1/6 419/1/6 431/1/6
f 431/1/6 419/1/6 432/1/6
f 419/2/6 420/2/6 433/2/6
f 432/1/6 419/1/6 433/1/6
f 433/2/6 420/2/6 434/2/6
f 420/1/6 421/1/6 435/1/6
f 434/2/6 420/2/6 435/2/6
f 421/1/6 412/1/6 436/1/6
f 435/1/6 421/1/6 436/1/6
f 412/1/6 405/1/6 436/1/6
f 405/2/6 422/2/6 437/2/6
f 436/1/6 405/1/6 437/1/6
f 422/1/6 423/1/6 438/1/6
f 437/2/6 422/2/6 438/2/6
f 423/2/6 424/2/6 439/2/6
f 438/1/6 423/1/6 439/1/6
f 439/2/6 424/2/6 440/2/6
f 440/2/6 424/2/6 441/2/6
f 424/1/6 425/1/6 442/1/6
f 441/2/6 424/2/6 442/2/6
f 442/1/6 425/1/6 443/1/6
f 425/2/6 426/2/6 444/2/6
f 443/1/6 425/1/6 444/1/6
f 444/2/6 426/2/6 445/2/6
f 426/1/6 427/1/6 446/1/6
f 445/2/6 426/2/6 446/2/6
f 427/1/6 414/1/6 447/1/6
f 446/1/6 427/1/6 447/1/6
f 414/1/6 380/1/6 447/1/6
f 447/1/6 380/1/6 448/1/6
f 429/3/6 430/3/6 449/3/6
f 430/4/6 431/4/6 450/4/6
f 449/3/6 430/3/6 450/3/6
f 431/3/6 432/3/6 451/3/6
f 450/4/6 431/4/6 451/4/6
f 432/4/6 433/4/6 452/4/6
f 451/3/6 432/3/6 452/3/6
f 433/4/6 434/4/6 452/4/6
f 434/3/6 435/3/6 453/3/6
f 452/4/6 434/4/6 453/4/6
f 435/3/6 436/3/6 453/3/6
f 436/4/6 437/4/6 454/4/6
f 453/3/6 436/3/6 454/3/6
f 437/3/6 438/3/6 455/3/6
f 454/4/6 437/4/6 455/4/6
f 438/4/6 439/4/6 456/4/6
f 455/3/6 438/3/6 456/3/6
f 439/4/6 440/4/6 456/4/6
f 440/3/6 441/3/6 457/3/6
f 456/4/6 440/4/6 457/4/6
f 441/4/6 442/4/6 458/4/6
f 457/3/6 441/3/6 458/3/6
f 442/3/6 443/3/6 459/3/6
f 458/4/6 442/4/6 459/4/6
f 443/4/6 444/4/6 460/4/6
f 459/3/6 443/3/6 460/3/6
f 444/4/6 445/4/6 460/4/6
f 445/3/6 446/3/6 461/3/6
f 460/4/6 445/4/6 461/4/6
f 446/3/6 447/3/6 461/3/6
f 447/4/6 448/4/6 462/4/6
f 461/3/6 447/3/6 462/3/6
f 462/4/6 448/4/6 463/4/6
