# MagicaVoxel @ Ephtracy

# group
o 

# material
mtllib SecurityCamera.mtl
usemtl palette

# normals
vn -1 0 0
vn 1 0 0
vn 0 0 1
vn 0 0 -1
vn 0 -1 0
vn 0 1 0

# texcoords
vt 0.00976562 0.5
vt 0.0214844 0.5
vt 0.0253906 0.5
vt 0.244141 0.5
vt 0.248047 0.5

# verts
v -0.3 -0.25 0.5
v -0.3 -0.25 -0.7
v -0.3 -0.15 -0.3
v -0.3 -0.15 -0.6
v -0.3 -0.05 0.6
v -0.3 -0.05 0.5
v -0.3 -0.05 0
v -0.3 -0.05 -0.2
v -0.3 -0.05 -0.4
v -0.3 -0.05 -0.5
v -0.3 0.05 0.5
v -0.3 0.05 0.3
v -0.3 0.05 0.2
v -0.3 0.05 0
v -0.3 0.05 -0.4
v -0.3 0.05 -0.5
v -0.3 0.15 0.6
v -0.3 0.15 0.5
v -0.3 0.15 0.3
v -0.3 0.15 0.2
v -0.3 0.15 -0.2
v -0.3 0.15 -0.3
v -0.3 0.15 -0.6
v -0.3 0.15 -0.7
v -0.2 0.15 0.7
v -0.2 0.15 0.6
v -0.2 0.15 0.5
v -0.2 0.15 0.3
v -0.2 0.15 0.2
v -0.2 0.15 -0.2
v -0.2 0.15 -0.3
v -0.2 0.15 -0.6
v -0.2 0.15 -0.7
v -0.2 0.25 0.7
v -0.2 0.25 -0.7
v -0.1 -0.15 -0.6
v -0.1 -0.15 -0.7
v -0.1 0.05 -0.6
v -0.1 0.05 -0.7
v 0.2 -0.25 0.5
v 0.2 -0.25 0.3
v 0.2 -0.25 -0.6
v 0.2 -0.25 -0.7
v 0.2 -0.15 0.4
v 0.2 -0.15 0.3
v 0.2 -0.05 0.6
v 0.2 -0.05 0.5
v 0.2 0.05 0.5
v 0.2 0.05 0.4
v 0.2 0.15 0.6
v 0.2 0.15 0.5
v 0.2 0.15 -0.6
v 0.2 0.15 -0.7
v -0.2 -0.25 0.5
v -0.2 -0.25 0.3
v -0.2 -0.25 -0.6
v -0.2 -0.25 -0.7
v -0.2 -0.15 0.4
v -0.2 -0.15 0.3
v -0.2 -0.05 0.6
v -0.2 -0.05 0.5
v -0.2 0.05 0.5
v -0.2 0.05 0.4
v -0.2 0.15 0.6
v -0.2 0.15 0.5
v -0.2 0.15 -0.6
v -0.2 0.15 -0.7
v 0.1 -0.15 -0.6
v 0.1 -0.15 -0.7
v 0.1 0.05 -0.6
v 0.1 0.05 -0.7
v 0.2 0.15 0.7
v 0.2 0.15 0.6
v 0.2 0.15 0.5
v 0.2 0.15 0.3
v 0.2 0.15 -0.4
v 0.2 0.15 -0.6
v 0.2 0.15 -0.7
v 0.2 0.25 0.7
v 0.2 0.25 -0.7
v 0.3 -0.25 0.5
v 0.3 -0.25 -0.7
v 0.3 -0.05 0.6
v 0.3 -0.05 0.5
v 0.3 -0.05 -0.5
v 0.3 -0.05 -0.6
v 0.3 0.05 0.5
v 0.3 0.05 0.3
v 0.3 0.05 -0.4
v 0.3 0.05 -0.5
v 0.3 0.15 0.6
v 0.3 0.15 0.5
v 0.3 0.15 0.3
v 0.3 0.15 -0.4
v 0.3 0.15 -0.6
v 0.3 0.15 -0.7
v -0.2 0.15 0.7
v -0.2 0.25 0.7
v 0.2 0.15 0.7
v 0.2 0.25 0.7
v -0.3 -0.05 0.6
v -0.3 0.15 0.6
v -0.2 -0.05 0.6
v -0.2 0.15 0.6
v 0.2 -0.05 0.6
v 0.2 0.15 0.6
v 0.3 -0.05 0.6
v 0.3 0.15 0.6
v -0.3 -0.25 0.5
v -0.3 -0.05 0.5
v -0.2 -0.25 0.5
v -0.2 -0.05 0.5
v -0.2 0.05 0.5
v -0.2 0.15 0.5
v 0.1 0.05 0.5
v 0.1 0.15 0.5
v 0.2 -0.25 0.5
v 0.2 -0.05 0.5
v 0.2 0.05 0.5
v 0.2 0.15 0.5
v 0.3 -0.25 0.5
v 0.3 -0.05 0.5
v -0.2 -0.15 0.4
v -0.2 0.05 0.4
v -0.1 -0.15 0.4
v -0.1 0.05 0.4
v 0.1 -0.15 0.4
v 0.1 0.05 0.4
v 0.2 -0.15 0.4
v 0.2 0.05 0.4
v -0.2 -0.25 0.3
v -0.2 -0.15 0.3
v -0.1 -0.15 0.3
v 0.1 -0.15 0.3
v 0.2 -0.25 0.3
v 0.2 -0.15 0.3
v -0.2 -0.25 -0.6
v -0.2 0.15 -0.6
v -0.1 -0.15 -0.6
v -0.1 0.05 -0.6
v 0.1 -0.15 -0.6
v 0.1 0.05 -0.6
v 0.2 -0.25 -0.6
v 0.2 0.15 -0.6
v -0.3 -0.25 -0.7
v -0.3 0.15 -0.7
v -0.2 -0.25 -0.7
v -0.2 0.15 -0.7
v -0.2 0.25 -0.7
v -0.1 -0.15 -0.7
v -0.1 0.05 -0.7
v 0.1 -0.15 -0.7
v 0.1 0.05 -0.7
v 0.2 -0.25 -0.7
v 0.2 0.15 -0.7
v 0.2 0.25 -0.7
v 0.3 -0.25 -0.7
v 0.3 0.15 -0.7
v -0.3 -0.25 0.5
v -0.2 -0.25 0.5
v 0.2 -0.25 0.5
v 0.3 -0.25 0.5
v -0.2 -0.25 0.3
v 0.2 -0.25 0.3
v -0.2 -0.25 -0.6
v 0.2 -0.25 -0.6
v -0.3 -0.25 -0.7
v -0.2 -0.25 -0.7
v 0.2 -0.25 -0.7
v 0.3 -0.25 -0.7
v -0.2 -0.15 0.4
v -0.1 -0.15 0.4
v 0.1 -0.15 0.4
v 0.2 -0.15 0.4
v -0.2 -0.15 0.3
v -0.1 -0.15 0.3
v 0.1 -0.15 0.3
v 0.2 -0.15 0.3
v -0.1 -0.15 -0.6
v 0.1 -0.15 -0.6
v -0.1 -0.15 -0.7
v 0.1 -0.15 -0.7
v -0.3 -0.05 0.6
v -0.2 -0.05 0.6
v 0.2 -0.05 0.6
v 0.3 -0.05 0.6
v -0.3 -0.05 0.5
v -0.2 -0.05 0.5
v 0.2 -0.05 0.5
v 0.3 -0.05 0.5
v -0.2 0.05 0.5
v 0.1 0.05 0.5
v 0.2 0.05 0.5
v -0.2 0.05 0.4
v -0.1 0.05 0.4
v 0.1 0.05 0.4
v 0.2 0.05 0.4
v -0.2 0.15 0.7
v 0.2 0.15 0.7
v -0.2 0.15 0.6
v 0.2 0.15 0.6
v -0.2 0.15 0.5
v 0.1 0.15 0.5
v 0.2 0.15 0.5
v -0.2 0.15 -0.6
v 0.2 0.15 -0.6
v -0.2 0.15 -0.7
v 0.2 0.15 -0.7
v -0.1 0.05 -0.6
v 0.1 0.05 -0.6
v -0.1 0.05 -0.7
v 0.1 0.05 -0.7
v -0.3 0.15 0.6
v -0.2 0.15 0.6
v 0.2 0.15 0.6
v 0.3 0.15 0.6
v -0.3 0.15 0.5
v -0.2 0.15 0.5
v 0.2 0.15 0.5
v 0.3 0.15 0.5
v -0.3 0.15 0.3
v -0.2 0.15 0.3
v 0.2 0.15 0.3
v 0.3 0.15 0.3
v -0.3 0.15 0.2
v -0.2 0.15 0.2
v -0.3 0.15 -0.2
v -0.2 0.15 -0.2
v -0.3 0.15 -0.3
v -0.2 0.15 -0.3
v 0.2 0.15 -0.4
v 0.3 0.15 -0.4
v -0.3 0.15 -0.6
v -0.2 0.15 -0.6
v 0.2 0.15 -0.6
v 0.3 0.15 -0.6
v -0.3 0.15 -0.7
v -0.2 0.15 -0.7
v 0.2 0.15 -0.7
v 0.3 0.15 -0.7
v -0.2 0.25 0.7
v 0.2 0.25 0.7
v -0.2 0.25 -0.7
v 0.2 0.25 -0.7

# faces
f 3/2/1 2/2/1 1/2/1
f 4/2/1 2/2/1 3/2/1
f 6/2/1 3/2/1 1/2/1
f 7/2/1 3/2/1 6/2/1
f 8/2/1 3/2/1 7/2/1
f 9/3/1 4/3/1 3/3/1
f 10/3/1 4/3/1 9/3/1
f 11/2/1 6/2/1 5/2/1
f 11/2/1 7/2/1 6/2/1
f 12/2/1 7/2/1 11/2/1
f 13/2/1 7/2/1 12/2/1
f 14/3/1 8/3/1 7/3/1
f 14/2/1 7/2/1 13/2/1
f 15/2/1 10/2/1 9/2/1
f 15/3/1 9/3/1 3/3/1
f 16/3/1 4/3/1 10/3/1
f 16/2/1 10/2/1 15/2/1
f 17/2/1 11/2/1 5/2/1
f 18/3/1 12/3/1 11/3/1
f 18/2/1 11/2/1 17/2/1
f 19/2/1 13/2/1 12/2/1
f 19/3/1 12/3/1 18/3/1
f 20/3/1 14/3/1 13/3/1
f 20/2/1 13/2/1 19/2/1
f 21/2/1 3/2/1 8/2/1
f 21/3/1 14/3/1 20/3/1
f 21/3/1 8/3/1 14/3/1
f 22/3/1 15/3/1 3/3/1
f 22/2/1 3/2/1 21/2/1
f 22/3/1 16/3/1 15/3/1
f 23/2/1 2/2/1 4/2/1
f 23/3/1 16/3/1 22/3/1
f 23/3/1 4/3/1 16/3/1
f 24/2/1 2/2/1 23/2/1
f 34/2/1 26/2/1 25/2/1
f 34/2/1 33/2/1 32/2/1
f 34/2/1 32/2/1 31/2/1
f 34/2/1 31/2/1 30/2/1
f 34/2/1 30/2/1 29/2/1
f 34/2/1 29/2/1 28/2/1
f 34/2/1 28/2/1 27/2/1
f 34/2/1 27/2/1 26/2/1
f 35/2/1 33/2/1 34/2/1
f 38/1/1 37/1/1 36/1/1
f 39/1/1 37/1/1 38/1/1
f 44/2/1 41/2/1 40/2/1
f 45/2/1 41/2/1 44/2/1
f 47/2/1 44/2/1 40/2/1
f 48/2/1 44/2/1 47/2/1
f 48/2/1 47/2/1 46/2/1
f 49/2/1 44/2/1 48/2/1
f 50/2/1 48/2/1 46/2/1
f 51/2/1 48/2/1 50/2/1
f 52/2/1 43/2/1 42/2/1
f 53/2/1 43/2/1 52/2/1
f 54/2/2 55/2/2 58/2/2
f 58/2/2 55/2/2 59/2/2
f 54/2/2 58/2/2 61/2/2
f 61/2/2 58/2/2 62/2/2
f 60/2/2 61/2/2 62/2/2
f 62/2/2 58/2/2 63/2/2
f 60/2/2 62/2/2 64/2/2
f 64/2/2 62/2/2 65/2/2
f 56/2/2 57/2/2 66/2/2
f 66/2/2 57/2/2 67/2/2
f 68/1/2 69/1/2 70/1/2
f 70/1/2 69/1/2 71/1/2
f 72/2/2 73/2/2 79/2/2
f 77/2/2 78/2/2 79/2/2
f 76/2/2 77/2/2 79/2/2
f 75/2/2 76/2/2 79/2/2
f 74/2/2 75/2/2 79/2/2
f 73/2/2 74/2/2 79/2/2
f 79/2/2 78/2/2 80/2/2
f 81/2/2 82/2/2 84/2/2
f 84/2/2 82/2/2 85/2/2
f 85/2/2 82/2/2 86/2/2
f 83/2/2 84/2/2 87/2/2
f 84/2/2 85/2/2 87/2/2
f 87/2/2 85/2/2 88/2/2
f 88/2/2 85/2/2 89/2/2
f 85/3/2 86/3/2 90/3/2
f 89/2/2 85/2/2 90/2/2
f 83/2/2 87/2/2 91/2/2
f 87/3/2 88/3/2 92/3/2
f 91/2/2 87/2/2 92/2/2
f 88/2/2 89/2/2 93/2/2
f 92/3/2 88/3/2 93/3/2
f 89/3/2 90/3/2 94/3/2
f 93/2/2 89/2/2 94/2/2
f 86/2/2 82/2/2 95/2/2
f 94/3/2 90/3/2 95/3/2
f 90/3/2 86/3/2 95/3/2
f 95/2/2 82/2/2 96/2/2
f 99/2/3 98/2/3 97/2/3
f 100/2/3 98/2/3 99/2/3
f 103/2/3 102/2/3 101/2/3
f 104/2/3 102/2/3 103/2/3
f 107/2/3 106/2/3 105/2/3
f 108/2/3 106/2/3 107/2/3
f 111/2/3 110/2/3 109/2/3
f 112/2/3 110/2/3 111/2/3
f 115/1/3 114/1/3 113/1/3
f 116/1/3 114/1/3 115/1/3
f 119/4/3 116/4/3 115/4/3
f 120/4/3 116/4/3 119/4/3
f 121/2/3 118/2/3 117/2/3
f 122/2/3 118/2/3 121/2/3
f 125/1/3 124/1/3 123/1/3
f 126/1/3 124/1/3 125/1/3
f 127/5/3 126/5/3 125/5/3
f 128/5/3 126/5/3 127/5/3
f 129/1/3 128/1/3 127/1/3
f 130/1/3 128/1/3 129/1/3
f 133/1/3 132/1/3 131/1/3
f 134/1/3 133/1/3 131/1/3
f 135/1/3 134/1/3 131/1/3
f 136/1/3 134/1/3 135/1/3
f 137/1/4 138/1/4 139/1/4
f 139/1/4 138/1/4 140/1/4
f 137/1/4 139/1/4 141/1/4
f 140/1/4 138/1/4 142/1/4
f 137/1/4 141/1/4 143/1/4
f 141/1/4 142/1/4 143/1/4
f 142/1/4 138/1/4 144/1/4
f 143/1/4 142/1/4 144/1/4
f 145/2/4 146/2/4 147/2/4
f 147/2/4 146/2/4 148/2/4
f 150/1/4 151/1/4 152/1/4
f 152/1/4 151/1/4 153/1/4
f 148/2/4 149/2/4 155/2/4
f 155/2/4 149/2/4 156/2/4
f 154/2/4 155/2/4 157/2/4
f 157/2/4 155/2/4 158/2/4
f 163/2/5 160/2/5 159/2/5
f 164/2/5 162/2/5 161/2/5
f 165/2/5 163/2/5 159/2/5
f 165/1/5 164/1/5 163/1/5
f 166/2/5 162/2/5 164/2/5
f 166/1/5 164/1/5 165/1/5
f 167/2/5 165/2/5 159/2/5
f 168/2/5 165/2/5 167/2/5
f 169/2/5 162/2/5 166/2/5
f 170/2/5 162/2/5 169/2/5
f 175/1/5 172/1/5 171/1/5
f 176/5/5 173/5/5 172/5/5
f 176/1/5 172/1/5 175/1/5
f 177/1/5 174/1/5 173/1/5
f 177/5/5 173/5/5 176/5/5
f 178/1/5 174/1/5 177/1/5
f 181/1/5 180/1/5 179/1/5
f 182/1/5 180/1/5 181/1/5
f 187/2/5 184/2/5 183/2/5
f 188/2/5 184/2/5 187/2/5
f 189/2/5 186/2/5 185/2/5
f 190/2/5 186/2/5 189/2/5
f 194/1/5 192/1/5 191/1/5
f 195/1/5 192/1/5 194/1/5
f 196/4/5 193/4/5 192/4/5
f 196/1/5 192/1/5 195/1/5
f 197/4/5 193/4/5 196/4/5
f 200/2/5 199/2/5 198/2/5
f 201/2/5 199/2/5 200/2/5
f 202/2/5 201/2/5 200/2/5
f 203/2/5 201/2/5 202/2/5
f 204/2/5 201/2/5 203/2/5
f 207/2/5 206/2/5 205/2/5
f 208/2/5 206/2/5 207/2/5
f 209/1/6 210/1/6 211/1/6
f 211/1/6 210/1/6 212/1/6
f 213/2/6 214/2/6 217/2/6
f 217/2/6 214/2/6 218/2/6
f 215/2/6 216/2/6 219/2/6
f 219/2/6 216/2/6 220/2/6
f 217/3/6 218/3/6 221/3/6
f 221/3/6 218/3/6 222/3/6
f 219/3/6 220/3/6 223/3/6
f 223/3/6 220/3/6 224/3/6
f 221/2/6 222/2/6 225/2/6
f 225/2/6 222/2/6 226/2/6
f 225/3/6 226/3/6 227/3/6
f 227/3/6 226/3/6 228/3/6
f 227/2/6 228/2/6 229/2/6
f 229/2/6 228/2/6 230/2/6
f 223/2/6 224/2/6 231/2/6
f 231/2/6 224/2/6 232/2/6
f 229/3/6 230/3/6 233/3/6
f 233/3/6 230/3/6 234/3/6
f 231/3/6 232/3/6 235/3/6
f 235/3/6 232/3/6 236/3/6
f 233/2/6 234/2/6 237/2/6
f 237/2/6 234/2/6 238/2/6
f 235/2/6 236/2/6 239/2/6
f 239/2/6 236/2/6 240/2/6
f 241/2/6 242/2/6 243/2/6
f 243/2/6 242/2/6 244/2/6
