# MagicaVoxel @ Ephtracy

# group
o 

# material
mtllib VendingMachine.mtl
usemtl palette

# normals
vn -1 0 0
vn 1 0 0
vn 0 0 1
vn 0 0 -1
vn 0 -1 0
vn 0 1 0

# texcoords
vt 0.00976562 0.5
vt 0.0136719 0.5
vt 0.0410156 0.5
vt 0.244141 0.5

# verts
v -0.4 0 0.1
v -0.4 0 -0.2
v -0.4 0.2 0
v -0.4 0.2 -0.1
v -0.4 0.4 0.3
v -0.4 0.4 0.1
v -0.4 0.6 0.3
v -0.4 0.6 0.1
v -0.4 0.8 0.3
v -0.4 0.8 0.1
v -0.4 0.9 0.1
v -0.4 0.9 0
v -0.4 1 0.2
v -0.4 1 0.1
v -0.4 1 0
v -0.4 1 -0.1
v -0.4 1.1 0.1
v -0.4 1.1 0
v -0.4 1.2 0
v -0.4 1.2 -0.1
v -0.4 1.4 0.2
v -0.4 1.4 0.1
v -0.4 1.4 0
v -0.4 1.4 -0.1
v -0.4 1.5 0.3
v -0.4 1.5 0.2
v -0.4 1.5 -0.1
v -0.4 1.5 -0.2
v -0.4 1.6 0.2
v -0.4 1.6 -0.1
v -0.3 0 -0.2
v -0.3 0 -0.3
v -0.3 0.2 0
v -0.3 0.2 -0.1
v -0.3 0.4 0.4
v -0.3 0.4 0.3
v -0.3 0.6 0.4
v -0.3 0.6 0.3
v -0.3 0.8 0.4
v -0.3 0.8 0.3
v -0.3 0.9 0.1
v -0.3 0.9 0
v -0.3 1 0.2
v -0.3 1 0.1
v -0.3 1 0
v -0.3 1 -0.1
v -0.3 1.1 0.1
v -0.3 1.1 0
v -0.3 1.2 0
v -0.3 1.2 -0.1
v -0.3 1.4 0.2
v -0.3 1.4 0.1
v -0.3 1.4 0
v -0.3 1.4 -0.1
v -0.3 1.5 0.3
v -0.3 1.5 0.2
v -0.3 1.5 -0.1
v -0.3 1.5 -0.2
v -0.3 1.5 -0.3
v -0.3 1.6 0.4
v -0.3 1.6 0.3
v -0.3 1.6 0.2
v -0.3 1.6 -0.1
v -0.3 1.6 -0.2
v -0.3 1.6 -0.3
v -0.3 1.7 0.3
v -0.3 1.7 -0.2
v -0.1 0.2 -0.2
v -0.1 0.2 -0.3
v -0.1 0.8 -0.2
v -0.1 0.8 -0.3
v 0 0 0.3
v 0 0 0.1
v 0 0.4 0.3
v 0 0.4 0.1
v 0.1 0 0.4
v 0.1 0 0.3
v 0.1 0.2 -0.2
v 0.1 0.2 -0.3
v 0.1 0.4 0.4
v 0.1 0.4 0.3
v 0.1 0.5 0.3
v 0.1 0.5 0.1
v 0.1 0.6 0.4
v 0.1 0.6 0.3
v 0.1 0.8 0.4
v 0.1 0.8 0.3
v 0.1 0.8 -0.2
v 0.1 0.8 -0.3
v 0.1 0.9 0.3
v 0.1 0.9 0.1
v 0.1 0.9 -0.2
v 0.1 0.9 -0.3
v 0.1 1 -0.2
v 0.1 1 -0.3
v -0.3 0.5 0.3
v -0.3 0.5 0.1
v -0.3 0.6 0.3
v -0.3 0.6 0.1
v -0.3 0.8 0.3
v -0.3 0.8 0.1
v -0.3 0.9 0.3
v -0.3 0.9 0.1
v -0.2 0.2 -0.2
v -0.2 0.2 -0.3
v -0.2 0.8 -0.2
v -0.2 0.8 -0.3
v -0.2 0.9 -0.2
v -0.2 0.9 -0.3
v -0.2 1 -0.2
v -0.2 1 -0.3
v 0 0.2 -0.2
v 0 0.2 -0.3
v 0 0.8 -0.2
v 0 0.8 -0.3
v 0.3 0 0.4
v 0.3 0 0.3
v 0.3 0 -0.2
v 0.3 0 -0.3
v 0.3 0.1 0.2
v 0.3 0.1 0.1
v 0.3 0.1 0
v 0.3 0.1 -0.1
v 0.3 0.8 0.2
v 0.3 0.8 0.1
v 0.3 0.9 0.1
v 0.3 0.9 0
v 0.3 1 0.2
v 0.3 1 0.1
v 0.3 1 0
v 0.3 1 -0.1
v 0.3 1.1 0.1
v 0.3 1.1 0
v 0.3 1.2 0
v 0.3 1.2 -0.1
v 0.3 1.4 0.2
v 0.3 1.4 0.1
v 0.3 1.4 0
v 0.3 1.4 -0.1
v 0.3 1.5 0.3
v 0.3 1.5 0.2
v 0.3 1.5 -0.1
v 0.3 1.5 -0.2
v 0.3 1.5 -0.3
v 0.3 1.6 0.4
v 0.3 1.6 0.3
v 0.3 1.6 0.2
v 0.3 1.6 -0.1
v 0.3 1.6 -0.2
v 0.3 1.6 -0.3
v 0.3 1.7 0.3
v 0.3 1.7 -0.2
v 0.4 0 0.3
v 0.4 0 -0.2
v 0.4 0.1 0.2
v 0.4 0.1 0.1
v 0.4 0.1 0
v 0.4 0.1 -0.1
v 0.4 0.8 0.2
v 0.4 0.8 0.1
v 0.4 0.9 0.1
v 0.4 0.9 0
v 0.4 1 0.2
v 0.4 1 0.1
v 0.4 1 0
v 0.4 1 -0.1
v 0.4 1.1 0.1
v 0.4 1.1 0
v 0.4 1.2 0
v 0.4 1.2 -0.1
v 0.4 1.4 0.2
v 0.4 1.4 0.1
v 0.4 1.4 0
v 0.4 1.4 -0.1
v 0.4 1.5 0.3
v 0.4 1.5 0.2
v 0.4 1.5 -0.1
v 0.4 1.5 -0.2
v 0.4 1.6 0.2
v 0.4 1.6 -0.1
v -0.3 0.4 0.4
v -0.3 0.6 0.4
v -0.3 0.8 0.4
v -0.3 1.6 0.4
v -0.2 0.8 0.4
v -0.2 1.6 0.4
v 0 0.8 0.4
v 0 1.6 0.4
v 0.1 0 0.4
v 0.1 0.4 0.4
v 0.1 0.6 0.4
v 0.1 0.8 0.4
v 0.3 0 0.4
v 0.3 1.6 0.4
v -0.4 0.4 0.3
v -0.4 0.6 0.3
v -0.4 0.8 0.3
v -0.4 1.5 0.3
v -0.3 0.4 0.3
v -0.3 0.6 0.3
v -0.3 0.8 0.3
v -0.3 1.5 0.3
v -0.3 1.6 0.3
v -0.3 1.7 0.3
v -0.2 1.6 0.3
v -0.2 1.7 0.3
v 0 0 0.3
v 0 0.4 0.3
v 0 1.6 0.3
v 0 1.7 0.3
v 0.1 0 0.3
v 0.1 0.4 0.3
v 0.3 0 0.3
v 0.3 1.5 0.3
v 0.3 1.6 0.3
v 0.3 1.7 0.3
v 0.4 0 0.3
v 0.4 1.5 0.3
v -0.4 1.5 0.2
v -0.4 1.6 0.2
v -0.3 1.5 0.2
v -0.3 1.6 0.2
v 0.3 1.5 0.2
v 0.3 1.6 0.2
v 0.4 1.5 0.2
v 0.4 1.6 0.2
v -0.4 0 0.1
v -0.4 0.4 0.1
v -0.4 0.6 0.1
v -0.4 0.8 0.1
v -0.4 1.1 0.1
v -0.4 1.4 0.1
v -0.3 0 0.1
v -0.3 0.4 0.1
v -0.3 0.5 0.1
v -0.3 0.6 0.1
v -0.3 0.8 0.1
v -0.3 0.9 0.1
v -0.3 1.1 0.1
v -0.3 1.4 0.1
v 0 0 0.1
v 0 0.4 0.1
v 0.1 0.5 0.1
v 0.1 0.9 0.1
v 0.3 0.1 0.1
v 0.3 0.8 0.1
v 0.3 1.1 0.1
v 0.3 1.4 0.1
v 0.4 0.1 0.1
v 0.4 0.8 0.1
v 0.4 1.1 0.1
v 0.4 1.4 0.1
v -0.4 1 0
v -0.4 1.1 0
v -0.3 1 0
v -0.3 1.1 0
v 0.3 1 0
v 0.3 1.1 0
v 0.4 1 0
v 0.4 1.1 0
v -0.4 0.2 -0.1
v -0.4 1 -0.1
v -0.4 1.2 -0.1
v -0.4 1.4 -0.1
v -0.3 0.2 -0.1
v -0.3 1 -0.1
v -0.3 1.2 -0.1
v -0.3 1.4 -0.1
v 0.3 0.1 -0.1
v 0.3 1 -0.1
v 0.3 1.2 -0.1
v 0.3 1.4 -0.1
v 0.4 0.1 -0.1
v 0.4 1 -0.1
v 0.4 1.2 -0.1
v 0.4 1.4 -0.1
v -0.3 0.5 0.3
v -0.3 0.6 0.3
v -0.3 0.8 0.3
v -0.3 0.9 0.3
v -0.2 0.8 0.3
v -0.2 0.9 0.3
v 0 0.8 0.3
v 0 0.9 0.3
v 0.1 0.5 0.3
v 0.1 0.6 0.3
v 0.1 0.8 0.3
v 0.1 0.9 0.3
v -0.4 1 0.2
v -0.4 1.4 0.2
v -0.3 1 0.2
v -0.3 1.4 0.2
v 0.3 0.1 0.2
v 0.3 0.8 0.2
v 0.3 1 0.2
v 0.3 1.4 0.2
v 0.4 0.1 0.2
v 0.4 0.8 0.2
v 0.4 1 0.2
v 0.4 1.4 0.2
v -0.4 0.9 0.1
v -0.4 1 0.1
v -0.3 0.9 0.1
v -0.3 1 0.1
v 0.3 0.9 0.1
v 0.3 1 0.1
v 0.4 0.9 0.1
v 0.4 1 0.1
v -0.4 0.2 0
v -0.4 0.9 0
v -0.4 1.2 0
v -0.4 1.4 0
v -0.3 0.2 0
v -0.3 0.9 0
v -0.3 1.2 0
v -0.3 1.4 0
v 0.3 0.1 0
v 0.3 0.9 0
v 0.3 1.2 0
v 0.3 1.4 0
v 0.4 0.1 0
v 0.4 0.9 0
v 0.4 1.2 0
v 0.4 1.4 0
v -0.4 1.5 -0.1
v -0.4 1.6 -0.1
v -0.3 1.5 -0.1
v -0.3 1.6 -0.1
v 0.3 1.5 -0.1
v 0.3 1.6 -0.1
v 0.4 1.5 -0.1
v 0.4 1.6 -0.1
v -0.4 0 -0.2
v -0.4 1.5 -0.2
v -0.3 0 -0.2
v -0.3 1.5 -0.2
v -0.3 1.6 -0.2
v -0.3 1.7 -0.2
v -0.2 0.2 -0.2
v -0.2 0.8 -0.2
v -0.2 0.9 -0.2
v -0.2 1 -0.2
v -0.2 1.6 -0.2
v -0.2 1.7 -0.2
v -0.1 0.2 -0.2
v -0.1 0.8 -0.2
v 0 0.2 -0.2
v 0 0.8 -0.2
v 0 1.6 -0.2
v 0 1.7 -0.2
v 0.1 0.2 -0.2
v 0.1 0.8 -0.2
v 0.1 0.9 -0.2
v 0.1 1 -0.2
v 0.3 0 -0.2
v 0.3 1.5 -0.2
v 0.3 1.6 -0.2
v 0.3 1.7 -0.2
v 0.4 0 -0.2
v 0.4 1.5 -0.2
v -0.3 0 -0.3
v -0.3 1.5 -0.3
v -0.3 1.6 -0.3
v -0.2 0.2 -0.3
v -0.2 0.8 -0.3
v -0.2 0.9 -0.3
v -0.2 1 -0.3
v -0.2 1.5 -0.3
v -0.2 1.6 -0.3
v -0.1 0.2 -0.3
v -0.1 0.8 -0.3
v 0 0.2 -0.3
v 0 0.8 -0.3
v 0 1.5 -0.3
v 0 1.6 -0.3
v 0.1 0.2 -0.3
v 0.1 0.8 -0.3
v 0.1 0.9 -0.3
v 0.1 1 -0.3
v 0.3 0 -0.3
v 0.3 1.5 -0.3
v 0.3 1.6 -0.3
v 0.1 0 0.4
v 0.3 0 0.4
v 0 0 0.3
v 0.1 0 0.3
v 0.3 0 0.3
v 0.4 0 0.3
v -0.4 0 0.1
v -0.3 0 0.1
v 0 0 0.1
v 0.1 0 0.1
v -0.4 0 -0.2
v -0.3 0 -0.2
v 0.3 0 -0.2
v 0.4 0 -0.2
v -0.3 0 -0.3
v 0.3 0 -0.3
v -0.3 0.4 0.4
v 0.1 0.4 0.4
v -0.4 0.4 0.3
v -0.3 0.4 0.3
v 0 0.4 0.3
v 0.1 0.4 0.3
v -0.4 0.4 0.1
v -0.3 0.4 0.1
v 0 0.4 0.1
v -0.3 0.8 0.4
v -0.2 0.8 0.4
v 0 0.8 0.4
v 0.1 0.8 0.4
v -0.4 0.8 0.3
v -0.3 0.8 0.3
v -0.2 0.8 0.3
v 0 0.8 0.3
v 0.1 0.8 0.3
v 0.3 0.8 0.2
v 0.4 0.8 0.2
v -0.4 0.8 0.1
v -0.3 0.8 0.1
v 0.3 0.8 0.1
v 0.4 0.8 0.1
v -0.2 0.8 -0.2
v -0.1 0.8 -0.2
v 0 0.8 -0.2
v 0.1 0.8 -0.2
v -0.2 0.8 -0.3
v -0.1 0.8 -0.3
v 0 0.8 -0.3
v 0.1 0.8 -0.3
v -0.3 0.9 0.3
v -0.2 0.9 0.3
v 0 0.9 0.3
v 0.1 0.9 0.3
v -0.3 0.9 0.1
v 0.1 0.9 0.1
v -0.4 1 0
v -0.3 1 0
v 0.3 1 0
v 0.4 1 0
v -0.4 1 -0.1
v -0.3 1 -0.1
v 0.3 1 -0.1
v 0.4 1 -0.1
v -0.2 1 -0.2
v 0.1 1 -0.2
v -0.2 1 -0.3
v 0.1 1 -0.3
v -0.4 1.1 0.1
v -0.3 1.1 0.1
v 0.3 1.1 0.1
v 0.4 1.1 0.1
v -0.4 1.1 0
v -0.3 1.1 0
v 0.3 1.1 0
v 0.4 1.1 0
v -0.4 1.4 0.2
v -0.3 1.4 0.2
v 0.3 1.4 0.2
v 0.4 1.4 0.2
v -0.4 1.4 0.1
v -0.3 1.4 0.1
v 0.3 1.4 0.1
v 0.4 1.4 0.1
v -0.4 1.4 0
v -0.3 1.4 0
v 0.3 1.4 0
v 0.4 1.4 0
v -0.4 1.4 -0.1
v -0.3 1.4 -0.1
v 0.3 1.4 -0.1
v 0.4 1.4 -0.1
v 0.3 0.1 0.2
v 0.4 0.1 0.2
v 0.3 0.1 0.1
v 0.4 0.1 0.1
v 0.3 0.1 0
v 0.4 0.1 0
v 0.3 0.1 -0.1
v 0.4 0.1 -0.1
v -0.4 0.2 0
v -0.3 0.2 0
v -0.4 0.2 -0.1
v -0.3 0.2 -0.1
v -0.2 0.2 -0.2
v -0.1 0.2 -0.2
v 0 0.2 -0.2
v 0.1 0.2 -0.2
v -0.2 0.2 -0.3
v -0.1 0.2 -0.3
v 0 0.2 -0.3
v 0.1 0.2 -0.3
v -0.3 0.5 0.3
v 0.1 0.5 0.3
v -0.3 0.5 0.1
v 0.1 0.5 0.1
v -0.3 0.6 0.4
v 0.1 0.6 0.4
v -0.4 0.6 0.3
v -0.3 0.6 0.3
v 0.1 0.6 0.3
v -0.4 0.6 0.1
v -0.3 0.6 0.1
v -0.4 0.9 0.1
v -0.3 0.9 0.1
v 0.3 0.9 0.1
v 0.4 0.9 0.1
v -0.4 0.9 0
v -0.3 0.9 0
v 0.3 0.9 0
v 0.4 0.9 0
v -0.2 0.9 -0.2
v 0.1 0.9 -0.2
v -0.2 0.9 -0.3
v 0.1 0.9 -0.3
v -0.4 1 0.2
v -0.3 1 0.2
v 0.3 1 0.2
v 0.4 1 0.2
v -0.4 1 0.1
v -0.3 1 0.1
v 0.3 1 0.1
v 0.4 1 0.1
v -0.4 1.2 0
v -0.3 1.2 0
v 0.3 1.2 0
v 0.4 1.2 0
v -0.4 1.2 -0.1
v -0.3 1.2 -0.1
v 0.3 1.2 -0.1
v 0.4 1.2 -0.1
v -0.4 1.5 0.3
v -0.3 1.5 0.3
v 0.3 1.5 0.3
v 0.4 1.5 0.3
v -0.4 1.5 0.2
v -0.3 1.5 0.2
v 0.3 1.5 0.2
v 0.4 1.5 0.2
v -0.4 1.5 -0.1
v -0.3 1.5 -0.1
v 0.3 1.5 -0.1
v 0.4 1.5 -0.1
v -0.4 1.5 -0.2
v -0.3 1.5 -0.2
v 0.3 1.5 -0.2
v 0.4 1.5 -0.2
v -0.3 1.6 0.4
v -0.2 1.6 0.4
v 0 1.6 0.4
v 0.3 1.6 0.4
v -0.3 1.6 0.3
v -0.2 1.6 0.3
v 0 1.6 0.3
v 0.3 1.6 0.3
v -0.4 1.6 0.2
v -0.3 1.6 0.2
v 0.3 1.6 0.2
v 0.4 1.6 0.2
v -0.4 1.6 -0.1
v -0.3 1.6 -0.1
v 0.3 1.6 -0.1
v 0.4 1.6 -0.1
v -0.3 1.6 -0.2
v -0.2 1.6 -0.2
v 0 1.6 -0.2
v 0.3 1.6 -0.2
v -0.3 1.6 -0.3
v -0.2 1.6 -0.3
v 0 1.6 -0.3
v 0.3 1.6 -0.3
v -0.3 1.7 0.3
v -0.2 1.7 0.3
v 0 1.7 0.3
v 0.3 1.7 0.3
v -0.3 1.7 -0.2
v -0.2 1.7 -0.2
v 0 1.7 -0.2
v 0.3 1.7 -0.2

# faces
f 3/2/1 2/2/1 1/2/1
f 4/2/1 2/2/1 3/2/1
f 6/2/1 3/2/1 1/2/1
f 7/1/1 6/1/1 5/1/1
f 8/2/1 3/2/1 6/2/1
f 8/1/1 6/1/1 7/1/1
f 10/2/1 3/2/1 8/2/1
f 11/2/1 3/2/1 10/2/1
f 11/2/1 10/2/1 9/2/1
f 12/2/1 3/2/1 11/2/1
f 13/2/1 11/2/1 9/2/1
f 14/2/1 11/2/1 13/2/1
f 16/2/1 2/2/1 4/2/1
f 18/2/1 16/2/1 15/2/1
f 19/2/1 16/2/1 18/2/1
f 19/2/1 18/2/1 17/2/1
f 20/2/1 2/2/1 16/2/1
f 20/2/1 16/2/1 19/2/1
f 21/2/1 13/2/1 9/2/1
f 22/2/1 19/2/1 17/2/1
f 23/2/1 19/2/1 22/2/1
f 24/2/1 2/2/1 20/2/1
f 25/2/1 21/2/1 9/2/1
f 25/2/1 24/2/1 23/2/1
f 25/2/1 23/2/1 22/2/1
f 25/2/1 22/2/1 21/2/1
f 26/2/1 24/2/1 25/2/1
f 27/2/1 2/2/1 24/2/1
f 27/2/1 24/2/1 26/2/1
f 28/2/1 2/2/1 27/2/1
f 29/2/1 27/2/1 26/2/1
f 30/2/1 27/2/1 29/2/1
f 37/1/1 36/1/1 35/1/1
f 38/1/1 36/1/1 37/1/1
f 42/1/1 34/1/1 33/1/1
f 44/1/1 42/1/1 41/1/1
f 45/1/1 34/1/1 42/1/1
f 45/1/1 42/1/1 44/1/1
f 46/1/1 34/1/1 45/1/1
f 47/1/1 44/1/1 43/1/1
f 47/1/1 45/1/1 44/1/1
f 48/1/1 45/1/1 47/1/1
f 51/1/1 47/1/1 43/1/1
f 52/1/1 47/1/1 51/1/1
f 53/1/1 50/1/1 49/1/1
f 54/1/1 50/1/1 53/1/1
f 55/4/1 40/4/1 39/4/1
f 58/1/1 32/1/1 31/1/1
f 59/1/1 32/1/1 58/1/1
f 60/4/1 56/4/1 55/4/1
f 60/4/1 55/4/1 39/4/1
f 61/4/1 56/4/1 60/4/1
f 62/4/1 56/4/1 61/4/1
f 63/4/1 59/4/1 58/4/1
f 63/4/1 58/4/1 57/4/1
f 64/4/1 59/4/1 63/4/1
f 65/4/1 59/4/1 64/4/1
f 66/4/1 62/4/1 61/4/1
f 66/4/1 64/4/1 63/4/1
f 66/4/1 63/4/1 62/4/1
f 67/4/1 64/4/1 66/4/1
f 70/1/1 69/1/1 68/1/1
f 71/1/1 69/1/1 70/1/1
f 74/4/1 73/4/1 72/4/1
f 75/4/1 73/4/1 74/4/1
f 80/4/1 77/4/1 76/4/1
f 81/4/1 77/4/1 80/4/1
f 85/1/1 83/1/1 82/1/1
f 86/4/1 85/4/1 84/4/1
f 87/1/1 83/1/1 85/1/1
f 87/4/1 85/4/1 86/4/1
f 88/1/1 79/1/1 78/1/1
f 89/1/1 79/1/1 88/1/1
f 90/1/1 83/1/1 87/1/1
f 91/1/1 83/1/1 90/1/1
f 94/1/1 93/1/1 92/1/1
f 95/1/1 93/1/1 94/1/1
f 96/1/2 97/1/2 98/1/2
f 98/1/2 97/1/2 99/1/2
f 100/2/2 101/2/2 102/2/2
f 102/2/2 101/2/2 103/2/2
f 104/1/2 105/1/2 106/1/2
f 106/1/2 105/1/2 107/1/2
f 108/1/2 109/1/2 110/1/2
f 110/1/2 109/1/2 111/1/2
f 112/1/2 113/1/2 114/1/2
f 114/1/2 113/1/2 115/1/2
f 120/1/2 121/1/2 124/1/2
f 124/1/2 121/1/2 125/1/2
f 122/1/2 123/1/2 127/1/2
f 126/1/2 127/1/2 129/1/2
f 127/1/2 123/1/2 130/1/2
f 129/1/2 127/1/2 130/1/2
f 130/1/2 123/1/2 131/1/2
f 128/1/2 129/1/2 132/1/2
f 129/1/2 130/1/2 132/1/2
f 132/1/2 130/1/2 133/1/2
f 128/1/2 132/1/2 136/1/2
f 136/1/2 132/1/2 137/1/2
f 134/1/2 135/1/2 138/1/2
f 138/1/2 135/1/2 139/1/2
f 116/4/2 117/4/2 140/4/2
f 118/1/2 119/1/2 143/1/2
f 143/1/2 119/1/2 144/1/2
f 140/4/2 141/4/2 145/4/2
f 116/4/2 140/4/2 145/4/2
f 145/4/2 141/4/2 146/4/2
f 146/4/2 141/4/2 147/4/2
f 143/4/2 144/4/2 148/4/2
f 142/4/2 143/4/2 148/4/2
f 148/4/2 144/4/2 149/4/2
f 149/4/2 144/4/2 150/4/2
f 146/4/2 147/4/2 151/4/2
f 148/4/2 149/4/2 151/4/2
f 147/4/2 148/4/2 151/4/2
f 151/4/2 149/4/2 152/4/2
f 153/2/2 154/2/2 155/2/2
f 155/2/2 154/2/2 156/2/2
f 156/2/2 154/2/2 157/2/2
f 157/2/2 154/2/2 158/2/2
f 153/2/2 155/2/2 159/2/2
f 156/2/2 157/2/2 160/2/2
f 160/2/2 157/2/2 161/2/2
f 159/2/2 160/2/2 161/2/2
f 161/2/2 157/2/2 162/2/2
f 153/2/2 159/2/2 163/2/2
f 159/2/2 161/2/2 163/2/2
f 163/2/2 161/2/2 164/2/2
f 158/2/2 154/2/2 166/2/2
f 165/2/2 166/2/2 168/2/2
f 168/2/2 166/2/2 169/2/2
f 167/2/2 168/2/2 169/2/2
f 166/2/2 154/2/2 170/2/2
f 169/2/2 166/2/2 170/2/2
f 153/2/2 163/2/2 171/2/2
f 167/2/2 169/2/2 172/2/2
f 172/2/2 169/2/2 173/2/2
f 170/2/2 154/2/2 174/2/2
f 153/2/2 171/2/2 175/2/2
f 173/2/2 174/2/2 175/2/2
f 172/2/2 173/2/2 175/2/2
f 171/2/2 172/2/2 175/2/2
f 175/2/2 174/2/2 176/2/2
f 174/2/2 154/2/2 177/2/2
f 176/2/2 174/2/2 177/2/2
f 177/2/2 154/2/2 178/2/2
f 176/2/2 177/2/2 179/2/2
f 179/2/2 177/2/2 180/2/2
f 185/4/3 184/4/3 183/4/3
f 186/4/3 184/4/3 185/4/3
f 187/3/3 186/3/3 185/3/3
f 188/3/3 186/3/3 187/3/3
f 190/1/3 182/1/3 181/1/3
f 191/1/3 182/1/3 190/1/3
f 192/4/3 188/4/3 187/4/3
f 193/4/3 191/4/3 190/4/3
f 193/4/3 192/4/3 191/4/3
f 193/4/3 190/4/3 189/4/3
f 194/4/3 188/4/3 192/4/3
f 194/4/3 192/4/3 193/4/3
f 199/1/3 196/1/3 195/1/3
f 200/1/3 196/1/3 199/1/3
f 201/2/3 198/2/3 197/2/3
f 202/2/3 198/2/3 201/2/3
f 205/4/3 204/4/3 203/4/3
f 206/4/3 204/4/3 205/4/3
f 209/3/3 206/3/3 205/3/3
f 210/3/3 206/3/3 209/3/3
f 211/4/3 208/4/3 207/4/3
f 212/4/3 208/4/3 211/4/3
f 215/4/3 210/4/3 209/4/3
f 216/4/3 210/4/3 215/4/3
f 217/2/3 214/2/3 213/2/3
f 218/2/3 214/2/3 217/2/3
f 221/2/3 220/2/3 219/2/3
f 222/2/3 220/2/3 221/2/3
f 225/2/3 224/2/3 223/2/3
f 226/2/3 224/2/3 225/2/3
f 233/2/3 228/2/3 227/2/3
f 234/2/3 228/2/3 233/2/3
f 236/2/3 230/2/3 229/2/3
f 237/2/3 230/2/3 236/2/3
f 239/2/3 232/2/3 231/2/3
f 240/2/3 232/2/3 239/2/3
f 241/1/3 234/1/3 233/1/3
f 242/1/3 234/1/3 241/1/3
f 243/1/3 238/1/3 237/1/3
f 243/1/3 236/1/3 235/1/3
f 243/1/3 237/1/3 236/1/3
f 244/1/3 238/1/3 243/1/3
f 249/2/3 246/2/3 245/2/3
f 250/2/3 246/2/3 249/2/3
f 251/2/3 248/2/3 247/2/3
f 252/2/3 248/2/3 251/2/3
f 255/2/3 254/2/3 253/2/3
f 256/2/3 254/2/3 255/2/3
f 259/2/3 258/2/3 257/2/3
f 260/2/3 258/2/3 259/2/3
f 265/2/3 262/2/3 261/2/3
f 266/2/3 262/2/3 265/2/3
f 267/2/3 264/2/3 263/2/3
f 268/2/3 264/2/3 267/2/3
f 273/2/3 270/2/3 269/2/3
f 274/2/3 270/2/3 273/2/3
f 275/2/3 272/2/3 271/2/3
f 276/2/3 272/2/3 275/2/3
f 279/4/4 280/4/4 281/4/4
f 281/4/4 280/4/4 282/4/4
f 281/3/4 282/3/4 283/3/4
f 283/3/4 282/3/4 284/3/4
f 277/1/4 278/1/4 285/1/4
f 285/1/4 278/1/4 286/1/4
f 283/4/4 284/4/4 287/4/4
f 287/4/4 284/4/4 288/4/4
f 289/2/4 290/2/4 291/2/4
f 291/2/4 290/2/4 292/2/4
f 293/2/4 294/2/4 297/2/4
f 297/2/4 294/2/4 298/2/4
f 295/2/4 296/2/4 299/2/4
f 299/2/4 296/2/4 300/2/4
f 301/2/4 302/2/4 303/2/4
f 303/2/4 302/2/4 304/2/4
f 305/2/4 306/2/4 307/2/4
f 307/2/4 306/2/4 308/2/4
f 309/2/4 310/2/4 313/2/4
f 313/2/4 310/2/4 314/2/4
f 311/2/4 312/2/4 315/2/4
f 315/2/4 312/2/4 316/2/4
f 317/2/4 318/2/4 321/2/4
f 321/2/4 318/2/4 322/2/4
f 319/2/4 320/2/4 323/2/4
f 323/2/4 320/2/4 324/2/4
f 325/2/4 326/2/4 327/2/4
f 327/2/4 326/2/4 328/2/4
f 329/2/4 330/2/4 331/2/4
f 331/2/4 330/2/4 332/2/4
f 333/2/4 334/2/4 335/2/4
f 335/2/4 334/2/4 336/2/4
f 337/4/4 338/4/4 343/4/4
f 343/4/4 338/4/4 344/4/4
f 339/1/4 340/1/4 345/1/4
f 345/1/4 340/1/4 346/1/4
f 343/3/4 344/3/4 349/3/4
f 349/3/4 344/3/4 350/3/4
f 347/1/4 348/1/4 351/1/4
f 351/1/4 348/1/4 352/1/4
f 341/1/4 342/1/4 353/1/4
f 353/1/4 342/1/4 354/1/4
f 349/4/4 350/4/4 357/4/4
f 357/4/4 350/4/4 358/4/4
f 355/2/4 356/2/4 359/2/4
f 359/2/4 356/2/4 360/2/4
f 361/1/4 362/1/4 364/1/4
f 364/1/4 362/1/4 365/1/4
f 365/1/4 362/1/4 366/1/4
f 366/1/4 362/1/4 367/1/4
f 362/4/4 363/4/4 368/4/4
f 367/1/4 362/1/4 368/1/4
f 368/4/4 363/4/4 369/4/4
f 361/1/4 364/1/4 370/1/4
f 365/1/4 366/1/4 371/1/4
f 361/1/4 370/1/4 372/1/4
f 370/1/4 371/1/4 372/1/4
f 371/1/4 366/1/4 373/1/4
f 372/1/4 371/1/4 373/1/4
f 368/3/4 369/3/4 374/3/4
f 367/1/4 368/1/4 374/1/4
f 374/3/4 369/3/4 375/3/4
f 361/1/4 372/1/4 376/1/4
f 373/1/4 366/1/4 377/1/4
f 377/1/4 366/1/4 378/1/4
f 367/1/4 374/1/4 379/1/4
f 361/1/4 376/1/4 380/1/4
f 378/1/4 379/1/4 380/1/4
f 377/1/4 378/1/4 380/1/4
f 376/1/4 377/1/4 380/1/4
f 379/1/4 374/1/4 381/1/4
f 380/1/4 379/1/4 381/1/4
f 374/4/4 375/4/4 381/4/4
f 381/4/4 375/4/4 382/4/4
f 386/4/5 384/4/5 383/4/5
f 387/4/5 384/4/5 386/4/5
f 391/4/5 386/4/5 385/4/5
f 392/1/5 387/1/5 386/1/5
f 392/4/5 386/4/5 391/4/5
f 393/2/5 390/2/5 389/2/5
f 394/1/5 391/1/5 390/1/5
f 394/2/5 390/2/5 393/2/5
f 394/1/5 392/1/5 391/1/5
f 395/1/5 387/1/5 392/1/5
f 395/1/5 392/1/5 394/1/5
f 395/2/5 388/2/5 387/2/5
f 396/2/5 388/2/5 395/2/5
f 397/1/5 395/1/5 394/1/5
f 398/1/5 395/1/5 397/1/5
f 402/1/5 400/1/5 399/1/5
f 403/1/5 400/1/5 402/1/5
f 404/1/5 400/1/5 403/1/5
f 405/1/5 402/1/5 401/1/5
f 405/1/5 403/1/5 402/1/5
f 406/1/5 403/1/5 405/1/5
f 407/1/5 403/1/5 406/1/5
f 413/4/5 409/4/5 408/4/5
f 414/3/5 410/3/5 409/3/5
f 414/4/5 409/4/5 413/4/5
f 415/4/5 411/4/5 410/4/5
f 415/3/5 410/3/5 414/3/5
f 416/4/5 411/4/5 415/4/5
f 419/2/5 413/2/5 412/2/5
f 420/2/5 413/2/5 419/2/5
f 421/2/5 418/2/5 417/2/5
f 422/2/5 418/2/5 421/2/5
f 427/1/5 424/1/5 423/1/5
f 428/1/5 424/1/5 427/1/5
f 429/1/5 426/1/5 425/1/5
f 430/1/5 426/1/5 429/1/5
f 435/1/5 432/1/5 431/1/5
f 435/1/5 434/1/5 433/1/5
f 435/1/5 433/1/5 432/1/5
f 436/1/5 434/1/5 435/1/5
f 441/2/5 438/2/5 437/2/5
f 442/2/5 438/2/5 441/2/5
f 443/2/5 440/2/5 439/2/5
f 444/2/5 440/2/5 443/2/5
f 447/1/5 446/1/5 445/1/5
f 448/1/5 446/1/5 447/1/5
f 453/2/5 450/2/5 449/2/5
f 454/2/5 450/2/5 453/2/5
f 455/2/5 452/2/5 451/2/5
f 456/2/5 452/2/5 455/2/5
f 461/2/5 458/2/5 457/2/5
f 462/2/5 458/2/5 461/2/5
f 463/2/5 460/2/5 459/2/5
f 464/2/5 460/2/5 463/2/5
f 469/2/5 466/2/5 465/2/5
f 470/2/5 466/2/5 469/2/5
f 471/2/5 468/2/5 467/2/5
f 472/2/5 468/2/5 471/2/5
f 473/2/6 474/2/6 475/2/6
f 475/2/6 474/2/6 476/2/6
f 477/2/6 478/2/6 479/2/6
f 479/2/6 478/2/6 480/2/6
f 481/2/6 482/2/6 483/2/6
f 483/2/6 482/2/6 484/2/6
f 485/1/6 486/1/6 489/1/6
f 489/1/6 486/1/6 490/1/6
f 487/1/6 488/1/6 491/1/6
f 491/1/6 488/1/6 492/1/6
f 493/1/6 494/1/6 495/1/6
f 495/1/6 494/1/6 496/1/6
f 497/1/6 498/1/6 500/1/6
f 500/1/6 498/1/6 501/1/6
f 499/1/6 500/1/6 502/1/6
f 502/1/6 500/1/6 503/1/6
f 504/2/6 505/2/6 508/2/6
f 508/2/6 505/2/6 509/2/6
f 506/2/6 507/2/6 510/2/6
f 510/2/6 507/2/6 511/2/6
f 512/1/6 513/1/6 514/1/6
f 514/1/6 513/1/6 515/1/6
f 516/2/6 517/2/6 520/2/6
f 520/2/6 517/2/6 521/2/6
f 518/2/6 519/2/6 522/2/6
f 522/2/6 519/2/6 523/2/6
f 524/2/6 525/2/6 528/2/6
f 528/2/6 525/2/6 529/2/6
f 526/2/6 527/2/6 530/2/6
f 530/2/6 527/2/6 531/2/6
f 532/2/6 533/2/6 536/2/6
f 536/2/6 533/2/6 537/2/6
f 534/2/6 535/2/6 538/2/6
f 538/2/6 535/2/6 539/2/6
f 540/2/6 541/2/6 544/2/6
f 544/2/6 541/2/6 545/2/6
f 542/2/6 543/2/6 546/2/6
f 546/2/6 543/2/6 547/2/6
f 548/4/6 549/4/6 552/4/6
f 549/3/6 550/3/6 553/3/6
f 552/4/6 549/4/6 553/4/6
f 550/4/6 551/4/6 554/4/6
f 553/3/6 550/3/6 554/3/6
f 554/4/6 551/4/6 555/4/6
f 556/2/6 557/2/6 560/2/6
f 560/2/6 557/2/6 561/2/6
f 558/2/6 559/2/6 562/2/6
f 562/2/6 559/2/6 563/2/6
f 564/4/6 565/4/6 568/4/6
f 565/3/6 566/3/6 569/3/6
f 568/4/6 565/4/6 569/4/6
f 566/4/6 567/4/6 570/4/6
f 569/3/6 566/3/6 570/3/6
f 570/4/6 567/4/6 571/4/6
f 572/4/6 573/4/6 576/4/6
f 573/3/6 574/3/6 577/3/6
f 576/4/6 573/4/6 577/4/6
f 574/4/6 575/4/6 578/4/6
f 577/3/6 574/3/6 578/3/6
f 578/4/6 575/4/6 579/4/6
