# MagicaVoxel @ Ephtracy

# group
o 

# material
mtllib ReceptionDesk.mtl
usemtl palette

# normals
vn -1 0 0
vn 1 0 0
vn 0 0 1
vn 0 0 -1
vn 0 -1 0
vn 0 1 0

# texcoords
vt 0.00976562 0.5
vt 0.0332031 0.5

# verts
v -2.6 -1.5 0.7
v -2.6 -1.5 0.6
v -2.6 -1.5 -0.5
v -2.6 -1.5 -0.6
v -2.6 -0.5 0.6
v -2.6 -0.5 -0.5
v -2.6 -0.4 0.7
v -2.6 -0.4 -0.6
v -2.5 -1.5 0.6
v -2.5 -1.5 -0.5
v -2.5 -0.5 0.6
v -2.5 -0.5 -0.5
v -1.2 -1.5 0.5
v -1.2 -1.5 0.4
v -1.2 -0.7 0.5
v -1.2 -0.7 0.4
v 1.3 -1.5 0.5
v 1.3 -1.5 0.4
v 1.3 -1.5 0.3
v 1.3 -1.3 0.2
v 1.3 -1.3 -0.2
v 1.3 -1 0.2
v 1.3 -1 -0.2
v 1.3 -0.9 0.2
v 1.3 -0.9 -0.2
v 1.3 -0.6 0.5
v 1.3 -0.6 0.4
v 1.3 -0.6 0.3
v 1.3 -0.6 0.2
v 1.3 -0.6 -0.2
v 1.4 -1.5 0.7
v 1.4 -1.5 0.6
v 1.4 -1.5 -0.6
v 1.4 -1.5 -0.7
v 1.4 -0.5 0.6
v 1.4 -0.5 0.5
v 1.4 -0.5 -0.3
v 1.4 -0.5 -0.6
v 1.4 -0.4 0.7
v 1.4 -0.4 -0.7
v 1.5 -1.5 0.6
v 1.5 -1.5 0.5
v 1.5 -1.5 -0.2
v 1.5 -1.5 -0.6
v 1.5 -0.6 -0.2
v 1.5 -0.6 -0.3
v 1.5 -0.5 0.6
v 1.5 -0.5 0.5
v 1.5 -0.5 -0.3
v 1.5 -0.5 -0.6
v -1.5 -1.5 0.6
v -1.5 -1.5 0.5
v -1.5 -1.5 -0.2
v -1.5 -1.5 -0.5
v -1.5 -0.6 -0.2
v -1.5 -0.6 -0.3
v -1.5 -0.5 0.6
v -1.5 -0.5 0.5
v -1.5 -0.5 -0.3
v -1.5 -0.5 -0.5
v -1.4 -1.5 0.7
v -1.4 -1.5 0.6
v -1.4 -1.5 -0.5
v -1.4 -1.5 -0.6
v -1.4 -0.5 0.6
v -1.4 -0.5 0.5
v -1.4 -0.5 -0.3
v -1.4 -0.5 -0.5
v -1.4 -0.4 0.7
v -1.4 -0.4 -0.6
v -1.3 -1.5 0.5
v -1.3 -1.5 0.4
v -1.3 -1.5 0.3
v -1.3 -1.3 0.2
v -1.3 -1.3 -0.2
v -1.3 -1 0.2
v -1.3 -1 -0.2
v -1.3 -0.9 0.2
v -1.3 -0.9 -0.2
v -1.3 -0.6 0.5
v -1.3 -0.6 0.4
v -1.3 -0.6 0.3
v -1.3 -0.6 0.2
v -1.3 -0.6 -0.2
v 1.2 -1.5 0.5
v 1.2 -1.5 0.4
v 1.2 -0.7 0.5
v 1.2 -0.7 0.4
v 2.5 -1.5 0.6
v 2.5 -1.5 -0.6
v 2.5 -0.5 0.6
v 2.5 -0.5 -0.6
v 2.6 -1.5 0.7
v 2.6 -1.5 0.6
v 2.6 -1.5 -0.6
v 2.6 -1.5 -0.7
v 2.6 -0.5 0.6
v 2.6 -0.5 -0.6
v 2.6 -0.4 0.7
v 2.6 -0.4 -0.7
v -2.6 -1.5 0.7
v -2.6 -0.4 0.7
v -1.4 -1.5 0.7
v -1.4 -0.4 0.7
v 1.4 -1.5 0.7
v 1.4 -0.4 0.7
v 2.6 -1.5 0.7
v 2.6 -0.4 0.7
v -1.5 -1.5 0.5
v -1.5 -0.5 0.5
v -1.4 -1.5 0.5
v -1.4 -0.5 0.5
v -1.3 -1.5 0.5
v -1.3 -0.6 0.5
v -1.2 -1.5 0.5
v -1.2 -0.7 0.5
v 1.2 -1.5 0.5
v 1.2 -0.7 0.5
v 1.3 -1.5 0.5
v 1.3 -0.6 0.5
v 1.4 -1.5 0.5
v 1.4 -0.5 0.5
v 1.5 -1.5 0.5
v 1.5 -0.5 0.5
v -1.3 -1.5 0.3
v -1.3 -0.6 0.3
v 1.3 -1.5 0.3
v 1.3 -0.6 0.3
v -2.6 -1.5 -0.5
v -2.6 -0.5 -0.5
v -2.5 -1.5 -0.5
v -2.5 -0.5 -0.5
v -1.5 -1.5 -0.5
v -1.5 -0.5 -0.5
v -1.4 -1.5 -0.5
v -1.4 -0.5 -0.5
v 1.4 -1.5 -0.6
v 1.4 -0.5 -0.6
v 1.5 -1.5 -0.6
v 1.5 -0.5 -0.6
v 2.5 -1.5 -0.6
v 2.5 -0.5 -0.6
v 2.6 -1.5 -0.6
v 2.6 -0.5 -0.6
v -2.6 -1.5 0.6
v -2.6 -0.5 0.6
v -2.5 -1.5 0.6
v -2.5 -0.5 0.6
v -1.5 -1.5 0.6
v -1.5 -0.5 0.6
v -1.4 -1.5 0.6
v -1.4 -0.5 0.6
v 1.4 -1.5 0.6
v 1.4 -0.5 0.6
v 1.5 -1.5 0.6
v 1.5 -0.5 0.6
v 2.5 -1.5 0.6
v 2.5 -0.5 0.6
v 2.6 -1.5 0.6
v 2.6 -0.5 0.6
v -1.2 -1.5 0.4
v -1.2 -0.7 0.4
v 1.2 -1.5 0.4
v 1.2 -0.7 0.4
v -1.3 -1.3 0.2
v -1.3 -1 0.2
v -1.3 -0.9 0.2
v -1.3 -0.6 0.2
v 1.3 -1.3 0.2
v 1.3 -1 0.2
v 1.3 -0.9 0.2
v 1.3 -0.6 0.2
v -1.5 -1.5 -0.2
v -1.5 -0.6 -0.2
v -1.3 -1.3 -0.2
v -1.3 -1 -0.2
v -1.3 -0.9 -0.2
v -1.3 -0.6 -0.2
v 1.3 -1.3 -0.2
v 1.3 -1 -0.2
v 1.3 -0.9 -0.2
v 1.3 -0.6 -0.2
v 1.5 -1.5 -0.2
v 1.5 -0.6 -0.2
v -1.5 -0.6 -0.3
v -1.5 -0.5 -0.3
v -1.4 -0.5 -0.3
v 1.4 -0.5 -0.3
v 1.5 -0.6 -0.3
v 1.5 -0.5 -0.3
v -2.6 -1.5 -0.6
v -2.6 -0.4 -0.6
v -1.4 -1.5 -0.6
v -1.4 -0.4 -0.6
v 1.4 -1.5 -0.7
v 1.4 -0.4 -0.7
v 2.6 -1.5 -0.7
v 2.6 -0.4 -0.7
v -2.6 -1.5 0.7
v -1.4 -1.5 0.7
v 1.4 -1.5 0.7
v 2.6 -1.5 0.7
v -2.6 -1.5 0.6
v -2.5 -1.5 0.6
v -1.5 -1.5 0.6
v -1.4 -1.5 0.6
v 1.4 -1.5 0.6
v 1.5 -1.5 0.6
v 2.5 -1.5 0.6
v 2.6 -1.5 0.6
v -1.5 -1.5 0.5
v -1.4 -1.5 0.5
v -1.3 -1.5 0.5
v -1.2 -1.5 0.5
v 1.2 -1.5 0.5
v 1.3 -1.5 0.5
v 1.4 -1.5 0.5
v 1.5 -1.5 0.5
v -1.4 -1.5 0.4
v -1.3 -1.5 0.4
v -1.2 -1.5 0.4
v 1.2 -1.5 0.4
v 1.3 -1.5 0.4
v 1.4 -1.5 0.4
v -1.3 -1.5 0.3
v 1.3 -1.5 0.3
v -1.5 -1.5 -0.2
v 1.5 -1.5 -0.2
v -2.6 -1.5 -0.5
v -2.5 -1.5 -0.5
v -1.5 -1.5 -0.5
v -1.4 -1.5 -0.5
v -2.6 -1.5 -0.6
v -1.4 -1.5 -0.6
v 1.4 -1.5 -0.6
v 1.5 -1.5 -0.6
v 2.5 -1.5 -0.6
v 2.6 -1.5 -0.6
v 1.4 -1.5 -0.7
v 2.6 -1.5 -0.7
v -1.3 -1 0.2
v 1.3 -1 0.2
v -1.3 -1 -0.2
v 1.3 -1 -0.2
v -1.3 -0.6 0.5
v 1.3 -0.6 0.5
v -1.3 -0.6 0.4
v 1.3 -0.6 0.4
v -1.3 -0.6 0.3
v 1.3 -0.6 0.3
v -1.3 -0.6 0.2
v 1.3 -0.6 0.2
v -1.5 -0.6 -0.2
v -1.3 -0.6 -0.2
v 1.3 -0.6 -0.2
v 1.5 -0.6 -0.2
v -1.5 -0.6 -0.3
v 1.5 -0.6 -0.3
v -2.6 -0.5 0.6
v -2.5 -0.5 0.6
v -1.5 -0.5 0.6
v -1.4 -0.5 0.6
v 1.4 -0.5 0.6
v 1.5 -0.5 0.6
v 2.5 -0.5 0.6
v 2.6 -0.5 0.6
v -1.5 -0.5 0.5
v -1.4 -0.5 0.5
v 1.4 -0.5 0.5
v 1.5 -0.5 0.5
v -1.5 -0.5 -0.3
v -1.4 -0.5 -0.3
v 1.4 -0.5 -0.3
v 1.5 -0.5 -0.3
v -2.6 -0.5 -0.5
v -2.5 -0.5 -0.5
v -1.5 -0.5 -0.5
v -1.4 -0.5 -0.5
v 1.4 -0.5 -0.6
v 1.5 -0.5 -0.6
v 2.5 -0.5 -0.6
v 2.6 -0.5 -0.6
v -1.3 -1.3 0.2
v 1.3 -1.3 0.2
v -1.3 -1.3 -0.2
v 1.3 -1.3 -0.2
v -1.3 -0.9 0.2
v 1.3 -0.9 0.2
v -1.3 -0.9 -0.2
v 1.3 -0.9 -0.2
v -1.2 -0.7 0.5
v 1.2 -0.7 0.5
v -1.2 -0.7 0.4
v 1.2 -0.7 0.4
v -1.4 -0.5 0.5
v 1.4 -0.5 0.5
v -1.4 -0.5 -0.3
v 1.4 -0.5 -0.3
v -2.6 -0.4 0.7
v -1.4 -0.4 0.7
v 1.4 -0.4 0.7
v 2.6 -0.4 0.7
v -2.6 -0.4 -0.6
v -1.4 -0.4 -0.6
v 1.4 -0.4 -0.7
v 2.6 -0.4 -0.7

# faces
f 5/2/1 2/2/1 1/2/1
f 6/2/1 4/2/1 3/2/1
f 7/2/1 5/2/1 1/2/1
f 7/2/1 6/2/1 5/2/1
f 8/2/1 4/2/1 6/2/1
f 8/2/1 6/2/1 7/2/1
f 11/1/1 10/1/1 9/1/1
f 12/1/1 10/1/1 11/1/1
f 15/2/1 14/2/1 13/2/1
f 16/2/1 14/2/1 15/2/1
f 22/1/1 21/1/1 20/1/1
f 23/1/1 21/1/1 22/1/1
f 26/2/1 18/2/1 17/2/1
f 27/1/1 19/1/1 18/1/1
f 27/2/1 18/2/1 26/2/1
f 28/1/1 19/1/1 27/1/1
f 29/1/1 25/1/1 24/1/1
f 30/1/1 25/1/1 29/1/1
f 35/2/1 32/2/1 31/2/1
f 38/2/1 34/2/1 33/2/1
f 39/2/1 37/2/1 36/2/1
f 39/2/1 38/2/1 37/2/1
f 39/2/1 35/2/1 31/2/1
f 39/2/1 36/2/1 35/2/1
f 40/2/1 34/2/1 38/2/1
f 40/2/1 38/2/1 39/2/1
f 45/1/1 44/1/1 43/1/1
f 46/1/1 44/1/1 45/1/1
f 47/1/1 42/1/1 41/1/1
f 48/1/1 42/1/1 47/1/1
f 49/1/1 44/1/1 46/1/1
f 50/1/1 44/1/1 49/1/1
f 53/1/2 54/1/2 55/1/2
f 55/1/2 54/1/2 56/1/2
f 51/1/2 52/1/2 57/1/2
f 57/1/2 52/1/2 58/1/2
f 56/1/2 54/1/2 59/1/2
f 59/1/2 54/1/2 60/1/2
f 61/2/2 62/2/2 65/2/2
f 63/2/2 64/2/2 68/2/2
f 66/2/2 67/2/2 69/2/2
f 67/2/2 68/2/2 69/2/2
f 61/2/2 65/2/2 69/2/2
f 65/2/2 66/2/2 69/2/2
f 68/2/2 64/2/2 70/2/2
f 69/2/2 68/2/2 70/2/2
f 74/1/2 75/1/2 76/1/2
f 76/1/2 75/1/2 77/1/2
f 71/2/2 72/2/2 80/2/2
f 72/1/2 73/1/2 81/1/2
f 80/2/2 72/2/2 81/2/2
f 81/1/2 73/1/2 82/1/2
f 78/1/2 79/1/2 83/1/2
f 83/1/2 79/1/2 84/1/2
f 85/2/2 86/2/2 87/2/2
f 87/2/2 86/2/2 88/2/2
f 89/1/2 90/1/2 91/1/2
f 91/1/2 90/1/2 92/1/2
f 93/2/2 94/2/2 97/2/2
f 95/2/2 96/2/2 98/2/2
f 93/2/2 97/2/2 99/2/2
f 97/2/2 98/2/2 99/2/2
f 98/2/2 96/2/2 100/2/2
f 99/2/2 98/2/2 100/2/2
f 103/2/3 102/2/3 101/2/3
f 104/2/3 102/2/3 103/2/3
f 107/2/3 106/2/3 105/2/3
f 108/2/3 106/2/3 107/2/3
f 111/1/3 110/1/3 109/1/3
f 112/1/3 110/1/3 111/1/3
f 113/2/3 112/2/3 111/2/3
f 114/2/3 112/2/3 113/2/3
f 117/2/3 116/2/3 115/2/3
f 118/2/3 116/2/3 117/2/3
f 120/2/3 112/2/3 114/2/3
f 121/2/3 120/2/3 119/2/3
f 122/2/3 112/2/3 120/2/3
f 122/2/3 120/2/3 121/2/3
f 123/1/3 122/1/3 121/1/3
f 124/1/3 122/1/3 123/1/3
f 127/1/3 126/1/3 125/1/3
f 128/1/3 126/1/3 127/1/3
f 131/2/3 130/2/3 129/2/3
f 132/2/3 130/2/3 131/2/3
f 135/2/3 134/2/3 133/2/3
f 136/2/3 134/2/3 135/2/3
f 139/2/3 138/2/3 137/2/3
f 140/2/3 138/2/3 139/2/3
f 143/2/3 142/2/3 141/2/3
f 144/2/3 142/2/3 143/2/3
f 145/2/4 146/2/4 147/2/4
f 147/2/4 146/2/4 148/2/4
f 149/2/4 150/2/4 151/2/4
f 151/2/4 150/2/4 152/2/4
f 153/2/4 154/2/4 155/2/4
f 155/2/4 154/2/4 156/2/4
f 157/2/4 158/2/4 159/2/4
f 159/2/4 158/2/4 160/2/4
f 161/2/4 162/2/4 163/2/4
f 163/2/4 162/2/4 164/2/4
f 165/1/4 166/1/4 169/1/4
f 169/1/4 166/1/4 170/1/4
f 167/1/4 168/1/4 171/1/4
f 171/1/4 168/1/4 172/1/4
f 173/1/4 174/1/4 175/1/4
f 175/1/4 174/1/4 176/1/4
f 176/1/4 174/1/4 177/1/4
f 177/1/4 174/1/4 178/1/4
f 173/1/4 175/1/4 179/1/4
f 176/1/4 177/1/4 180/1/4
f 180/1/4 177/1/4 181/1/4
f 173/1/4 179/1/4 183/1/4
f 181/1/4 182/1/4 183/1/4
f 180/1/4 181/1/4 183/1/4
f 179/1/4 180/1/4 183/1/4
f 183/1/4 182/1/4 184/1/4
f 185/2/4 186/2/4 187/2/4
f 185/2/4 187/2/4 188/2/4
f 185/2/4 188/2/4 189/2/4
f 189/2/4 188/2/4 190/2/4
f 191/2/4 192/2/4 193/2/4
f 193/2/4 192/2/4 194/2/4
f 195/2/4 196/2/4 197/2/4
f 197/2/4 196/2/4 198/2/4
f 203/2/5 200/2/5 199/2/5
f 204/2/5 200/2/5 203/2/5
f 205/2/5 200/2/5 204/2/5
f 206/2/5 200/2/5 205/2/5
f 207/2/5 202/2/5 201/2/5
f 208/2/5 202/2/5 207/2/5
f 209/2/5 202/2/5 208/2/5
f 210/2/5 202/2/5 209/2/5
f 211/1/5 205/1/5 204/1/5
f 218/1/5 209/1/5 208/1/5
f 219/1/5 212/1/5 211/1/5
f 219/2/5 213/2/5 212/2/5
f 220/2/5 213/2/5 219/2/5
f 221/2/5 215/2/5 214/2/5
f 222/2/5 215/2/5 221/2/5
f 223/2/5 217/2/5 216/2/5
f 224/1/5 218/1/5 217/1/5
f 224/2/5 217/2/5 223/2/5
f 225/1/5 220/1/5 219/1/5
f 226/1/5 224/1/5 223/1/5
f 227/1/5 211/1/5 204/1/5
f 227/1/5 226/1/5 225/1/5
f 227/1/5 225/1/5 219/1/5
f 227/1/5 219/1/5 211/1/5
f 228/1/5 218/1/5 224/1/5
f 228/1/5 226/1/5 227/1/5
f 228/1/5 224/1/5 226/1/5
f 228/1/5 209/1/5 218/1/5
f 230/1/5 227/1/5 204/1/5
f 231/1/5 227/1/5 230/1/5
f 233/2/5 230/2/5 229/2/5
f 233/2/5 232/2/5 231/2/5
f 233/2/5 231/2/5 230/2/5
f 234/2/5 232/2/5 233/2/5
f 236/1/5 209/1/5 228/1/5
f 237/1/5 209/1/5 236/1/5
f 239/2/5 238/2/5 237/2/5
f 239/2/5 237/2/5 236/2/5
f 239/2/5 236/2/5 235/2/5
f 240/2/5 238/2/5 239/2/5
f 243/1/5 242/1/5 241/1/5
f 244/1/5 242/1/5 243/1/5
f 247/2/5 246/2/5 245/2/5
f 248/2/5 246/2/5 247/2/5
f 249/2/5 248/2/5 247/2/5
f 250/2/5 248/2/5 249/2/5
f 254/2/5 252/2/5 251/2/5
f 255/2/5 252/2/5 254/2/5
f 257/2/5 255/2/5 254/2/5
f 257/2/5 256/2/5 255/2/5
f 257/2/5 254/2/5 253/2/5
f 258/2/5 256/2/5 257/2/5
f 267/2/5 262/2/5 261/2/5
f 268/2/5 262/2/5 267/2/5
f 269/2/5 264/2/5 263/2/5
f 270/2/5 264/2/5 269/2/5
f 275/2/5 260/2/5 259/2/5
f 276/2/5 260/2/5 275/2/5
f 277/2/5 272/2/5 271/2/5
f 278/2/5 272/2/5 277/2/5
f 279/2/5 274/2/5 273/2/5
f 280/2/5 274/2/5 279/2/5
f 281/2/5 266/2/5 265/2/5
f 282/2/5 266/2/5 281/2/5
f 283/1/6 284/1/6 285/1/6
f 285/1/6 284/1/6 286/1/6
f 287/1/6 288/1/6 289/1/6
f 289/1/6 288/1/6 290/1/6
f 291/2/6 292/2/6 293/2/6
f 293/2/6 292/2/6 294/2/6
f 295/2/6 296/2/6 297/2/6
f 297/2/6 296/2/6 298/2/6
f 299/2/6 300/2/6 303/2/6
f 303/2/6 300/2/6 304/2/6
f 301/2/6 302/2/6 305/2/6
f 305/2/6 302/2/6 306/2/6
