# MagicaVoxel @ Ephtracy

# group
o 

# material
mtllib CasualOfficeChair.mtl
usemtl palette

# normals
vn -1 0 0
vn 1 0 0
vn 0 0 1
vn 0 0 -1
vn 0 -1 0
vn 0 1 0

# texcoords
vt 0.00585938 0.5
vt 0.0839844 0.5

# verts
v -0.5 -0.8 0.5
v -0.5 -0.8 0.4
v -0.5 -0.8 -0.4
v -0.5 -0.8 -0.5
v -0.5 -0.6 0.4
v -0.5 -0.6 -0.4
v -0.5 -0.5 0.4
v -0.5 -0.5 -0.4
v -0.5 -0.3 0.5
v -0.5 -0.3 0.4
v -0.5 -0.3 -0.1
v -0.5 -0.2 0.4
v -0.5 -0.2 -0.1
v -0.5 -0.2 -0.2
v -0.5 0.1 -0.1
v -0.5 0.1 -0.2
v -0.5 0.1 -0.4
v -0.5 0.1 -0.5
v -0.5 0.2 -0.2
v -0.5 0.2 -0.4
v -0.4 -0.5 0.4
v -0.4 -0.5 -0.2
v -0.4 -0.4 0.4
v -0.4 -0.4 -0.2
v -0.4 -0.2 -0.2
v -0.4 -0.2 -0.4
v -0.4 0.1 -0.2
v -0.4 0.1 -0.4
v -0.3 -0.5 0.5
v -0.3 -0.5 0.4
v -0.3 -0.5 -0.2
v -0.3 -0.5 -0.3
v -0.3 -0.4 0.5
v -0.3 -0.4 0.4
v -0.3 -0.4 -0.2
v -0.3 -0.3 0.4
v -0.3 -0.3 -0.2
v -0.3 -0.2 -0.2
v -0.3 -0.2 -0.3
v -0.3 0.1 -0.2
v -0.3 0.1 -0.3
v -0.3 0.2 -0.2
v -0.3 0.2 -0.3
v -0.3 0.2 -0.4
v -0.3 0.3 -0.3
v -0.3 0.3 -0.4
v 0.4 -0.8 0.5
v 0.4 -0.8 0.4
v 0.4 -0.8 -0.4
v 0.4 -0.8 -0.5
v 0.4 -0.6 0.4
v 0.4 -0.6 0.3
v 0.4 -0.6 0.2
v 0.4 -0.6 -0.1
v 0.4 -0.6 -0.3
v 0.4 -0.6 -0.4
v 0.4 -0.5 0.4
v 0.4 -0.5 0.3
v 0.4 -0.5 0.2
v 0.4 -0.5 -0.1
v 0.4 -0.5 -0.3
v 0.4 -0.5 -0.4
v 0.4 -0.4 0.4
v 0.4 -0.3 0.5
v 0.4 -0.3 0.4
v 0.4 -0.3 -0.1
v 0.4 -0.2 0.4
v 0.4 -0.2 -0.1
v 0.4 -0.2 -0.2
v 0.4 -0.2 -0.4
v 0.4 0.1 -0.1
v 0.4 0.1 -0.2
v 0.4 0.1 -0.3
v 0.4 0.1 -0.4
v 0.4 0.1 -0.5
v 0.4 0.2 -0.2
v 0.4 0.2 -0.3
v -0.4 -0.8 0.5
v -0.4 -0.8 0.4
v -0.4 -0.8 -0.4
v -0.4 -0.8 -0.5
v -0.4 -0.6 0.4
v -0.4 -0.6 0.3
v -0.4 -0.6 0.2
v -0.4 -0.6 -0.1
v -0.4 -0.6 -0.3
v -0.4 -0.6 -0.4
v -0.4 -0.5 0.4
v -0.4 -0.5 0.3
v -0.4 -0.5 0.2
v -0.4 -0.5 -0.1
v -0.4 -0.5 -0.3
v -0.4 -0.5 -0.4
v -0.4 -0.4 0.4
v -0.4 -0.3 0.5
v -0.4 -0.3 0.4
v -0.4 -0.3 -0.1
v -0.4 -0.2 0.4
v -0.4 -0.2 -0.1
v -0.4 -0.2 -0.2
v -0.4 -0.2 -0.4
v -0.4 0.1 -0.1
v -0.4 0.1 -0.2
v -0.4 0.1 -0.3
v -0.4 0.1 -0.4
v -0.4 0.1 -0.5
v -0.4 0.2 -0.2
v -0.4 0.2 -0.3
v 0.3 -0.5 0.5
v 0.3 -0.5 0.4
v 0.3 -0.5 -0.2
v 0.3 -0.5 -0.3
v 0.3 -0.4 0.5
v 0.3 -0.4 0.4
v 0.3 -0.4 -0.2
v 0.3 -0.3 0.4
v 0.3 -0.3 -0.2
v 0.3 -0.2 -0.2
v 0.3 -0.2 -0.3
v 0.3 0.1 -0.2
v 0.3 0.1 -0.3
v 0.3 0.2 -0.2
v 0.3 0.2 -0.3
v 0.3 0.2 -0.4
v 0.3 0.3 -0.3
v 0.3 0.3 -0.4
v 0.4 -0.5 0.4
v 0.4 -0.5 -0.2
v 0.4 -0.4 0.4
v 0.4 -0.4 -0.2
v 0.4 -0.2 -0.2
v 0.4 -0.2 -0.4
v 0.4 0.1 -0.2
v 0.4 0.1 -0.4
v 0.5 -0.8 0.5
v 0.5 -0.8 0.4
v 0.5 -0.8 -0.4
v 0.5 -0.8 -0.5
v 0.5 -0.6 0.4
v 0.5 -0.6 -0.4
v 0.5 -0.5 0.4
v 0.5 -0.5 -0.4
v 0.5 -0.3 0.5
v 0.5 -0.3 0.4
v 0.5 -0.3 -0.1
v 0.5 -0.2 0.4
v 0.5 -0.2 -0.1
v 0.5 -0.2 -0.2
v 0.5 0.1 -0.1
v 0.5 0.1 -0.2
v 0.5 0.1 -0.4
v 0.5 0.1 -0.5
v 0.5 0.2 -0.2
v 0.5 0.2 -0.4
v -0.5 -0.8 0.5
v -0.5 -0.3 0.5
v -0.4 -0.8 0.5
v -0.4 -0.3 0.5
v -0.3 -0.5 0.5
v -0.3 -0.4 0.5
v 0.3 -0.5 0.5
v 0.3 -0.4 0.5
v 0.4 -0.8 0.5
v 0.4 -0.3 0.5
v 0.5 -0.8 0.5
v 0.5 -0.3 0.5
v -0.5 -0.3 0.4
v -0.5 -0.2 0.4
v -0.4 -0.5 0.4
v -0.4 -0.4 0.4
v -0.4 -0.3 0.4
v -0.4 -0.2 0.4
v -0.3 -0.5 0.4
v -0.3 -0.4 0.4
v -0.3 -0.3 0.4
v 0.3 -0.5 0.4
v 0.3 -0.4 0.4
v 0.3 -0.3 0.4
v 0.4 -0.5 0.4
v 0.4 -0.4 0.4
v 0.4 -0.3 0.4
v 0.4 -0.2 0.4
v 0.5 -0.3 0.4
v 0.5 -0.2 0.4
v -0.4 -0.6 0.3
v -0.4 -0.5 0.3
v 0.4 -0.6 0.3
v 0.4 -0.5 0.3
v -0.5 -0.2 -0.1
v -0.5 0.1 -0.1
v -0.4 -0.6 -0.1
v -0.4 -0.5 -0.1
v -0.4 -0.2 -0.1
v -0.4 0.1 -0.1
v 0.4 -0.6 -0.1
v 0.4 -0.5 -0.1
v 0.4 -0.2 -0.1
v 0.4 0.1 -0.1
v 0.5 -0.2 -0.1
v 0.5 0.1 -0.1
v -0.5 0.1 -0.2
v -0.5 0.2 -0.2
v -0.4 -0.2 -0.2
v -0.4 0.1 -0.2
v -0.4 0.2 -0.2
v -0.3 -0.3 -0.2
v -0.3 -0.2 -0.2
v -0.3 0.1 -0.2
v -0.3 0.2 -0.2
v 0.3 -0.3 -0.2
v 0.3 -0.2 -0.2
v 0.3 0.1 -0.2
v 0.3 0.2 -0.2
v 0.4 -0.2 -0.2
v 0.4 0.1 -0.2
v 0.4 0.2 -0.2
v 0.5 0.1 -0.2
v 0.5 0.2 -0.2
v -0.4 0.1 -0.3
v -0.4 0.2 -0.3
v -0.3 0.1 -0.3
v -0.3 0.2 -0.3
v -0.3 0.3 -0.3
v 0.3 0.1 -0.3
v 0.3 0.2 -0.3
v 0.3 0.3 -0.3
v 0.4 0.1 -0.3
v 0.4 0.2 -0.3
v -0.5 -0.8 -0.4
v -0.5 -0.6 -0.4
v -0.5 -0.5 -0.4
v -0.5 0.1 -0.4
v -0.4 -0.8 -0.4
v -0.4 -0.6 -0.4
v -0.4 -0.5 -0.4
v -0.4 -0.2 -0.4
v -0.4 0.1 -0.4
v 0.4 -0.8 -0.4
v 0.4 -0.6 -0.4
v 0.4 -0.5 -0.4
v 0.4 -0.2 -0.4
v 0.4 0.1 -0.4
v 0.5 -0.8 -0.4
v 0.5 -0.6 -0.4
v 0.5 -0.5 -0.4
v 0.5 0.1 -0.4
v -0.5 -0.8 0.4
v -0.5 -0.6 0.4
v -0.5 -0.5 0.4
v -0.5 -0.3 0.4
v -0.4 -0.8 0.4
v -0.4 -0.6 0.4
v -0.4 -0.5 0.4
v -0.4 -0.4 0.4
v -0.4 -0.3 0.4
v 0.4 -0.8 0.4
v 0.4 -0.6 0.4
v 0.4 -0.5 0.4
v 0.4 -0.4 0.4
v 0.4 -0.3 0.4
v 0.5 -0.8 0.4
v 0.5 -0.6 0.4
v 0.5 -0.5 0.4
v 0.5 -0.3 0.4
v -0.4 -0.6 0.2
v -0.4 -0.5 0.2
v 0.4 -0.6 0.2
v 0.4 -0.5 0.2
v -0.5 -0.3 -0.1
v -0.5 -0.2 -0.1
v -0.4 -0.3 -0.1
v -0.4 -0.2 -0.1
v 0.4 -0.3 -0.1
v 0.4 -0.2 -0.1
v 0.5 -0.3 -0.1
v 0.5 -0.2 -0.1
v -0.5 -0.2 -0.2
v -0.5 0.1 -0.2
v -0.4 -0.5 -0.2
v -0.4 -0.4 -0.2
v -0.4 -0.2 -0.2
v -0.4 0.1 -0.2
v -0.3 -0.5 -0.2
v -0.3 -0.4 -0.2
v 0.3 -0.5 -0.2
v 0.3 -0.4 -0.2
v 0.4 -0.5 -0.2
v 0.4 -0.4 -0.2
v 0.4 -0.2 -0.2
v 0.4 0.1 -0.2
v 0.5 -0.2 -0.2
v 0.5 0.1 -0.2
v -0.4 -0.6 -0.3
v -0.4 -0.5 -0.3
v -0.3 -0.5 -0.3
v -0.3 -0.2 -0.3
v 0.3 -0.5 -0.3
v 0.3 -0.2 -0.3
v 0.4 -0.6 -0.3
v 0.4 -0.5 -0.3
v -0.5 0.1 -0.4
v -0.5 0.2 -0.4
v -0.4 -0.2 -0.4
v -0.4 0.1 -0.4
v -0.4 0.2 -0.4
v -0.3 0.2 -0.4
v -0.3 0.3 -0.4
v 0.3 0.2 -0.4
v 0.3 0.3 -0.4
v 0.4 -0.2 -0.4
v 0.4 0.1 -0.4
v 0.4 0.2 -0.4
v 0.5 0.1 -0.4
v 0.5 0.2 -0.4
v -0.5 -0.8 -0.5
v -0.5 0.1 -0.5
v -0.4 -0.8 -0.5
v -0.4 0.1 -0.5
v 0.4 -0.8 -0.5
v 0.4 0.1 -0.5
v 0.5 -0.8 -0.5
v 0.5 0.1 -0.5
v -0.5 -0.8 0.5
v -0.4 -0.8 0.5
v 0.4 -0.8 0.5
v 0.5 -0.8 0.5
v -0.5 -0.8 0.4
v -0.4 -0.8 0.4
v 0.4 -0.8 0.4
v 0.5 -0.8 0.4
v -0.5 -0.8 -0.4
v -0.4 -0.8 -0.4
v 0.4 -0.8 -0.4
v 0.5 -0.8 -0.4
v -0.5 -0.8 -0.5
v -0.4 -0.8 -0.5
v 0.4 -0.8 -0.5
v 0.5 -0.8 -0.5
v -0.5 -0.6 0.4
v -0.4 -0.6 0.4
v 0.4 -0.6 0.4
v 0.5 -0.6 0.4
v -0.4 -0.6 0.3
v 0.4 -0.6 0.3
v -0.4 -0.6 0.2
v 0.4 -0.6 0.2
v -0.4 -0.6 -0.1
v 0.4 -0.6 -0.1
v -0.4 -0.6 -0.3
v 0.4 -0.6 -0.3
v -0.5 -0.6 -0.4
v -0.4 -0.6 -0.4
v 0.4 -0.6 -0.4
v 0.5 -0.6 -0.4
v -0.3 -0.5 0.5
v 0.3 -0.5 0.5
v -0.4 -0.5 0.4
v -0.3 -0.5 0.4
v 0.3 -0.5 0.4
v 0.4 -0.5 0.4
v -0.4 -0.5 0.3
v 0.4 -0.5 0.3
v -0.4 -0.5 0.2
v 0.4 -0.5 0.2
v -0.4 -0.5 -0.1
v 0.4 -0.5 -0.1
v -0.5 -0.3 0.4
v -0.4 -0.3 0.4
v 0.4 -0.3 0.4
v 0.5 -0.3 0.4
v -0.5 -0.3 -0.1
v -0.4 -0.3 -0.1
v 0.4 -0.3 -0.1
v 0.5 -0.3 -0.1
v -0.5 -0.2 -0.1
v -0.4 -0.2 -0.1
v 0.4 -0.2 -0.1
v 0.5 -0.2 -0.1
v -0.5 -0.2 -0.2
v -0.4 -0.2 -0.2
v -0.3 -0.2 -0.2
v 0.3 -0.2 -0.2
v 0.4 -0.2 -0.2
v 0.5 -0.2 -0.2
v -0.3 -0.2 -0.3
v 0.3 -0.2 -0.3
v -0.4 -0.2 -0.4
v 0.4 -0.2 -0.4
v -0.5 0.1 -0.2
v -0.4 0.1 -0.2
v 0.4 0.1 -0.2
v 0.5 0.1 -0.2
v -0.5 0.1 -0.4
v -0.4 0.1 -0.4
v 0.4 0.1 -0.4
v 0.5 0.1 -0.4
v -0.5 -0.5 0.4
v -0.4 -0.5 0.4
v 0.4 -0.5 0.4
v 0.5 -0.5 0.4
v -0.4 -0.5 -0.2
v -0.3 -0.5 -0.2
v 0.3 -0.5 -0.2
v 0.4 -0.5 -0.2
v -0.4 -0.5 -0.3
v -0.3 -0.5 -0.3
v 0.3 -0.5 -0.3
v 0.4 -0.5 -0.3
v -0.5 -0.5 -0.4
v -0.4 -0.5 -0.4
v 0.4 -0.5 -0.4
v 0.5 -0.5 -0.4
v -0.3 -0.4 0.5
v 0.3 -0.4 0.5
v -0.4 -0.4 0.4
v -0.3 -0.4 0.4
v 0.3 -0.4 0.4
v 0.4 -0.4 0.4
v -0.4 -0.4 -0.2
v -0.3 -0.4 -0.2
v 0.3 -0.4 -0.2
v 0.4 -0.4 -0.2
v -0.5 -0.3 0.5
v -0.4 -0.3 0.5
v 0.4 -0.3 0.5
v 0.5 -0.3 0.5
v -0.5 -0.3 0.4
v -0.4 -0.3 0.4
v -0.3 -0.3 0.4
v 0.3 -0.3 0.4
v 0.4 -0.3 0.4
v 0.5 -0.3 0.4
v -0.3 -0.3 -0.2
v 0.3 -0.3 -0.2
v -0.5 -0.2 0.4
v -0.4 -0.2 0.4
v 0.4 -0.2 0.4
v 0.5 -0.2 0.4
v -0.5 -0.2 -0.1
v -0.4 -0.2 -0.1
v 0.4 -0.2 -0.1
v 0.5 -0.2 -0.1
v -0.5 0.1 -0.1
v -0.4 0.1 -0.1
v 0.4 0.1 -0.1
v 0.5 0.1 -0.1
v -0.5 0.1 -0.2
v -0.4 0.1 -0.2
v -0.3 0.1 -0.2
v 0.3 0.1 -0.2
v 0.4 0.1 -0.2
v 0.5 0.1 -0.2
v -0.4 0.1 -0.3
v -0.3 0.1 -0.3
v 0.3 0.1 -0.3
v 0.4 0.1 -0.3
v -0.5 0.1 -0.4
v -0.4 0.1 -0.4
v 0.4 0.1 -0.4
v 0.5 0.1 -0.4
v -0.5 0.1 -0.5
v -0.4 0.1 -0.5
v 0.4 0.1 -0.5
v 0.5 0.1 -0.5
v -0.5 0.2 -0.2
v -0.4 0.2 -0.2
v -0.3 0.2 -0.2
v 0.3 0.2 -0.2
v 0.4 0.2 -0.2
v 0.5 0.2 -0.2
v -0.4 0.2 -0.3
v -0.3 0.2 -0.3
v 0.3 0.2 -0.3
v 0.4 0.2 -0.3
v -0.5 0.2 -0.4
v -0.4 0.2 -0.4
v -0.3 0.2 -0.4
v 0.3 0.2 -0.4
v 0.4 0.2 -0.4
v 0.5 0.2 -0.4
v -0.3 0.3 -0.3
v 0.3 0.3 -0.3
v -0.3 0.3 -0.4
v 0.3 0.3 -0.4

# faces
f 5/2/1 2/2/1 1/2/1
f 6/2/1 4/2/1 3/2/1
f 7/2/1 5/2/1 1/2/1
f 7/2/1 6/2/1 5/2/1
f 8/2/1 4/2/1 6/2/1
f 8/2/1 6/2/1 7/2/1
f 9/2/1 7/2/1 1/2/1
f 10/2/1 7/2/1 9/2/1
f 12/2/1 11/2/1 10/2/1
f 13/2/1 11/2/1 12/2/1
f 15/2/1 14/2/1 13/2/1
f 16/2/1 14/2/1 15/2/1
f 17/2/1 4/2/1 8/2/1
f 18/2/1 4/2/1 17/2/1
f 19/2/1 17/2/1 16/2/1
f 20/2/1 17/2/1 19/2/1
f 23/1/1 22/1/1 21/1/1
f 24/1/1 22/1/1 23/1/1
f 27/1/1 26/1/1 25/1/1
f 28/1/1 26/1/1 27/1/1
f 33/1/1 30/1/1 29/1/1
f 34/1/1 30/1/1 33/1/1
f 35/1/1 32/1/1 31/1/1
f 36/1/1 35/1/1 34/1/1
f 37/1/1 32/1/1 35/1/1
f 37/1/1 35/1/1 36/1/1
f 38/1/1 32/1/1 37/1/1
f 39/1/1 32/1/1 38/1/1
f 42/1/1 41/1/1 40/1/1
f 43/1/1 41/1/1 42/1/1
f 45/1/1 44/1/1 43/1/1
f 46/1/1 44/1/1 45/1/1
f 51/2/1 48/2/1 47/2/1
f 56/2/1 50/2/1 49/2/1
f 57/2/1 51/2/1 47/2/1
f 57/2/1 52/2/1 51/2/1
f 58/2/1 52/2/1 57/2/1
f 59/2/1 54/2/1 53/2/1
f 60/2/1 54/2/1 59/2/1
f 61/2/1 56/2/1 55/2/1
f 62/2/1 50/2/1 56/2/1
f 62/2/1 56/2/1 61/2/1
f 63/2/1 57/2/1 47/2/1
f 64/2/1 63/2/1 47/2/1
f 65/2/1 63/2/1 64/2/1
f 67/2/1 66/2/1 65/2/1
f 68/2/1 66/2/1 67/2/1
f 70/2/1 50/2/1 62/2/1
f 71/2/1 69/2/1 68/2/1
f 72/2/1 69/2/1 71/2/1
f 74/2/1 50/2/1 70/2/1
f 75/2/1 50/2/1 74/2/1
f 76/2/1 73/2/1 72/2/1
f 77/2/1 73/2/1 76/2/1
f 78/2/2 79/2/2 82/2/2
f 80/2/2 81/2/2 87/2/2
f 78/2/2 82/2/2 88/2/2
f 82/2/2 83/2/2 88/2/2
f 88/2/2 83/2/2 89/2/2
f 84/2/2 85/2/2 90/2/2
f 90/2/2 85/2/2 91/2/2
f 86/2/2 87/2/2 92/2/2
f 87/2/2 81/2/2 93/2/2
f 92/2/2 87/2/2 93/2/2
f 78/2/2 88/2/2 94/2/2
f 78/2/2 94/2/2 95/2/2
f 95/2/2 94/2/2 96/2/2
f 96/2/2 97/2/2 98/2/2
f 98/2/2 97/2/2 99/2/2
f 93/2/2 81/2/2 101/2/2
f 99/2/2 100/2/2 102/2/2
f 102/2/2 100/2/2 103/2/2
f 101/2/2 81/2/2 105/2/2
f 105/2/2 81/2/2 106/2/2
f 103/2/2 104/2/2 107/2/2
f 107/2/2 104/2/2 108/2/2
f 109/1/2 110/1/2 113/1/2
f 113/1/2 110/1/2 114/1/2
f 111/1/2 112/1/2 115/1/2
f 114/1/2 115/1/2 116/1/2
f 115/1/2 112/1/2 117/1/2
f 116/1/2 115/1/2 117/1/2
f 117/1/2 112/1/2 118/1/2
f 118/1/2 112/1/2 119/1/2
f 120/1/2 121/1/2 122/1/2
f 122/1/2 121/1/2 123/1/2
f 123/1/2 124/1/2 125/1/2
f 125/1/2 124/1/2 126/1/2
f 127/1/2 128/1/2 129/1/2
f 129/1/2 128/1/2 130/1/2
f 131/1/2 132/1/2 133/1/2
f 133/1/2 132/1/2 134/1/2
f 135/2/2 136/2/2 139/2/2
f 137/2/2 138/2/2 140/2/2
f 135/2/2 139/2/2 141/2/2
f 139/2/2 140/2/2 141/2/2
f 140/2/2 138/2/2 142/2/2
f 141/2/2 140/2/2 142/2/2
f 135/2/2 141/2/2 143/2/2
f 143/2/2 141/2/2 144/2/2
f 144/2/2 145/2/2 146/2/2
f 146/2/2 145/2/2 147/2/2
f 147/2/2 148/2/2 149/2/2
f 149/2/2 148/2/2 150/2/2
f 142/2/2 138/2/2 151/2/2
f 151/2/2 138/2/2 152/2/2
f 150/2/2 151/2/2 153/2/2
f 153/2/2 151/2/2 154/2/2
f 157/2/3 156/2/3 155/2/3
f 158/2/3 156/2/3 157/2/3
f 161/1/3 160/1/3 159/1/3
f 162/1/3 160/1/3 161/1/3
f 165/2/3 164/2/3 163/2/3
f 166/2/3 164/2/3 165/2/3
f 171/2/3 168/2/3 167/2/3
f 172/2/3 168/2/3 171/2/3
f 173/1/3 170/1/3 169/1/3
f 174/1/3 170/1/3 173/1/3
f 177/1/3 175/1/3 174/1/3
f 178/1/3 175/1/3 177/1/3
f 179/1/3 177/1/3 176/1/3
f 180/1/3 177/1/3 179/1/3
f 183/2/3 182/2/3 181/2/3
f 184/2/3 182/2/3 183/2/3
f 187/2/3 186/2/3 185/2/3
f 188/2/3 186/2/3 187/2/3
f 193/2/3 190/2/3 189/2/3
f 194/2/3 190/2/3 193/2/3
f 195/2/3 192/2/3 191/2/3
f 196/2/3 192/2/3 195/2/3
f 199/2/3 198/2/3 197/2/3
f 200/2/3 198/2/3 199/2/3
f 204/2/3 202/2/3 201/2/3
f 205/2/3 202/2/3 204/2/3
f 207/1/3 204/1/3 203/1/3
f 208/1/3 204/1/3 207/1/3
f 210/1/3 207/1/3 206/1/3
f 210/1/3 209/1/3 208/1/3
f 210/1/3 208/1/3 207/1/3
f 211/1/3 209/1/3 210/1/3
f 212/1/3 209/1/3 211/1/3
f 213/1/3 209/1/3 212/1/3
f 214/1/3 212/1/3 211/1/3
f 215/1/3 212/1/3 214/1/3
f 217/2/3 216/2/3 215/2/3
f 218/2/3 216/2/3 217/2/3
f 221/1/3 220/1/3 219/1/3
f 222/1/3 220/1/3 221/1/3
f 225/1/3 223/1/3 222/1/3
f 226/1/3 223/1/3 225/1/3
f 227/1/3 225/1/3 224/1/3
f 228/1/3 225/1/3 227/1/3
f 233/2/3 230/2/3 229/2/3
f 234/2/3 230/2/3 233/2/3
f 235/2/3 232/2/3 231/2/3
f 236/2/3 232/2/3 235/2/3
f 237/2/3 232/2/3 236/2/3
f 243/2/3 239/2/3 238/2/3
f 244/2/3 239/2/3 243/2/3
f 245/2/3 242/2/3 241/2/3
f 245/2/3 241/2/3 240/2/3
f 246/2/3 242/2/3 245/2/3
f 247/2/4 248/2/4 251/2/4
f 251/2/4 248/2/4 252/2/4
f 249/2/4 250/2/4 253/2/4
f 253/2/4 250/2/4 254/2/4
f 254/2/4 250/2/4 255/2/4
f 256/2/4 257/2/4 261/2/4
f 261/2/4 257/2/4 262/2/4
f 259/2/4 260/2/4 263/2/4
f 258/2/4 259/2/4 263/2/4
f 263/2/4 260/2/4 264/2/4
f 265/2/4 266/2/4 267/2/4
f 267/2/4 266/2/4 268/2/4
f 269/2/4 270/2/4 271/2/4
f 271/2/4 270/2/4 272/2/4
f 273/2/4 274/2/4 275/2/4
f 275/2/4 274/2/4 276/2/4
f 277/2/4 278/2/4 281/2/4
f 281/2/4 278/2/4 282/2/4
f 279/1/4 280/1/4 283/1/4
f 283/1/4 280/1/4 284/1/4
f 285/1/4 286/1/4 287/1/4
f 287/1/4 286/1/4 288/1/4
f 289/2/4 290/2/4 291/2/4
f 291/2/4 290/2/4 292/2/4
f 293/2/4 294/2/4 295/2/4
f 293/2/4 295/2/4 297/2/4
f 295/1/4 296/1/4 297/1/4
f 297/1/4 296/1/4 298/1/4
f 293/2/4 297/2/4 299/2/4
f 299/2/4 297/2/4 300/2/4
f 301/2/4 302/2/4 304/2/4
f 304/2/4 302/2/4 305/2/4
f 303/1/4 304/1/4 306/1/4
f 304/1/4 305/1/4 306/1/4
f 303/1/4 306/1/4 308/1/4
f 306/1/4 307/1/4 308/1/4
f 308/1/4 307/1/4 309/1/4
f 303/1/4 308/1/4 310/1/4
f 310/1/4 308/1/4 311/1/4
f 311/1/4 308/1/4 312/1/4
f 311/2/4 312/2/4 313/2/4
f 313/2/4 312/2/4 314/2/4
f 315/2/4 316/2/4 317/2/4
f 317/2/4 316/2/4 318/2/4
f 319/2/4 320/2/4 321/2/4
f 321/2/4 320/2/4 322/2/4
f 327/2/5 324/2/5 323/2/5
f 328/2/5 324/2/5 327/2/5
f 329/2/5 326/2/5 325/2/5
f 330/2/5 326/2/5 329/2/5
f 335/2/5 332/2/5 331/2/5
f 336/2/5 332/2/5 335/2/5
f 337/2/5 334/2/5 333/2/5
f 338/2/5 334/2/5 337/2/5
f 343/2/5 340/2/5 339/2/5
f 344/2/5 342/2/5 341/2/5
f 345/2/5 343/2/5 339/2/5
f 345/2/5 344/2/5 343/2/5
f 346/2/5 342/2/5 344/2/5
f 346/2/5 344/2/5 345/2/5
f 347/2/5 345/2/5 339/2/5
f 348/2/5 342/2/5 346/2/5
f 349/2/5 347/2/5 339/2/5
f 349/2/5 348/2/5 347/2/5
f 350/2/5 342/2/5 348/2/5
f 350/2/5 348/2/5 349/2/5
f 351/2/5 349/2/5 339/2/5
f 352/2/5 349/2/5 351/2/5
f 353/2/5 342/2/5 350/2/5
f 354/2/5 342/2/5 353/2/5
f 358/1/5 356/1/5 355/1/5
f 359/1/5 356/1/5 358/1/5
f 361/1/5 358/1/5 357/1/5
f 361/1/5 360/1/5 359/1/5
f 361/1/5 359/1/5 358/1/5
f 362/1/5 360/1/5 361/1/5
f 365/1/5 364/1/5 363/1/5
f 366/1/5 364/1/5 365/1/5
f 371/2/5 368/2/5 367/2/5
f 372/2/5 368/2/5 371/2/5
f 373/2/5 370/2/5 369/2/5
f 374/2/5 370/2/5 373/2/5
f 379/2/5 376/2/5 375/2/5
f 380/2/5 376/2/5 379/2/5
f 383/2/5 378/2/5 377/2/5
f 384/2/5 378/2/5 383/2/5
f 385/1/5 381/1/5 380/1/5
f 386/1/5 383/1/5 382/1/5
f 387/1/5 385/1/5 380/1/5
f 387/1/5 386/1/5 385/1/5
f 388/1/5 383/1/5 386/1/5
f 388/1/5 386/1/5 387/1/5
f 393/2/5 390/2/5 389/2/5
f 394/2/5 390/2/5 393/2/5
f 395/2/5 392/2/5 391/2/5
f 396/2/5 392/2/5 395/2/5
f 397/2/6 398/2/6 401/2/6
f 399/2/6 400/2/6 404/2/6
f 401/2/6 402/2/6 405/2/6
f 397/2/6 401/2/6 405/2/6
f 405/2/6 402/2/6 406/2/6
f 403/2/6 404/2/6 407/2/6
f 404/2/6 400/2/6 408/2/6
f 407/2/6 404/2/6 408/2/6
f 397/2/6 405/2/6 409/2/6
f 409/2/6 405/2/6 410/2/6
f 408/2/6 400/2/6 411/2/6
f 411/2/6 400/2/6 412/2/6
f 413/1/6 414/1/6 416/1/6
f 416/1/6 414/1/6 417/1/6
f 415/1/6 416/1/6 419/1/6
f 419/1/6 416/1/6 420/1/6
f 417/1/6 418/1/6 421/1/6
f 421/1/6 418/1/6 422/1/6
f 423/2/6 424/2/6 427/2/6
f 427/2/6 424/2/6 428/2/6
f 425/2/6 426/2/6 431/2/6
f 431/2/6 426/2/6 432/2/6
f 429/1/6 430/1/6 433/1/6
f 433/1/6 430/1/6 434/1/6
f 435/2/6 436/2/6 439/2/6
f 439/2/6 436/2/6 440/2/6
f 437/2/6 438/2/6 441/2/6
f 441/2/6 438/2/6 442/2/6
f 443/2/6 444/2/6 447/2/6
f 447/2/6 444/2/6 448/2/6
f 445/2/6 446/2/6 451/2/6
f 451/2/6 446/2/6 452/2/6
f 448/1/6 449/1/6 453/1/6
f 453/1/6 449/1/6 454/1/6
f 450/1/6 451/1/6 455/1/6
f 455/1/6 451/1/6 456/1/6
f 457/2/6 458/2/6 461/2/6
f 461/2/6 458/2/6 462/2/6
f 459/2/6 460/2/6 463/2/6
f 463/2/6 460/2/6 464/2/6
f 465/2/6 466/2/6 471/2/6
f 467/1/6 468/1/6 472/1/6
f 472/1/6 468/1/6 473/1/6
f 469/2/6 470/2/6 474/2/6
f 465/2/6 471/2/6 475/2/6
f 471/1/6 472/1/6 476/1/6
f 475/2/6 471/2/6 476/2/6
f 476/1/6 472/1/6 477/1/6
f 473/1/6 474/1/6 478/1/6
f 474/2/6 470/2/6 479/2/6
f 478/1/6 474/1/6 479/1/6
f 479/2/6 470/2/6 480/2/6
f 481/1/6 482/1/6 483/1/6
f 483/1/6 482/1/6 484/1/6
