# MagicaVoxel @ Ephtracy

# group
o 

# material
mtllib FoldableChair.mtl
usemtl palette

# normals
vn -1 0 0
vn 1 0 0
vn 0 0 1
vn 0 0 -1
vn 0 -1 0
vn 0 1 0

# texcoords
vt 0.00976562 0.5
vt 0.0136719 0.5
vt 0.0175781 0.5

# verts
v -0.6 -0.8 0.4
v -0.6 -0.8 0.3
v -0.6 -0.8 -0.4
v -0.6 -0.8 -0.5
v -0.6 -0.7 0.4
v -0.6 -0.7 0.3
v -0.6 -0.7 0.2
v -0.6 -0.5 0.3
v -0.6 -0.5 0.2
v -0.6 -0.5 0.1
v -0.6 -0.5 -0.3
v -0.6 -0.5 -0.4
v -0.6 -0.5 -0.5
v -0.6 -0.3 0.2
v -0.6 -0.3 0.1
v -0.6 -0.3 0
v -0.6 -0.2 -0.1
v -0.6 -0.2 -0.2
v -0.6 -0.2 -0.3
v -0.6 -0.2 -0.4
v -0.6 -0.1 0.1
v -0.6 -0.1 0
v -0.6 -0.1 -0.1
v -0.6 -0.1 -0.2
v -0.6 0 -0.1
v -0.6 0 -0.2
v -0.6 0.1 0
v -0.6 0.1 -0.1
v -0.6 0.1 -0.2
v -0.6 0.1 -0.3
v -0.6 0.3 -0.1
v -0.6 0.3 -0.2
v -0.6 0.3 -0.3
v -0.6 0.5 -0.2
v -0.6 0.5 -0.3
v -0.6 0.5 -0.4
v -0.6 0.7 -0.3
v -0.6 0.7 -0.4
v -0.5 -0.9 0.5
v -0.5 -0.9 0.4
v -0.5 -0.9 -0.5
v -0.5 -0.9 -0.6
v -0.5 -0.8 0.5
v -0.5 -0.8 0.4
v -0.5 -0.8 -0.5
v -0.5 -0.8 -0.6
v -0.5 -0.3 0.3
v -0.5 -0.3 0.2
v -0.5 -0.3 0.1
v -0.5 -0.3 -0.1
v -0.5 -0.3 -0.3
v -0.5 -0.2 0.3
v -0.5 -0.2 0.1
v -0.5 -0.2 -0.1
v -0.5 -0.2 -0.2
v -0.5 -0.2 -0.3
v -0.5 0.3 -0.3
v -0.5 0.3 -0.4
v -0.5 0.5 -0.3
v -0.5 0.5 -0.4
v -0.5 0.7 -0.4
v -0.5 0.7 -0.5
v -0.5 0.8 -0.4
v -0.5 0.8 -0.5
v -0.4 -0.3 0.4
v -0.4 -0.3 0.3
v -0.4 -0.3 0
v -0.4 -0.3 -0.1
v -0.4 -0.3 -0.3
v -0.4 -0.3 -0.4
v -0.4 -0.2 0.4
v -0.4 -0.2 0.3
v -0.4 -0.2 0
v -0.4 -0.2 -0.1
v -0.4 -0.2 -0.3
v -0.4 -0.2 -0.4
v 0.5 -0.8 0.4
v 0.5 -0.8 0.3
v 0.5 -0.8 -0.4
v 0.5 -0.8 -0.5
v 0.5 -0.7 0.4
v 0.5 -0.7 0.3
v 0.5 -0.7 0.2
v 0.5 -0.5 0.3
v 0.5 -0.5 0.2
v 0.5 -0.5 0.1
v 0.5 -0.5 -0.3
v 0.5 -0.5 -0.4
v 0.5 -0.5 -0.5
v 0.5 -0.3 0.2
v 0.5 -0.3 0.1
v 0.5 -0.3 -0.3
v 0.5 -0.2 0.1
v 0.5 -0.2 0
v 0.5 -0.2 -0.1
v 0.5 -0.2 -0.2
v 0.5 -0.2 -0.3
v 0.5 -0.2 -0.4
v 0.5 -0.1 0.1
v 0.5 -0.1 0
v 0.5 -0.1 -0.1
v 0.5 -0.1 -0.2
v 0.5 0 -0.1
v 0.5 0 -0.2
v 0.5 0.1 0
v 0.5 0.1 -0.1
v 0.5 0.1 -0.2
v 0.5 0.1 -0.3
v 0.5 0.3 -0.1
v 0.5 0.3 -0.2
v 0.5 0.3 -0.3
v 0.5 0.5 -0.2
v 0.5 0.5 -0.3
v -0.5 -0.8 0.4
v -0.5 -0.8 0.3
v -0.5 -0.8 -0.4
v -0.5 -0.8 -0.5
v -0.5 -0.7 0.4
v -0.5 -0.7 0.3
v -0.5 -0.7 0.2
v -0.5 -0.5 0.3
v -0.5 -0.5 0.2
v -0.5 -0.5 0.1
v -0.5 -0.5 -0.3
v -0.5 -0.5 -0.4
v -0.5 -0.5 -0.5
v -0.5 -0.3 0.2
v -0.5 -0.3 0.1
v -0.5 -0.3 -0.3
v -0.5 -0.2 0.1
v -0.5 -0.2 0
v -0.5 -0.2 -0.1
v -0.5 -0.2 -0.2
v -0.5 -0.2 -0.3
v -0.5 -0.2 -0.4
v -0.5 -0.1 0.1
v -0.5 -0.1 0
v -0.5 -0.1 -0.1
v -0.5 -0.1 -0.2
v -0.5 0 -0.1
v -0.5 0 -0.2
v -0.5 0.1 0
v -0.5 0.1 -0.1
v -0.5 0.1 -0.2
v -0.5 0.1 -0.3
v -0.5 0.3 -0.1
v -0.5 0.3 -0.2
v -0.5 0.3 -0.3
v -0.5 0.5 -0.2
v -0.5 0.5 -0.3
v 0.4 -0.3 0.4
v 0.4 -0.3 0.3
v 0.4 -0.3 0
v 0.4 -0.3 -0.1
v 0.4 -0.3 -0.3
v 0.4 -0.3 -0.4
v 0.4 -0.2 0.4
v 0.4 -0.2 0.3
v 0.4 -0.2 0
v 0.4 -0.2 -0.1
v 0.4 -0.2 -0.3
v 0.4 -0.2 -0.4
v 0.5 -0.9 0.5
v 0.5 -0.9 0.4
v 0.5 -0.9 -0.5
v 0.5 -0.9 -0.6
v 0.5 -0.8 0.5
v 0.5 -0.8 0.4
v 0.5 -0.8 -0.5
v 0.5 -0.8 -0.6
v 0.5 -0.3 0.3
v 0.5 -0.3 0.2
v 0.5 -0.3 0.1
v 0.5 -0.3 -0.1
v 0.5 -0.3 -0.3
v 0.5 -0.2 0.3
v 0.5 -0.2 0.1
v 0.5 -0.2 -0.1
v 0.5 -0.2 -0.2
v 0.5 -0.2 -0.3
v 0.5 0.3 -0.3
v 0.5 0.3 -0.4
v 0.5 0.5 -0.3
v 0.5 0.5 -0.4
v 0.5 0.7 -0.4
v 0.5 0.7 -0.5
v 0.5 0.8 -0.4
v 0.5 0.8 -0.5
v 0.6 -0.8 0.4
v 0.6 -0.8 0.3
v 0.6 -0.8 -0.4
v 0.6 -0.8 -0.5
v 0.6 -0.7 0.4
v 0.6 -0.7 0.3
v 0.6 -0.7 0.2
v 0.6 -0.5 0.3
v 0.6 -0.5 0.2
v 0.6 -0.5 0.1
v 0.6 -0.5 -0.3
v 0.6 -0.5 -0.4
v 0.6 -0.5 -0.5
v 0.6 -0.3 0.2
v 0.6 -0.3 0.1
v 0.6 -0.3 0
v 0.6 -0.2 -0.1
v 0.6 -0.2 -0.2
v 0.6 -0.2 -0.3
v 0.6 -0.2 -0.4
v 0.6 -0.1 0.1
v 0.6 -0.1 0
v 0.6 -0.1 -0.1
v 0.6 -0.1 -0.2
v 0.6 0 -0.1
v 0.6 0 -0.2
v 0.6 0.1 0
v 0.6 0.1 -0.1
v 0.6 0.1 -0.2
v 0.6 0.1 -0.3
v 0.6 0.3 -0.1
v 0.6 0.3 -0.2
v 0.6 0.3 -0.3
v 0.6 0.5 -0.2
v 0.6 0.5 -0.3
v 0.6 0.5 -0.4
v 0.6 0.7 -0.3
v 0.6 0.7 -0.4
v -0.5 -0.9 0.5
v -0.5 -0.8 0.5
v 0.5 -0.9 0.5
v 0.5 -0.8 0.5
v -0.6 -0.8 0.4
v -0.6 -0.7 0.4
v -0.5 -0.8 0.4
v -0.5 -0.7 0.4
v -0.4 -0.3 0.4
v -0.4 -0.2 0.4
v 0.4 -0.3 0.4
v 0.4 -0.2 0.4
v 0.5 -0.8 0.4
v 0.5 -0.7 0.4
v 0.6 -0.8 0.4
v 0.6 -0.7 0.4
v -0.6 -0.7 0.3
v -0.6 -0.5 0.3
v -0.5 -0.7 0.3
v -0.5 -0.5 0.3
v -0.5 -0.3 0.3
v -0.5 -0.2 0.3
v -0.4 -0.3 0.3
v -0.4 -0.2 0.3
v 0.4 -0.3 0.3
v 0.4 -0.2 0.3
v 0.5 -0.7 0.3
v 0.5 -0.5 0.3
v 0.5 -0.3 0.3
v 0.5 -0.2 0.3
v 0.6 -0.7 0.3
v 0.6 -0.5 0.3
v -0.6 -0.5 0.2
v -0.6 -0.3 0.2
v -0.5 -0.5 0.2
v -0.5 -0.3 0.2
v 0.5 -0.5 0.2
v 0.5 -0.3 0.2
v 0.6 -0.5 0.2
v 0.6 -0.3 0.2
v -0.6 -0.3 0.1
v -0.6 -0.1 0.1
v -0.5 -0.3 0.1
v -0.5 -0.2 0.1
v -0.5 -0.1 0.1
v 0.5 -0.3 0.1
v 0.5 -0.2 0.1
v 0.5 -0.1 0.1
v 0.6 -0.3 0.1
v 0.6 -0.1 0.1
v -0.6 -0.1 0
v -0.6 0.1 0
v -0.5 -0.1 0
v -0.5 0.1 0
v 0.5 -0.1 0
v 0.5 0.1 0
v 0.6 -0.1 0
v 0.6 0.1 0
v -0.6 -0.2 -0.1
v -0.6 -0.1 -0.1
v -0.6 0.1 -0.1
v -0.6 0.3 -0.1
v -0.5 -0.3 -0.1
v -0.5 -0.2 -0.1
v -0.5 -0.1 -0.1
v -0.5 0.1 -0.1
v -0.5 0.3 -0.1
v -0.4 -0.3 -0.1
v -0.4 -0.2 -0.1
v 0.4 -0.3 -0.1
v 0.4 -0.2 -0.1
v 0.5 -0.3 -0.1
v 0.5 -0.2 -0.1
v 0.5 -0.1 -0.1
v 0.5 0.1 -0.1
v 0.5 0.3 -0.1
v 0.6 -0.2 -0.1
v 0.6 -0.1 -0.1
v 0.6 0.1 -0.1
v 0.6 0.3 -0.1
v -0.6 -0.1 -0.2
v -0.6 0 -0.2
v -0.6 0.3 -0.2
v -0.6 0.5 -0.2
v -0.5 -0.1 -0.2
v -0.5 0 -0.2
v -0.5 0.3 -0.2
v -0.5 0.5 -0.2
v 0.5 -0.1 -0.2
v 0.5 0 -0.2
v 0.5 0.3 -0.2
v 0.5 0.5 -0.2
v 0.6 -0.1 -0.2
v 0.6 0 -0.2
v 0.6 0.3 -0.2
v 0.6 0.5 -0.2
v -0.6 -0.5 -0.3
v -0.6 -0.2 -0.3
v -0.6 0.5 -0.3
v -0.6 0.7 -0.3
v -0.5 -0.5 -0.3
v -0.5 -0.3 -0.3
v -0.5 -0.2 -0.3
v -0.5 0.3 -0.3
v -0.5 0.5 -0.3
v -0.5 0.7 -0.3
v 0.5 -0.5 -0.3
v 0.5 -0.3 -0.3
v 0.5 -0.2 -0.3
v 0.5 0.3 -0.3
v 0.5 0.5 -0.3
v 0.5 0.7 -0.3
v 0.6 -0.5 -0.3
v 0.6 -0.2 -0.3
v 0.6 0.5 -0.3
v 0.6 0.7 -0.3
v -0.6 -0.8 -0.4
v -0.6 -0.5 -0.4
v -0.5 -0.8 -0.4
v -0.5 -0.5 -0.4
v -0.5 0.7 -0.4
v -0.5 0.8 -0.4
v 0.5 -0.8 -0.4
v 0.5 -0.5 -0.4
v 0.5 0.7 -0.4
v 0.5 0.8 -0.4
v 0.6 -0.8 -0.4
v 0.6 -0.5 -0.4
v -0.5 -0.9 -0.5
v -0.5 -0.8 -0.5
v 0.5 -0.9 -0.5
v 0.5 -0.8 -0.5
v -0.5 -0.9 0.4
v -0.5 -0.8 0.4
v 0.5 -0.9 0.4
v 0.5 -0.8 0.4
v -0.6 -0.8 0.3
v -0.6 -0.7 0.3
v -0.5 -0.8 0.3
v -0.5 -0.7 0.3
v 0.5 -0.8 0.3
v 0.5 -0.7 0.3
v 0.6 -0.8 0.3
v 0.6 -0.7 0.3
v -0.6 -0.7 0.2
v -0.6 -0.5 0.2
v -0.5 -0.7 0.2
v -0.5 -0.5 0.2
v 0.5 -0.7 0.2
v 0.5 -0.5 0.2
v 0.6 -0.7 0.2
v 0.6 -0.5 0.2
v -0.6 -0.5 0.1
v -0.6 -0.3 0.1
v -0.5 -0.5 0.1
v -0.5 -0.3 0.1
v 0.5 -0.5 0.1
v 0.5 -0.3 0.1
v 0.6 -0.5 0.1
v 0.6 -0.3 0.1
v -0.6 -0.3 0
v -0.6 -0.1 0
v -0.5 -0.3 0
v -0.5 -0.2 0
v -0.5 -0.1 0
v -0.4 -0.3 0
v -0.4 -0.2 0
v 0.4 -0.3 0
v 0.4 -0.2 0
v 0.5 -0.3 0
v 0.5 -0.2 0
v 0.5 -0.1 0
v 0.6 -0.3 0
v 0.6 -0.1 0
v -0.6 -0.1 -0.1
v -0.6 0 -0.1
v -0.5 -0.1 -0.1
v -0.5 0 -0.1
v 0.5 -0.1 -0.1
v 0.5 0 -0.1
v 0.6 -0.1 -0.1
v 0.6 0 -0.1
v -0.6 0.1 -0.2
v -0.6 0.3 -0.2
v -0.5 0.1 -0.2
v -0.5 0.3 -0.2
v 0.5 0.1 -0.2
v 0.5 0.3 -0.2
v 0.6 0.1 -0.2
v 0.6 0.3 -0.2
v -0.6 -0.2 -0.3
v -0.6 0.1 -0.3
v -0.6 0.3 -0.3
v -0.6 0.5 -0.3
v -0.5 -0.3 -0.3
v -0.5 -0.2 -0.3
v -0.5 0.1 -0.3
v -0.5 0.3 -0.3
v -0.5 0.5 -0.3
v -0.4 -0.3 -0.3
v -0.4 -0.2 -0.3
v 0.4 -0.3 -0.3
v 0.4 -0.2 -0.3
v 0.5 -0.3 -0.3
v 0.5 -0.2 -0.3
v 0.5 0.1 -0.3
v 0.5 0.3 -0.3
v 0.5 0.5 -0.3
v 0.6 -0.2 -0.3
v 0.6 0.1 -0.3
v 0.6 0.3 -0.3
v 0.6 0.5 -0.3
v -0.6 -0.5 -0.4
v -0.6 -0.2 -0.4
v -0.6 0.5 -0.4
v -0.6 0.7 -0.4
v -0.5 -0.5 -0.4
v -0.5 -0.2 -0.4
v -0.5 0.3 -0.4
v -0.5 0.5 -0.4
v -0.5 0.7 -0.4
v -0.4 -0.3 -0.4
v -0.4 -0.2 -0.4
v 0.4 -0.3 -0.4
v 0.4 -0.2 -0.4
v 0.5 -0.5 -0.4
v 0.5 -0.2 -0.4
v 0.5 0.3 -0.4
v 0.5 0.5 -0.4
v 0.5 0.7 -0.4
v 0.6 -0.5 -0.4
v 0.6 -0.2 -0.4
v 0.6 0.5 -0.4
v 0.6 0.7 -0.4
v -0.6 -0.8 -0.5
v -0.6 -0.5 -0.5
v -0.5 -0.8 -0.5
v -0.5 -0.5 -0.5
v -0.5 0.7 -0.5
v -0.5 0.8 -0.5
v 0.5 -0.8 -0.5
v 0.5 -0.5 -0.5
v 0.5 0.7 -0.5
v 0.5 0.8 -0.5
v 0.6 -0.8 -0.5
v 0.6 -0.5 -0.5
v -0.5 -0.9 -0.6
v -0.5 -0.8 -0.6
v 0.5 -0.9 -0.6
v 0.5 -0.8 -0.6
v -0.5 -0.9 0.5
v 0.5 -0.9 0.5
v -0.5 -0.9 0.4
v 0.5 -0.9 0.4
v -0.5 -0.9 -0.5
v 0.5 -0.9 -0.5
v -0.5 -0.9 -0.6
v 0.5 -0.9 -0.6
v -0.6 -0.8 0.4
v -0.5 -0.8 0.4
v 0.5 -0.8 0.4
v 0.6 -0.8 0.4
v -0.6 -0.8 0.3
v -0.5 -0.8 0.3
v 0.5 -0.8 0.3
v 0.6 -0.8 0.3
v -0.6 -0.8 -0.4
v -0.5 -0.8 -0.4
v 0.5 -0.8 -0.4
v 0.6 -0.8 -0.4
v -0.6 -0.8 -0.5
v -0.5 -0.8 -0.5
v 0.5 -0.8 -0.5
v 0.6 -0.8 -0.5
v -0.6 -0.7 0.3
v -0.5 -0.7 0.3
v 0.5 -0.7 0.3
v 0.6 -0.7 0.3
v -0.6 -0.7 0.2
v -0.5 -0.7 0.2
v 0.5 -0.7 0.2
v 0.6 -0.7 0.2
v -0.6 -0.5 0.2
v -0.5 -0.5 0.2
v 0.5 -0.5 0.2
v 0.6 -0.5 0.2
v -0.6 -0.5 0.1
v -0.5 -0.5 0.1
v 0.5 -0.5 0.1
v 0.6 -0.5 0.1
v -0.6 -0.5 -0.3
v -0.5 -0.5 -0.3
v 0.5 -0.5 -0.3
v 0.6 -0.5 -0.3
v -0.6 -0.5 -0.4
v -0.5 -0.5 -0.4
v 0.5 -0.5 -0.4
v 0.6 -0.5 -0.4
v -0.4 -0.3 0.4
v 0.4 -0.3 0.4
v -0.5 -0.3 0.3
v -0.4 -0.3 0.3
v 0.4 -0.3 0.3
v 0.5 -0.3 0.3
v -0.5 -0.3 0.2
v 0.5 -0.3 0.2
v -0.6 -0.3 0.1
v -0.5 -0.3 0.1
v 0.5 -0.3 0.1
v 0.6 -0.3 0.1
v -0.6 -0.3 0
v -0.5 -0.3 0
v -0.4 -0.3 0
v 0.4 -0.3 0
v 0.5 -0.3 0
v 0.6 -0.3 0
v -0.5 -0.3 -0.1
v -0.4 -0.3 -0.1
v 0.4 -0.3 -0.1
v 0.5 -0.3 -0.1
v -0.5 -0.3 -0.3
v -0.4 -0.3 -0.3
v 0.4 -0.3 -0.3
v 0.5 -0.3 -0.3
v -0.4 -0.3 -0.4
v 0.4 -0.3 -0.4
v -0.6 -0.2 -0.1
v -0.5 -0.2 -0.1
v 0.5 -0.2 -0.1
v 0.6 -0.2 -0.1
v -0.6 -0.2 -0.2
v -0.5 -0.2 -0.2
v 0.5 -0.2 -0.2
v 0.6 -0.2 -0.2
v -0.6 -0.2 -0.3
v -0.5 -0.2 -0.3
v 0.5 -0.2 -0.3
v 0.6 -0.2 -0.3
v -0.6 -0.1 0
v -0.5 -0.1 0
v 0.5 -0.1 0
v 0.6 -0.1 0
v -0.6 -0.1 -0.1
v -0.5 -0.1 -0.1
v 0.5 -0.1 -0.1
v 0.6 -0.1 -0.1
v -0.6 0 -0.1
v -0.5 0 -0.1
v 0.5 0 -0.1
v 0.6 0 -0.1
v -0.6 0 -0.2
v -0.5 0 -0.2
v 0.5 0 -0.2
v 0.6 0 -0.2
v -0.6 0.3 -0.2
v -0.5 0.3 -0.2
v 0.5 0.3 -0.2
v 0.6 0.3 -0.2
v -0.6 0.3 -0.3
v -0.5 0.3 -0.3
v 0.5 0.3 -0.3
v 0.6 0.3 -0.3
v -0.5 0.3 -0.4
v 0.5 0.3 -0.4
v -0.6 0.5 -0.3
v -0.5 0.5 -0.3
v 0.5 0.5 -0.3
v 0.6 0.5 -0.3
v -0.6 0.5 -0.4
v -0.5 0.5 -0.4
v 0.5 0.5 -0.4
v 0.6 0.5 -0.4
v -0.5 0.7 -0.4
v 0.5 0.7 -0.4
v -0.5 0.7 -0.5
v 0.5 0.7 -0.5
v -0.5 -0.8 0.5
v 0.5 -0.8 0.5
v -0.5 -0.8 0.4
v 0.5 -0.8 0.4
v -0.5 -0.8 -0.5
v 0.5 -0.8 -0.5
v -0.5 -0.8 -0.6
v 0.5 -0.8 -0.6
v -0.6 -0.7 0.4
v -0.5 -0.7 0.4
v 0.5 -0.7 0.4
v 0.6 -0.7 0.4
v -0.6 -0.7 0.3
v -0.5 -0.7 0.3
v 0.5 -0.7 0.3
v 0.6 -0.7 0.3
v -0.6 -0.5 0.3
v -0.5 -0.5 0.3
v 0.5 -0.5 0.3
v 0.6 -0.5 0.3
v -0.6 -0.5 0.2
v -0.5 -0.5 0.2
v 0.5 -0.5 0.2
v 0.6 -0.5 0.2
v -0.6 -0.5 -0.4
v -0.5 -0.5 -0.4
v 0.5 -0.5 -0.4
v 0.6 -0.5 -0.4
v -0.6 -0.5 -0.5
v -0.5 -0.5 -0.5
v 0.5 -0.5 -0.5
v 0.6 -0.5 -0.5
v -0.6 -0.3 0.2
v -0.5 -0.3 0.2
v 0.5 -0.3 0.2
v 0.6 -0.3 0.2
v -0.6 -0.3 0.1
v -0.5 -0.3 0.1
v 0.5 -0.3 0.1
v 0.6 -0.3 0.1
v -0.4 -0.2 0.4
v 0.4 -0.2 0.4
v -0.5 -0.2 0.3
v -0.4 -0.2 0.3
v 0.4 -0.2 0.3
v 0.5 -0.2 0.3
v -0.5 -0.2 0.1
v 0.5 -0.2 0.1
v -0.5 -0.2 0
v -0.4 -0.2 0
v 0.4 -0.2 0
v 0.5 -0.2 0
v -0.5 -0.2 -0.1
v -0.4 -0.2 -0.1
v 0.4 -0.2 -0.1
v 0.5 -0.2 -0.1
v -0.5 -0.2 -0.2
v 0.5 -0.2 -0.2
v -0.6 -0.2 -0.3
v -0.5 -0.2 -0.3
v -0.4 -0.2 -0.3
v 0.4 -0.2 -0.3
v 0.5 -0.2 -0.3
v 0.6 -0.2 -0.3
v -0.6 -0.2 -0.4
v -0.5 -0.2 -0.4
v -0.4 -0.2 -0.4
v 0.4 -0.2 -0.4
v 0.5 -0.2 -0.4
v 0.6 -0.2 -0.4
v -0.6 -0.1 0.1
v -0.5 -0.1 0.1
v 0.5 -0.1 0.1
v 0.6 -0.1 0.1
v -0.6 -0.1 0
v -0.5 -0.1 0
v 0.5 -0.1 0
v 0.6 -0.1 0
v -0.6 -0.1 -0.1
v -0.5 -0.1 -0.1
v 0.5 -0.1 -0.1
v 0.6 -0.1 -0.1
v -0.6 -0.1 -0.2
v -0.5 -0.1 -0.2
v 0.5 -0.1 -0.2
v 0.6 -0.1 -0.2
v -0.6 0.1 0
v -0.5 0.1 0
v 0.5 0.1 0
v 0.6 0.1 0
v -0.6 0.1 -0.1
v -0.5 0.1 -0.1
v 0.5 0.1 -0.1
v 0.6 0.1 -0.1
v -0.6 0.1 -0.2
v -0.5 0.1 -0.2
v 0.5 0.1 -0.2
v 0.6 0.1 -0.2
v -0.6 0.1 -0.3
v -0.5 0.1 -0.3
v 0.5 0.1 -0.3
v 0.6 0.1 -0.3
v -0.6 0.3 -0.1
v -0.5 0.3 -0.1
v 0.5 0.3 -0.1
v 0.6 0.3 -0.1
v -0.6 0.3 -0.2
v -0.5 0.3 -0.2
v 0.5 0.3 -0.2
v 0.6 0.3 -0.2
v -0.6 0.5 -0.2
v -0.5 0.5 -0.2
v 0.5 0.5 -0.2
v 0.6 0.5 -0.2
v -0.6 0.5 -0.3
v -0.5 0.5 -0.3
v 0.5 0.5 -0.3
v 0.6 0.5 -0.3
v -0.6 0.7 -0.3
v -0.5 0.7 -0.3
v 0.5 0.7 -0.3
v 0.6 0.7 -0.3
v -0.6 0.7 -0.4
v -0.5 0.7 -0.4
v 0.5 0.7 -0.4
v 0.6 0.7 -0.4
v -0.5 0.8 -0.4
v 0.5 0.8 -0.4
v -0.5 0.8 -0.5
v 0.5 0.8 -0.5

# faces
f 5/3/1 2/3/1 1/3/1
f 6/3/1 2/3/1 5/3/1
f 8/3/1 7/3/1 6/3/1
f 9/3/1 7/3/1 8/3/1
f 12/3/1 4/3/1 3/3/1
f 13/3/1 4/3/1 12/3/1
f 14/3/1 10/3/1 9/3/1
f 15/3/1 10/3/1 14/3/1
f 19/3/1 12/3/1 11/3/1
f 20/3/1 12/3/1 19/3/1
f 21/3/1 16/3/1 15/3/1
f 22/3/1 16/3/1 21/3/1
f 23/2/1 18/2/1 17/2/1
f 24/3/1 19/3/1 18/3/1
f 24/2/1 18/2/1 23/2/1
f 25/3/1 23/3/1 22/3/1
f 26/3/1 19/3/1 24/3/1
f 27/3/1 25/3/1 22/3/1
f 28/2/1 26/2/1 25/2/1
f 28/3/1 25/3/1 27/3/1
f 29/3/1 19/3/1 26/3/1
f 29/2/1 26/2/1 28/2/1
f 30/3/1 19/3/1 29/3/1
f 31/3/1 29/3/1 28/3/1
f 32/3/1 29/3/1 31/3/1
f 34/3/1 33/3/1 32/3/1
f 35/3/1 33/3/1 34/3/1
f 37/3/1 36/3/1 35/3/1
f 38/3/1 36/3/1 37/3/1
f 43/3/1 40/3/1 39/3/1
f 44/3/1 40/3/1 43/3/1
f 45/3/1 42/3/1 41/3/1
f 46/3/1 42/3/1 45/3/1
f 52/1/1 48/1/1 47/1/1
f 52/1/1 49/1/1 48/1/1
f 53/1/1 49/1/1 52/1/1
f 54/1/1 51/1/1 50/1/1
f 55/1/1 51/1/1 54/1/1
f 56/1/1 51/1/1 55/1/1
f 59/1/1 58/1/1 57/1/1
f 60/1/1 58/1/1 59/1/1
f 63/3/1 62/3/1 61/3/1
f 64/3/1 62/3/1 63/3/1
f 71/1/1 66/1/1 65/1/1
f 72/1/1 66/1/1 71/1/1
f 73/1/1 68/1/1 67/1/1
f 74/1/1 68/1/1 73/1/1
f 75/1/1 70/1/1 69/1/1
f 76/1/1 70/1/1 75/1/1
f 81/3/1 78/3/1 77/3/1
f 82/3/1 78/3/1 81/3/1
f 84/3/1 83/3/1 82/3/1
f 85/3/1 83/3/1 84/3/1
f 88/3/1 80/3/1 79/3/1
f 89/3/1 80/3/1 88/3/1
f 90/3/1 86/3/1 85/3/1
f 91/3/1 86/3/1 90/3/1
f 92/3/1 88/3/1 87/3/1
f 97/3/1 88/3/1 92/3/1
f 98/3/1 88/3/1 97/3/1
f 99/3/1 94/3/1 93/3/1
f 100/3/1 94/3/1 99/3/1
f 101/2/1 96/2/1 95/2/1
f 102/3/1 97/3/1 96/3/1
f 102/2/1 96/2/1 101/2/1
f 103/3/1 101/3/1 100/3/1
f 104/3/1 97/3/1 102/3/1
f 105/3/1 103/3/1 100/3/1
f 106/2/1 104/2/1 103/2/1
f 106/3/1 103/3/1 105/3/1
f 107/3/1 97/3/1 104/3/1
f 107/2/1 104/2/1 106/2/1
f 108/3/1 97/3/1 107/3/1
f 109/3/1 107/3/1 106/3/1
f 110/3/1 107/3/1 109/3/1
f 112/3/1 111/3/1 110/3/1
f 113/3/1 111/3/1 112/3/1
f 114/3/2 115/3/2 118/3/2
f 118/3/2 115/3/2 119/3/2
f 119/3/2 120/3/2 121/3/2
f 121/3/2 120/3/2 122/3/2
f 116/3/2 117/3/2 125/3/2
f 125/3/2 117/3/2 126/3/2
f 122/3/2 123/3/2 127/3/2
f 127/3/2 123/3/2 128/3/2
f 124/3/2 125/3/2 129/3/2
f 129/3/2 125/3/2 134/3/2
f 134/3/2 125/3/2 135/3/2
f 130/3/2 131/3/2 136/3/2
f 136/3/2 131/3/2 137/3/2
f 132/2/2 133/2/2 138/2/2
f 133/3/2 134/3/2 139/3/2
f 138/2/2 133/2/2 139/2/2
f 137/3/2 138/3/2 140/3/2
f 139/3/2 134/3/2 141/3/2
f 137/3/2 140/3/2 142/3/2
f 140/2/2 141/2/2 143/2/2
f 142/3/2 140/3/2 143/3/2
f 141/3/2 134/3/2 144/3/2
f 143/2/2 141/2/2 144/2/2
f 144/3/2 134/3/2 145/3/2
f 143/3/2 144/3/2 146/3/2
f 146/3/2 144/3/2 147/3/2
f 147/3/2 148/3/2 149/3/2
f 149/3/2 148/3/2 150/3/2
f 151/1/2 152/1/2 157/1/2
f 157/1/2 152/1/2 158/1/2
f 153/1/2 154/1/2 159/1/2
f 159/1/2 154/1/2 160/1/2
f 155/1/2 156/1/2 161/1/2
f 161/1/2 156/1/2 162/1/2
f 163/3/2 164/3/2 167/3/2
f 167/3/2 164/3/2 168/3/2
f 165/3/2 166/3/2 169/3/2
f 169/3/2 166/3/2 170/3/2
f 171/1/2 172/1/2 176/1/2
f 172/1/2 173/1/2 176/1/2
f 176/1/2 173/1/2 177/1/2
f 174/1/2 175/1/2 178/1/2
f 178/1/2 175/1/2 179/1/2
f 179/1/2 175/1/2 180/1/2
f 181/1/2 182/1/2 183/1/2
f 183/1/2 182/1/2 184/1/2
f 185/3/2 186/3/2 187/3/2
f 187/3/2 186/3/2 188/3/2
f 189/3/2 190/3/2 193/3/2
f 193/3/2 190/3/2 194/3/2
f 194/3/2 195/3/2 196/3/2
f 196/3/2 195/3/2 197/3/2
f 191/3/2 192/3/2 200/3/2
f 200/3/2 192/3/2 201/3/2
f 197/3/2 198/3/2 202/3/2
f 202/3/2 198/3/2 203/3/2
f 199/3/2 200/3/2 207/3/2
f 207/3/2 200/3/2 208/3/2
f 203/3/2 204/3/2 209/3/2
f 209/3/2 204/3/2 210/3/2
f 205/2/2 206/2/2 211/2/2
f 206/3/2 207/3/2 212/3/2
f 211/2/2 206/2/2 212/2/2
f 210/3/2 211/3/2 213/3/2
f 212/3/2 207/3/2 214/3/2
f 210/3/2 213/3/2 215/3/2
f 213/2/2 214/2/2 216/2/2
f 215/3/2 213/3/2 216/3/2
f 214/3/2 207/3/2 217/3/2
f 216/2/2 214/2/2 217/2/2
f 217/3/2 207/3/2 218/3/2
f 216/3/2 217/3/2 219/3/2
f 219/3/2 217/3/2 220/3/2
f 220/3/2 221/3/2 222/3/2
f 222/3/2 221/3/2 223/3/2
f 223/3/2 224/3/2 225/3/2
f 225/3/2 224/3/2 226/3/2
f 229/3/3 228/3/3 227/3/3
f 230/3/3 228/3/3 229/3/3
f 233/3/3 232/3/3 231/3/3
f 234/3/3 232/3/3 233/3/3
f 237/1/3 236/1/3 235/1/3
f 238/1/3 236/1/3 237/1/3
f 241/3/3 240/3/3 239/3/3
f 242/3/3 240/3/3 241/3/3
f 245/3/3 244/3/3 243/3/3
f 246/3/3 244/3/3 245/3/3
f 249/1/3 248/1/3 247/1/3
f 250/1/3 248/1/3 249/1/3
f 255/1/3 252/1/3 251/1/3
f 256/1/3 252/1/3 255/1/3
f 257/3/3 254/3/3 253/3/3
f 258/3/3 254/3/3 257/3/3
f 261/3/3 260/3/3 259/3/3
f 262/3/3 260/3/3 261/3/3
f 265/3/3 264/3/3 263/3/3
f 266/3/3 264/3/3 265/3/3
f 269/3/3 268/3/3 267/3/3
f 270/3/3 268/3/3 269/3/3
f 271/3/3 268/3/3 270/3/3
f 275/3/3 273/3/3 272/3/3
f 275/3/3 274/3/3 273/3/3
f 276/3/3 274/3/3 275/3/3
f 279/3/3 278/3/3 277/3/3
f 280/3/3 278/3/3 279/3/3
f 283/3/3 282/3/3 281/3/3
f 284/3/3 282/3/3 283/3/3
f 290/2/3 286/2/3 285/2/3
f 291/2/3 286/2/3 290/2/3
f 292/3/3 288/3/3 287/3/3
f 293/3/3 288/3/3 292/3/3
f 294/1/3 290/1/3 289/1/3
f 295/1/3 290/1/3 294/1/3
f 298/1/3 297/1/3 296/1/3
f 299/1/3 297/1/3 298/1/3
f 303/2/3 300/2/3 299/2/3
f 304/2/3 300/2/3 303/2/3
f 305/3/3 302/3/3 301/3/3
f 306/3/3 302/3/3 305/3/3
f 311/3/3 308/3/3 307/3/3
f 312/3/3 308/3/3 311/3/3
f 313/3/3 310/3/3 309/3/3
f 314/3/3 310/3/3 313/3/3
f 319/3/3 316/3/3 315/3/3
f 320/3/3 316/3/3 319/3/3
f 321/3/3 318/3/3 317/3/3
f 322/3/3 318/3/3 321/3/3
f 327/3/3 324/3/3 323/3/3
f 328/3/3 324/3/3 327/3/3
f 329/3/3 324/3/3 328/3/3
f 331/3/3 326/3/3 325/3/3
f 332/3/3 326/3/3 331/3/3
f 336/1/3 332/1/3 331/1/3
f 336/1/3 331/1/3 330/1/3
f 337/1/3 332/1/3 336/1/3
f 338/1/3 332/1/3 337/1/3
f 339/3/3 335/3/3 334/3/3
f 339/3/3 334/3/3 333/3/3
f 340/3/3 335/3/3 339/3/3
f 341/3/3 338/3/3 337/3/3
f 342/3/3 338/3/3 341/3/3
f 345/3/3 344/3/3 343/3/3
f 346/3/3 344/3/3 345/3/3
f 351/3/3 348/3/3 347/3/3
f 352/3/3 348/3/3 351/3/3
f 353/3/3 350/3/3 349/3/3
f 354/3/3 350/3/3 353/3/3
f 357/3/3 356/3/3 355/3/3
f 358/3/3 356/3/3 357/3/3
f 359/3/4 360/3/4 361/3/4
f 361/3/4 360/3/4 362/3/4
f 363/3/4 364/3/4 365/3/4
f 365/3/4 364/3/4 366/3/4
f 367/3/4 368/3/4 369/3/4
f 369/3/4 368/3/4 370/3/4
f 371/3/4 372/3/4 373/3/4
f 373/3/4 372/3/4 374/3/4
f 375/3/4 376/3/4 377/3/4
f 377/3/4 376/3/4 378/3/4
f 379/3/4 380/3/4 381/3/4
f 381/3/4 380/3/4 382/3/4
f 383/3/4 384/3/4 385/3/4
f 385/3/4 384/3/4 386/3/4
f 387/3/4 388/3/4 389/3/4
f 389/3/4 388/3/4 390/3/4
f 390/3/4 388/3/4 391/3/4
f 389/1/4 390/1/4 392/1/4
f 392/1/4 390/1/4 393/1/4
f 394/1/4 395/1/4 396/1/4
f 396/1/4 395/1/4 397/1/4
f 396/3/4 397/3/4 399/3/4
f 397/3/4 398/3/4 399/3/4
f 399/3/4 398/3/4 400/3/4
f 401/3/4 402/3/4 403/3/4
f 403/3/4 402/3/4 404/3/4
f 405/3/4 406/3/4 407/3/4
f 407/3/4 406/3/4 408/3/4
f 409/3/4 410/3/4 411/3/4
f 411/3/4 410/3/4 412/3/4
f 413/3/4 414/3/4 415/3/4
f 415/3/4 414/3/4 416/3/4
f 417/3/4 418/3/4 422/3/4
f 422/3/4 418/3/4 423/3/4
f 419/3/4 420/3/4 424/3/4
f 424/3/4 420/3/4 425/3/4
f 421/1/4 422/1/4 426/1/4
f 426/1/4 422/1/4 427/1/4
f 428/1/4 429/1/4 430/1/4
f 430/1/4 429/1/4 431/1/4
f 431/3/4 432/3/4 435/3/4
f 435/3/4 432/3/4 436/3/4
f 433/3/4 434/3/4 437/3/4
f 437/3/4 434/3/4 438/3/4
f 439/3/4 440/3/4 443/3/4
f 443/3/4 440/3/4 444/3/4
f 441/3/4 442/3/4 446/3/4
f 446/3/4 442/3/4 447/3/4
f 448/1/4 449/1/4 450/1/4
f 450/1/4 449/1/4 451/1/4
f 445/1/4 446/1/4 454/1/4
f 446/1/4 447/1/4 454/1/4
f 454/1/4 447/1/4 455/1/4
f 455/1/4 447/1/4 456/1/4
f 452/3/4 453/3/4 457/3/4
f 457/3/4 453/3/4 458/3/4
f 455/3/4 456/3/4 459/3/4
f 459/3/4 456/3/4 460/3/4
f 461/3/4 462/3/4 463/3/4
f 463/3/4 462/3/4 464/3/4
f 465/3/4 466/3/4 469/3/4
f 469/3/4 466/3/4 470/3/4
f 467/3/4 468/3/4 471/3/4
f 471/3/4 468/3/4 472/3/4
f 473/3/4 474/3/4 475/3/4
f 475/3/4 474/3/4 476/3/4
f 479/3/5 478/3/5 477/3/5
f 480/3/5 478/3/5 479/3/5
f 483/3/5 482/3/5 481/3/5
f 484/3/5 482/3/5 483/3/5
f 489/3/5 486/3/5 485/3/5
f 490/3/5 486/3/5 489/3/5
f 491/3/5 488/3/5 487/3/5
f 492/3/5 488/3/5 491/3/5
f 497/3/5 494/3/5 493/3/5
f 498/3/5 494/3/5 497/3/5
f 499/3/5 496/3/5 495/3/5
f 500/3/5 496/3/5 499/3/5
f 505/3/5 502/3/5 501/3/5
f 506/3/5 502/3/5 505/3/5
f 507/3/5 504/3/5 503/3/5
f 508/3/5 504/3/5 507/3/5
f 513/3/5 510/3/5 509/3/5
f 514/3/5 510/3/5 513/3/5
f 515/3/5 512/3/5 511/3/5
f 516/3/5 512/3/5 515/3/5
f 521/3/5 518/3/5 517/3/5
f 522/3/5 518/3/5 521/3/5
f 523/3/5 520/3/5 519/3/5
f 524/3/5 520/3/5 523/3/5
f 528/1/5 526/1/5 525/1/5
f 529/1/5 526/1/5 528/1/5
f 531/1/5 528/1/5 527/1/5
f 531/1/5 530/1/5 529/1/5
f 531/1/5 529/1/5 528/1/5
f 532/1/5 530/1/5 531/1/5
f 534/1/5 532/1/5 531/1/5
f 535/1/5 532/1/5 534/1/5
f 537/3/5 534/3/5 533/3/5
f 538/1/5 535/1/5 534/1/5
f 538/3/5 534/3/5 537/3/5
f 539/1/5 535/1/5 538/1/5
f 540/1/5 535/1/5 539/1/5
f 541/3/5 536/3/5 535/3/5
f 541/1/5 535/1/5 540/1/5
f 542/3/5 536/3/5 541/3/5
f 544/1/5 540/1/5 539/1/5
f 545/1/5 540/1/5 544/1/5
f 547/1/5 544/1/5 543/1/5
f 547/1/5 546/1/5 545/1/5
f 547/1/5 545/1/5 544/1/5
f 548/1/5 546/1/5 547/1/5
f 549/1/5 546/1/5 548/1/5
f 550/1/5 546/1/5 549/1/5
f 551/1/5 549/1/5 548/1/5
f 552/1/5 549/1/5 551/1/5
f 557/2/5 554/2/5 553/2/5
f 558/2/5 554/2/5 557/2/5
f 559/2/5 556/2/5 555/2/5
f 560/2/5 556/2/5 559/2/5
f 561/3/5 558/3/5 557/3/5
f 562/3/5 558/3/5 561/3/5
f 563/3/5 560/3/5 559/3/5
f 564/3/5 560/3/5 563/3/5
f 569/3/5 566/3/5 565/3/5
f 570/3/5 566/3/5 569/3/5
f 571/3/5 568/3/5 567/3/5
f 572/3/5 568/3/5 571/3/5
f 577/2/5 574/2/5 573/2/5
f 578/2/5 574/2/5 577/2/5
f 579/2/5 576/2/5 575/2/5
f 580/2/5 576/2/5 579/2/5
f 585/3/5 582/3/5 581/3/5
f 586/3/5 582/3/5 585/3/5
f 587/3/5 584/3/5 583/3/5
f 588/3/5 584/3/5 587/3/5
f 589/1/5 587/1/5 586/1/5
f 590/1/5 587/1/5 589/1/5
f 595/3/5 592/3/5 591/3/5
f 596/3/5 592/3/5 595/3/5
f 597/3/5 594/3/5 593/3/5
f 598/3/5 594/3/5 597/3/5
f 601/3/5 600/3/5 599/3/5
f 602/3/5 600/3/5 601/3/5
f 603/3/6 604/3/6 605/3/6
f 605/3/6 604/3/6 606/3/6
f 607/3/6 608/3/6 609/3/6
f 609/3/6 608/3/6 610/3/6
f 611/3/6 612/3/6 615/3/6
f 615/3/6 612/3/6 616/3/6
f 613/3/6 614/3/6 617/3/6
f 617/3/6 614/3/6 618/3/6
f 619/3/6 620/3/6 623/3/6
f 623/3/6 620/3/6 624/3/6
f 621/3/6 622/3/6 625/3/6
f 625/3/6 622/3/6 626/3/6
f 627/3/6 628/3/6 631/3/6
f 631/3/6 628/3/6 632/3/6
f 629/3/6 630/3/6 633/3/6
f 633/3/6 630/3/6 634/3/6
f 635/3/6 636/3/6 639/3/6
f 639/3/6 636/3/6 640/3/6
f 637/3/6 638/3/6 641/3/6
f 641/3/6 638/3/6 642/3/6
f 643/1/6 644/1/6 646/1/6
f 646/1/6 644/1/6 647/1/6
f 645/1/6 646/1/6 649/1/6
f 647/1/6 648/1/6 649/1/6
f 646/1/6 647/1/6 649/1/6
f 649/1/6 648/1/6 650/1/6
f 649/1/6 650/1/6 651/1/6
f 651/1/6 650/1/6 652/1/6
f 652/1/6 650/1/6 653/1/6
f 653/1/6 650/1/6 654/1/6
f 652/1/6 653/1/6 656/1/6
f 656/1/6 653/1/6 657/1/6
f 655/1/6 656/1/6 659/1/6
f 657/1/6 658/1/6 659/1/6
f 656/1/6 657/1/6 659/1/6
f 659/1/6 658/1/6 660/1/6
f 659/1/6 660/1/6 662/1/6
f 662/1/6 660/1/6 663/1/6
f 663/1/6 660/1/6 664/1/6
f 664/1/6 660/1/6 665/1/6
f 661/3/6 662/3/6 667/3/6
f 667/3/6 662/3/6 668/3/6
f 663/1/6 664/1/6 669/1/6
f 669/1/6 664/1/6 670/1/6
f 665/3/6 666/3/6 671/3/6
f 671/3/6 666/3/6 672/3/6
f 673/3/6 674/3/6 677/3/6
f 677/3/6 674/3/6 678/3/6
f 675/3/6 676/3/6 679/3/6
f 679/3/6 676/3/6 680/3/6
f 681/2/6 682/2/6 685/2/6
f 685/2/6 682/2/6 686/2/6
f 683/2/6 684/2/6 687/2/6
f 687/2/6 684/2/6 688/2/6
f 689/3/6 690/3/6 693/3/6
f 693/3/6 690/3/6 694/3/6
f 691/3/6 692/3/6 695/3/6
f 695/3/6 692/3/6 696/3/6
f 697/3/6 698/3/6 701/3/6
f 701/3/6 698/3/6 702/3/6
f 699/3/6 700/3/6 703/3/6
f 703/3/6 700/3/6 704/3/6
f 705/3/6 706/3/6 709/3/6
f 709/3/6 706/3/6 710/3/6
f 707/3/6 708/3/6 711/3/6
f 711/3/6 708/3/6 712/3/6
f 713/3/6 714/3/6 717/3/6
f 717/3/6 714/3/6 718/3/6
f 715/3/6 716/3/6 719/3/6
f 719/3/6 716/3/6 720/3/6
f 721/3/6 722/3/6 725/3/6
f 722/1/6 723/1/6 726/1/6
f 725/3/6 722/3/6 726/3/6
f 723/3/6 724/3/6 727/3/6
f 726/1/6 723/1/6 727/1/6
f 727/3/6 724/3/6 728/3/6
f 729/3/6 730/3/6 731/3/6
f 731/3/6 730/3/6 732/3/6
