# Made in Blockbench 4.12.6
mtllib GarageDoor.mtl

o cuboid
v 3.0625 4.25 0.03125
v 3.0625 4.25 -0.03125
v 3.0625 0.125 0.03125
v 3.0625 0.125 -0.03125
v -3.0625 4.25 0.03125
v -3.0625 4.25 -0.03125
v -3.0625 0.125 0.03125
v -3.0625 0.125 -0.03125
v 3.0625 3.90625 -0.09375
v -3.0625 3.90625 -0.09375
v 3.0625 3.5625 -0.03125
v -3.0625 3.5625 -0.03125
v 3.0625 3.21875 -0.09375
v -3.0625 3.21875 -0.09375
v 3.0625 2.875 -0.03125
v -3.0625 2.875 -0.03125
v 3.0625 2.53125 -0.09375
v -3.0625 2.53125 -0.09375
v 3.0625 2.1875 -0.03125
v -3.0625 2.1875 -0.03125
v 3.0625 1.84375 -0.09375
v -3.0625 1.84375 -0.09375
v 3.0625 1.5 -0.03125
v -3.0625 1.5 -0.03125
v 3.0625 1.15625 -0.09375
v -3.0625 1.15625 -0.09375
v 3.0625 0.8125 -0.03125
v -3.0625 0.8125 -0.03125
v 3.0625 0.46875 -0.09375
v -3.0625 0.46875 -0.09375
v -3.0625 3.90625 0.03125
v -3.0625 3.5625 0.03125
v -3.0625 3.21875 0.03125
v -3.0625 2.875 0.03125
v -3.0625 2.53125 0.03125
v -3.0625 2.1875 0.03125
v -3.0625 1.84375 0.03125
v -3.0625 1.5 0.03125
v -3.0625 1.15625 0.03125
v -3.0625 0.8125 0.03125
v -3.0625 0.46875 0.03125
v 3.0625 3.90625 0.03125
v 3.0625 3.5625 0.03125
v 3.0625 3.21875 0.03125
v 3.0625 2.875 0.03125
v 3.0625 2.53125 0.03125
v 3.0625 2.1875 0.03125
v 3.0625 1.84375 0.03125
v 3.0625 1.5 0.03125
v 3.0625 1.15625 0.03125
v 3.0625 0.8125 0.03125
v 3.0625 0.46875 0.03125
vt 8 0.5
vt 8 0.5416666666666667
vt 0 0.5416666666666667
vt 0 0.5
vt 8 0.5
vt 8 0.5416666666666667
vt 0 0.5416666666666667
vt 0 0.5
vt 0 -7
vt 8 -7
vt 8 1
vt 0 1
vt 8 -7
vt 8 1
vt 0 1
vt 0 -7
vt 8 0.5
vt 8 0.5416666666666667
vt 0 0.5416666666666667
vt 0 0.5
vt 8 0.5
vt 8 0.5416666666666667
vt 0 0.5416666666666667
vt 0 0.5
vt 0 1
vt 0 0.9583333333333333
vt 8 0.9583333333333333
vt 8 1
vt 0 0.9583333333333333
vt 0 0.9166666666666666
vt 8 0.9166666666666666
vt 8 0.9583333333333333
vt 0 0.9166666666666666
vt 0 0.875
vt 8 0.875
vt 8 0.9166666666666666
vt 0 0.875
vt 0 0.8333333333333333
vt 8 0.8333333333333333
vt 8 0.875
vt 0 0.8333333333333333
vt 0 0.7916666666666666
vt 8 0.7916666666666666
vt 8 0.8333333333333333
vt 0 0.7916666666666666
vt 0 0.75
vt 8 0.75
vt 8 0.7916666666666666
vt 0 0.75
vt 0 0.7083333333333334
vt 8 0.7083333333333334
vt 8 0.75
vt 0 0.7083333333333334
vt 0 0.6666666666666667
vt 8 0.6666666666666667
vt 8 0.7083333333333334
vt 0 0.6666666666666667
vt 0 0.625
vt 8 0.625
vt 8 0.6666666666666667
vt 0 0.625
vt 0 0.5833333333333334
vt 8 0.5833333333333334
vt 8 0.625
vt 0 0.5833333333333334
vt 0 0.5416666666666667
vt 8 0.5416666666666667
vt 8 0.5833333333333334
vt 0 1
vt 0 0.9583333333333333
vt 8 0.9583333333333333
vt 8 1
vt 0 0.9583333333333333
vt 0 0.9166666666666666
vt 8 0.9166666666666666
vt 8 0.9583333333333333
vt 0 0.9166666666666666
vt 0 0.875
vt 8 0.875
vt 8 0.9166666666666666
vt 0 0.875
vt 0 0.8333333333333333
vt 8 0.8333333333333333
vt 8 0.875
vt 0 0.8333333333333333
vt 0 0.7916666666666666
vt 8 0.7916666666666666
vt 8 0.8333333333333333
vt 0 0.7916666666666666
vt 0 0.75
vt 8 0.75
vt 8 0.7916666666666666
vt 0 0.75
vt 0 0.7083333333333334
vt 8 0.7083333333333334
vt 8 0.75
vt 0 0.7083333333333334
vt 0 0.6666666666666667
vt 8 0.6666666666666667
vt 8 0.7083333333333334
vt 0 0.6666666666666667
vt 0 0.625
vt 8 0.625
vt 8 0.6666666666666667
vt 0 0.625
vt 0 0.5833333333333334
vt 8 0.5833333333333334
vt 8 0.625
vt 0 0.5833333333333334
vt 0 0.5416666666666667
vt 8 0.5416666666666667
vt 8 0.5833333333333334
vt 0 1
vt 0 0.9583333333333333
vt 8 0.9583333333333333
vt 8 1
vt 0 0.9583333333333333
vt 0 0.9166666666666666
vt 8 0.9166666666666666
vt 8 0.9583333333333333
vt 0 0.9166666666666666
vt 0 0.875
vt 8 0.875
vt 8 0.9166666666666666
vt 0 0.875
vt 0 0.8333333333333333
vt 8 0.8333333333333333
vt 8 0.875
vt 0 0.8333333333333333
vt 0 0.7916666666666666
vt 8 0.7916666666666666
vt 8 0.8333333333333333
vt 0 0.7916666666666666
vt 0 0.75
vt 8 0.75
vt 8 0.7916666666666666
vt 0 0.75
vt 0 0.7083333333333334
vt 8 0.7083333333333334
vt 8 0.75
vt 0 0.7083333333333334
vt 0 0.6666666666666667
vt 8 0.6666666666666667
vt 8 0.7083333333333334
vt 0 0.6666666666666667
vt 0 0.625
vt 8 0.625
vt 8 0.6666666666666667
vt 0 0.625
vt 0 0.5833333333333334
vt 8 0.5833333333333334
vt 8 0.625
vt 0 0.5833333333333334
vt 0 0.5416666666666667
vt 8 0.5416666666666667
vt 8 0.5833333333333334
vt 0 1
vt 0 0.9583333333333333
vt 8 0.9583333333333333
vt 8 1
vt 0 0.9583333333333333
vt 0 0.9166666666666666
vt 8 0.9166666666666666
vt 8 0.9583333333333333
vt 0 0.9166666666666666
vt 0 0.875
vt 8 0.875
vt 8 0.9166666666666666
vt 0 0.875
vt 0 0.8333333333333333
vt 8 0.8333333333333333
vt 8 0.875
vt 0 0.8333333333333333
vt 0 0.7916666666666666
vt 8 0.7916666666666666
vt 8 0.8333333333333333
vt 0 0.7916666666666666
vt 0 0.75
vt 8 0.75
vt 8 0.7916666666666666
vt 0 0.75
vt 0 0.7083333333333334
vt 8 0.7083333333333334
vt 8 0.75
vt 0 0.7083333333333334
vt 0 0.6666666666666667
vt 8 0.6666666666666667
vt 8 0.7083333333333334
vt 0 0.6666666666666667
vt 0 0.625
vt 8 0.625
vt 8 0.6666666666666667
vt 0 0.625
vt 0 0.5833333333333334
vt 8 0.5833333333333334
vt 8 0.625
vt 0 0.5833333333333334
vt 0 0.5416666666666667
vt 8 0.5416666666666667
vt 8 0.5833333333333334
vn 1 0 0
vn -1 0 0
vn 0 1 0
vn 0 -1 0
vn 0 0 1
vn 0 -0.17888543819998318 -0.9838699100999075
vn 0 0.17888543819998318 -0.9838699100999075
vn 0 -0.17888543819998318 -0.9838699100999075
vn 0 0.17888543819998318 -0.9838699100999075
vn 0 -0.17888543819998318 -0.9838699100999075
vn 0 0.17888543819998318 -0.9838699100999075
vn 0 -0.17888543819998318 -0.9838699100999075
vn 0 0.17888543819998318 -0.9838699100999075
vn 0 -0.17888543819998318 -0.9838699100999075
vn 0 0.17888543819998318 -0.9838699100999075
vn 0 -0.17888543819998318 -0.9838699100999075
vn 0 0.17888543819998318 -0.9838699100999075
vn -1 0 0
vn -1 0 0
vn -1 0 0
vn -1 0 0
vn -1 0 0
vn -1 0 0
vn -1 0 0
vn -1 0 0
vn -1 0 0
vn -1 0 0
vn -1 0 0
vn 0 0 1
vn 0 0 1
vn 0 0 1
vn 0 0 1
vn 0 0 1
vn 0 0 1
vn 0 0 1
vn 0 0 1
vn 0 0 1
vn 0 0 1
vn 0 0 1
vn 1 0 0
vn 1 0 0
vn 1 0 0
vn 1 0 0
vn 1 0 0
vn 1 0 0
vn 1 0 0
vn 1 0 0
vn 1 0 0
vn 1 0 0
vn 1 0 0
usemtl none
f 4/1/1 29/2/1 52/3/1 3/4/1
f 7/5/2 41/6/2 30/7/2 8/8/2
f 5/9/3 1/10/3 2/11/3 6/12/3
f 4/13/4 3/14/4 7/15/4 8/16/4
f 3/17/5 52/18/5 41/19/5 7/20/5
f 8/21/6 30/22/6 29/23/6 4/24/6
f 2/25/7 9/26/7 10/27/7 6/28/7
f 9/29/8 11/30/8 12/31/8 10/32/8
f 11/33/9 13/34/9 14/35/9 12/36/9
f 13/37/10 15/38/10 16/39/10 14/40/10
f 15/41/11 17/42/11 18/43/11 16/44/11
f 17/45/12 19/46/12 20/47/12 18/48/12
f 19/49/13 21/50/13 22/51/13 20/52/13
f 21/53/14 23/54/14 24/55/14 22/56/14
f 23/57/15 25/58/15 26/59/15 24/60/15
f 25/61/16 27/62/16 28/63/16 26/64/16
f 27/65/17 29/66/17 30/67/17 28/68/17
f 6/69/18 10/70/18 31/71/18 5/72/18
f 10/73/19 12/74/19 32/75/19 31/76/19
f 12/77/20 14/78/20 33/79/20 32/80/20
f 14/81/21 16/82/21 34/83/21 33/84/21
f 16/85/22 18/86/22 35/87/22 34/88/22
f 18/89/23 20/90/23 36/91/23 35/92/23
f 20/93/24 22/94/24 37/95/24 36/96/24
f 22/97/25 24/98/25 38/99/25 37/100/25
f 24/101/26 26/102/26 39/103/26 38/104/26
f 26/105/27 28/106/27 40/107/27 39/108/27
f 28/109/28 30/110/28 41/111/28 40/112/28
f 5/113/29 31/114/29 42/115/29 1/116/29
f 31/117/30 32/118/30 43/119/30 42/120/30
f 32/121/31 33/122/31 44/123/31 43/124/31
f 33/125/32 34/126/32 45/127/32 44/128/32
f 34/129/33 35/130/33 46/131/33 45/132/33
f 35/133/34 36/134/34 47/135/34 46/136/34
f 36/137/35 37/138/35 48/139/35 47/140/35
f 37/141/36 38/142/36 49/143/36 48/144/36
f 38/145/37 39/146/37 50/147/37 49/148/37
f 39/149/38 40/150/38 51/151/38 50/152/38
f 40/153/39 41/154/39 52/155/39 51/156/39
f 1/157/40 42/158/40 9/159/40 2/160/40
f 42/161/41 43/162/41 11/163/41 9/164/41
f 43/165/42 44/166/42 13/167/42 11/168/42
f 44/169/43 45/170/43 15/171/43 13/172/43
f 45/173/44 46/174/44 17/175/44 15/176/44
f 46/177/45 47/178/45 19/179/45 17/180/45
f 47/181/46 48/182/46 21/183/46 19/184/46
f 48/185/47 49/186/47 23/187/47 21/188/47
f 49/189/48 50/190/48 25/191/48 23/192/48
f 50/193/49 51/194/49 27/195/49 25/196/49
f 51/197/50 52/198/50 29/199/50 27/200/50
o cuboid
v 3.0625 4.5 0.0625
v 3.0625 4.5 -0.1875
v 3.0625 4 0.0625
v 3.0625 4 -0.0625
v -3.0625 4.5 0.0625
v -3.0625 4.5 -0.1875
v -3.0625 4 0.0625
v -3.0625 4 -0.0625
v 3.0625 4.125 -0.1875
v -3.0625 4.125 -0.1875
v -3.0625 4.125 0.0625
v 3.0625 4.125 0.0625
vt 8 0.5
vt 8 0.625
vt 0 0.625
vt 0 0.5
vt 8 0.5
vt 8 0.625
vt 0 0.625
vt 0 0.5
vt 0 -7
vt 8 -7
vt 8 1
vt 0 1
vt 8 -7
vt 8 1
vt 0 1
vt 0 -7
vt 8 0.5
vt 8 0.625
vt 0 0.625
vt 0 0.5
vt 8 0.5
vt 8 0.625
vt 0 0.625
vt 0 0.5
vt 0 1
vt 0 0.625
vt 8 0.625
vt 8 1
vt 0 1
vt 0 0.625
vt 8 0.625
vt 8 1
vt 0 1
vt 0 0.625
vt 8 0.625
vt 8 1
vt 0 1
vt 0 0.625
vt 8 0.625
vt 8 1
vn 1 0 0
vn -1 0 0
vn 0 1 0
vn 0 -1 0
vn 0 0 1
vn 0 -0.7071067811865476 -0.7071067811865476
vn 0 0 -1
vn -1 0 0
vn 0 0 1
vn 1 0 0
usemtl none
f 56/201/51 61/202/51 64/203/51 55/204/51
f 59/205/52 63/206/52 62/207/52 60/208/52
f 57/209/53 53/210/53 54/211/53 58/212/53
f 56/213/54 55/214/54 59/215/54 60/216/54
f 55/217/55 64/218/55 63/219/55 59/220/55
f 60/221/56 62/222/56 61/223/56 56/224/56
f 54/225/57 61/226/57 62/227/57 58/228/57
f 58/229/58 62/230/58 63/231/58 57/232/58
f 57/233/59 63/234/59 64/235/59 53/236/59
f 53/237/60 64/238/60 61/239/60 54/240/60