# MagicaVoxel @ Ephtracy

# group
o 

# material
mtllib Bin0.mtl
usemtl palette

# normals
vn -1 0 0
vn 1 0 0
vn 0 0 1
vn 0 0 -1
vn 0 -1 0
vn 0 1 0

# texcoords
vt 0.00976562 0.5
vt 0.0136719 0.5
vt 0.0410156 0.5
vt 0.0488281 0.5
vt 0.0800781 0.5
vt 0.150391 0.5
vt 0.240234 0.5

# verts
v 0.6 0 0.4
v 0.6 0 -0.4
v 0.6 0.5 0.4
v 0.6 0.5 0.3
v 0.6 0.5 -0.3
v 0.6 0.5 -0.4
v 0.6 0.6 0.3
v 0.6 0.6 -0.3
v 0.7 0.5 0.4
v 0.7 0.5 0.3
v 0.7 0.5 -0.3
v 0.7 0.5 -0.4
v 0.7 0.6 0.4
v 0.7 0.6 0.3
v 0.7 0.6 -0.3
v 0.7 0.6 -0.4
v 0.7 0.7 0.3
v 0.7 0.7 -0.3
v 0.8 0.2 0.2
v 0.8 0.2 0.1
v 0.8 0.2 -0.2
v 0.8 0.2 -0.3
v 0.8 0.3 0.3
v 0.8 0.3 0.2
v 0.8 0.3 0.1
v 0.8 0.3 -0.2
v 0.8 0.3 -0.3
v 0.8 0.4 0.3
v 0.8 0.4 0.2
v 0.9 0.2 0
v 0.9 0.2 -0.1
v 0.9 0.3 0
v 0.9 0.3 -0.1
v 0.9 0.7 0.1
v 0.9 0.7 -0.1
v 0.9 0.8 0.1
v 0.9 0.8 -0.1
v 1 0.2 0.3
v 1 0.2 0.2
v 1 0.2 0.1
v 1 0.2 0
v 1 0.3 0.2
v 1 0.3 0.1
v 1 0.3 0
v 1 0.3 -0.1
v 1 0.3 -0.2
v 1 0.3 -0.3
v 1 0.4 0.3
v 1 0.4 0.1
v 1 0.4 -0.1
v 1 0.4 -0.3
v 0.7 0.2 0.2
v 0.7 0.2 0.1
v 0.7 0.2 -0.2
v 0.7 0.2 -0.3
v 0.7 0.3 0.3
v 0.7 0.3 0.2
v 0.7 0.3 0.1
v 0.7 0.3 -0.1
v 0.7 0.3 -0.2
v 0.7 0.4 -0.1
v 0.7 0.4 -0.2
v 0.7 0.5 0.3
v 0.7 0.5 -0.3
v 0.7 0.6 0.3
v 0.7 0.6 -0.3
v 0.8 0.2 0
v 0.8 0.2 -0.1
v 0.8 0.3 0
v 0.8 0.3 -0.1
v 0.8 0.3 -0.2
v 0.8 0.4 -0.1
v 0.8 0.4 -0.2
v 0.9 0.2 0.3
v 0.9 0.2 0.2
v 0.9 0.2 0.1
v 0.9 0.2 0
v 0.9 0.3 0.3
v 0.9 0.3 0.2
v 0.9 0.3 0.1
v 0.9 0.3 0
v 0.9 0.4 0.3
v 0.9 0.4 0.2
v 0.9 0.5 0.4
v 0.9 0.5 0.3
v 0.9 0.5 -0.3
v 0.9 0.5 -0.4
v 0.9 0.6 0.4
v 0.9 0.6 0.3
v 0.9 0.6 -0.3
v 0.9 0.6 -0.4
v 1 0.4 0.4
v 1 0.4 0.3
v 1 0.4 -0.3
v 1 0.4 -0.4
v 1 0.5 0.4
v 1 0.5 0.3
v 1 0.5 -0.3
v 1 0.5 -0.4
v 1 0.6 0.3
v 1 0.6 -0.3
v 1 0.7 0.3
v 1 0.7 0.1
v 1 0.7 -0.1
v 1 0.7 -0.3
v 1 0.8 0.1
v 1 0.8 -0.1
v 1.1 0 0.4
v 1.1 0 -0.4
v 1.1 0.3 0.1
v 1.1 0.3 -0.1
v 1.1 0.4 0.4
v 1.1 0.4 0.1
v 1.1 0.4 -0.1
v 1.1 0.4 -0.4
v 0.6 0 0.4
v 0.6 0.5 0.4
v 0.7 0.5 0.4
v 0.7 0.6 0.4
v 0.9 0.5 0.4
v 0.9 0.6 0.4
v 1 0.4 0.4
v 1 0.5 0.4
v 1.1 0 0.4
v 1.1 0.4 0.4
v 0.6 0.5 0.3
v 0.6 0.6 0.3
v 0.7 0.5 0.3
v 0.7 0.6 0.3
v 0.7 0.7 0.3
v 0.9 0.6 0.3
v 1 0.6 0.3
v 1 0.7 0.3
v 0.9 0.2 0.2
v 0.9 0.3 0.2
v 1 0.2 0.2
v 1 0.3 0.2
v 0.7 0.2 0.1
v 0.7 0.3 0.1
v 0.8 0.2 0.1
v 0.8 0.3 0.1
v 0.9 0.7 0.1
v 0.9 0.8 0.1
v 1 0.7 0.1
v 1 0.8 0.1
v 0.9 0.2 0
v 0.9 0.3 0
v 1 0.2 0
v 1 0.3 0
v 0.7 0.3 -0.1
v 0.7 0.4 -0.1
v 0.8 0.2 -0.1
v 0.8 0.3 -0.1
v 0.8 0.4 -0.1
v 0.9 0.2 -0.1
v 0.9 0.3 -0.1
v 1 0.3 -0.1
v 1 0.4 -0.1
v 1.1 0.3 -0.1
v 1.1 0.4 -0.1
v 0.7 0.2 -0.3
v 0.7 0.5 -0.3
v 0.7 0.6 -0.3
v 0.8 0.2 -0.3
v 0.8 0.3 -0.3
v 0.9 0.3 -0.3
v 0.9 0.5 -0.3
v 0.9 0.6 -0.3
v 1 0.3 -0.3
v 1 0.4 -0.3
v 1 0.5 -0.3
v 0.7 0.3 0.3
v 0.7 0.5 0.3
v 0.7 0.6 0.3
v 0.8 0.3 0.3
v 0.8 0.4 0.3
v 0.9 0.2 0.3
v 0.9 0.3 0.3
v 0.9 0.4 0.3
v 0.9 0.5 0.3
v 0.9 0.6 0.3
v 1 0.2 0.3
v 1 0.4 0.3
v 1 0.5 0.3
v 0.7 0.2 0.2
v 0.7 0.3 0.2
v 0.8 0.2 0.2
v 0.8 0.3 0.2
v 0.8 0.4 0.2
v 0.9 0.3 0.2
v 0.9 0.4 0.2
v 0.9 0.2 0.1
v 0.9 0.3 0.1
v 1 0.2 0.1
v 1 0.3 0.1
v 1 0.4 0.1
v 1.1 0.3 0.1
v 1.1 0.4 0.1
v 0.8 0.2 0
v 0.8 0.3 0
v 0.9 0.2 0
v 0.9 0.3 0
v 0.9 0.7 -0.1
v 0.9 0.8 -0.1
v 1 0.7 -0.1
v 1 0.8 -0.1
v 0.7 0.2 -0.2
v 0.7 0.3 -0.2
v 0.7 0.4 -0.2
v 0.8 0.2 -0.2
v 0.8 0.3 -0.2
v 0.8 0.4 -0.2
v 0.6 0.5 -0.3
v 0.6 0.6 -0.3
v 0.7 0.5 -0.3
v 0.7 0.6 -0.3
v 0.7 0.7 -0.3
v 0.9 0.6 -0.3
v 1 0.6 -0.3
v 1 0.7 -0.3
v 0.6 0 -0.4
v 0.6 0.5 -0.4
v 0.7 0.5 -0.4
v 0.7 0.6 -0.4
v 0.9 0.5 -0.4
v 0.9 0.6 -0.4
v 1 0.4 -0.4
v 1 0.5 -0.4
v 1.1 0 -0.4
v 1.1 0.4 -0.4
v 0.6 0 0.4
v 1.1 0 0.4
v 0.7 0 0.3
v 1 0 0.3
v 0.7 0 -0.3
v 1 0 -0.3
v 0.6 0 -0.4
v 1.1 0 -0.4
v 0.7 0.6 0.3
v 0.9 0.6 0.3
v 1 0.6 0.3
v 0.7 0.6 -0.3
v 0.9 0.6 -0.3
v 1 0.6 -0.3
v 0.9 0.2 0.3
v 1 0.2 0.3
v 0.7 0.2 0.2
v 0.8 0.2 0.2
v 0.9 0.2 0.2
v 1 0.2 0.2
v 0.7 0.2 0.1
v 0.8 0.2 0.1
v 0.9 0.2 0.1
v 1 0.2 0.1
v 0.8 0.2 0
v 0.9 0.2 0
v 1 0.2 0
v 0.8 0.2 -0.1
v 0.9 0.2 -0.1
v 0.7 0.2 -0.2
v 0.8 0.2 -0.2
v 0.7 0.2 -0.3
v 0.8 0.2 -0.3
v 0.7 0.3 0.3
v 0.8 0.3 0.3
v 0.7 0.3 0.2
v 0.8 0.3 0.2
v 0.9 0.3 0.2
v 1 0.3 0.2
v 0.7 0.3 0.1
v 0.8 0.3 0.1
v 0.9 0.3 0.1
v 1 0.3 0.1
v 1.1 0.3 0.1
v 0.8 0.3 0
v 0.9 0.3 0
v 1 0.3 0
v 0.7 0.3 -0.1
v 0.8 0.3 -0.1
v 0.9 0.3 -0.1
v 1 0.3 -0.1
v 1.1 0.3 -0.1
v 0.8 0.3 -0.2
v 0.9 0.3 -0.2
v 1 0.3 -0.2
v 0.8 0.3 -0.3
v 0.9 0.3 -0.3
v 1 0.3 -0.3
v 1 0.4 0.4
v 1.1 0.4 0.4
v 0.8 0.4 0.3
v 0.9 0.4 0.3
v 1 0.4 0.3
v 0.8 0.4 0.2
v 0.9 0.4 0.2
v 1 0.4 0.1
v 1.1 0.4 0.1
v 0.7 0.4 -0.1
v 0.8 0.4 -0.1
v 1 0.4 -0.1
v 1.1 0.4 -0.1
v 0.7 0.4 -0.2
v 0.8 0.4 -0.2
v 1 0.4 -0.3
v 1 0.4 -0.4
v 1.1 0.4 -0.4
v 0.6 0.5 0.4
v 0.7 0.5 0.4
v 0.9 0.5 0.4
v 1 0.5 0.4
v 0.6 0.5 0.3
v 0.7 0.5 0.3
v 0.9 0.5 0.3
v 1 0.5 0.3
v 0.6 0.5 -0.3
v 0.7 0.5 -0.3
v 0.9 0.5 -0.3
v 1 0.5 -0.3
v 0.6 0.5 -0.4
v 0.7 0.5 -0.4
v 0.9 0.5 -0.4
v 1 0.5 -0.4
v 0.7 0.6 0.4
v 0.9 0.6 0.4
v 0.6 0.6 0.3
v 0.7 0.6 0.3
v 0.9 0.6 0.3
v 0.6 0.6 -0.3
v 0.7 0.6 -0.3
v 0.9 0.6 -0.3
v 0.7 0.6 -0.4
v 0.9 0.6 -0.4
v 0.7 0.7 0.3
v 1 0.7 0.3
v 0.9 0.7 0.1
v 1 0.7 0.1
v 0.9 0.7 -0.1
v 1 0.7 -0.1
v 0.7 0.7 -0.3
v 1 0.7 -0.3
v 0.9 0.8 0.1
v 1 0.8 0.1
v 0.9 0.8 -0.1
v 1 0.8 -0.1

# faces
f 3/6/1 2/6/1 1/6/1
f 4/6/1 2/6/1 3/6/1
f 5/6/1 2/6/1 4/6/1
f 6/6/1 2/6/1 5/6/1
f 7/2/1 5/2/1 4/2/1
f 8/2/1 5/2/1 7/2/1
f 13/6/1 10/6/1 9/6/1
f 14/6/1 10/6/1 13/6/1
f 15/6/1 12/6/1 11/6/1
f 16/6/1 12/6/1 15/6/1
f 17/2/1 15/2/1 14/2/1
f 18/2/1 15/2/1 17/2/1
f 24/4/1 20/4/1 19/4/1
f 25/4/1 20/4/1 24/4/1
f 26/6/1 22/6/1 21/6/1
f 27/6/1 22/6/1 26/6/1
f 28/7/1 24/7/1 23/7/1
f 29/7/1 24/7/1 28/7/1
f 32/4/1 31/4/1 30/4/1
f 33/4/1 31/4/1 32/4/1
f 36/2/1 35/2/1 34/2/1
f 37/2/1 35/2/1 36/2/1
f 42/6/1 39/6/1 38/6/1
f 43/6/1 41/6/1 40/6/1
f 44/6/1 41/6/1 43/6/1
f 48/6/1 42/6/1 38/6/1
f 48/6/1 43/6/1 42/6/1
f 49/6/1 43/6/1 48/6/1
f 50/6/1 47/6/1 46/6/1
f 50/6/1 46/6/1 45/6/1
f 51/6/1 47/6/1 50/6/1
f 52/6/2 53/6/2 57/6/2
f 57/6/2 53/6/2 58/6/2
f 54/6/2 55/6/2 60/6/2
f 58/6/2 59/6/2 61/6/2
f 56/6/2 57/6/2 61/6/2
f 57/6/2 58/6/2 61/6/2
f 60/6/2 55/6/2 62/6/2
f 56/6/2 61/6/2 63/6/2
f 61/6/2 62/6/2 63/6/2
f 62/6/2 55/6/2 64/6/2
f 63/6/2 62/6/2 64/6/2
f 63/2/2 64/2/2 65/2/2
f 65/2/2 64/2/2 66/2/2
f 67/6/2 68/6/2 69/6/2
f 69/6/2 68/6/2 70/6/2
f 70/4/2 71/4/2 72/4/2
f 72/4/2 71/4/2 73/4/2
f 74/6/2 75/6/2 78/6/2
f 78/6/2 75/6/2 79/6/2
f 76/4/2 77/4/2 80/4/2
f 80/4/2 77/4/2 81/4/2
f 78/7/2 79/7/2 82/7/2
f 82/7/2 79/7/2 83/7/2
f 84/6/2 85/6/2 88/6/2
f 88/6/2 85/6/2 89/6/2
f 86/6/2 87/6/2 90/6/2
f 90/6/2 87/6/2 91/6/2
f 92/6/2 93/6/2 96/6/2
f 96/6/2 93/6/2 97/6/2
f 94/6/2 95/6/2 98/6/2
f 98/6/2 95/6/2 99/6/2
f 100/2/2 101/2/2 102/2/2
f 102/2/2 101/2/2 103/2/2
f 103/2/2 101/2/2 104/2/2
f 104/2/2 101/2/2 105/2/2
f 103/2/2 104/2/2 106/2/2
f 106/2/2 104/2/2 107/2/2
f 108/6/2 109/6/2 110/6/2
f 110/6/2 109/6/2 111/6/2
f 108/6/2 110/6/2 112/6/2
f 112/6/2 110/6/2 113/6/2
f 111/6/2 109/6/2 114/6/2
f 114/6/2 109/6/2 115/6/2
f 118/6/3 117/6/3 116/6/3
f 120/6/3 118/6/3 116/6/3
f 120/6/3 119/6/3 118/6/3
f 121/6/3 119/6/3 120/6/3
f 122/6/3 120/6/3 116/6/3
f 123/6/3 120/6/3 122/6/3
f 124/6/3 122/6/3 116/6/3
f 125/6/3 122/6/3 124/6/3
f 128/2/3 127/2/3 126/2/3
f 129/2/3 127/2/3 128/2/3
f 131/2/3 130/2/3 129/2/3
f 132/2/3 130/2/3 131/2/3
f 133/2/3 130/2/3 132/2/3
f 136/5/3 135/5/3 134/5/3
f 137/5/3 135/5/3 136/5/3
f 140/6/3 139/6/3 138/6/3
f 141/6/3 139/6/3 140/6/3
f 144/2/3 143/2/3 142/2/3
f 145/2/3 143/2/3 144/2/3
f 148/4/3 147/4/3 146/4/3
f 149/4/3 147/4/3 148/4/3
f 153/4/3 151/4/3 150/4/3
f 154/4/3 151/4/3 153/4/3
f 155/7/3 153/7/3 152/7/3
f 156/7/3 153/7/3 155/7/3
f 159/6/3 158/6/3 157/6/3
f 160/6/3 158/6/3 159/6/3
f 164/6/3 162/6/3 161/6/3
f 164/6/3 163/6/3 162/6/3
f 165/6/3 163/6/3 164/6/3
f 166/6/3 163/6/3 165/6/3
f 167/6/3 163/6/3 166/6/3
f 168/6/3 163/6/3 167/6/3
f 169/6/3 167/6/3 166/6/3
f 170/6/3 167/6/3 169/6/3
f 171/6/3 167/6/3 170/6/3
f 172/6/4 173/6/4 175/6/4
f 173/6/4 174/6/4 175/6/4
f 175/6/4 174/6/4 176/6/4
f 176/6/4 174/6/4 179/6/4
f 179/6/4 174/6/4 180/6/4
f 180/6/4 174/6/4 181/6/4
f 177/6/4 178/6/4 182/6/4
f 178/6/4 179/6/4 182/6/4
f 179/6/4 180/6/4 182/6/4
f 182/6/4 180/6/4 183/6/4
f 183/6/4 180/6/4 184/6/4
f 185/5/4 186/5/4 187/5/4
f 187/5/4 186/5/4 188/5/4
f 188/7/4 189/7/4 190/7/4
f 190/7/4 189/7/4 191/7/4
f 192/5/4 193/5/4 194/5/4
f 194/5/4 193/5/4 195/5/4
f 195/6/4 196/6/4 197/6/4
f 197/6/4 196/6/4 198/6/4
f 199/4/4 200/4/4 201/4/4
f 201/4/4 200/4/4 202/4/4
f 203/2/4 204/2/4 205/2/4
f 205/2/4 204/2/4 206/2/4
f 207/5/4 208/5/4 210/5/4
f 208/4/4 209/4/4 211/4/4
f 210/5/4 208/5/4 211/5/4
f 211/4/4 209/4/4 212/4/4
f 213/2/4 214/2/4 215/2/4
f 215/2/4 214/2/4 216/2/4
f 216/2/4 217/2/4 218/2/4
f 218/2/4 217/2/4 219/2/4
f 219/2/4 217/2/4 220/2/4
f 221/6/4 222/6/4 223/6/4
f 221/6/4 223/6/4 225/6/4
f 223/6/4 224/6/4 225/6/4
f 225/6/4 224/6/4 226/6/4
f 221/6/4 225/6/4 227/6/4
f 227/6/4 225/6/4 228/6/4
f 221/6/4 227/6/4 229/6/4
f 229/6/4 227/6/4 230/6/4
f 233/6/5 232/6/5 231/6/5
f 234/6/5 232/6/5 233/6/5
f 235/6/5 233/6/5 231/6/5
f 235/1/5 234/1/5 233/1/5
f 236/6/5 232/6/5 234/6/5
f 236/1/5 234/1/5 235/1/5
f 237/6/5 235/6/5 231/6/5
f 237/6/5 236/6/5 235/6/5
f 238/6/5 232/6/5 236/6/5
f 238/6/5 236/6/5 237/6/5
f 242/2/5 240/2/5 239/2/5
f 242/2/5 241/2/5 240/2/5
f 243/2/5 241/2/5 242/2/5
f 244/2/5 241/2/5 243/2/5
f 245/3/6 246/3/6 249/3/6
f 249/3/6 246/3/6 250/3/6
f 247/3/6 248/3/6 251/3/6
f 251/3/6 248/3/6 252/3/6
f 253/3/6 254/3/6 256/3/6
f 256/3/6 254/3/6 257/3/6
f 255/3/6 256/3/6 258/3/6
f 258/3/6 256/3/6 259/3/6
f 260/3/6 261/3/6 262/3/6
f 262/3/6 261/3/6 263/3/6
f 264/5/6 265/5/6 266/5/6
f 266/5/6 265/5/6 267/5/6
f 267/4/6 268/4/6 271/4/6
f 268/5/6 269/5/6 272/5/6
f 271/4/6 268/4/6 272/4/6
f 272/5/6 269/5/6 273/5/6
f 270/6/6 271/6/6 275/6/6
f 271/4/6 272/4/6 275/4/6
f 275/4/6 272/4/6 276/4/6
f 273/6/6 274/6/6 277/6/6
f 270/6/6 275/6/6 278/6/6
f 278/6/6 275/6/6 279/6/6
f 276/4/6 277/4/6 280/4/6
f 277/6/6 274/6/6 281/6/6
f 280/4/6 277/4/6 281/4/6
f 281/6/6 274/6/6 282/6/6
f 279/7/6 280/7/6 283/7/6
f 280/4/6 281/4/6 284/4/6
f 283/7/6 280/7/6 284/7/6
f 284/4/6 281/4/6 285/4/6
f 283/6/6 284/6/6 286/6/6
f 284/5/6 285/5/6 287/5/6
f 286/6/6 284/6/6 287/6/6
f 287/5/6 285/5/6 288/5/6
f 289/6/6 290/6/6 293/6/6
f 291/7/6 292/7/6 294/7/6
f 294/7/6 292/7/6 295/7/6
f 293/6/6 290/6/6 296/6/6
f 296/6/6 290/6/6 297/6/6
f 298/4/6 299/4/6 302/4/6
f 302/4/6 299/4/6 303/4/6
f 300/6/6 301/6/6 304/6/6
f 304/6/6 301/6/6 305/6/6
f 305/6/6 301/6/6 306/6/6
f 307/6/6 308/6/6 311/6/6
f 311/6/6 308/6/6 312/6/6
f 309/6/6 310/6/6 313/6/6
f 313/6/6 310/6/6 314/6/6
f 315/6/6 316/6/6 319/6/6
f 319/6/6 316/6/6 320/6/6
f 317/6/6 318/6/6 321/6/6
f 321/6/6 318/6/6 322/6/6
f 323/6/6 324/6/6 326/6/6
f 326/6/6 324/6/6 327/6/6
f 325/2/6 326/2/6 328/2/6
f 328/2/6 326/2/6 329/2/6
f 329/6/6 330/6/6 331/6/6
f 331/6/6 330/6/6 332/6/6
f 333/2/6 334/2/6 335/2/6
f 335/2/6 334/2/6 336/2/6
f 333/2/6 335/2/6 337/2/6
f 333/2/6 337/2/6 339/2/6
f 337/2/6 338/2/6 339/2/6
f 339/2/6 338/2/6 340/2/6
f 341/2/6 342/2/6 343/2/6
f 343/2/6 342/2/6 344/2/6
