# MagicaVoxel @ Ephtracy

# group
o 

# material
mtllib Bin0.mtl
usemtl palette

# normals
vn -1 0 0
vn 1 0 0
vn 0 0 1
vn 0 0 -1
vn 0 -1 0
vn 0 1 0

# texcoords
vt 0.0136719 0.5
vt 0.0410156 0.5
vt 0.0488281 0.5
vt 0.0800781 0.5
vt 0.150391 0.5
vt 0.154297 0.5
vt 0.240234 0.5

# verts
v -0.25 -0.4 0.4
v -0.25 -0.4 0.3
v -0.25 -0.4 0.2
v -0.25 -0.4 -0.2
v -0.25 -0.4 -0.3
v -0.25 -0.4 -0.4
v -0.25 0.1 0.4
v -0.25 0.1 0.3
v -0.25 0.1 0.2
v -0.25 0.1 -0.2
v -0.25 0.1 -0.3
v -0.25 0.1 -0.4
v -0.25 0.2 0.3
v -0.25 0.2 -0.3
v -0.15 0.1 0.4
v -0.15 0.1 0.3
v -0.15 0.1 -0.3
v -0.15 0.1 -0.4
v -0.15 0.2 0.4
v -0.15 0.2 0.3
v -0.15 0.2 -0.3
v -0.15 0.2 -0.4
v -0.15 0.3 0.3
v -0.15 0.3 -0.3
v -0.05 -0.2 0.2
v -0.05 -0.2 0.1
v -0.05 -0.2 -0.2
v -0.05 -0.2 -0.3
v -0.05 -0.1 0.3
v -0.05 -0.1 0.2
v -0.05 -0.1 0.1
v -0.05 -0.1 -0.2
v -0.05 -0.1 -0.3
v -0.05 0 0.3
v -0.05 0 0.2
v 0.05 -0.2 0
v 0.05 -0.2 -0.1
v 0.05 -0.1 0
v 0.05 -0.1 -0.1
v 0.05 0.3 0.1
v 0.05 0.3 -0.1
v 0.05 0.4 0.1
v 0.05 0.4 -0.1
v 0.15 -0.2 0.3
v 0.15 -0.2 0.2
v 0.15 -0.2 0.1
v 0.15 -0.2 0
v 0.15 -0.1 0.2
v 0.15 -0.1 0.1
v 0.15 -0.1 0
v 0.15 -0.1 -0.1
v 0.15 -0.1 -0.2
v 0.15 -0.1 -0.3
v 0.15 0 0.3
v 0.15 0 0.2
v 0.15 0 0.1
v 0.15 0 -0.1
v 0.15 0 -0.2
v 0.15 0 -0.3
v -0.15 -0.2 0.2
v -0.15 -0.2 0.1
v -0.15 -0.2 -0.2
v -0.15 -0.2 -0.3
v -0.15 -0.1 0.3
v -0.15 -0.1 0.2
v -0.15 -0.1 0.1
v -0.15 -0.1 -0.1
v -0.15 -0.1 -0.2
v -0.15 0 -0.1
v -0.15 0 -0.2
v -0.15 0.1 0.3
v -0.15 0.1 0.2
v -0.15 0.1 -0.2
v -0.15 0.1 -0.3
v -0.15 0.2 0.3
v -0.15 0.2 -0.3
v -0.05 -0.2 0
v -0.05 -0.2 -0.1
v -0.05 -0.1 0
v -0.05 -0.1 -0.1
v -0.05 -0.1 -0.2
v -0.05 0 -0.1
v -0.05 0 -0.2
v 0.05 -0.2 0.3
v 0.05 -0.2 0.2
v 0.05 -0.2 0.1
v 0.05 -0.2 0
v 0.05 -0.1 0.3
v 0.05 -0.1 0.2
v 0.05 -0.1 0.1
v 0.05 -0.1 0
v 0.05 0 0.3
v 0.05 0 0.2
v 0.05 0.1 0.4
v 0.05 0.1 0.3
v 0.05 0.1 -0.3
v 0.05 0.1 -0.4
v 0.05 0.2 0.4
v 0.05 0.2 0.3
v 0.05 0.2 -0.3
v 0.05 0.2 -0.4
v 0.15 0 0.4
v 0.15 0 0.3
v 0.15 0 -0.3
v 0.15 0 -0.4
v 0.15 0.1 0.4
v 0.15 0.1 0.3
v 0.15 0.1 -0.3
v 0.15 0.1 -0.4
v 0.15 0.2 0.3
v 0.15 0.2 -0.3
v 0.15 0.3 0.3
v 0.15 0.3 0.1
v 0.15 0.3 -0.1
v 0.15 0.3 -0.3
v 0.15 0.4 0.1
v 0.15 0.4 -0.1
v 0.25 -0.4 0.4
v 0.25 -0.4 0.3
v 0.25 -0.4 0.2
v 0.25 -0.4 -0.2
v 0.25 -0.4 -0.3
v 0.25 -0.4 -0.4
v 0.25 -0.1 0.1
v 0.25 -0.1 -0.1
v 0.25 0 0.4
v 0.25 0 0.3
v 0.25 0 0.2
v 0.25 0 0.1
v 0.25 0 -0.1
v 0.25 0 -0.2
v 0.25 0 -0.3
v 0.25 0 -0.4
v -0.25 -0.4 0.4
v -0.25 0.1 0.4
v -0.15 0.1 0.4
v -0.15 0.2 0.4
v 0.05 0.1 0.4
v 0.05 0.2 0.4
v 0.15 0 0.4
v 0.15 0.1 0.4
v 0.25 -0.4 0.4
v 0.25 0 0.4
v -0.25 0.1 0.3
v -0.25 0.2 0.3
v -0.15 0.1 0.3
v -0.15 0.2 0.3
v -0.15 0.3 0.3
v 0.05 0.2 0.3
v 0.15 0.2 0.3
v 0.15 0.3 0.3
v 0.05 -0.2 0.2
v 0.05 -0.1 0.2
v 0.15 -0.2 0.2
v 0.15 -0.1 0.2
v -0.15 -0.2 0.1
v -0.15 -0.1 0.1
v -0.05 -0.2 0.1
v -0.05 -0.1 0.1
v 0.05 0.3 0.1
v 0.05 0.4 0.1
v 0.15 0.3 0.1
v 0.15 0.4 0.1
v 0.05 -0.2 0
v 0.05 -0.1 0
v 0.15 -0.2 0
v 0.15 -0.1 0
v -0.15 -0.1 -0.1
v -0.15 0 -0.1
v -0.05 -0.2 -0.1
v -0.05 -0.1 -0.1
v -0.05 0 -0.1
v 0.05 -0.2 -0.1
v 0.05 -0.1 -0.1
v 0.15 -0.1 -0.1
v 0.15 0 -0.1
v 0.25 -0.1 -0.1
v 0.25 0 -0.1
v -0.15 -0.2 -0.3
v -0.15 0.1 -0.3
v -0.15 0.2 -0.3
v -0.05 -0.2 -0.3
v -0.05 -0.1 -0.3
v 0.05 -0.1 -0.3
v 0.05 0.1 -0.3
v 0.05 0.2 -0.3
v 0.15 -0.1 -0.3
v 0.15 0 -0.3
v 0.15 0.1 -0.3
v -0.15 -0.1 0.3
v -0.15 0.1 0.3
v -0.15 0.2 0.3
v -0.05 -0.1 0.3
v -0.05 0 0.3
v 0.05 -0.2 0.3
v 0.05 -0.1 0.3
v 0.05 0 0.3
v 0.05 0.1 0.3
v 0.05 0.2 0.3
v 0.15 -0.2 0.3
v 0.15 0 0.3
v 0.15 0.1 0.3
v -0.15 -0.2 0.2
v -0.15 -0.1 0.2
v -0.05 -0.2 0.2
v -0.05 -0.1 0.2
v -0.05 0 0.2
v 0.05 -0.1 0.2
v 0.05 0 0.2
v 0.05 -0.2 0.1
v 0.05 -0.1 0.1
v 0.15 -0.2 0.1
v 0.15 -0.1 0.1
v 0.15 0 0.1
v 0.25 -0.1 0.1
v 0.25 0 0.1
v -0.05 -0.2 0
v -0.05 -0.1 0
v 0.05 -0.2 0
v 0.05 -0.1 0
v 0.05 0.3 -0.1
v 0.05 0.4 -0.1
v 0.15 0.3 -0.1
v 0.15 0.4 -0.1
v -0.15 -0.2 -0.2
v -0.15 -0.1 -0.2
v -0.15 0 -0.2
v -0.05 -0.2 -0.2
v -0.05 -0.1 -0.2
v -0.05 0 -0.2
v -0.25 0.1 -0.3
v -0.25 0.2 -0.3
v -0.15 0.1 -0.3
v -0.15 0.2 -0.3
v -0.15 0.3 -0.3
v 0.05 0.2 -0.3
v 0.15 0.2 -0.3
v 0.15 0.3 -0.3
v -0.25 -0.4 -0.4
v -0.25 0.1 -0.4
v -0.15 0.1 -0.4
v -0.15 0.2 -0.4
v 0.05 0.1 -0.4
v 0.05 0.2 -0.4
v 0.15 0 -0.4
v 0.15 0.1 -0.4
v 0.25 -0.4 -0.4
v 0.25 0 -0.4
v -0.25 -0.4 0.4
v 0.25 -0.4 0.4
v -0.25 -0.4 0.3
v 0.25 -0.4 0.3
v -0.25 -0.4 0.2
v 0.25 -0.4 0.2
v -0.25 -0.4 -0.2
v 0.25 -0.4 -0.2
v -0.25 -0.4 -0.3
v 0.25 -0.4 -0.3
v -0.25 -0.4 -0.4
v 0.25 -0.4 -0.4
v -0.15 0.2 0.3
v 0.05 0.2 0.3
v 0.15 0.2 0.3
v -0.15 0.2 -0.3
v 0.05 0.2 -0.3
v 0.15 0.2 -0.3
v 0.05 -0.2 0.3
v 0.15 -0.2 0.3
v -0.15 -0.2 0.2
v -0.05 -0.2 0.2
v 0.05 -0.2 0.2
v 0.15 -0.2 0.2
v -0.15 -0.2 0.1
v -0.05 -0.2 0.1
v 0.05 -0.2 0.1
v 0.15 -0.2 0.1
v -0.05 -0.2 0
v 0.05 -0.2 0
v 0.15 -0.2 0
v -0.05 -0.2 -0.1
v 0.05 -0.2 -0.1
v -0.15 -0.2 -0.2
v -0.05 -0.2 -0.2
v -0.15 -0.2 -0.3
v -0.05 -0.2 -0.3
v -0.15 -0.1 0.3
v -0.05 -0.1 0.3
v -0.15 -0.1 0.2
v -0.05 -0.1 0.2
v 0.05 -0.1 0.2
v 0.15 -0.1 0.2
v -0.15 -0.1 0.1
v -0.05 -0.1 0.1
v 0.05 -0.1 0.1
v 0.15 -0.1 0.1
v 0.25 -0.1 0.1
v -0.05 -0.1 0
v 0.05 -0.1 0
v 0.15 -0.1 0
v -0.15 -0.1 -0.1
v -0.05 -0.1 -0.1
v 0.05 -0.1 -0.1
v 0.15 -0.1 -0.1
v 0.25 -0.1 -0.1
v -0.05 -0.1 -0.2
v 0.05 -0.1 -0.2
v 0.15 -0.1 -0.2
v -0.05 -0.1 -0.3
v 0.05 -0.1 -0.3
v 0.15 -0.1 -0.3
v 0.15 0 0.4
v 0.25 0 0.4
v -0.05 0 0.3
v 0.05 0 0.3
v 0.15 0 0.3
v 0.25 0 0.3
v -0.05 0 0.2
v 0.05 0 0.2
v 0.15 0 0.2
v 0.25 0 0.2
v 0.15 0 0.1
v 0.25 0 0.1
v -0.15 0 -0.1
v -0.05 0 -0.1
v 0.15 0 -0.1
v 0.25 0 -0.1
v -0.15 0 -0.2
v -0.05 0 -0.2
v 0.15 0 -0.2
v 0.25 0 -0.2
v 0.15 0 -0.3
v 0.25 0 -0.3
v 0.15 0 -0.4
v 0.25 0 -0.4
v -0.25 0.1 0.4
v -0.15 0.1 0.4
v 0.05 0.1 0.4
v 0.15 0.1 0.4
v -0.25 0.1 0.3
v -0.15 0.1 0.3
v 0.05 0.1 0.3
v 0.15 0.1 0.3
v -0.25 0.1 -0.3
v -0.15 0.1 -0.3
v 0.05 0.1 -0.3
v 0.15 0.1 -0.3
v -0.25 0.1 -0.4
v -0.15 0.1 -0.4
v 0.05 0.1 -0.4
v 0.15 0.1 -0.4
v -0.15 0.2 0.4
v 0.05 0.2 0.4
v -0.25 0.2 0.3
v -0.15 0.2 0.3
v 0.05 0.2 0.3
v -0.25 0.2 -0.3
v -0.15 0.2 -0.3
v 0.05 0.2 -0.3
v -0.15 0.2 -0.4
v 0.05 0.2 -0.4
v -0.15 0.3 0.3
v 0.15 0.3 0.3
v 0.05 0.3 0.1
v 0.15 0.3 0.1
v 0.05 0.3 -0.1
v 0.15 0.3 -0.1
v -0.15 0.3 -0.3
v 0.15 0.3 -0.3
v 0.05 0.4 0.1
v 0.15 0.4 0.1
v 0.05 0.4 -0.1
v 0.15 0.4 -0.1

# faces
f 7/5/1 2/5/1 1/5/1
f 8/6/1 3/6/1 2/6/1
f 8/5/1 2/5/1 7/5/1
f 9/5/1 4/5/1 3/5/1
f 9/6/1 3/6/1 8/6/1
f 10/6/1 5/6/1 4/6/1
f 10/5/1 4/5/1 9/5/1
f 11/5/1 6/5/1 5/5/1
f 11/6/1 5/6/1 10/6/1
f 12/5/1 6/5/1 11/5/1
f 13/1/1 10/1/1 9/1/1
f 13/1/1 11/1/1 10/1/1
f 13/1/1 9/1/1 8/1/1
f 14/1/1 11/1/1 13/1/1
f 19/5/1 16/5/1 15/5/1
f 20/5/1 16/5/1 19/5/1
f 21/5/1 18/5/1 17/5/1
f 22/5/1 18/5/1 21/5/1
f 23/1/1 21/1/1 20/1/1
f 24/1/1 21/1/1 23/1/1
f 30/3/1 26/3/1 25/3/1
f 31/3/1 26/3/1 30/3/1
f 32/5/1 28/5/1 27/5/1
f 33/5/1 28/5/1 32/5/1
f 34/7/1 30/7/1 29/7/1
f 35/7/1 30/7/1 34/7/1
f 38/3/1 37/3/1 36/3/1
f 39/3/1 37/3/1 38/3/1
f 42/1/1 41/1/1 40/1/1
f 43/1/1 41/1/1 42/1/1
f 48/6/1 45/6/1 44/6/1
f 49/5/1 47/5/1 46/5/1
f 50/5/1 47/5/1 49/5/1
f 54/6/1 48/6/1 44/6/1
f 55/5/1 49/5/1 48/5/1
f 55/6/1 48/6/1 54/6/1
f 56/5/1 49/5/1 55/5/1
f 57/5/1 52/5/1 51/5/1
f 58/6/1 53/6/1 52/6/1
f 58/5/1 52/5/1 57/5/1
f 59/6/1 53/6/1 58/6/1
f 60/5/2 61/5/2 65/5/2
f 65/5/2 61/5/2 66/5/2
f 62/6/2 63/6/2 68/6/2
f 66/5/2 67/5/2 69/5/2
f 65/5/2 66/5/2 69/5/2
f 68/6/2 63/6/2 70/6/2
f 64/6/2 65/6/2 71/6/2
f 65/5/2 69/5/2 72/5/2
f 71/6/2 65/6/2 72/6/2
f 69/5/2 70/5/2 72/5/2
f 70/6/2 63/6/2 73/6/2
f 72/5/2 70/5/2 73/5/2
f 73/6/2 63/6/2 74/6/2
f 71/1/2 72/1/2 75/1/2
f 72/1/2 73/1/2 75/1/2
f 73/1/2 74/1/2 75/1/2
f 75/1/2 74/1/2 76/1/2
f 77/5/2 78/5/2 79/5/2
f 79/5/2 78/5/2 80/5/2
f 80/3/2 81/3/2 82/3/2
f 82/3/2 81/3/2 83/3/2
f 84/5/2 85/5/2 88/5/2
f 88/5/2 85/5/2 89/5/2
f 86/3/2 87/3/2 90/3/2
f 90/3/2 87/3/2 91/3/2
f 88/7/2 89/7/2 92/7/2
f 92/7/2 89/7/2 93/7/2
f 94/5/2 95/5/2 98/5/2
f 98/5/2 95/5/2 99/5/2
f 96/5/2 97/5/2 100/5/2
f 100/5/2 97/5/2 101/5/2
f 102/5/2 103/5/2 106/5/2
f 106/5/2 103/5/2 107/5/2
f 104/5/2 105/5/2 108/5/2
f 108/5/2 105/5/2 109/5/2
f 110/1/2 111/1/2 112/1/2
f 112/1/2 111/1/2 113/1/2
f 113/1/2 111/1/2 114/1/2
f 114/1/2 111/1/2 115/1/2
f 113/1/2 114/1/2 116/1/2
f 116/1/2 114/1/2 117/1/2
f 120/5/2 121/5/2 124/5/2
f 124/5/2 121/5/2 125/5/2
f 118/5/2 119/5/2 126/5/2
f 119/6/2 120/6/2 127/6/2
f 126/5/2 119/5/2 127/5/2
f 120/5/2 124/5/2 128/5/2
f 127/6/2 120/6/2 128/6/2
f 128/5/2 124/5/2 129/5/2
f 125/5/2 121/5/2 130/5/2
f 121/6/2 122/6/2 131/6/2
f 130/5/2 121/5/2 131/5/2
f 122/5/2 123/5/2 132/5/2
f 131/6/2 122/6/2 132/6/2
f 132/5/2 123/5/2 133/5/2
f 136/5/3 135/5/3 134/5/3
f 138/5/3 136/5/3 134/5/3
f 138/5/3 137/5/3 136/5/3
f 139/5/3 137/5/3 138/5/3
f 140/5/3 138/5/3 134/5/3
f 141/5/3 138/5/3 140/5/3
f 142/5/3 140/5/3 134/5/3
f 143/5/3 140/5/3 142/5/3
f 146/1/3 145/1/3 144/1/3
f 147/1/3 145/1/3 146/1/3
f 149/1/3 148/1/3 147/1/3
f 150/1/3 148/1/3 149/1/3
f 151/1/3 148/1/3 150/1/3
f 154/4/3 153/4/3 152/4/3
f 155/4/3 153/4/3 154/4/3
f 158/5/3 157/5/3 156/5/3
f 159/5/3 157/5/3 158/5/3
f 162/1/3 161/1/3 160/1/3
f 163/1/3 161/1/3 162/1/3
f 166/3/3 165/3/3 164/3/3
f 167/3/3 165/3/3 166/3/3
f 171/3/3 169/3/3 168/3/3
f 172/3/3 169/3/3 171/3/3
f 173/7/3 171/7/3 170/7/3
f 174/7/3 171/7/3 173/7/3
f 177/5/3 176/5/3 175/5/3
f 178/5/3 176/5/3 177/5/3
f 182/5/3 180/5/3 179/5/3
f 182/5/3 181/5/3 180/5/3
f 183/5/3 181/5/3 182/5/3
f 184/5/3 181/5/3 183/5/3
f 185/5/3 181/5/3 184/5/3
f 186/5/3 181/5/3 185/5/3
f 187/5/3 185/5/3 184/5/3
f 188/5/3 185/5/3 187/5/3
f 189/5/3 185/5/3 188/5/3
f 190/5/4 191/5/4 193/5/4
f 191/5/4 192/5/4 193/5/4
f 193/5/4 192/5/4 194/5/4
f 194/5/4 192/5/4 197/5/4
f 197/5/4 192/5/4 198/5/4
f 198/5/4 192/5/4 199/5/4
f 195/5/4 196/5/4 200/5/4
f 196/5/4 197/5/4 200/5/4
f 197/5/4 198/5/4 200/5/4
f 200/5/4 198/5/4 201/5/4
f 201/5/4 198/5/4 202/5/4
f 203/4/4 204/4/4 205/4/4
f 205/4/4 204/4/4 206/4/4
f 206/7/4 207/7/4 208/7/4
f 208/7/4 207/7/4 209/7/4
f 210/4/4 211/4/4 212/4/4
f 212/4/4 211/4/4 213/4/4
f 213/5/4 214/5/4 215/5/4
f 215/5/4 214/5/4 216/5/4
f 217/3/4 218/3/4 219/3/4
f 219/3/4 218/3/4 220/3/4
f 221/1/4 222/1/4 223/1/4
f 223/1/4 222/1/4 224/1/4
f 225/4/4 226/4/4 228/4/4
f 226/3/4 227/3/4 229/3/4
f 228/4/4 226/4/4 229/4/4
f 229/3/4 227/3/4 230/3/4
f 231/1/4 232/1/4 233/1/4
f 233/1/4 232/1/4 234/1/4
f 234/1/4 235/1/4 236/1/4
f 236/1/4 235/1/4 237/1/4
f 237/1/4 235/1/4 238/1/4
f 239/5/4 240/5/4 241/5/4
f 239/5/4 241/5/4 243/5/4
f 241/5/4 242/5/4 243/5/4
f 243/5/4 242/5/4 244/5/4
f 239/5/4 243/5/4 245/5/4
f 245/5/4 243/5/4 246/5/4
f 239/5/4 245/5/4 247/5/4
f 247/5/4 245/5/4 248/5/4
f 251/5/5 250/5/5 249/5/5
f 252/5/5 250/5/5 251/5/5
f 253/6/5 252/6/5 251/6/5
f 254/6/5 252/6/5 253/6/5
f 255/5/5 254/5/5 253/5/5
f 256/5/5 254/5/5 255/5/5
f 257/6/5 256/6/5 255/6/5
f 258/6/5 256/6/5 257/6/5
f 259/5/5 258/5/5 257/5/5
f 260/5/5 258/5/5 259/5/5
f 264/1/5 262/1/5 261/1/5
f 264/1/5 263/1/5 262/1/5
f 265/1/5 263/1/5 264/1/5
f 266/1/5 263/1/5 265/1/5
f 267/2/6 268/2/6 271/2/6
f 271/2/6 268/2/6 272/2/6
f 269/2/6 270/2/6 273/2/6
f 273/2/6 270/2/6 274/2/6
f 275/2/6 276/2/6 278/2/6
f 278/2/6 276/2/6 279/2/6
f 277/2/6 278/2/6 280/2/6
f 280/2/6 278/2/6 281/2/6
f 282/2/6 283/2/6 284/2/6
f 284/2/6 283/2/6 285/2/6
f 286/4/6 287/4/6 288/4/6
f 288/4/6 287/4/6 289/4/6
f 289/3/6 290/3/6 293/3/6
f 290/4/6 291/4/6 294/4/6
f 293/3/6 290/3/6 294/3/6
f 294/4/6 291/4/6 295/4/6
f 292/5/6 293/5/6 297/5/6
f 293/3/6 294/3/6 297/3/6
f 297/3/6 294/3/6 298/3/6
f 295/5/6 296/5/6 299/5/6
f 292/5/6 297/5/6 300/5/6
f 300/5/6 297/5/6 301/5/6
f 298/3/6 299/3/6 302/3/6
f 299/5/6 296/5/6 303/5/6
f 302/3/6 299/3/6 303/3/6
f 303/5/6 296/5/6 304/5/6
f 301/7/6 302/7/6 305/7/6
f 302/3/6 303/3/6 306/3/6
f 305/7/6 302/7/6 306/7/6
f 306/3/6 303/3/6 307/3/6
f 305/5/6 306/5/6 308/5/6
f 306/4/6 307/4/6 309/4/6
f 308/5/6 306/5/6 309/5/6
f 309/4/6 307/4/6 310/4/6
f 311/5/6 312/5/6 315/5/6
f 315/5/6 312/5/6 316/5/6
f 313/7/6 314/7/6 317/7/6
f 317/7/6 314/7/6 318/7/6
f 315/6/6 316/6/6 319/6/6
f 319/6/6 316/6/6 320/6/6
f 319/5/6 320/5/6 321/5/6
f 321/5/6 320/5/6 322/5/6
f 323/3/6 324/3/6 327/3/6
f 327/3/6 324/3/6 328/3/6
f 325/5/6 326/5/6 329/5/6
f 329/5/6 326/5/6 330/5/6
f 329/6/6 330/6/6 331/6/6
f 331/6/6 330/6/6 332/6/6
f 331/5/6 332/5/6 333/5/6
f 333/5/6 332/5/6 334/5/6
f 335/5/6 336/5/6 339/5/6
f 339/5/6 336/5/6 340/5/6
f 337/5/6 338/5/6 341/5/6
f 341/5/6 338/5/6 342/5/6
f 343/5/6 344/5/6 347/5/6
f 347/5/6 344/5/6 348/5/6
f 345/5/6 346/5/6 349/5/6
f 349/5/6 346/5/6 350/5/6
f 351/5/6 352/5/6 354/5/6
f 354/5/6 352/5/6 355/5/6
f 353/1/6 354/1/6 356/1/6
f 356/1/6 354/1/6 357/1/6
f 357/5/6 358/5/6 359/5/6
f 359/5/6 358/5/6 360/5/6
f 361/1/6 362/1/6 363/1/6
f 363/1/6 362/1/6 364/1/6
f 361/1/6 363/1/6 365/1/6
f 361/1/6 365/1/6 367/1/6
f 365/1/6 366/1/6 367/1/6
f 367/1/6 366/1/6 368/1/6
f 369/1/6 370/1/6 371/1/6
f 371/1/6 370/1/6 372/1/6
