# MagicaVoxel @ Ephtracy

# group
o 

# material
mtllib ElectricPanel.mtl
usemtl palette

# normals
vn -1 0 0
vn 1 0 0
vn 0 0 1
vn 0 0 -1
vn 0 -1 0
vn 0 1 0

# texcoords
vt 0.00976562 0.5
vt 0.0175781 0.5
vt 0.0214844 0.5

# verts
v -0.3 0.2 0
v -0.3 0.2 -0.1
v -0.3 0.4 0
v -0.3 0.4 -0.1
v -0.3 0.6 0
v -0.3 0.6 -0.1
v -0.3 0.8 0
v -0.3 0.8 -0.1
v -0.2 -0.4 0
v -0.2 -0.4 -0.1
v -0.2 -0.3 0
v -0.2 -0.3 -0.1
v -0.2 0.1 0
v -0.2 0.1 -0.1
v -0.2 0.2 0
v -0.2 0.2 -0.1
v -0.2 0.4 0
v -0.2 0.4 -0.1
v -0.2 0.6 0
v -0.2 0.6 -0.1
v -0.2 0.8 0
v -0.2 0.8 -0.1
v -0.2 0.9 0
v -0.2 0.9 -0.1
v -0.1 -1 0
v -0.1 -1 -0.1
v -0.1 -0.4 0
v -0.1 -0.4 -0.1
v -0.1 -0.3 0
v -0.1 -0.3 -0.1
v -0.1 0.1 0
v -0.1 0.1 -0.1
v 0.1 -0.3 0
v 0.1 -0.3 -0.1
v 0.1 -0.2 0
v 0.1 -0.2 -0.1
v 0.1 -0.1 0
v 0.1 -0.1 -0.1
v 0.1 0.1 0
v 0.1 0.1 -0.1
v 0 -1 0
v 0 -1 -0.1
v 0 -0.2 0
v 0 -0.2 -0.1
v 0 -0.1 0
v 0 -0.1 -0.1
v 0 0.1 0
v 0 0.1 -0.1
v 0.2 -0.3 0
v 0.2 -0.3 -0.1
v 0.2 0.1 0
v 0.2 0.1 -0.1
v 0.3 0.1 0
v 0.3 0.1 -0.1
v 0.3 0.2 0
v 0.3 0.2 -0.1
v 0.3 0.3 0
v 0.3 0.3 -0.1
v 0.3 0.7 0
v 0.3 0.7 -0.1
v 0.3 0.8 0
v 0.3 0.8 -0.1
v 0.3 0.9 0
v 0.3 0.9 -0.1
v -0.3 0.2 0
v -0.3 0.4 0
v -0.3 0.6 0
v -0.3 0.8 0
v -0.2 -0.4 0
v -0.2 -0.3 0
v -0.2 0.1 0
v -0.2 0.2 0
v -0.2 0.4 0
v -0.2 0.6 0
v -0.2 0.8 0
v -0.2 0.9 0
v -0.1 -1 0
v -0.1 -0.4 0
v -0.1 -0.3 0
v -0.1 0.1 0
v 0 -1 0
v 0 -0.2 0
v 0 -0.1 0
v 0 0.1 0
v 0.1 -0.3 0
v 0.1 -0.2 0
v 0.1 -0.1 0
v 0.1 0.1 0
v 0.2 -0.3 0
v 0.2 0.1 0
v 0.2 0.2 0
v 0.2 0.3 0
v 0.2 0.7 0
v 0.2 0.8 0
v 0.3 0.1 0
v 0.3 0.2 0
v 0.3 0.3 0
v 0.3 0.7 0
v 0.3 0.8 0
v 0.3 0.9 0
v -0.3 0.2 -0.1
v -0.3 0.4 -0.1
v -0.3 0.6 -0.1
v -0.3 0.8 -0.1
v -0.2 -0.4 -0.1
v -0.2 -0.3 -0.1
v -0.2 0.1 -0.1
v -0.2 0.2 -0.1
v -0.2 0.4 -0.1
v -0.2 0.6 -0.1
v -0.2 0.8 -0.1
v -0.2 0.9 -0.1
v -0.1 -1 -0.1
v -0.1 -0.4 -0.1
v -0.1 -0.3 -0.1
v -0.1 0.1 -0.1
v 0 -1 -0.1
v 0 -0.2 -0.1
v 0 -0.1 -0.1
v 0 0.1 -0.1
v 0.1 -0.3 -0.1
v 0.1 -0.2 -0.1
v 0.1 -0.1 -0.1
v 0.1 0.1 -0.1
v 0.2 -0.3 -0.1
v 0.2 0.1 -0.1
v 0.2 0.2 -0.1
v 0.2 0.3 -0.1
v 0.2 0.7 -0.1
v 0.2 0.8 -0.1
v 0.3 0.1 -0.1
v 0.3 0.2 -0.1
v 0.3 0.3 -0.1
v 0.3 0.7 -0.1
v 0.3 0.8 -0.1
v 0.3 0.9 -0.1
v -0.1 -1 0
v 0 -1 0
v -0.1 -1 -0.1
v 0 -1 -0.1
v -0.2 -0.4 0
v -0.1 -0.4 0
v -0.2 -0.4 -0.1
v -0.1 -0.4 -0.1
v 0.1 -0.3 0
v 0.2 -0.3 0
v 0.1 -0.3 -0.1
v 0.2 -0.3 -0.1
v 0 -0.2 0
v 0.1 -0.2 0
v 0 -0.2 -0.1
v 0.1 -0.2 -0.1
v -0.2 0.1 0
v -0.1 0.1 0
v 0 0.1 0
v 0.1 0.1 0
v 0.2 0.1 0
v 0.3 0.1 0
v -0.2 0.1 -0.1
v -0.1 0.1 -0.1
v 0 0.1 -0.1
v 0.1 0.1 -0.1
v 0.2 0.1 -0.1
v 0.3 0.1 -0.1
v -0.3 0.2 0
v -0.2 0.2 0
v -0.3 0.2 -0.1
v -0.2 0.2 -0.1
v -0.3 0.6 0
v -0.2 0.6 0
v -0.3 0.6 -0.1
v -0.2 0.6 -0.1
v -0.2 -0.3 0
v -0.1 -0.3 0
v -0.2 -0.3 -0.1
v -0.1 -0.3 -0.1
v 0 -0.1 0
v 0.1 -0.1 0
v 0 -0.1 -0.1
v 0.1 -0.1 -0.1
v -0.3 0.4 0
v -0.2 0.4 0
v -0.3 0.4 -0.1
v -0.2 0.4 -0.1
v -0.3 0.8 0
v -0.2 0.8 0
v -0.3 0.8 -0.1
v -0.2 0.8 -0.1
v -0.2 0.9 0
v 0.3 0.9 0
v -0.2 0.9 -0.1
v 0.3 0.9 -0.1

# faces
f 3/2/1 2/2/1 1/2/1
f 4/2/1 2/2/1 3/2/1
f 7/2/1 6/2/1 5/2/1
f 8/2/1 6/2/1 7/2/1
f 11/1/1 10/1/1 9/1/1
f 12/1/1 10/1/1 11/1/1
f 15/3/1 14/3/1 13/3/1
f 16/3/1 14/3/1 15/3/1
f 19/3/1 18/3/1 17/3/1
f 20/3/1 18/3/1 19/3/1
f 23/3/1 22/3/1 21/3/1
f 24/3/1 22/3/1 23/3/1
f 27/1/1 26/1/1 25/1/1
f 28/1/1 26/1/1 27/1/1
f 31/1/1 30/1/1 29/1/1
f 32/1/1 30/1/1 31/1/1
f 35/1/1 34/1/1 33/1/1
f 36/1/1 34/1/1 35/1/1
f 39/1/1 38/1/1 37/1/1
f 40/1/1 38/1/1 39/1/1
f 41/1/2 42/1/2 43/1/2
f 43/1/2 42/1/2 44/1/2
f 45/1/2 46/1/2 47/1/2
f 47/1/2 46/1/2 48/1/2
f 49/1/2 50/1/2 51/1/2
f 51/1/2 50/1/2 52/1/2
f 53/3/2 54/3/2 55/3/2
f 55/3/2 54/3/2 56/3/2
f 55/2/2 56/2/2 57/2/2
f 57/2/2 56/2/2 58/2/2
f 57/3/2 58/3/2 59/3/2
f 59/3/2 58/3/2 60/3/2
f 59/2/2 60/2/2 61/2/2
f 61/2/2 60/2/2 62/2/2
f 61/3/2 62/3/2 63/3/2
f 63/3/2 62/3/2 64/3/2
f 72/2/3 66/2/3 65/2/3
f 73/2/3 66/2/3 72/2/3
f 74/2/3 68/2/3 67/2/3
f 75/2/3 68/2/3 74/2/3
f 78/1/3 70/1/3 69/1/3
f 79/1/3 70/1/3 78/1/3
f 80/3/3 76/3/3 75/3/3
f 80/3/3 73/3/3 72/3/3
f 80/3/3 72/3/3 71/3/3
f 80/3/3 74/3/3 73/3/3
f 80/3/3 75/3/3 74/3/3
f 81/1/3 79/1/3 78/1/3
f 81/1/3 80/1/3 79/1/3
f 81/1/3 78/1/3 77/1/3
f 82/1/3 80/1/3 81/1/3
f 83/1/3 80/1/3 82/1/3
f 84/3/3 76/3/3 80/3/3
f 84/1/3 80/1/3 83/1/3
f 86/1/3 83/1/3 82/1/3
f 87/1/3 83/1/3 86/1/3
f 88/3/3 76/3/3 84/3/3
f 89/1/3 87/1/3 86/1/3
f 89/1/3 88/1/3 87/1/3
f 89/1/3 86/1/3 85/1/3
f 90/3/3 76/3/3 88/3/3
f 90/1/3 88/1/3 89/1/3
f 91/3/3 76/3/3 90/3/3
f 92/3/3 76/3/3 91/3/3
f 93/3/3 76/3/3 92/3/3
f 94/3/3 76/3/3 93/3/3
f 95/3/3 91/3/3 90/3/3
f 96/2/3 92/2/3 91/2/3
f 96/3/3 91/3/3 95/3/3
f 97/3/3 93/3/3 92/3/3
f 97/2/3 92/2/3 96/2/3
f 98/2/3 94/2/3 93/2/3
f 98/3/3 93/3/3 97/3/3
f 99/3/3 76/3/3 94/3/3
f 99/2/3 94/2/3 98/2/3
f 100/3/3 76/3/3 99/3/3
f 101/2/4 102/2/4 108/2/4
f 108/2/4 102/2/4 109/2/4
f 103/2/4 104/2/4 110/2/4
f 110/2/4 104/2/4 111/2/4
f 105/1/4 106/1/4 114/1/4
f 114/1/4 106/1/4 115/1/4
f 111/3/4 112/3/4 116/3/4
f 108/3/4 109/3/4 116/3/4
f 107/3/4 108/3/4 116/3/4
f 109/3/4 110/3/4 116/3/4
f 110/3/4 111/3/4 116/3/4
f 114/1/4 115/1/4 117/1/4
f 115/1/4 116/1/4 117/1/4
f 113/1/4 114/1/4 117/1/4
f 117/1/4 116/1/4 118/1/4
f 118/1/4 116/1/4 119/1/4
f 116/3/4 112/3/4 120/3/4
f 119/1/4 116/1/4 120/1/4
f 118/1/4 119/1/4 122/1/4
f 122/1/4 119/1/4 123/1/4
f 120/3/4 112/3/4 124/3/4
f 122/1/4 123/1/4 125/1/4
f 123/1/4 124/1/4 125/1/4
f 121/1/4 122/1/4 125/1/4
f 124/3/4 112/3/4 126/3/4
f 125/1/4 124/1/4 126/1/4
f 126/3/4 112/3/4 127/3/4
f 127/3/4 112/3/4 128/3/4
f 128/3/4 112/3/4 129/3/4
f 129/3/4 112/3/4 130/3/4
f 126/3/4 127/3/4 131/3/4
f 127/2/4 128/2/4 132/2/4
f 131/3/4 127/3/4 132/3/4
f 128/3/4 129/3/4 133/3/4
f 132/2/4 128/2/4 133/2/4
f 129/2/4 130/2/4 134/2/4
f 133/3/4 129/3/4 134/3/4
f 130/3/4 112/3/4 135/3/4
f 134/2/4 130/2/4 135/2/4
f 135/3/4 112/3/4 136/3/4
f 139/1/5 138/1/5 137/1/5
f 140/1/5 138/1/5 139/1/5
f 143/1/5 142/1/5 141/1/5
f 144/1/5 142/1/5 143/1/5
f 147/1/5 146/1/5 145/1/5
f 148/1/5 146/1/5 147/1/5
f 151/1/5 150/1/5 149/1/5
f 152/1/5 150/1/5 151/1/5
f 159/3/5 154/3/5 153/3/5
f 160/3/5 154/3/5 159/3/5
f 161/3/5 156/3/5 155/3/5
f 162/3/5 156/3/5 161/3/5
f 163/3/5 158/3/5 157/3/5
f 164/3/5 158/3/5 163/3/5
f 167/2/5 166/2/5 165/2/5
f 168/2/5 166/2/5 167/2/5
f 171/2/5 170/2/5 169/2/5
f 172/2/5 170/2/5 171/2/5
f 173/1/6 174/1/6 175/1/6
f 175/1/6 174/1/6 176/1/6
f 177/1/6 178/1/6 179/1/6
f 179/1/6 178/1/6 180/1/6
f 181/2/6 182/2/6 183/2/6
f 183/2/6 182/2/6 184/2/6
f 185/2/6 186/2/6 187/2/6
f 187/2/6 186/2/6 188/2/6
f 189/3/6 190/3/6 191/3/6
f 191/3/6 190/3/6 192/3/6
