# Made in Blockbench 4.12.6
mtllib OfficeBuilding1_GroundFloor.mtl

o cuboid
v 2.8750000000000004 4.4375 -4
v 2.8750000000000004 4.4375 -4.125
v 2.8750000000000004 3.5625 -4
v 2.8750000000000004 3.5625 -4.125
v -2.8750000000000004 4.4375 -4
v -2.8750000000000004 4.4375 -4.125
v -2.8750000000000004 3.5625 -4
v -2.8750000000000004 3.5625 -4.125
vt 8 1
vt 0 1
vt 0 0.5
vt 8 0.5
vt 8 0.5
vt 8 1
vt 0 1
vt 0 0.5
vt 0 -7
vt 8 -7
vt 8 1
vt 0 1
vt 8 -7
vt 8 1
vt 0 1
vt 0 -7
vt 8 0.5
vt 8 1
vt 0 1
vt 0 0.5
vt 8 1
vt 0 1
vt 0 0.5
vt 8 0.5
vn 1 0 0
vn -1 0 0
vn 0 1 0
vn 0 -1 0
vn 0 0 1
vn 0 0 -1
usemtl none
f 2/1/1 1/2/1 3/3/1 4/4/1
f 7/5/2 5/6/2 6/7/2 8/8/2
f 5/9/3 1/10/3 2/11/3 6/12/3
f 4/13/4 3/14/4 7/15/4 8/16/4
f 3/17/5 1/18/5 5/19/5 7/20/5
f 6/21/6 2/22/6 4/23/6 8/24/6
o cuboid
v 3.25 8.0625 8.875
v 3.25 8.0625 -4.1875
v 3.25 0.0625 8.875
v 3.25 0.0625 -4.1875
v 3 8.0625 8.875
v 3 8.0625 -4.1875
v 3 0.0625 8.875
v 3 0.0625 -4.1875
vt 8 1
vt 0 1
vt 0 0.5
vt 8 0.5
vt 8 0.5
vt 8 1
vt 0 1
vt 0 0.5
vt 0 -7
vt 8 -7
vt 8 1
vt 0 1
vt 8 -7
vt 8 1
vt 0 1
vt 0 -7
vt 8 0.5
vt 8 1
vt 0 1
vt 0 0.5
vt 8 1
vt 0 1
vt 0 0.5
vt 8 0.5
vn 1 0 0
vn -1 0 0
vn 0 1 0
vn 0 -1 0
vn 0 0 1
vn 0 0 -1
usemtl none
f 10/25/7 9/26/7 11/27/7 12/28/7
f 15/29/8 13/30/8 14/31/8 16/32/8
f 13/33/9 9/34/9 10/35/9 14/36/9
f 12/37/10 11/38/10 15/39/10 16/40/10
f 11/41/11 9/42/11 13/43/11 15/44/11
f 14/45/12 10/46/12 12/47/12 16/48/12
o cuboid
v 3.25 0.5625 -4.125
v 3.25 0.5625 -9
v 3.25 0.0625 -4.125
v 3.25 0.0625 -9
v 2.375 0.5625 -4.125
v 2.375 0.5625 -9
v 2.375 0.0625 -4.125
v 2.375 0.0625 -9
vt 8 1
vt 0 1
vt 0 0.5
vt 8 0.5
vt 8 0.5
vt 8 1
vt 0 1
vt 0 0.5
vt 0 -7
vt 8 -7
vt 8 1
vt 0 1
vt 8 -7
vt 8 1
vt 0 1
vt 0 -7
vt 8 0.5
vt 8 1
vt 0 1
vt 0 0.5
vt 8 1
vt 0 1
vt 0 0.5
vt 8 0.5
vn 1 0 0
vn -1 0 0
vn 0 1 0
vn 0 -1 0
vn 0 0 1
vn 0 0 -1
usemtl none
f 18/49/13 17/50/13 19/51/13 20/52/13
f 23/53/14 21/54/14 22/55/14 24/56/14
f 21/57/15 17/58/15 18/59/15 22/60/15
f 20/61/16 19/62/16 23/63/16 24/64/16
f 19/65/17 17/66/17 21/67/17 23/68/17
f 22/69/18 18/70/18 20/71/18 24/72/18
o cuboid
v 3 8.0625 -4.187499999999999
v -2.875 8.0625 -4.187500000000001
v 3 4.0625 -4.187499999999999
v -2.875 4.0625 -4.187500000000001
v 3 8.0625 -3.937499999999999
v -2.875 8.0625 -3.937500000000001
v 3 4.0625 -3.937499999999999
v -2.875 4.0625 -3.937500000000001
vt 8 1
vt 0 1
vt 0 0.5
vt 8 0.5
vt 8 0.5
vt 8 1
vt 0 1
vt 0 0.5
vt 0 -7
vt 8 -7
vt 8 1
vt 0 1
vt 8 -7
vt 8 1
vt 0 1
vt 0 -7
vt 8 0.5
vt 8 1
vt 0 1
vt 0 0.5
vt 8 1
vt 0 1
vt 0 0.5
vt 8 0.5
vn 2.5039072470269487e-16 0 -1
vn -2.7873684448035843e-16 0 1
vn 0 1 0
vn 0 -1 0
vn 1 0 2.220446049250313e-16
vn -1 0 -2.220446049250313e-16
usemtl none
f 26/73/19 25/74/19 27/75/19 28/76/19
f 31/77/20 29/78/20 30/79/20 32/80/20
f 29/81/21 25/82/21 26/83/21 30/84/21
f 28/85/22 27/86/22 31/87/22 32/88/22
f 27/89/23 25/90/23 29/91/23 31/92/23
f 30/93/24 26/94/24 28/95/24 32/96/24
o cuboid
v -6.6875 0.5625 -8.375
v -2.8125 0.5625 -8.375
v -6.6875 0.0625 -8.375
v -2.8125 0.0625 -8.375
v -6.6875 0.5625 -10.375
v -2.8125000000000004 0.5625 -10.375
v -6.6875 0.0625 -10.375
v -2.8125000000000004 0.0625 -10.375
vt 8 1
vt 0 1
vt 0 0.5
vt 8 0.5
vt 8 0.5
vt 8 1
vt 0 1
vt 0 0.5
vt 0 -7
vt 8 -7
vt 8 1
vt 0 1
vt 8 -7
vt 8 1
vt 0 1
vt 0 -7
vt 8 0.5
vt 8 1
vt 0 1
vt 0 0.5
vt 8 1
vt 0 1
vt 0 0.5
vt 8 0.5
vn 2.220446049250313e-16 0 1
vn -2.220446049250313e-16 0 -1
vn 0 1 0
vn 0 -1 0
vn -1 0 2.220446049250313e-16
vn 1 0 -2.220446049250313e-16
usemtl none
f 34/97/25 33/98/25 35/99/25 36/100/25
f 39/101/26 37/102/26 38/103/26 40/104/26
f 37/105/27 33/106/27 34/107/27 38/108/27
f 36/109/28 35/110/28 39/111/28 40/112/28
f 35/113/29 33/114/29 37/115/29 39/116/29
f 38/117/30 34/118/30 36/119/30 40/120/30
o cuboid
v -2.8125 8.0625 -3.9375
v -2.8125 8.0625 -8
v -2.8125 0.0625 -3.9375
v -2.8125 0.0625 -8
v -3.0625 8.0625 -3.9375
v -3.0625 8.0625 -8
v -3.0625 0.0625 -3.9375
v -3.0625 0.0625 -8
vt 8 1
vt 0 1
vt 0 0.5
vt 8 0.5
vt 0 -7
vt 8 -7
vt 8 1
vt 0 1
vt 8 -7
vt 8 1
vt 0 1
vt 0 -7
vt 8 0.5
vt 8 1
vt 0 1
vt 0 0.5
vt 8 0.5
vt 8 1
vt 0 1
vt 0 0.5
vt 8 1
vt 0 1
vt 0 0.5
vt 8 0.5
vn 1 0 0
vn 0 1 0
vn 0 -1 0
vn -1 0 0
vn 0 0 1
vn 0 0 -1
usemtl none
f 42/121/31 41/122/31 43/123/31 44/124/31
f 45/125/32 41/126/32 42/127/32 46/128/32
f 44/129/33 43/130/33 47/131/33 48/132/33
f 47/133/34 45/134/34 46/135/34 48/136/34
f 43/137/35 41/138/35 45/139/35 47/140/35
f 46/141/36 42/142/36 44/143/36 48/144/36
o cuboid
v -9.812499999999998 8.0625 8.8125
v -9.812499999999998 8.0625 -8
v -9.812499999999998 0.0625 8.8125
v -9.812499999999998 0.0625 -8
v -10.062499999999998 8.0625 8.8125
v -10.062499999999998 8.0625 -8
v -10.062499999999998 0.0625 8.8125
v -10.062499999999998 0.0625 -8
vt 8 1
vt 0 1
vt 0 0.5
vt 8 0.5
vt 0 -7
vt 8 -7
vt 8 1
vt 0 1
vt 8 -7
vt 8 1
vt 0 1
vt 0 -7
vt 8 0.5
vt 8 1
vt 0 1
vt 0 0.5
vt 8 1
vt 0 1
vt 0 0.5
vt 8 0.5
vt 8 0.5
vt 8 1
vt 0 1
vt 0 0.5
vn 1 0 0
vn 0 1 0
vn 0 -1 0
vn 0 0 1
vn 0 0 -1
vn -1 0 0
usemtl none
f 50/145/37 49/146/37 51/147/37 52/148/37
f 53/149/38 49/150/38 50/151/38 54/152/38
f 52/153/39 51/154/39 55/155/39 56/156/39
f 51/157/40 49/158/40 53/159/40 55/160/40
f 54/161/41 50/162/41 52/163/41 56/164/41
f 55/165/42 53/166/42 54/167/42 56/168/42
o cuboid
v -9.812499999999998 8.0625 -7.437499999999999
v -3.0624999999999982 8.0625 -7.4375
v -9.812499999999998 0.0625 -7.437499999999999
v -3.0624999999999982 0.0625 -7.4375
v -9.812499999999998 8.0625 -7.687499999999999
v -3.0624999999999982 8.0625 -7.6875
v -9.812499999999998 0.0625 -7.687499999999999
v -3.0624999999999982 0.0625 -7.6875
vt 8 1
vt 0 1
vt 0 0.5
vt 8 0.5
vt 0 -7
vt 8 -7
vt 8 1
vt 0 1
vt 8 -7
vt 8 1
vt 0 1
vt 0 -7
vt 8 0.5
vt 8 1
vt 0 1
vt 0 0.5
vt 8 1
vt 0 1
vt 0 0.5
vt 8 0.5
vt 8 0.5
vt 8 1
vt 0 1
vt 0 0.5
vn 1.3774989379608423e-16 0 1
vn 0 1 0
vn 0 -1 0
vn -1 0 2.220446049250313e-16
vn 1 0 -2.220446049250313e-16
vn -1.644774851296528e-16 0 -1
usemtl none
f 58/169/43 57/170/43 59/171/43 60/172/43
f 61/173/44 57/174/44 58/175/44 62/176/44
f 60/177/45 59/178/45 63/179/45 64/180/45
f 59/181/46 57/182/46 61/183/46 63/184/46
f 62/185/47 58/186/47 60/187/47 64/188/47
f 63/189/48 61/190/48 62/191/48 64/192/48
o cuboid
v -9.812499999999998 8.0625 8.8125
v 3.0000000000000018 8.0625 8.8125
v -9.812499999999998 0.0625 8.8125
v 3.0000000000000018 0.0625 8.8125
v -9.812499999999998 8.0625 8.5625
v 3.0000000000000018 8.0625 8.5625
v -9.812499999999998 0.0625 8.5625
v 3.0000000000000018 0.0625 8.5625
vt 8 1
vt 0 1
vt 0 0.5
vt 8 0.5
vt 0 -7
vt 8 -7
vt 8 1
vt 0 1
vt 8 -7
vt 8 1
vt 0 1
vt 0 -7
vt 8 0.5
vt 8 1
vt 0 1
vt 0 0.5
vt 8 1
vt 0 1
vt 0 0.5
vt 8 0.5
vt 8 0.5
vt 8 1
vt 0 1
vt 0 0.5
vn 8.665155314147564e-17 0 1
vn 0 1 0
vn 0 -1 0
vn -1 0 2.220446049250313e-16
vn 1 0 -2.220446049250313e-16
vn -9.856614169842852e-17 0 -1
usemtl none
f 66/193/49 65/194/49 67/195/49 68/196/49
f 69/197/50 65/198/50 66/199/50 70/200/50
f 68/201/51 67/202/51 71/203/51 72/204/51
f 67/205/52 65/206/52 69/207/52 71/208/52
f 70/209/53 66/210/53 68/211/53 72/212/53
f 71/213/54 69/214/54 70/215/54 72/216/54
o cylinder
v 2.5 1.375 -9.5625
v 2.5 7.625 -9.5625
v 2.7512023679041775 1.375 -8.625
v 2.7512023679041775 7.625 -8.625
v 3.186297632095822 1.375 -8.876202367904177
v 3.186297632095822 7.625 -8.876202367904177
v 3.4375 1.375 -9.311297632095823
v 3.4375 7.625 -9.311297632095823
v 3.4375 1.375 -9.813702367904177
v 3.4375 7.625 -9.813702367904177
v 3.1862976320958225 1.375 -10.248797632095823
v 3.1862976320958225 7.625 -10.248797632095823
v 2.7512023679041775 1.375 -10.5
v 2.7512023679041775 7.625 -10.5
v 2.2487976320958225 1.375 -10.5
v 2.2487976320958225 7.625 -10.5
v 1.8137023679041775 1.375 -10.248797632095823
v 1.8137023679041775 7.625 -10.248797632095823
v 1.5625 1.375 -9.813702367904177
v 1.5625 7.625 -9.813702367904177
v 1.5624999999999998 1.375 -9.311297632095823
v 1.5624999999999998 7.625 -9.311297632095823
v 1.813702367904177 1.375 -8.876202367904177
v 1.813702367904177 7.625 -8.876202367904177
v 2.2487976320958225 1.375 -8.625
v 2.2487976320958225 7.625 -8.625
vt 4.141108992175662 -1.0705544960878304
vt 3.5862997534045493 1
vt 0 -1.0705544960878308
vt 0 0.5
vt 2.1435875 0.5
vt 2.1435875 1
vt 0 1
vt 2.220446049250313e-16 -3.14110394007915
vt 2.0705570221391683 -2.5863041286466912
vt 0 1
vt 4.14110394007915 -1.0705570221391678
vt 3.5863041286466912 1
vt 0 -1.0705570221391683
vt 0 0.5
vt 2.1435875 0.5
vt 2.1435875 1
vt 0 1
vt 4.440892098500626e-16 -3.1411089921756616
vt 2.070554496087831 -2.5862997534045493
vt 0 1
vt 4 -1.1435875000000002
vt 4 1
vt 0 -0.0717937500000001
vt 0 0.5
vt 2.1435875 0.5
vt 2.1435875 1
vt 0 1
vt 4 -1.1435875000000002
vt 4 1
vt 0 -0.0717937500000001
vt 4.440892098500626e-16 -3.1411089921756616
vt 2.070554496087831 -2.5862997534045493
vt 0 1
vt 0 0.5
vt 2.1435875 0.5
vt 2.1435875 1
vt 0 1
vt 4.14110394007915 -1.0705570221391678
vt 3.5863041286466912 1
vt 0 -1.0705570221391683
vt 2.220446049250313e-16 -3.14110394007915
vt 2.0705570221391683 -2.5863041286466912
vt 0 1
vt 0 0.5
vt 2.1435875 0.5
vt 2.1435875 1
vt 0 1
vt 4.141108992175662 -1.0705544960878304
vt 3.5862997534045493 1
vt 0 -1.0705544960878308
vt 0 -3
vt 2.1435875 -3
vt 1.07179375 1
vt 0 0.5
vt 2.1435875 0.5
vt 2.1435875 1
vt 0 1
vt 2.1435875 1
vt 0 1
vt 1.07179375 -3
vt 0 0.9999999999999996
vt 0.5548092387711123 -1.0705544960878308
vt 4.141108992175662 1
vt 0 0.5
vt 2.1435875 0.5
vt 2.1435875 1
vt 0 1
vt 2.070557022139168 1
vt 0 0.4452001885675414
vt 2.0705570221391683 -3.14110394007915
vt 0 0.9999999999999998
vt 0.5547998114324586 -1.0705570221391683
vt 4.14110394007915 1
vt 0 0.5
vt 2.1435875 0.5
vt 2.1435875 1
vt 0 1
vt 2.0705544960878304 1
vt 0 0.4451907612288877
vt 2.070554496087831 -3.1411089921756616
vt 0 1
vt 0 -1.1435875000000002
vt 4 -0.0717937500000001
vt 0 0.5
vt 2.1435875 0.5
vt 2.1435875 1
vt 0 1
vt 0 1
vt 0 -1.1435875000000002
vt 4 -0.0717937500000001
vt 2.0705544960878304 1
vt 0 0.4451907612288877
vt 2.070554496087831 -3.1411089921756616
vt 0 0.5
vt 2.1435875 0.5
vt 2.1435875 1
vt 0 1
vt 0 0.9999999999999998
vt 0.5547998114324586 -1.0705570221391683
vt 4.14110394007915 1
vt 2.070557022139168 1
vt 0 0.4452001885675414
vt 2.0705570221391683 -3.14110394007915
vt 0 0.5
vt 2.1435875 0.5
vt 2.1435875 1
vt 0 1
vt 0 0.9999999999999996
vt 0.5548092387711123 -1.0705544960878308
vt 4.141108992175662 1
vt 2.1435875 1
vt 0 1
vt 1.07179375 -3
vt 0 0.5
vt 2.1435875 0.5
vt 2.1435875 1
vt 0 1
vt 0 -3
vt 2.1435875 -3
vt 1.07179375 1
vn 0 -1 0
vn 0.4999999999999999 0 0.8660254037844389
vn 0 1 0
vn 0 -1 0
vn 0.8660254037844387 0 0.5
vn 0 1 0
vn 0 -1 0
vn 1 0 0
vn 0 1 0
vn 0 -1 0
vn 0.8660254037844389 0 -0.4999999999999999
vn 0 1 0
vn 0 -1 0
vn 0.49999999999999994 0 -0.8660254037844388
vn 0 1 0
vn 0 -1 0
vn 4.4196359846761376e-16 0 -1
vn 0 1 0
vn 0 -1 0
vn -0.4999999999999995 0 -0.8660254037844392
vn 0 1 0
vn 0 -1 0
vn -0.8660254037844392 0 -0.4999999999999995
vn 0 1 0
vn 0 -1 0
vn -1 0 -4.419635984676141e-16
vn 0 1 0
vn 0 -1 0
vn -0.866025403784439 0 0.49999999999999956
vn 0 1 0
vn 0 -1 0
vn -0.49999999999999983 0 0.8660254037844388
vn 0 1 0
vn 0 -1 0
vn 0 0 1
vn 0 1 0
usemtl none
f 77/217/55 75/218/55 73/219/55
f 75/220/56 77/221/56 78/222/56 76/223/56
f 76/224/57 78/225/57 74/226/57
f 79/227/58 77/228/58 73/229/58
f 77/230/59 79/231/59 80/232/59 78/233/59
f 78/234/60 80/235/60 74/236/60
f 81/237/61 79/238/61 73/239/61
f 79/240/62 81/241/62 82/242/62 80/243/62
f 80/244/63 82/245/63 74/246/63
f 83/247/64 81/248/64 73/249/64
f 81/250/65 83/251/65 84/252/65 82/253/65
f 82/254/66 84/255/66 74/256/66
f 85/257/67 83/258/67 73/259/67
f 83/260/68 85/261/68 86/262/68 84/263/68
f 84/264/69 86/265/69 74/266/69
f 87/267/70 85/268/70 73/269/70
f 85/270/71 87/271/71 88/272/71 86/273/71
f 86/274/72 88/275/72 74/276/72
f 89/277/73 87/278/73 73/279/73
f 87/280/74 89/281/74 90/282/74 88/283/74
f 88/284/75 90/285/75 74/286/75
f 91/287/76 89/288/76 73/289/76
f 89/290/77 91/291/77 92/292/77 90/293/77
f 90/294/78 92/295/78 74/296/78
f 93/297/79 91/298/79 73/299/79
f 91/300/80 93/301/80 94/302/80 92/303/80
f 92/304/81 94/305/81 74/306/81
f 95/307/82 93/308/82 73/309/82
f 93/310/83 95/311/83 96/312/83 94/313/83
f 94/314/84 96/315/84 74/316/84
f 97/317/85 95/318/85 73/319/85
f 95/320/86 97/321/86 98/322/86 96/323/86
f 96/324/87 98/325/87 74/326/87
f 75/327/88 97/328/88 73/329/88
f 97/330/89 75/331/89 76/332/89 98/333/89
f 98/334/90 76/335/90 74/336/90
o cuboid
v 3.1875 0.1875 -4.1875
v 3.1875 0.1875 -10.75
v 3.1875 0.0625 -4.1875
v 3.1875 0.0625 -10.75
v -10.375 0.1875 -4.1875
v -10.375 0.1875 -10.75
v -10.375 0.0625 -4.1875
v -10.375 0.0625 -10.75
vt 8 1
vt 0 1
vt 0 0.5
vt 8 0.5
vt 8 0.5
vt 8 1
vt 0 1
vt 0 0.5
vt 0 -7
vt 8 -7
vt 8 1
vt 0 1
vt 8 -7
vt 8 1
vt 0 1
vt 0 -7
vt 8 0.5
vt 8 1
vt 0 1
vt 0 0.5
vt 8 1
vt 0 1
vt 0 0.5
vt 8 0.5
vn 1 0 0
vn -1 0 0
vn 0 1 0
vn 0 -1 0
vn 0 0 1
vn 0 0 -1
usemtl none
f 100/337/91 99/338/91 101/339/91 102/340/91
f 105/341/92 103/342/92 104/343/92 106/344/92
f 103/345/93 99/346/93 100/347/93 104/348/93
f 102/349/94 101/350/94 105/351/94 106/352/94
f 101/353/95 99/354/95 103/355/95 105/356/95
f 104/357/96 100/358/96 102/359/96 106/360/96
o cylinder
v 2.5 0.0625 -9.5625
v 2.5 1.625 -9.5625
v 2.7679491924311224 0.0625 -8.5625
v 2.7679491924311224 1.625 -8.5625
v 3.2320508075688767 0.0625 -8.830449192431123
v 3.2320508075688767 1.625 -8.830449192431123
v 3.5 0.0625 -9.294550807568877
v 3.5 1.625 -9.294550807568877
v 3.5 0.0625 -9.830449192431123
v 3.5 1.625 -9.830449192431123
v 3.232050807568877 0.0625 -10.294550807568877
v 3.232050807568877 1.625 -10.294550807568877
v 2.767949192431123 0.0625 -10.5625
v 2.767949192431123 1.625 -10.5625
v 2.2320508075688776 0.0625 -10.5625
v 2.2320508075688776 1.625 -10.5625
v 1.7679491924311226 0.0625 -10.294550807568879
v 1.7679491924311226 1.625 -10.294550807568879
v 1.5000000000000002 0.0625 -9.830449192431123
v 1.5000000000000002 1.625 -9.830449192431123
v 1.4999999999999998 0.0625 -9.294550807568879
v 1.4999999999999998 1.625 -9.294550807568879
v 1.7679491924311224 0.0625 -8.830449192431123
v 1.7679491924311224 1.625 -8.830449192431123
v 2.232050807568877 0.0625 -8.5625
v 2.232050807568877 1.625 -8.5625
vt 4.141108992175662 -1.0705544960878304
vt 3.5862997534045493 1
vt 0 -1.0705544960878308
vt 0 0.5
vt 2.1435875 0.5
vt 2.1435875 1
vt 0 1
vt 2.220446049250313e-16 -3.14110394007915
vt 2.0705570221391683 -2.5863041286466912
vt 0 1
vt 4.14110394007915 -1.0705570221391678
vt 3.5863041286466912 1
vt 0 -1.0705570221391683
vt 0 0.5
vt 2.1435875 0.5
vt 2.1435875 1
vt 0 1
vt 4.440892098500626e-16 -3.1411089921756616
vt 2.070554496087831 -2.5862997534045493
vt 0 1
vt 4 -1.1435875000000002
vt 4 1
vt 0 -0.0717937500000001
vt 0 0.5
vt 2.1435875 0.5
vt 2.1435875 1
vt 0 1
vt 4 -1.1435875000000002
vt 4 1
vt 0 -0.0717937500000001
vt 4.440892098500626e-16 -3.1411089921756616
vt 2.070554496087831 -2.5862997534045493
vt 0 1
vt 0 0.5
vt 2.1435875 0.5
vt 2.1435875 1
vt 0 1
vt 4.14110394007915 -1.0705570221391678
vt 3.5863041286466912 1
vt 0 -1.0705570221391683
vt 2.220446049250313e-16 -3.14110394007915
vt 2.0705570221391683 -2.5863041286466912
vt 0 1
vt 0 0.5
vt 2.1435875 0.5
vt 2.1435875 1
vt 0 1
vt 4.141108992175662 -1.0705544960878304
vt 3.5862997534045493 1
vt 0 -1.0705544960878308
vt 0 -3
vt 2.1435875 -3
vt 1.07179375 1
vt 0 0.5
vt 2.1435875 0.5
vt 2.1435875 1
vt 0 1
vt 2.1435875 1
vt 0 1
vt 1.07179375 -3
vt 0 0.9999999999999996
vt 0.5548092387711123 -1.0705544960878308
vt 4.141108992175662 1
vt 0 0.5
vt 2.1435875 0.5
vt 2.1435875 1
vt 0 1
vt 2.070557022139168 1
vt 0 0.4452001885675414
vt 2.0705570221391683 -3.14110394007915
vt 0 0.9999999999999998
vt 0.5547998114324586 -1.0705570221391683
vt 4.14110394007915 1
vt 0 0.5
vt 2.1435875 0.5
vt 2.1435875 1
vt 0 1
vt 2.0705544960878304 1
vt 0 0.4451907612288877
vt 2.070554496087831 -3.1411089921756616
vt 0 1
vt 0 -1.1435875000000002
vt 4 -0.0717937500000001
vt 0 0.5
vt 2.1435875 0.5
vt 2.1435875 1
vt 0 1
vt 0 1
vt 0 -1.1435875000000002
vt 4 -0.0717937500000001
vt 2.0705544960878304 1
vt 0 0.4451907612288877
vt 2.070554496087831 -3.1411089921756616
vt 0 0.5
vt 2.1435875 0.5
vt 2.1435875 1
vt 0 1
vt 0 0.9999999999999998
vt 0.5547998114324586 -1.0705570221391683
vt 4.14110394007915 1
vt 2.070557022139168 1
vt 0 0.4452001885675414
vt 2.0705570221391683 -3.14110394007915
vt 0 0.5
vt 2.1435875 0.5
vt 2.1435875 1
vt 0 1
vt 0 0.9999999999999996
vt 0.5548092387711123 -1.0705544960878308
vt 4.141108992175662 1
vt 2.1435875 1
vt 0 1
vt 1.07179375 -3
vt 0 0.5
vt 2.1435875 0.5
vt 2.1435875 1
vt 0 1
vt 0 -3
vt 2.1435875 -3
vt 1.07179375 1
vn 0 -1 0
vn 0.4999999999999999 0 0.8660254037844388
vn 0 1 0
vn 0 -1 0
vn 0.8660254037844386 0 0.5000000000000001
vn 0 1 0
vn 0 -1 0
vn 1 0 0
vn 0 1 0
vn 0 -1 0
vn 0.8660254037844388 0 -0.4999999999999998
vn 0 1 0
vn 0 -1 0
vn 0.4999999999999999 0 -0.8660254037844389
vn 0 1 0
vn 0 -1 0
vn 4.143408735633879e-16 0 -1
vn 0 1 0
vn 0 -1 0
vn -0.4999999999999996 0 -0.866025403784439
vn 0 1 0
vn 0 -1 0
vn -0.8660254037844392 0 -0.4999999999999992
vn 0 1 0
vn 0 -1 0
vn -1 0 -8.286817471267765e-16
vn 0 1 0
vn 0 -1 0
vn -0.8660254037844392 0 0.49999999999999956
vn 0 1 0
vn 0 -1 0
vn -0.49999999999999967 0 0.8660254037844388
vn 0 1 0
vn 0 -1 0
vn 0 0 1
vn 0 1 0
usemtl none
f 111/361/97 109/362/97 107/363/97
f 109/364/98 111/365/98 112/366/98 110/367/98
f 110/368/99 112/369/99 108/370/99
f 113/371/100 111/372/100 107/373/100
f 111/374/101 113/375/101 114/376/101 112/377/101
f 112/378/102 114/379/102 108/380/102
f 115/381/103 113/382/103 107/383/103
f 113/384/104 115/385/104 116/386/104 114/387/104
f 114/388/105 116/389/105 108/390/105
f 117/391/106 115/392/106 107/393/106
f 115/394/107 117/395/107 118/396/107 116/397/107
f 116/398/108 118/399/108 108/400/108
f 119/401/109 117/402/109 107/403/109
f 117/404/110 119/405/110 120/406/110 118/407/110
f 118/408/111 120/409/111 108/410/111
f 121/411/112 119/412/112 107/413/112
f 119/414/113 121/415/113 122/416/113 120/417/113
f 120/418/114 122/419/114 108/420/114
f 123/421/115 121/422/115 107/423/115
f 121/424/116 123/425/116 124/426/116 122/427/116
f 122/428/117 124/429/117 108/430/117
f 125/431/118 123/432/118 107/433/118
f 123/434/119 125/435/119 126/436/119 124/437/119
f 124/438/120 126/439/120 108/440/120
f 127/441/121 125/442/121 107/443/121
f 125/444/122 127/445/122 128/446/122 126/447/122
f 126/448/123 128/449/123 108/450/123
f 129/451/124 127/452/124 107/453/124
f 127/454/125 129/455/125 130/456/125 128/457/125
f 128/458/126 130/459/126 108/460/126
f 131/461/127 129/462/127 107/463/127
f 129/464/128 131/465/128 132/466/128 130/467/128
f 130/468/129 132/469/129 108/470/129
f 109/471/130 131/472/130 107/473/130
f 131/474/131 109/475/131 110/476/131 132/477/131
f 132/478/132 110/479/132 108/480/132
o cuboid
v 3.1875 0.1875 8.875
v 3.1875 0.1875 -4.1875
v 3.1875 0.0625 8.875
v 3.1875 0.0625 -4.1875
v -10.375 0.1875 8.875
v -10.375 0.1875 -4.1875
v -10.375 0.0625 8.875
v -10.375 0.0625 -4.1875
vt 8 1
vt 0 1
vt 0 0.5
vt 8 0.5
vt 8 0.5
vt 8 1
vt 0 1
vt 0 0.5
vt 0 -7
vt 8 -7
vt 8 1
vt 0 1
vt 8 -7
vt 8 1
vt 0 1
vt 0 -7
vt 8 0.5
vt 8 1
vt 0 1
vt 0 0.5
vt 8 1
vt 0 1
vt 0 0.5
vt 8 0.5
vn 1 0 0
vn -1 0 0
vn 0 1 0
vn 0 -1 0
vn 0 0 1
vn 0 0 -1
usemtl none
f 134/481/133 133/482/133 135/483/133 136/484/133
f 139/485/134 137/486/134 138/487/134 140/488/134
f 137/489/135 133/490/135 134/491/135 138/492/135
f 136/493/136 135/494/136 139/495/136 140/496/136
f 135/497/137 133/498/137 137/499/137 139/500/137
f 138/501/138 134/502/138 136/503/138 140/504/138