# MagicaVoxel @ Ephtracy

# group
o 

# material
mtllib Clipboard.mtl
usemtl palette

# normals
vn -1 0 0
vn 1 0 0
vn 0 0 1
vn 0 0 -1
vn 0 -1 0
vn 0 1 0

# texcoords
vt 0.0527344 0.5
vt 0.0566406 0.5
vt 0.162109 0.5
vt 0.166016 0.5

# verts
v -0.3 -0.1 0.4
v -0.3 -0.1 -0.4
v -0.3 0 0.4
v -0.3 0 -0.4
v -0.2 0 -0.3
v -0.2 0 -0.4
v -0.2 0.1 -0.3
v -0.2 0.1 -0.4
v 0.2 0 -0.3
v 0.2 0 -0.4
v 0.2 0.1 -0.3
v 0.2 0.1 -0.4
v 0.3 -0.1 0.4
v 0.3 -0.1 -0.4
v 0.3 0 0.4
v 0.3 0 -0.4
v -0.3 -0.1 0.4
v -0.3 0 0.4
v -0.1 -0.1 0.4
v -0.1 0 0.4
v 0.1 -0.1 0.4
v 0.1 0 0.4
v 0.3 -0.1 0.4
v 0.3 0 0.4
v -0.2 0 -0.3
v -0.2 0.1 -0.3
v -0.1 0 -0.3
v -0.1 0.1 -0.3
v 0 0 -0.3
v 0.1 0 -0.3
v 0.1 0.1 -0.3
v 0.2 0 -0.3
v 0.2 0.1 -0.3
v -0.3 -0.1 -0.4
v -0.3 0 -0.4
v -0.2 0 -0.4
v -0.2 0.1 -0.4
v -0.1 -0.1 -0.4
v -0.1 0 -0.4
v -0.1 0.1 -0.4
v 0.1 -0.1 -0.4
v 0.1 0 -0.4
v 0.1 0.1 -0.4
v 0.2 0 -0.4
v 0.2 0.1 -0.4
v 0.3 -0.1 -0.4
v 0.3 0 -0.4
v -0.3 -0.1 0.4
v -0.1 -0.1 0.4
v 0.1 -0.1 0.4
v 0.3 -0.1 0.4
v -0.2 -0.1 0.3
v -0.1 -0.1 0.3
v 0 -0.1 0.3
v 0.1 -0.1 0.3
v 0.2 -0.1 0.3
v -0.2 -0.1 0.2
v -0.1 -0.1 0.2
v 0 -0.1 0.2
v 0.1 -0.1 0.2
v 0.2 -0.1 0.2
v -0.2 -0.1 0.1
v -0.1 -0.1 0.1
v 0 -0.1 0.1
v 0.1 -0.1 0.1
v -0.2 -0.1 0
v -0.1 -0.1 0
v 0 -0.1 0
v 0.2 -0.1 0
v -0.2 -0.1 -0.1
v -0.1 -0.1 -0.1
v 0 -0.1 -0.1
v 0.1 -0.1 -0.2
v 0.2 -0.1 -0.2
v -0.2 -0.1 -0.3
v -0.1 -0.1 -0.3
v 0 -0.1 -0.3
v 0.1 -0.1 -0.3
v -0.3 -0.1 -0.4
v -0.1 -0.1 -0.4
v 0.1 -0.1 -0.4
v 0.3 -0.1 -0.4
v -0.3 0 0.4
v -0.1 0 0.4
v 0.1 0 0.4
v 0.3 0 0.4
v -0.2 0 0.3
v -0.1 0 0.3
v 0 0 0.3
v 0.1 0 0.3
v 0.2 0 0.3
v -0.2 0 0.2
v -0.1 0 0.2
v 0 0 0.2
v 0.1 0 0.2
v 0.2 0 0.2
v -0.2 0 0.1
v -0.1 0 0.1
v 0 0 0.1
v 0.1 0 0.1
v -0.2 0 0
v -0.1 0 0
v 0 0 0
v 0.2 0 0
v -0.2 0 -0.1
v -0.1 0 -0.1
v 0 0 -0.1
v 0.1 0 -0.2
v 0.2 0 -0.2
v -0.2 0 -0.3
v -0.1 0 -0.3
v 0 0 -0.3
v 0.1 0 -0.3
v 0.2 0 -0.3
v -0.3 0 -0.4
v -0.2 0 -0.4
v 0.2 0 -0.4
v 0.3 0 -0.4
v -0.2 0.1 -0.3
v -0.1 0.1 -0.3
v 0.1 0.1 -0.3
v 0.2 0.1 -0.3
v -0.2 0.1 -0.4
v -0.1 0.1 -0.4
v 0.1 0.1 -0.4
v 0.2 0.1 -0.4

# faces
f 3/2/1 2/2/1 1/2/1
f 4/2/1 2/2/1 3/2/1
f 7/3/1 6/3/1 5/3/1
f 8/3/1 6/3/1 7/3/1
f 9/3/2 10/3/2 11/3/2
f 11/3/2 10/3/2 12/3/2
f 13/2/2 14/2/2 15/2/2
f 15/2/2 14/2/2 16/2/2
f 19/2/3 18/2/3 17/2/3
f 20/2/3 18/2/3 19/2/3
f 21/1/3 20/1/3 19/1/3
f 22/1/3 20/1/3 21/1/3
f 23/2/3 22/2/3 21/2/3
f 24/2/3 22/2/3 23/2/3
f 27/3/3 26/3/3 25/3/3
f 28/3/3 26/3/3 27/3/3
f 29/4/3 28/4/3 27/4/3
f 30/4/3 28/4/3 29/4/3
f 31/4/3 28/4/3 30/4/3
f 32/3/3 31/3/3 30/3/3
f 33/3/3 31/3/3 32/3/3
f 34/2/4 35/2/4 36/2/4
f 34/2/4 36/2/4 38/2/4
f 36/3/4 37/3/4 39/3/4
f 38/2/4 36/2/4 39/2/4
f 39/3/4 37/3/4 40/3/4
f 38/3/4 39/3/4 41/3/4
f 39/4/4 40/4/4 42/4/4
f 41/3/4 39/3/4 42/3/4
f 42/4/4 40/4/4 43/4/4
f 41/2/4 42/2/4 44/2/4
f 42/3/4 43/3/4 44/3/4
f 44/3/4 43/3/4 45/3/4
f 41/2/4 44/2/4 46/2/4
f 46/2/4 44/2/4 47/2/4
f 52/2/5 49/2/5 48/2/5
f 53/1/5 50/1/5 49/1/5
f 53/2/5 49/2/5 52/2/5
f 54/1/5 50/1/5 53/1/5
f 55/2/5 51/2/5 50/2/5
f 55/1/5 50/1/5 54/1/5
f 56/2/5 51/2/5 55/2/5
f 57/2/5 52/2/5 48/2/5
f 57/1/5 53/1/5 52/1/5
f 58/2/5 54/2/5 53/2/5
f 58/1/5 53/1/5 57/1/5
f 59/1/5 56/1/5 55/1/5
f 59/2/5 54/2/5 58/2/5
f 59/1/5 55/1/5 54/1/5
f 60/1/5 56/1/5 59/1/5
f 61/2/5 51/2/5 56/2/5
f 61/1/5 56/1/5 60/1/5
f 62/2/5 57/2/5 48/2/5
f 62/2/5 58/2/5 57/2/5
f 63/1/5 60/1/5 59/1/5
f 63/2/5 58/2/5 62/2/5
f 63/1/5 59/1/5 58/1/5
f 64/1/5 60/1/5 63/1/5
f 65/2/5 61/2/5 60/2/5
f 65/1/5 60/1/5 64/1/5
f 66/2/5 62/2/5 48/2/5
f 66/1/5 64/1/5 63/1/5
f 66/1/5 63/1/5 62/1/5
f 67/1/5 64/1/5 66/1/5
f 68/2/5 65/2/5 64/2/5
f 68/1/5 64/1/5 67/1/5
f 69/2/5 51/2/5 61/2/5
f 69/2/5 65/2/5 68/2/5
f 69/2/5 61/2/5 65/2/5
f 70/2/5 66/2/5 48/2/5
f 70/2/5 67/2/5 66/2/5
f 71/1/5 68/1/5 67/1/5
f 71/2/5 67/2/5 70/2/5
f 71/1/5 69/1/5 68/1/5
f 72/1/5 69/1/5 71/1/5
f 73/1/5 69/1/5 72/1/5
f 74/2/5 51/2/5 69/2/5
f 74/1/5 69/1/5 73/1/5
f 75/2/5 70/2/5 48/2/5
f 75/1/5 71/1/5 70/1/5
f 76/2/5 72/2/5 71/2/5
f 76/1/5 71/1/5 75/1/5
f 77/1/5 73/1/5 72/1/5
f 77/2/5 72/2/5 76/2/5
f 78/2/5 74/2/5 73/2/5
f 78/1/5 73/1/5 77/1/5
f 79/2/5 76/2/5 75/2/5
f 79/2/5 75/2/5 48/2/5
f 80/3/5 77/3/5 76/3/5
f 80/2/5 76/2/5 79/2/5
f 80/3/5 78/3/5 77/3/5
f 81/2/5 74/2/5 78/2/5
f 81/3/5 78/3/5 80/3/5
f 82/2/5 51/2/5 74/2/5
f 82/2/5 74/2/5 81/2/5
f 83/2/6 84/2/6 87/2/6
f 84/1/6 85/1/6 88/1/6
f 87/2/6 84/2/6 88/2/6
f 88/1/6 85/1/6 89/1/6
f 85/2/6 86/2/6 90/2/6
f 89/1/6 85/1/6 90/1/6
f 90/2/6 86/2/6 91/2/6
f 83/2/6 87/2/6 92/2/6
f 87/1/6 88/1/6 92/1/6
f 88/2/6 89/2/6 93/2/6
f 92/1/6 88/1/6 93/1/6
f 90/1/6 91/1/6 94/1/6
f 93/2/6 89/2/6 94/2/6
f 89/1/6 90/1/6 94/1/6
f 94/1/6 91/1/6 95/1/6
f 91/2/6 86/2/6 96/2/6
f 95/1/6 91/1/6 96/1/6
f 83/2/6 92/2/6 97/2/6
f 92/2/6 93/2/6 97/2/6
f 94/1/6 95/1/6 98/1/6
f 97/2/6 93/2/6 98/2/6
f 93/1/6 94/1/6 98/1/6
f 98/1/6 95/1/6 99/1/6
f 95/2/6 96/2/6 100/2/6
f 99/1/6 95/1/6 100/1/6
f 83/2/6 97/2/6 101/2/6
f 98/1/6 99/1/6 101/1/6
f 97/1/6 98/1/6 101/1/6
f 101/1/6 99/1/6 102/1/6
f 99/2/6 100/2/6 103/2/6
f 102/1/6 99/1/6 103/1/6
f 96/2/6 86/2/6 104/2/6
f 103/2/6 100/2/6 104/2/6
f 100/2/6 96/2/6 104/2/6
f 83/2/6 101/2/6 105/2/6
f 101/2/6 102/2/6 105/2/6
f 102/1/6 103/1/6 106/1/6
f 105/2/6 102/2/6 106/2/6
f 103/1/6 104/1/6 106/1/6
f 106/1/6 104/1/6 107/1/6
f 107/1/6 104/1/6 108/1/6
f 104/2/6 86/2/6 109/2/6
f 108/1/6 104/1/6 109/1/6
f 83/2/6 105/2/6 110/2/6
f 105/1/6 106/1/6 110/1/6
f 106/2/6 107/2/6 111/2/6
f 110/1/6 106/1/6 111/1/6
f 107/1/6 108/1/6 112/1/6
f 111/2/6 107/2/6 112/2/6
f 108/2/6 109/2/6 113/2/6
f 112/1/6 108/1/6 113/1/6
f 109/2/6 86/2/6 114/2/6
f 113/2/6 109/2/6 114/2/6
f 83/2/6 110/2/6 115/2/6
f 115/2/6 110/2/6 116/2/6
f 114/2/6 86/2/6 117/2/6
f 117/2/6 86/2/6 118/2/6
f 119/3/6 120/3/6 123/3/6
f 120/4/6 121/4/6 124/4/6
f 123/3/6 120/3/6 124/3/6
f 121/3/6 122/3/6 125/3/6
f 124/4/6 121/4/6 125/4/6
f 125/3/6 122/3/6 126/3/6
