# MagicaVoxel @ Ephtracy

# group
o 

# material
mtllib Sponge.mtl
usemtl palette

# normals
vn -1 0 0
vn 1 0 0
vn 0 0 1
vn 0 0 -1
vn 0 -1 0
vn 0 1 0

# texcoords
vt 0.146484 0.5
vt 0.150391 0.5
vt 0.154297 0.5
vt 0.158203 0.5

# verts
v -0.3 -0.2 0.4
v -0.3 -0.2 0.3
v -0.3 -0.2 0.2
v -0.3 -0.2 0.1
v -0.3 -0.2 0
v -0.3 -0.2 -0.1
v -0.3 -0.2 -0.2
v -0.3 -0.2 -0.3
v -0.3 -0.2 -0.4
v -0.3 -0.1 0.4
v -0.3 -0.1 0.3
v -0.3 -0.1 0.2
v -0.3 -0.1 0.1
v -0.3 -0.1 0
v -0.3 -0.1 -0.1
v -0.3 -0.1 -0.2
v -0.3 -0.1 -0.3
v -0.3 -0.1 -0.4
v -0.3 0 0.4
v -0.3 0 -0.4
v -0.3 0.1 0.4
v -0.3 0.1 -0.4
v -0.3 0.2 0.4
v -0.3 0.2 -0.4
v -0.2 0 0.4
v -0.2 0 -0.4
v -0.2 0.1 0.4
v -0.2 0.1 -0.4
v 0.2 0 0.4
v 0.2 0 -0.4
v 0.2 0.1 0.4
v 0.2 0.1 -0.4
v 0.3 -0.2 0.4
v 0.3 -0.2 0.3
v 0.3 -0.2 0.2
v 0.3 -0.2 0
v 0.3 -0.2 -0.1
v 0.3 -0.2 -0.2
v 0.3 -0.2 -0.3
v 0.3 -0.2 -0.4
v 0.3 -0.1 0.4
v 0.3 -0.1 0.3
v 0.3 -0.1 0.2
v 0.3 -0.1 0
v 0.3 -0.1 -0.1
v 0.3 -0.1 -0.2
v 0.3 -0.1 -0.3
v 0.3 -0.1 -0.4
v 0.3 0 0.4
v 0.3 0 -0.4
v 0.3 0.1 0.4
v 0.3 0.1 -0.4
v 0.3 0.2 0.4
v 0.3 0.2 -0.4
v -0.3 -0.2 0.4
v -0.3 -0.1 0.4
v -0.3 0 0.4
v -0.3 0.1 0.4
v -0.3 0.2 0.4
v -0.2 -0.2 0.4
v -0.2 -0.1 0.4
v -0.2 0 0.4
v -0.2 0.1 0.4
v -0.1 -0.2 0.4
v -0.1 -0.1 0.4
v 0.1 -0.2 0.4
v 0.1 -0.1 0.4
v 0.2 -0.2 0.4
v 0.2 -0.1 0.4
v 0.2 0 0.4
v 0.2 0.1 0.4
v 0.3 -0.2 0.4
v 0.3 -0.1 0.4
v 0.3 0 0.4
v 0.3 0.1 0.4
v 0.3 0.2 0.4
v -0.3 -0.2 -0.4
v -0.3 -0.1 -0.4
v -0.3 0 -0.4
v -0.3 0.1 -0.4
v -0.3 0.2 -0.4
v -0.2 -0.2 -0.4
v -0.2 -0.1 -0.4
v -0.2 0 -0.4
v -0.2 0.1 -0.4
v -0.1 -0.2 -0.4
v -0.1 -0.1 -0.4
v 0 -0.2 -0.4
v 0 -0.1 -0.4
v 0.1 -0.2 -0.4
v 0.1 -0.1 -0.4
v 0.2 -0.2 -0.4
v 0.2 -0.1 -0.4
v 0.2 0 -0.4
v 0.2 0.1 -0.4
v 0.3 -0.2 -0.4
v 0.3 -0.1 -0.4
v 0.3 0 -0.4
v 0.3 0.1 -0.4
v 0.3 0.2 -0.4
v -0.3 -0.2 0.4
v -0.2 -0.2 0.4
v -0.1 -0.2 0.4
v 0.1 -0.2 0.4
v 0.2 -0.2 0.4
v 0.3 -0.2 0.4
v -0.3 -0.2 0.3
v -0.2 -0.2 0.3
v -0.1 -0.2 0.3
v 0 -0.2 0.3
v 0.1 -0.2 0.3
v 0.2 -0.2 0.3
v 0.3 -0.2 0.3
v -0.3 -0.2 0.2
v -0.2 -0.2 0.2
v -0.1 -0.2 0.2
v 0 -0.2 0.2
v 0.1 -0.2 0.2
v 0.2 -0.2 0.2
v 0.3 -0.2 0.2
v -0.3 -0.2 0.1
v -0.2 -0.2 0.1
v -0.1 -0.2 0.1
v 0 -0.2 0.1
v 0.1 -0.2 0.1
v 0.2 -0.2 0.1
v -0.3 -0.2 0
v -0.2 -0.2 0
v 0 -0.2 0
v 0.1 -0.2 0
v 0.2 -0.2 0
v 0.3 -0.2 0
v -0.3 -0.2 -0.1
v -0.2 -0.2 -0.1
v -0.1 -0.2 -0.1
v 0 -0.2 -0.1
v 0.1 -0.2 -0.1
v 0.2 -0.2 -0.1
v 0.3 -0.2 -0.1
v -0.3 -0.2 -0.2
v -0.2 -0.2 -0.2
v -0.1 -0.2 -0.2
v 0 -0.2 -0.2
v 0.2 -0.2 -0.2
v 0.3 -0.2 -0.2
v -0.3 -0.2 -0.3
v -0.2 -0.2 -0.3
v -0.1 -0.2 -0.3
v 0 -0.2 -0.3
v 0.1 -0.2 -0.3
v 0.2 -0.2 -0.3
v 0.3 -0.2 -0.3
v -0.3 -0.2 -0.4
v -0.2 -0.2 -0.4
v -0.1 -0.2 -0.4
v 0 -0.2 -0.4
v 0.1 -0.2 -0.4
v 0.2 -0.2 -0.4
v 0.3 -0.2 -0.4
v -0.3 0.1 0.4
v -0.2 0.1 0.4
v 0.2 0.1 0.4
v 0.3 0.1 0.4
v -0.3 0.1 -0.4
v -0.2 0.1 -0.4
v 0.2 0.1 -0.4
v 0.3 0.1 -0.4
v -0.3 0 0.4
v -0.2 0 0.4
v 0.2 0 0.4
v 0.3 0 0.4
v -0.3 0 -0.4
v -0.2 0 -0.4
v 0.2 0 -0.4
v 0.3 0 -0.4
v -0.3 0.2 0.4
v 0.3 0.2 0.4
v -0.3 0.2 -0.4
v 0.3 0.2 -0.4

# faces
f 10/3/1 2/3/1 1/3/1
f 11/2/1 3/2/1 2/2/1
f 11/3/1 2/3/1 10/3/1
f 12/3/1 4/3/1 3/3/1
f 12/2/1 3/2/1 11/2/1
f 13/1/1 5/1/1 4/1/1
f 13/3/1 4/3/1 12/3/1
f 14/2/1 6/2/1 5/2/1
f 14/1/1 5/1/1 13/1/1
f 15/3/1 7/3/1 6/3/1
f 15/2/1 6/2/1 14/2/1
f 16/2/1 8/2/1 7/2/1
f 16/3/1 7/3/1 15/3/1
f 17/1/1 9/1/1 8/1/1
f 17/2/1 8/2/1 16/2/1
f 18/1/1 9/1/1 17/1/1
f 19/4/1 16/4/1 15/4/1
f 19/4/1 11/4/1 10/4/1
f 19/4/1 18/4/1 17/4/1
f 19/4/1 17/4/1 16/4/1
f 19/4/1 15/4/1 14/4/1
f 19/4/1 14/4/1 13/4/1
f 19/4/1 13/4/1 12/4/1
f 19/4/1 12/4/1 11/4/1
f 20/4/1 18/4/1 19/4/1
f 23/4/1 22/4/1 21/4/1
f 24/4/1 22/4/1 23/4/1
f 27/4/1 26/4/1 25/4/1
f 28/4/1 26/4/1 27/4/1
f 29/4/2 30/4/2 31/4/2
f 31/4/2 30/4/2 32/4/2
f 33/2/2 34/2/2 41/2/2
f 34/3/2 35/3/2 42/3/2
f 41/2/2 34/2/2 42/2/2
f 35/2/2 36/2/2 43/2/2
f 42/3/2 35/3/2 43/3/2
f 36/1/2 37/1/2 44/1/2
f 43/2/2 36/2/2 44/2/2
f 37/2/2 38/2/2 45/2/2
f 44/1/2 37/1/2 45/1/2
f 38/3/2 39/3/2 46/3/2
f 45/2/2 38/2/2 46/2/2
f 39/2/2 40/2/2 47/2/2
f 46/3/2 39/3/2 47/3/2
f 47/2/2 40/2/2 48/2/2
f 45/4/2 46/4/2 49/4/2
f 41/4/2 42/4/2 49/4/2
f 47/4/2 48/4/2 49/4/2
f 46/4/2 47/4/2 49/4/2
f 44/4/2 45/4/2 49/4/2
f 43/4/2 44/4/2 49/4/2
f 42/4/2 43/4/2 49/4/2
f 49/4/2 48/4/2 50/4/2
f 51/4/2 52/4/2 53/4/2
f 53/4/2 52/4/2 54/4/2
f 60/3/3 56/3/3 55/3/3
f 61/4/3 57/4/3 56/4/3
f 61/3/3 56/3/3 60/3/3
f 62/4/3 57/4/3 61/4/3
f 63/4/3 59/4/3 58/4/3
f 64/1/3 61/1/3 60/1/3
f 65/4/3 62/4/3 61/4/3
f 65/1/3 61/1/3 64/1/3
f 65/4/3 63/4/3 62/4/3
f 66/2/3 65/2/3 64/2/3
f 67/4/3 63/4/3 65/4/3
f 67/2/3 65/2/3 66/2/3
f 68/3/3 67/3/3 66/3/3
f 69/4/3 63/4/3 67/4/3
f 69/3/3 67/3/3 68/3/3
f 70/4/3 63/4/3 69/4/3
f 71/4/3 59/4/3 63/4/3
f 71/4/3 63/4/3 70/4/3
f 72/2/3 69/2/3 68/2/3
f 73/4/3 70/4/3 69/4/3
f 73/2/3 69/2/3 72/2/3
f 74/4/3 70/4/3 73/4/3
f 75/4/3 59/4/3 71/4/3
f 76/4/3 59/4/3 75/4/3
f 77/1/4 78/1/4 82/1/4
f 78/4/4 79/4/4 83/4/4
f 82/1/4 78/1/4 83/1/4
f 83/4/4 79/4/4 84/4/4
f 80/4/4 81/4/4 85/4/4
f 82/2/4 83/2/4 86/2/4
f 83/4/4 84/4/4 87/4/4
f 86/2/4 83/2/4 87/2/4
f 84/4/4 85/4/4 87/4/4
f 86/3/4 87/3/4 88/3/4
f 87/4/4 85/4/4 89/4/4
f 88/3/4 87/3/4 89/3/4
f 88/2/4 89/2/4 90/2/4
f 89/4/4 85/4/4 91/4/4
f 90/2/4 89/2/4 91/2/4
f 90/1/4 91/1/4 92/1/4
f 91/4/4 85/4/4 93/4/4
f 92/1/4 91/1/4 93/1/4
f 93/4/4 85/4/4 94/4/4
f 85/4/4 81/4/4 95/4/4
f 94/4/4 85/4/4 95/4/4
f 92/2/4 93/2/4 96/2/4
f 93/4/4 94/4/4 97/4/4
f 96/2/4 93/2/4 97/2/4
f 97/4/4 94/4/4 98/4/4
f 95/4/4 81/4/4 99/4/4
f 99/4/4 81/4/4 100/4/4
f 107/3/5 102/3/5 101/3/5
f 108/1/5 103/1/5 102/1/5
f 108/3/5 102/3/5 107/3/5
f 109/2/5 104/2/5 103/2/5
f 109/1/5 103/1/5 108/1/5
f 110/2/5 104/2/5 109/2/5
f 111/3/5 105/3/5 104/3/5
f 111/2/5 104/2/5 110/2/5
f 112/2/5 106/2/5 105/2/5
f 112/3/5 105/3/5 111/3/5
f 113/2/5 106/2/5 112/2/5
f 114/2/5 108/2/5 107/2/5
f 114/2/5 109/2/5 108/2/5
f 115/2/5 109/2/5 114/2/5
f 116/3/5 110/3/5 109/3/5
f 116/2/5 109/2/5 115/2/5
f 117/2/5 111/2/5 110/2/5
f 117/3/5 110/3/5 116/3/5
f 118/1/5 112/1/5 111/1/5
f 118/2/5 111/2/5 117/2/5
f 119/3/5 113/3/5 112/3/5
f 119/1/5 112/1/5 118/1/5
f 120/3/5 113/3/5 119/3/5
f 121/3/5 115/3/5 114/3/5
f 122/2/5 116/2/5 115/2/5
f 122/3/5 115/3/5 121/3/5
f 123/1/5 118/1/5 117/1/5
f 123/2/5 116/2/5 122/2/5
f 123/1/5 117/1/5 116/1/5
f 124/1/5 118/1/5 123/1/5
f 125/2/5 120/2/5 119/2/5
f 125/1/5 118/1/5 124/1/5
f 125/2/5 119/2/5 118/2/5
f 126/2/5 120/2/5 125/2/5
f 127/1/5 122/1/5 121/1/5
f 128/3/5 123/3/5 122/3/5
f 128/1/5 122/1/5 127/1/5
f 129/2/5 124/2/5 123/2/5
f 129/3/5 125/3/5 124/3/5
f 130/1/5 126/1/5 125/1/5
f 130/3/5 125/3/5 129/3/5
f 131/2/5 120/2/5 126/2/5
f 131/1/5 126/1/5 130/1/5
f 132/2/5 120/2/5 131/2/5
f 133/2/5 128/2/5 127/2/5
f 134/3/5 123/3/5 128/3/5
f 134/2/5 128/2/5 133/2/5
f 135/2/5 129/2/5 123/2/5
f 135/3/5 123/3/5 134/3/5
f 136/1/5 130/1/5 129/1/5
f 136/2/5 129/2/5 135/2/5
f 137/2/5 131/2/5 130/2/5
f 137/1/5 130/1/5 136/1/5
f 138/1/5 132/1/5 131/1/5
f 138/2/5 131/2/5 137/2/5
f 139/1/5 132/1/5 138/1/5
f 140/3/5 134/3/5 133/3/5
f 141/2/5 135/2/5 134/2/5
f 141/3/5 134/3/5 140/3/5
f 142/3/5 136/3/5 135/3/5
f 142/2/5 135/2/5 141/2/5
f 143/2/5 137/2/5 136/2/5
f 143/3/5 136/3/5 142/3/5
f 144/3/5 138/3/5 137/3/5
f 144/2/5 139/2/5 138/2/5
f 145/2/5 139/2/5 144/2/5
f 146/2/5 141/2/5 140/2/5
f 147/1/5 142/1/5 141/1/5
f 147/2/5 141/2/5 146/2/5
f 148/2/5 143/2/5 142/2/5
f 148/1/5 142/1/5 147/1/5
f 149/2/5 137/2/5 143/2/5
f 149/2/5 143/2/5 148/2/5
f 150/3/5 144/3/5 137/3/5
f 150/2/5 137/2/5 149/2/5
f 150/3/5 145/3/5 144/3/5
f 151/3/5 145/3/5 150/3/5
f 152/3/5 145/3/5 151/3/5
f 153/1/5 147/1/5 146/1/5
f 154/2/5 148/2/5 147/2/5
f 154/1/5 147/1/5 153/1/5
f 155/3/5 149/3/5 148/3/5
f 155/2/5 148/2/5 154/2/5
f 156/2/5 150/2/5 149/2/5
f 156/3/5 149/3/5 155/3/5
f 157/1/5 151/1/5 150/1/5
f 157/2/5 150/2/5 156/2/5
f 158/2/5 152/2/5 151/2/5
f 158/1/5 151/1/5 157/1/5
f 159/2/5 152/2/5 158/2/5
f 164/4/5 161/4/5 160/4/5
f 165/4/5 161/4/5 164/4/5
f 166/4/5 163/4/5 162/4/5
f 167/4/5 163/4/5 166/4/5
f 168/4/6 169/4/6 172/4/6
f 172/4/6 169/4/6 173/4/6
f 170/4/6 171/4/6 174/4/6
f 174/4/6 171/4/6 175/4/6
f 176/4/6 177/4/6 178/4/6
f 178/4/6 177/4/6 179/4/6
