# MagicaVoxel @ Ephtracy

# group
o 

# material
mtllib Streetsign0.mtl
usemtl palette

# normals
vn -1 0 0
vn 1 0 0
vn 0 0 1
vn 0 0 -1
vn 0 -1 0
vn 0 1 0

# texcoords
vt 0.0136719 0.5
vt 0.0957031 0.5

# verts
v -0.85 0.55 0.1
v -0.85 0.55 0
v -0.85 0.95 0.1
v -0.85 0.95 0
v -0.75 0.65 0
v -0.75 0.65 -0.1
v -0.75 0.85 0
v -0.75 0.85 -0.1
v 0.65 -1.05 0.1
v 0.65 -1.05 -0.1
v 0.65 0.65 0
v 0.65 0.65 -0.1
v 0.65 0.85 0
v 0.65 0.85 -0.1
v 0.65 1.05 0.1
v 0.65 1.05 -0.1
v 0.55 0.55 0.1
v 0.55 0.55 0
v 0.55 0.65 0
v 0.55 0.85 0
v 0.55 0.95 0.1
v 0.55 0.95 0
v 0.85 -1.05 0.1
v 0.85 -1.05 -0.1
v 0.85 1.05 0.1
v 0.85 1.05 -0.1
v -0.85 0.55 0.1
v -0.85 0.95 0.1
v -0.75 0.55 0.1
v -0.75 0.95 0.1
v 0.45 0.55 0.1
v 0.45 0.95 0.1
v 0.55 0.55 0.1
v 0.55 0.95 0.1
v 0.65 -1.05 0.1
v 0.65 1.05 0.1
v 0.85 -1.05 0.1
v 0.85 1.05 0.1
v 0.55 0.65 0
v 0.55 0.85 0
v 0.65 0.65 0
v 0.65 0.85 0
v -0.85 0.55 0
v -0.85 0.95 0
v -0.75 0.55 0
v -0.75 0.65 0
v -0.75 0.85 0
v -0.75 0.95 0
v 0.45 0.55 0
v 0.45 0.65 0
v 0.45 0.85 0
v 0.45 0.95 0
v 0.55 0.55 0
v 0.55 0.65 0
v 0.55 0.85 0
v 0.55 0.95 0
v -0.75 0.65 -0.1
v -0.75 0.85 -0.1
v 0.65 -1.05 -0.1
v 0.65 0.65 -0.1
v 0.65 0.85 -0.1
v 0.65 1.05 -0.1
v 0.85 -1.05 -0.1
v 0.85 1.05 -0.1
v 0.65 -1.05 0.1
v 0.85 -1.05 0.1
v 0.65 -1.05 -0.1
v 0.85 -1.05 -0.1
v -0.85 0.55 0.1
v -0.75 0.55 0.1
v 0.45 0.55 0.1
v 0.55 0.55 0.1
v -0.85 0.55 0
v -0.75 0.55 0
v 0.45 0.55 0
v 0.55 0.55 0
v -0.75 0.65 0
v 0.45 0.65 0
v 0.55 0.65 0
v 0.65 0.65 0
v -0.75 0.65 -0.1
v 0.65 0.65 -0.1
v -0.75 0.85 0
v 0.45 0.85 0
v 0.55 0.85 0
v 0.65 0.85 0
v -0.75 0.85 -0.1
v 0.65 0.85 -0.1
v -0.85 0.95 0.1
v -0.75 0.95 0.1
v 0.45 0.95 0.1
v 0.55 0.95 0.1
v -0.85 0.95 0
v -0.75 0.95 0
v 0.45 0.95 0
v 0.55 0.95 0
v 0.65 1.05 0.1
v 0.85 1.05 0.1
v 0.65 1.05 -0.1
v 0.85 1.05 -0.1

# faces
f 3/2/1 2/2/1 1/2/1
f 4/2/1 2/2/1 3/2/1
f 7/1/1 6/1/1 5/1/1
f 8/1/1 6/1/1 7/1/1
f 11/1/1 10/1/1 9/1/1
f 12/1/1 10/1/1 11/1/1
f 13/1/1 11/1/1 9/1/1
f 15/1/1 13/1/1 9/1/1
f 15/1/1 14/1/1 13/1/1
f 16/1/1 14/1/1 15/1/1
f 17/2/2 18/2/2 19/2/2
f 17/2/2 19/2/2 20/2/2
f 17/2/2 20/2/2 21/2/2
f 21/2/2 20/2/2 22/2/2
f 23/1/2 24/1/2 25/1/2
f 25/1/2 24/1/2 26/1/2
f 29/2/3 28/2/3 27/2/3
f 30/2/3 28/2/3 29/2/3
f 31/1/3 30/1/3 29/1/3
f 32/1/3 30/1/3 31/1/3
f 33/2/3 32/2/3 31/2/3
f 34/2/3 32/2/3 33/2/3
f 37/1/3 36/1/3 35/1/3
f 38/1/3 36/1/3 37/1/3
f 41/1/3 40/1/3 39/1/3
f 42/1/3 40/1/3 41/1/3
f 43/2/4 44/2/4 45/2/4
f 45/2/4 44/2/4 46/2/4
f 46/2/4 44/2/4 47/2/4
f 47/2/4 44/2/4 48/2/4
f 45/1/4 46/1/4 49/1/4
f 49/1/4 46/1/4 50/1/4
f 47/1/4 48/1/4 51/1/4
f 51/1/4 48/1/4 52/1/4
f 49/2/4 50/2/4 53/2/4
f 53/2/4 50/2/4 54/2/4
f 51/2/4 52/2/4 55/2/4
f 55/2/4 52/2/4 56/2/4
f 57/1/4 58/1/4 60/1/4
f 60/1/4 58/1/4 61/1/4
f 59/1/4 60/1/4 63/1/4
f 61/1/4 62/1/4 63/1/4
f 60/1/4 61/1/4 63/1/4
f 63/1/4 62/1/4 64/1/4
f 67/1/5 66/1/5 65/1/5
f 68/1/5 66/1/5 67/1/5
f 73/2/5 70/2/5 69/2/5
f 74/1/5 71/1/5 70/1/5
f 74/2/5 70/2/5 73/2/5
f 75/2/5 72/2/5 71/2/5
f 75/1/5 71/1/5 74/1/5
f 76/2/5 72/2/5 75/2/5
f 81/1/5 78/1/5 77/1/5
f 81/1/5 80/1/5 79/1/5
f 81/1/5 79/1/5 78/1/5
f 82/1/5 80/1/5 81/1/5
f 83/1/6 84/1/6 87/1/6
f 85/1/6 86/1/6 87/1/6
f 84/1/6 85/1/6 87/1/6
f 87/1/6 86/1/6 88/1/6
f 89/2/6 90/2/6 93/2/6
f 90/1/6 91/1/6 94/1/6
f 93/2/6 90/2/6 94/2/6
f 91/2/6 92/2/6 95/2/6
f 94/1/6 91/1/6 95/1/6
f 95/2/6 92/2/6 96/2/6
f 97/1/6 98/1/6 99/1/6
f 99/1/6 98/1/6 100/1/6
