# MagicaVoxel @ Ephtracy

# group
o 

# material
mtllib StandingLamp0.mtl
usemtl palette

# normals
vn -1 0 0
vn 1 0 0
vn 0 0 1
vn 0 0 -1
vn 0 -1 0
vn 0 1 0

# texcoords
vt 0.00976562 0.5
vt 0.0175781 0.5
vt 0.0917969 0.5

# verts
v -0.25 0.45 0.15
v -0.25 0.45 -0.15
v -0.25 0.55 0.15
v -0.25 0.55 -0.15
v -0.25 0.75 0.15
v -0.25 0.75 -0.15
v -0.25 0.85 0.15
v -0.25 0.85 -0.15
v -0.15 -0.85 0.15
v -0.15 -0.85 -0.15
v -0.15 -0.75 0.15
v -0.15 -0.75 -0.15
v -0.15 0.45 0.25
v -0.15 0.45 0.15
v -0.15 0.45 -0.15
v -0.15 0.45 -0.25
v -0.15 0.55 0.25
v -0.15 0.55 0.15
v -0.15 0.55 -0.15
v -0.15 0.55 -0.25
v -0.15 0.75 0.25
v -0.15 0.75 0.15
v -0.15 0.75 -0.15
v -0.15 0.75 -0.25
v -0.15 0.85 0.25
v -0.15 0.85 0.15
v -0.15 0.85 -0.15
v -0.15 0.85 -0.25
v -0.05 -0.75 0.05
v -0.05 -0.75 -0.05
v -0.05 0.55 0.05
v -0.05 0.55 -0.05
v -0.05 0.75 0.05
v -0.05 0.75 -0.05
v 0.15 0.45 0.15
v 0.15 0.45 0.05
v 0.15 0.45 -0.05
v 0.15 0.45 -0.15
v 0.15 0.55 0.15
v 0.15 0.55 0.05
v 0.15 0.55 -0.05
v 0.15 0.55 -0.15
v 0.15 0.75 0.15
v 0.15 0.75 -0.15
v 0.15 0.85 0.15
v 0.15 0.85 -0.15
v -0.15 0.45 0.15
v -0.15 0.45 -0.15
v -0.15 0.55 0.15
v -0.15 0.55 -0.15
v -0.15 0.75 0.15
v -0.15 0.75 -0.15
v -0.15 0.85 0.15
v -0.15 0.85 -0.15
v 0.05 -0.75 0.05
v 0.05 -0.75 -0.05
v 0.05 0.45 0.05
v 0.05 0.45 -0.05
v 0.05 0.55 0.05
v 0.05 0.55 -0.05
v 0.05 0.75 0.05
v 0.05 0.75 -0.05
v 0.15 -0.85 0.15
v 0.15 -0.85 -0.15
v 0.15 -0.75 0.15
v 0.15 -0.75 -0.15
v 0.15 0.45 0.25
v 0.15 0.45 0.15
v 0.15 0.45 -0.15
v 0.15 0.45 -0.25
v 0.15 0.55 0.25
v 0.15 0.55 0.15
v 0.15 0.55 -0.15
v 0.15 0.55 -0.25
v 0.15 0.75 0.25
v 0.15 0.75 0.15
v 0.15 0.75 -0.15
v 0.15 0.75 -0.25
v 0.15 0.85 0.25
v 0.15 0.85 0.15
v 0.15 0.85 -0.15
v 0.15 0.85 -0.25
v 0.25 0.45 0.15
v 0.25 0.45 -0.15
v 0.25 0.55 0.15
v 0.25 0.55 -0.15
v 0.25 0.75 0.15
v 0.25 0.75 -0.15
v 0.25 0.85 0.15
v 0.25 0.85 -0.15
v -0.15 0.45 0.25
v -0.15 0.55 0.25
v -0.15 0.75 0.25
v -0.15 0.85 0.25
v 0.15 0.45 0.25
v 0.15 0.55 0.25
v 0.15 0.75 0.25
v 0.15 0.85 0.25
v -0.25 0.45 0.15
v -0.25 0.55 0.15
v -0.25 0.75 0.15
v -0.25 0.85 0.15
v -0.15 -0.85 0.15
v -0.15 -0.75 0.15
v -0.15 0.45 0.15
v -0.15 0.55 0.15
v -0.15 0.75 0.15
v -0.15 0.85 0.15
v 0.15 -0.85 0.15
v 0.15 -0.75 0.15
v 0.15 0.45 0.15
v 0.15 0.55 0.15
v 0.15 0.75 0.15
v 0.15 0.85 0.15
v 0.25 0.45 0.15
v 0.25 0.55 0.15
v 0.25 0.75 0.15
v 0.25 0.85 0.15
v -0.05 -0.75 0.05
v -0.05 0.55 0.05
v -0.05 0.75 0.05
v 0.05 -0.75 0.05
v 0.05 0.45 0.05
v 0.05 0.55 0.05
v 0.05 0.75 0.05
v 0.15 0.45 0.05
v 0.15 0.55 0.05
v -0.15 0.45 -0.15
v -0.15 0.55 -0.15
v -0.15 0.75 -0.15
v -0.15 0.85 -0.15
v 0.15 0.45 -0.15
v 0.15 0.55 -0.15
v 0.15 0.75 -0.15
v 0.15 0.85 -0.15
v -0.15 0.45 0.15
v -0.15 0.55 0.15
v -0.15 0.75 0.15
v -0.15 0.85 0.15
v 0.15 0.45 0.15
v 0.15 0.55 0.15
v 0.15 0.75 0.15
v 0.15 0.85 0.15
v -0.05 -0.75 -0.05
v -0.05 0.55 -0.05
v -0.05 0.75 -0.05
v 0.05 -0.75 -0.05
v 0.05 0.45 -0.05
v 0.05 0.55 -0.05
v 0.05 0.75 -0.05
v 0.15 0.45 -0.05
v 0.15 0.55 -0.05
v -0.25 0.45 -0.15
v -0.25 0.55 -0.15
v -0.25 0.75 -0.15
v -0.25 0.85 -0.15
v -0.15 -0.85 -0.15
v -0.15 -0.75 -0.15
v -0.15 0.45 -0.15
v -0.15 0.55 -0.15
v -0.15 0.75 -0.15
v -0.15 0.85 -0.15
v 0.15 -0.85 -0.15
v 0.15 -0.75 -0.15
v 0.15 0.45 -0.15
v 0.15 0.55 -0.15
v 0.15 0.75 -0.15
v 0.15 0.85 -0.15
v 0.25 0.45 -0.15
v 0.25 0.55 -0.15
v 0.25 0.75 -0.15
v 0.25 0.85 -0.15
v -0.15 0.45 -0.25
v -0.15 0.55 -0.25
v -0.15 0.75 -0.25
v -0.15 0.85 -0.25
v 0.15 0.45 -0.25
v 0.15 0.55 -0.25
v 0.15 0.75 -0.25
v 0.15 0.85 -0.25
v -0.15 -0.85 0.15
v 0.15 -0.85 0.15
v -0.15 -0.85 -0.15
v 0.15 -0.85 -0.15
v -0.15 0.45 0.25
v 0.15 0.45 0.25
v -0.25 0.45 0.15
v -0.15 0.45 0.15
v 0.15 0.45 0.15
v 0.25 0.45 0.15
v 0.05 0.45 0.05
v 0.15 0.45 0.05
v 0.05 0.45 -0.05
v 0.15 0.45 -0.05
v -0.25 0.45 -0.15
v -0.15 0.45 -0.15
v 0.15 0.45 -0.15
v 0.25 0.45 -0.15
v -0.15 0.45 -0.25
v 0.15 0.45 -0.25
v -0.15 -0.75 0.15
v 0.15 -0.75 0.15
v -0.05 -0.75 0.05
v 0.05 -0.75 0.05
v -0.05 -0.75 -0.05
v 0.05 -0.75 -0.05
v -0.15 -0.75 -0.15
v 0.15 -0.75 -0.15
v 0.05 0.55 0.05
v 0.15 0.55 0.05
v 0.05 0.55 -0.05
v 0.15 0.55 -0.05
v -0.05 0.75 0.05
v 0.05 0.75 0.05
v -0.05 0.75 -0.05
v 0.05 0.75 -0.05
v -0.15 0.85 0.25
v 0.15 0.85 0.25
v -0.25 0.85 0.15
v -0.15 0.85 0.15
v 0.15 0.85 0.15
v 0.25 0.85 0.15
v -0.25 0.85 -0.15
v -0.15 0.85 -0.15
v 0.15 0.85 -0.15
v 0.25 0.85 -0.15
v -0.15 0.85 -0.25
v 0.15 0.85 -0.25

# faces
f 3/1/1 2/1/1 1/1/1
f 4/1/1 2/1/1 3/1/1
f 5/2/1 4/2/1 3/2/1
f 6/2/1 4/2/1 5/2/1
f 7/1/1 6/1/1 5/1/1
f 8/1/1 6/1/1 7/1/1
f 11/1/1 10/1/1 9/1/1
f 12/1/1 10/1/1 11/1/1
f 17/1/1 14/1/1 13/1/1
f 18/1/1 14/1/1 17/1/1
f 19/1/1 16/1/1 15/1/1
f 20/1/1 16/1/1 19/1/1
f 21/2/1 18/2/1 17/2/1
f 22/2/1 18/2/1 21/2/1
f 23/2/1 20/2/1 19/2/1
f 24/2/1 20/2/1 23/2/1
f 25/1/1 22/1/1 21/1/1
f 26/1/1 22/1/1 25/1/1
f 27/1/1 24/1/1 23/1/1
f 28/1/1 24/1/1 27/1/1
f 31/1/1 30/1/1 29/1/1
f 32/1/1 30/1/1 31/1/1
f 33/3/1 32/3/1 31/3/1
f 34/3/1 32/3/1 33/3/1
f 39/1/1 36/1/1 35/1/1
f 40/1/1 36/1/1 39/1/1
f 41/1/1 38/1/1 37/1/1
f 42/1/1 38/1/1 41/1/1
f 43/2/1 40/2/1 39/2/1
f 43/2/1 41/2/1 40/2/1
f 43/2/1 42/2/1 41/2/1
f 44/2/1 42/2/1 43/2/1
f 45/1/1 44/1/1 43/1/1
f 46/1/1 44/1/1 45/1/1
f 47/1/2 48/1/2 49/1/2
f 49/1/2 48/1/2 50/1/2
f 49/2/2 50/2/2 51/2/2
f 51/2/2 50/2/2 52/2/2
f 51/1/2 52/1/2 53/1/2
f 53/1/2 52/1/2 54/1/2
f 55/1/2 56/1/2 57/1/2
f 57/1/2 56/1/2 58/1/2
f 59/3/2 60/3/2 61/3/2
f 61/3/2 60/3/2 62/3/2
f 63/1/2 64/1/2 65/1/2
f 65/1/2 64/1/2 66/1/2
f 67/1/2 68/1/2 71/1/2
f 71/1/2 68/1/2 72/1/2
f 69/1/2 70/1/2 73/1/2
f 73/1/2 70/1/2 74/1/2
f 71/2/2 72/2/2 75/2/2
f 75/2/2 72/2/2 76/2/2
f 73/2/2 74/2/2 77/2/2
f 77/2/2 74/2/2 78/2/2
f 75/1/2 76/1/2 79/1/2
f 79/1/2 76/1/2 80/1/2
f 77/1/2 78/1/2 81/1/2
f 81/1/2 78/1/2 82/1/2
f 83/1/2 84/1/2 85/1/2
f 85/1/2 84/1/2 86/1/2
f 85/2/2 86/2/2 87/2/2
f 87/2/2 86/2/2 88/2/2
f 87/1/2 88/1/2 89/1/2
f 89/1/2 88/1/2 90/1/2
f 95/1/3 92/1/3 91/1/3
f 96/2/3 93/2/3 92/2/3
f 96/1/3 92/1/3 95/1/3
f 97/1/3 94/1/3 93/1/3
f 97/2/3 93/2/3 96/2/3
f 98/1/3 94/1/3 97/1/3
f 105/1/3 100/1/3 99/1/3
f 106/2/3 101/2/3 100/2/3
f 106/1/3 100/1/3 105/1/3
f 107/1/3 102/1/3 101/1/3
f 107/2/3 101/2/3 106/2/3
f 108/1/3 102/1/3 107/1/3
f 109/1/3 104/1/3 103/1/3
f 110/1/3 104/1/3 109/1/3
f 115/1/3 112/1/3 111/1/3
f 116/2/3 113/2/3 112/2/3
f 116/1/3 112/1/3 115/1/3
f 117/1/3 114/1/3 113/1/3
f 117/2/3 113/2/3 116/2/3
f 118/1/3 114/1/3 117/1/3
f 122/1/3 120/1/3 119/1/3
f 123/1/3 120/1/3 122/1/3
f 124/3/3 121/3/3 120/3/3
f 124/1/3 120/1/3 123/1/3
f 125/3/3 121/3/3 124/3/3
f 126/1/3 124/1/3 123/1/3
f 127/1/3 124/1/3 126/1/3
f 132/1/3 129/1/3 128/1/3
f 133/2/3 130/2/3 129/2/3
f 133/1/3 129/1/3 132/1/3
f 134/1/3 131/1/3 130/1/3
f 134/2/3 130/2/3 133/2/3
f 135/1/3 131/1/3 134/1/3
f 136/1/4 137/1/4 140/1/4
f 137/2/4 138/2/4 141/2/4
f 140/1/4 137/1/4 141/1/4
f 138/1/4 139/1/4 142/1/4
f 141/2/4 138/2/4 142/2/4
f 142/1/4 139/1/4 143/1/4
f 144/1/4 145/1/4 147/1/4
f 147/1/4 145/1/4 148/1/4
f 145/3/4 146/3/4 149/3/4
f 148/1/4 145/1/4 149/1/4
f 149/3/4 146/3/4 150/3/4
f 148/1/4 149/1/4 151/1/4
f 151/1/4 149/1/4 152/1/4
f 153/1/4 154/1/4 159/1/4
f 154/2/4 155/2/4 160/2/4
f 159/1/4 154/1/4 160/1/4
f 155/1/4 156/1/4 161/1/4
f 160/2/4 155/2/4 161/2/4
f 161/1/4 156/1/4 162/1/4
f 157/1/4 158/1/4 163/1/4
f 163/1/4 158/1/4 164/1/4
f 165/1/4 166/1/4 169/1/4
f 166/2/4 167/2/4 170/2/4
f 169/1/4 166/1/4 170/1/4
f 167/1/4 168/1/4 171/1/4
f 170/2/4 167/2/4 171/2/4
f 171/1/4 168/1/4 172/1/4
f 173/1/4 174/1/4 177/1/4
f 174/2/4 175/2/4 178/2/4
f 177/1/4 174/1/4 178/1/4
f 175/1/4 176/1/4 179/1/4
f 178/2/4 175/2/4 179/2/4
f 179/1/4 176/1/4 180/1/4
f 183/1/5 182/1/5 181/1/5
f 184/1/5 182/1/5 183/1/5
f 188/1/5 186/1/5 185/1/5
f 189/1/5 186/1/5 188/1/5
f 192/1/5 190/1/5 189/1/5
f 193/1/5 192/1/5 191/1/5
f 194/1/5 190/1/5 192/1/5
f 194/1/5 192/1/5 193/1/5
f 195/1/5 188/1/5 187/1/5
f 196/1/5 188/1/5 195/1/5
f 197/1/5 190/1/5 194/1/5
f 198/1/5 190/1/5 197/1/5
f 199/1/5 197/1/5 196/1/5
f 200/1/5 197/1/5 199/1/5
f 201/1/6 202/1/6 203/1/6
f 203/1/6 202/1/6 204/1/6
f 201/1/6 203/1/6 205/1/6
f 204/1/6 202/1/6 206/1/6
f 201/1/6 205/1/6 207/1/6
f 205/1/6 206/1/6 207/1/6
f 206/1/6 202/1/6 208/1/6
f 207/1/6 206/1/6 208/1/6
f 209/1/6 210/1/6 211/1/6
f 211/1/6 210/1/6 212/1/6
f 213/3/6 214/3/6 215/3/6
f 215/3/6 214/3/6 216/3/6
f 217/1/6 218/1/6 220/1/6
f 220/1/6 218/1/6 221/1/6
f 219/1/6 220/1/6 223/1/6
f 223/1/6 220/1/6 224/1/6
f 221/1/6 222/1/6 225/1/6
f 225/1/6 222/1/6 226/1/6
f 224/1/6 225/1/6 227/1/6
f 227/1/6 225/1/6 228/1/6
