# MagicaVoxel @ Ephtracy

# group
o 

# material
mtllib Fence0.mtl
usemtl palette

# normals
vn -1 0 0
vn 1 0 0
vn 0 0 1
vn 0 0 -1
vn 0 -1 0
vn 0 1 0

# texcoords
vt 0.0175781 0.5
vt 0.0214844 0.5

# verts
v -1.9 -1.55 0.1
v -1.9 -1.55 0
v -1.9 -1.55 -0.1
v -1.9 -1.05 0.1
v -1.9 -1.05 0
v -1.9 -0.65 0.1
v -1.9 -0.65 0
v -1.9 -0.15 0.1
v -1.9 -0.15 0
v -1.9 1.05 0.1
v -1.9 1.05 -0.1
v -1.9 1.15 0.1
v -1.9 1.15 -0.1
v -1.9 1.25 0.1
v -1.9 1.25 -0.1
v -1.6 -1.55 0.1
v -1.6 -1.55 0
v -1.6 -0.85 0
v -1.6 -0.75 0
v -1.6 -0.05 0
v -1.6 0.0500001 0
v -1.6 0.75 0
v -1.6 0.85 0
v -1.6 1.15 0.2
v -1.6 1.15 0.1
v -1.6 1.15 0
v -1.6 1.35 0.3
v -1.6 1.35 0.2
v -1.6 1.35 0.1
v -1.6 1.55 0.3
v -1.6 1.55 0.2
v 1.5 -1.55 0.1
v 1.5 -1.55 0
v 1.5 -1.45 0.1
v 1.5 -1.45 0
v 1.5 -1.35 0.1
v 1.5 -1.35 0
v 1.5 -0.85 0
v 1.5 -0.85 -0.1
v 1.5 -0.75 0
v 1.5 -0.75 -0.1
v 1.5 -0.55 0.1
v 1.5 -0.55 0
v 1.5 -0.45 0.1
v 1.5 -0.45 0
v 1.5 -0.05 0
v 1.5 -0.05 -0.1
v 1.5 0.0500001 0
v 1.5 0.0500001 -0.1
v 1.5 0.75 0
v 1.5 0.75 -0.1
v 1.5 0.85 0
v 1.5 0.85 -0.1
v 1.5 0.95 0.1
v 1.5 0.95 0
v 1.5 1.05 0.1
v 1.5 1.05 0
v 1.5 1.15 0.1
v 1.5 1.15 0
v 1.5 1.25 0.2
v 1.5 1.25 0.1
v 1.5 1.35 0.2
v 1.5 1.35 0.1
v 1.5 1.45 0.3
v 1.5 1.45 0.2
v 1.5 1.55 0.3
v 1.5 1.55 0.2
v 1.7 -1.55 0.1
v 1.7 -1.55 0
v 1.7 -1.55 -0.1
v 1.7 -1.35 0.1
v 1.7 -1.35 0
v 1.7 -0.85 0
v 1.7 -0.85 -0.1
v 1.7 -0.75 0
v 1.7 -0.75 -0.1
v 1.7 -0.05 0
v 1.7 -0.05 -0.1
v 1.7 0.0500001 0
v 1.7 0.0500001 -0.1
v 1.7 0.25 0.1
v 1.7 0.25 0
v 1.7 0.45 0.1
v 1.7 0.45 0
v 1.7 0.75 0
v 1.7 0.75 -0.1
v 1.7 0.85 0
v 1.7 0.85 -0.1
v 1.7 1.05 0.1
v 1.7 1.05 -0.1
v 1.7 1.15 0.1
v 1.7 1.15 -0.1
v 1.7 1.25 0.1
v 1.7 1.25 -0.1
v -1.7 -1.55 0.1
v -1.7 -1.55 0
v -1.7 -1.55 -0.1
v -1.7 -1.35 0.1
v -1.7 -1.35 0
v -1.7 -0.85 0
v -1.7 -0.85 -0.1
v -1.7 -0.75 0
v -1.7 -0.75 -0.1
v -1.7 -0.05 0
v -1.7 -0.05 -0.1
v -1.7 0.0500001 0
v -1.7 0.0500001 -0.1
v -1.7 0.35 0.1
v -1.7 0.35 0
v -1.7 0.65 0.1
v -1.7 0.65 0
v -1.7 0.75 0
v -1.7 0.75 -0.1
v -1.7 0.85 0
v -1.7 0.85 -0.1
v -1.7 1.05 0.1
v -1.7 1.05 -0.1
v -1.7 1.15 0.1
v -1.7 1.15 -0.1
v -1.7 1.25 0.1
v -1.7 1.25 -0.1
v -1.5 -1.55 0.1
v -1.5 -1.55 0
v -1.5 -1.45 0.1
v -1.5 -1.45 0
v -1.5 -1.35 0.1
v -1.5 -1.35 0
v -1.5 -0.85 0
v -1.5 -0.85 -0.1
v -1.5 -0.75 0
v -1.5 -0.75 -0.1
v -1.5 -0.55 0.1
v -1.5 -0.55 0
v -1.5 -0.45 0.1
v -1.5 -0.45 0
v -1.5 -0.05 0
v -1.5 -0.05 -0.1
v -1.5 0.0500001 0
v -1.5 0.0500001 -0.1
v -1.5 0.75 0
v -1.5 0.75 -0.1
v -1.5 0.85 0
v -1.5 0.85 -0.1
v -1.5 0.95 0.1
v -1.5 0.95 0
v -1.5 1.05 0.1
v -1.5 1.05 0
v -1.5 1.15 0.1
v -1.5 1.15 0
v -1.5 1.25 0.2
v -1.5 1.25 0.1
v -1.5 1.35 0.2
v -1.5 1.35 0.1
v -1.5 1.45 0.3
v -1.5 1.45 0.2
v -1.5 1.55 0.3
v -1.5 1.55 0.2
v 1.6 -1.55 0.1
v 1.6 -1.55 0
v 1.6 -0.85 0
v 1.6 -0.75 0
v 1.6 -0.05 0
v 1.6 0.0500001 0
v 1.6 0.75 0
v 1.6 0.85 0
v 1.6 1.15 0.2
v 1.6 1.15 0.1
v 1.6 1.15 0
v 1.6 1.35 0.3
v 1.6 1.35 0.2
v 1.6 1.35 0.1
v 1.6 1.55 0.3
v 1.6 1.55 0.2
v 1.9 -1.55 0.1
v 1.9 -1.55 0
v 1.9 -1.55 -0.1
v 1.9 -1.15 0.1
v 1.9 -1.15 0
v 1.9 -0.55 0.1
v 1.9 -0.55 0
v 1.9 -0.15 0.1
v 1.9 -0.15 0
v 1.9 0.45 0.1
v 1.9 0.45 0
v 1.9 0.65 0.1
v 1.9 0.65 0
v 1.9 1.05 0.1
v 1.9 1.05 -0.1
v 1.9 1.15 0.1
v 1.9 1.15 -0.1
v 1.9 1.25 0.1
v 1.9 1.25 -0.1
v -1.6 1.35 0.3
v -1.6 1.55 0.3
v -1.5 1.35 0.3
v -1.5 1.45 0.3
v -1.5 1.55 0.3
v 1.5 1.35 0.3
v 1.5 1.45 0.3
v 1.5 1.55 0.3
v 1.6 1.35 0.3
v 1.6 1.55 0.3
v -1.6 1.15 0.2
v -1.6 1.35 0.2
v -1.5 1.15 0.2
v -1.5 1.25 0.2
v -1.5 1.35 0.2
v 1.5 1.15 0.2
v 1.5 1.25 0.2
v 1.5 1.35 0.2
v 1.6 1.15 0.2
v 1.6 1.35 0.2
v -1.9 -1.55 0.1
v -1.9 -1.05 0.1
v -1.9 -0.65 0.1
v -1.9 -0.15 0.1
v -1.9 1.05 0.1
v -1.9 1.15 0.1
v -1.9 1.25 0.1
v -1.8 -1.35 0.1
v -1.8 -1.05 0.1
v -1.8 -0.65 0.1
v -1.8 -0.15 0.1
v -1.8 0.35 0.1
v -1.8 0.65 0.1
v -1.7 -1.55 0.1
v -1.7 -1.35 0.1
v -1.7 0.35 0.1
v -1.7 0.65 0.1
v -1.7 1.05 0.1
v -1.7 1.15 0.1
v -1.7 1.25 0.1
v -1.6 -1.55 0.1
v -1.6 1.15 0.1
v -1.5 -1.55 0.1
v -1.5 -1.45 0.1
v -1.5 -1.35 0.1
v -1.5 -0.55 0.1
v -1.5 -0.45 0.1
v -1.5 0.95 0.1
v -1.5 1.05 0.1
v -1.5 1.15 0.1
v 1.5 -1.55 0.1
v 1.5 -1.45 0.1
v 1.5 -1.35 0.1
v 1.5 -0.55 0.1
v 1.5 -0.45 0.1
v 1.5 0.95 0.1
v 1.5 1.05 0.1
v 1.5 1.15 0.1
v 1.6 -1.55 0.1
v 1.6 1.15 0.1
v 1.7 -1.55 0.1
v 1.7 -1.35 0.1
v 1.7 0.25 0.1
v 1.7 0.45 0.1
v 1.7 1.05 0.1
v 1.7 1.15 0.1
v 1.7 1.25 0.1
v 1.8 -1.35 0.1
v 1.8 -1.15 0.1
v 1.8 -0.55 0.1
v 1.8 -0.15 0.1
v 1.8 0.25 0.1
v 1.8 0.45 0.1
v 1.8 0.65 0.1
v 1.9 -1.55 0.1
v 1.9 -1.15 0.1
v 1.9 -0.55 0.1
v 1.9 -0.15 0.1
v 1.9 0.45 0.1
v 1.9 0.65 0.1
v 1.9 1.05 0.1
v 1.9 1.15 0.1
v 1.9 1.25 0.1
v -1.7 -0.85 0
v -1.7 -0.75 0
v -1.7 -0.05 0
v -1.7 0.0500001 0
v -1.7 0.75 0
v -1.7 0.85 0
v -1.6 -0.85 0
v -1.6 -0.75 0
v -1.6 -0.05 0
v -1.6 0.0500001 0
v -1.6 0.75 0
v -1.6 0.85 0
v 1.6 -0.85 0
v 1.6 -0.75 0
v 1.6 -0.05 0
v 1.6 0.0500001 0
v 1.6 0.75 0
v 1.6 0.85 0
v 1.7 -0.85 0
v 1.7 -0.75 0
v 1.7 -0.05 0
v 1.7 0.0500001 0
v 1.7 0.75 0
v 1.7 0.85 0
v -1.6 1.35 0.2
v -1.6 1.55 0.2
v -1.5 1.35 0.2
v -1.5 1.45 0.2
v -1.5 1.55 0.2
v 1.5 1.35 0.2
v 1.5 1.45 0.2
v 1.5 1.55 0.2
v 1.6 1.35 0.2
v 1.6 1.55 0.2
v -1.6 1.15 0.1
v -1.6 1.35 0.1
v -1.5 1.15 0.1
v -1.5 1.25 0.1
v -1.5 1.35 0.1
v 1.5 1.15 0.1
v 1.5 1.25 0.1
v 1.5 1.35 0.1
v 1.6 1.15 0.1
v 1.6 1.35 0.1
v -1.6 -1.55 0
v -1.6 -0.85 0
v -1.6 -0.75 0
v -1.6 -0.05 0
v -1.6 0.0500001 0
v -1.6 0.75 0
v -1.6 0.85 0
v -1.6 1.15 0
v -1.5 -1.55 0
v -1.5 -1.45 0
v -1.5 -1.35 0
v -1.5 -0.85 0
v -1.5 -0.75 0
v -1.5 -0.55 0
v -1.5 -0.45 0
v -1.5 -0.05 0
v -1.5 0.0500001 0
v -1.5 0.75 0
v -1.5 0.85 0
v -1.5 0.95 0
v -1.5 1.05 0
v -1.5 1.15 0
v 1.5 -1.55 0
v 1.5 -1.45 0
v 1.5 -1.35 0
v 1.5 -0.85 0
v 1.5 -0.75 0
v 1.5 -0.55 0
v 1.5 -0.45 0
v 1.5 -0.05 0
v 1.5 0.0500001 0
v 1.5 0.75 0
v 1.5 0.85 0
v 1.5 0.95 0
v 1.5 1.05 0
v 1.5 1.15 0
v 1.6 -1.55 0
v 1.6 -0.85 0
v 1.6 -0.75 0
v 1.6 -0.05 0
v 1.6 0.0500001 0
v 1.6 0.75 0
v 1.6 0.85 0
v 1.6 1.15 0
v -1.9 -1.55 -0.1
v -1.9 1.05 -0.1
v -1.9 1.15 -0.1
v -1.9 1.25 -0.1
v -1.7 -1.55 -0.1
v -1.7 -0.85 -0.1
v -1.7 -0.75 -0.1
v -1.7 -0.05 -0.1
v -1.7 0.0500001 -0.1
v -1.7 0.75 -0.1
v -1.7 0.85 -0.1
v -1.7 1.05 -0.1
v -1.7 1.15 -0.1
v -1.7 1.25 -0.1
v -1.5 -0.85 -0.1
v -1.5 -0.75 -0.1
v -1.5 -0.05 -0.1
v -1.5 0.0500001 -0.1
v -1.5 0.75 -0.1
v -1.5 0.85 -0.1
v 1.5 -0.85 -0.1
v 1.5 -0.75 -0.1
v 1.5 -0.05 -0.1
v 1.5 0.0500001 -0.1
v 1.5 0.75 -0.1
v 1.5 0.85 -0.1
v 1.7 -1.55 -0.1
v 1.7 -0.85 -0.1
v 1.7 -0.75 -0.1
v 1.7 -0.05 -0.1
v 1.7 0.0500001 -0.1
v 1.7 0.75 -0.1
v 1.7 0.85 -0.1
v 1.7 1.05 -0.1
v 1.7 1.15 -0.1
v 1.7 1.25 -0.1
v 1.9 -1.55 -0.1
v 1.9 1.05 -0.1
v 1.9 1.15 -0.1
v 1.9 1.25 -0.1
v -1.9 -1.55 0.1
v -1.7 -1.55 0.1
v -1.6 -1.55 0.1
v -1.5 -1.55 0.1
v 1.5 -1.55 0.1
v 1.6 -1.55 0.1
v 1.7 -1.55 0.1
v 1.9 -1.55 0.1
v -1.9 -1.55 0
v -1.7 -1.55 0
v -1.6 -1.55 0
v -1.5 -1.55 0
v 1.5 -1.55 0
v 1.6 -1.55 0
v 1.7 -1.55 0
v 1.9 -1.55 0
v -1.9 -1.55 -0.1
v -1.7 -1.55 -0.1
v 1.7 -1.55 -0.1
v 1.9 -1.55 -0.1
v -1.5 -1.45 0.1
v 1.5 -1.45 0.1
v -1.5 -1.45 0
v 1.5 -1.45 0
v -1.7 -0.85 0
v -1.6 -0.85 0
v -1.5 -0.85 0
v 1.5 -0.85 0
v 1.6 -0.85 0
v 1.7 -0.85 0
v -1.7 -0.85 -0.1
v -1.5 -0.85 -0.1
v 1.5 -0.85 -0.1
v 1.7 -0.85 -0.1
v -1.5 -0.55 0.1
v 1.5 -0.55 0.1
v -1.5 -0.55 0
v 1.5 -0.55 0
v -1.7 -0.05 0
v -1.6 -0.05 0
v -1.5 -0.05 0
v 1.5 -0.05 0
v 1.6 -0.05 0
v 1.7 -0.05 0
v -1.7 -0.05 -0.1
v -1.5 -0.05 -0.1
v 1.5 -0.05 -0.1
v 1.7 -0.05 -0.1
v -1.7 0.75 0
v -1.6 0.75 0
v -1.5 0.75 0
v 1.5 0.75 0
v 1.6 0.75 0
v 1.7 0.75 0
v -1.7 0.75 -0.1
v -1.5 0.75 -0.1
v 1.5 0.75 -0.1
v 1.7 0.75 -0.1
v -1.5 0.95 0.1
v 1.5 0.95 0.1
v -1.5 0.95 0
v 1.5 0.95 0
v -1.6 1.15 0.2
v -1.5 1.15 0.2
v 1.5 1.15 0.2
v 1.6 1.15 0.2
v -1.6 1.15 0.1
v -1.5 1.15 0.1
v 1.5 1.15 0.1
v 1.6 1.15 0.1
v -1.6 1.35 0.3
v -1.5 1.35 0.3
v 1.5 1.35 0.3
v 1.6 1.35 0.3
v -1.6 1.35 0.2
v -1.5 1.35 0.2
v 1.5 1.35 0.2
v 1.6 1.35 0.2
v -1.5 -1.35 0.1
v 1.5 -1.35 0.1
v -1.5 -1.35 0
v 1.5 -1.35 0
v -1.7 -0.75 0
v -1.6 -0.75 0
v -1.5 -0.75 0
v 1.5 -0.75 0
v 1.6 -0.75 0
v 1.7 -0.75 0
v -1.7 -0.75 -0.1
v -1.5 -0.75 -0.1
v 1.5 -0.75 -0.1
v 1.7 -0.75 -0.1
v -1.5 -0.45 0.1
v 1.5 -0.45 0.1
v -1.5 -0.45 0
v 1.5 -0.45 0
v -1.7 0.0500001 0
v -1.6 0.0500001 0
v -1.5 0.0500001 0
v 1.5 0.0500001 0
v 1.6 0.0500001 0
v 1.7 0.0500001 0
v -1.7 0.0500001 -0.1
v -1.5 0.0500001 -0.1
v 1.5 0.0500001 -0.1
v 1.7 0.0500001 -0.1
v -1.7 0.85 0
v -1.6 0.85 0
v -1.5 0.85 0
v 1.5 0.85 0
v 1.6 0.85 0
v 1.7 0.85 0
v -1.7 0.85 -0.1
v -1.5 0.85 -0.1
v 1.5 0.85 -0.1
v 1.7 0.85 -0.1
v -1.5 1.05 0.1
v 1.5 1.05 0.1
v -1.5 1.05 0
v 1.5 1.05 0
v -1.6 1.15 0.1
v -1.5 1.15 0.1
v 1.5 1.15 0.1
v 1.6 1.15 0.1
v -1.6 1.15 0
v -1.5 1.15 0
v 1.5 1.15 0
v 1.6 1.15 0
v -1.5 1.25 0.2
v 1.5 1.25 0.2
v -1.9 1.25 0.1
v -1.7 1.25 0.1
v -1.5 1.25 0.1
v 1.5 1.25 0.1
v 1.7 1.25 0.1
v 1.9 1.25 0.1
v -1.9 1.25 -0.1
v -1.7 1.25 -0.1
v 1.7 1.25 -0.1
v 1.9 1.25 -0.1
v -1.6 1.35 0.2
v -1.5 1.35 0.2
v 1.5 1.35 0.2
v 1.6 1.35 0.2
v -1.6 1.35 0.1
v -1.5 1.35 0.1
v 1.5 1.35 0.1
v 1.6 1.35 0.1
v -1.5 1.45 0.3
v 1.5 1.45 0.3
v -1.5 1.45 0.2
v 1.5 1.45 0.2
v -1.6 1.55 0.3
v -1.5 1.55 0.3
v 1.5 1.55 0.3
v 1.6 1.55 0.3
v -1.6 1.55 0.2
v -1.5 1.55 0.2
v 1.5 1.55 0.2
v 1.6 1.55 0.2

# faces
f 4/1/1 2/1/1 1/1/1
f 5/2/1 3/2/1 2/2/1
f 5/1/1 2/1/1 4/1/1
f 6/2/1 5/2/1 4/2/1
f 7/2/1 3/2/1 5/2/1
f 7/2/1 5/2/1 6/2/1
f 8/1/1 7/1/1 6/1/1
f 9/2/1 3/2/1 7/2/1
f 9/1/1 7/1/1 8/1/1
f 10/2/1 9/2/1 8/2/1
f 11/2/1 3/2/1 9/2/1
f 11/2/1 9/2/1 10/2/1
f 12/1/1 11/1/1 10/1/1
f 13/1/1 11/1/1 12/1/1
f 14/2/1 13/2/1 12/2/1
f 15/2/1 13/2/1 14/2/1
f 18/2/1 17/2/1 16/2/1
f 19/2/1 18/2/1 16/2/1
f 20/2/1 19/2/1 16/2/1
f 21/2/1 20/2/1 16/2/1
f 22/2/1 21/2/1 16/2/1
f 23/2/1 22/2/1 16/2/1
f 25/2/1 23/2/1 16/2/1
f 26/2/1 23/2/1 25/2/1
f 28/2/1 25/2/1 24/2/1
f 29/2/1 25/2/1 28/2/1
f 30/2/1 28/2/1 27/2/1
f 31/2/1 28/2/1 30/2/1
f 34/2/1 33/2/1 32/2/1
f 35/2/1 33/2/1 34/2/1
f 38/2/1 37/2/1 36/2/1
f 40/2/1 38/2/1 36/2/1
f 40/1/1 39/1/1 38/1/1
f 41/1/1 39/1/1 40/1/1
f 42/2/1 40/2/1 36/2/1
f 43/2/1 40/2/1 42/2/1
f 46/2/1 45/2/1 44/2/1
f 48/2/1 46/2/1 44/2/1
f 48/1/1 47/1/1 46/1/1
f 49/1/1 47/1/1 48/1/1
f 50/2/1 48/2/1 44/2/1
f 52/2/1 50/2/1 44/2/1
f 52/1/1 51/1/1 50/1/1
f 53/1/1 51/1/1 52/1/1
f 54/2/1 52/2/1 44/2/1
f 55/2/1 52/2/1 54/2/1
f 58/2/1 57/2/1 56/2/1
f 59/2/1 57/2/1 58/2/1
f 62/2/1 61/2/1 60/2/1
f 63/2/1 61/2/1 62/2/1
f 66/2/1 65/2/1 64/2/1
f 67/2/1 65/2/1 66/2/1
f 71/1/1 69/1/1 68/1/1
f 72/2/1 70/2/1 69/2/1
f 72/1/1 69/1/1 71/1/1
f 73/2/1 72/2/1 71/2/1
f 73/2/1 70/2/1 72/2/1
f 74/2/1 70/2/1 73/2/1
f 75/2/1 73/2/1 71/2/1
f 77/2/1 75/2/1 71/2/1
f 77/2/1 76/2/1 75/2/1
f 78/2/1 76/2/1 77/2/1
f 79/2/1 77/2/1 71/2/1
f 81/2/1 79/2/1 71/2/1
f 81/2/1 80/2/1 79/2/1
f 82/2/1 80/2/1 81/2/1
f 83/1/1 82/1/1 81/1/1
f 84/2/1 80/2/1 82/2/1
f 84/1/1 82/1/1 83/1/1
f 85/2/1 84/2/1 83/2/1
f 85/2/1 80/2/1 84/2/1
f 86/2/1 80/2/1 85/2/1
f 87/2/1 85/2/1 83/2/1
f 89/2/1 87/2/1 83/2/1
f 89/2/1 88/2/1 87/2/1
f 90/2/1 88/2/1 89/2/1
f 91/1/1 90/1/1 89/1/1
f 92/1/1 90/1/1 91/1/1
f 93/2/1 92/2/1 91/2/1
f 94/2/1 92/2/1 93/2/1
f 95/1/2 96/1/2 98/1/2
f 96/2/2 97/2/2 99/2/2
f 98/1/2 96/1/2 99/1/2
f 98/2/2 99/2/2 100/2/2
f 99/2/2 97/2/2 100/2/2
f 100/2/2 97/2/2 101/2/2
f 98/2/2 100/2/2 102/2/2
f 98/2/2 102/2/2 104/2/2
f 102/2/2 103/2/2 104/2/2
f 104/2/2 103/2/2 105/2/2
f 98/2/2 104/2/2 106/2/2
f 98/2/2 106/2/2 108/2/2
f 106/2/2 107/2/2 108/2/2
f 108/2/2 107/2/2 109/2/2
f 108/1/2 109/1/2 110/1/2
f 109/2/2 107/2/2 111/2/2
f 110/1/2 109/1/2 111/1/2
f 110/2/2 111/2/2 112/2/2
f 111/2/2 107/2/2 112/2/2
f 112/2/2 107/2/2 113/2/2
f 110/2/2 112/2/2 114/2/2
f 110/2/2 114/2/2 116/2/2
f 114/2/2 115/2/2 116/2/2
f 116/2/2 115/2/2 117/2/2
f 116/1/2 117/1/2 118/1/2
f 118/1/2 117/1/2 119/1/2
f 118/2/2 119/2/2 120/2/2
f 120/2/2 119/2/2 121/2/2
f 122/2/2 123/2/2 124/2/2
f 124/2/2 123/2/2 125/2/2
f 126/2/2 127/2/2 128/2/2
f 126/2/2 128/2/2 130/2/2
f 128/1/2 129/1/2 130/1/2
f 130/1/2 129/1/2 131/1/2
f 126/2/2 130/2/2 132/2/2
f 132/2/2 130/2/2 133/2/2
f 134/2/2 135/2/2 136/2/2
f 134/2/2 136/2/2 138/2/2
f 136/1/2 137/1/2 138/1/2
f 138/1/2 137/1/2 139/1/2
f 134/2/2 138/2/2 140/2/2
f 134/2/2 140/2/2 142/2/2
f 140/1/2 141/1/2 142/1/2
f 142/1/2 141/1/2 143/1/2
f 134/2/2 142/2/2 144/2/2
f 144/2/2 142/2/2 145/2/2
f 146/2/2 147/2/2 148/2/2
f 148/2/2 147/2/2 149/2/2
f 150/2/2 151/2/2 152/2/2
f 152/2/2 151/2/2 153/2/2
f 154/2/2 155/2/2 156/2/2
f 156/2/2 155/2/2 157/2/2
f 158/2/2 159/2/2 160/2/2
f 158/2/2 160/2/2 161/2/2
f 158/2/2 161/2/2 162/2/2
f 158/2/2 162/2/2 163/2/2
f 158/2/2 163/2/2 164/2/2
f 158/2/2 164/2/2 165/2/2
f 158/2/2 165/2/2 167/2/2
f 167/2/2 165/2/2 168/2/2
f 166/2/2 167/2/2 170/2/2
f 170/2/2 167/2/2 171/2/2
f 169/2/2 170/2/2 172/2/2
f 172/2/2 170/2/2 173/2/2
f 174/1/2 175/1/2 177/1/2
f 175/2/2 176/2/2 178/2/2
f 177/1/2 175/1/2 178/1/2
f 177/2/2 178/2/2 179/2/2
f 178/2/2 176/2/2 180/2/2
f 179/2/2 178/2/2 180/2/2
f 179/1/2 180/1/2 181/1/2
f 180/2/2 176/2/2 182/2/2
f 181/1/2 180/1/2 182/1/2
f 181/2/2 182/2/2 183/2/2
f 182/2/2 176/2/2 184/2/2
f 183/2/2 182/2/2 184/2/2
f 183/1/2 184/1/2 185/1/2
f 184/2/2 176/2/2 186/2/2
f 185/1/2 184/1/2 186/1/2
f 185/2/2 186/2/2 187/2/2
f 186/2/2 176/2/2 188/2/2
f 187/2/2 186/2/2 188/2/2
f 187/1/2 188/1/2 189/1/2
f 189/1/2 188/1/2 190/1/2
f 189/2/2 190/2/2 191/2/2
f 191/2/2 190/2/2 192/2/2
f 195/2/3 194/2/3 193/2/3
f 196/2/3 194/2/3 195/2/3
f 197/2/3 194/2/3 196/2/3
f 198/1/3 196/1/3 195/1/3
f 199/1/3 196/1/3 198/1/3
f 201/2/3 199/2/3 198/2/3
f 201/2/3 200/2/3 199/2/3
f 202/2/3 200/2/3 201/2/3
f 205/2/3 204/2/3 203/2/3
f 206/2/3 204/2/3 205/2/3
f 207/2/3 204/2/3 206/2/3
f 208/1/3 206/1/3 205/1/3
f 209/1/3 206/1/3 208/1/3
f 211/2/3 209/2/3 208/2/3
f 211/2/3 210/2/3 209/2/3
f 212/2/3 210/2/3 211/2/3
f 220/1/3 214/1/3 213/1/3
f 221/2/3 215/2/3 214/2/3
f 221/1/3 214/1/3 220/1/3
f 222/1/3 216/1/3 215/1/3
f 222/2/3 215/2/3 221/2/3
f 223/2/3 217/2/3 216/2/3
f 223/1/3 216/1/3 222/1/3
f 224/2/3 217/2/3 223/2/3
f 225/2/3 217/2/3 224/2/3
f 226/1/3 220/1/3 213/1/3
f 227/2/3 221/2/3 220/2/3
f 227/1/3 220/1/3 226/1/3
f 227/2/3 222/2/3 221/2/3
f 227/2/3 223/2/3 222/2/3
f 227/2/3 224/2/3 223/2/3
f 228/1/3 225/1/3 224/1/3
f 228/2/3 224/2/3 227/2/3
f 229/2/3 217/2/3 225/2/3
f 229/1/3 225/1/3 228/1/3
f 230/1/3 218/1/3 217/1/3
f 230/2/3 217/2/3 229/2/3
f 231/2/3 219/2/3 218/2/3
f 231/1/3 218/1/3 230/1/3
f 232/2/3 219/2/3 231/2/3
f 235/2/3 234/2/3 233/2/3
f 236/2/3 234/2/3 235/2/3
f 237/2/3 234/2/3 236/2/3
f 238/2/3 234/2/3 237/2/3
f 239/2/3 234/2/3 238/2/3
f 240/2/3 234/2/3 239/2/3
f 241/2/3 234/2/3 240/2/3
f 242/2/3 234/2/3 241/2/3
f 244/2/3 237/2/3 236/2/3
f 245/2/3 237/2/3 244/2/3
f 246/2/3 239/2/3 238/2/3
f 247/2/3 239/2/3 246/2/3
f 248/2/3 241/2/3 240/2/3
f 249/2/3 241/2/3 248/2/3
f 251/2/3 245/2/3 244/2/3
f 251/2/3 250/2/3 249/2/3
f 251/2/3 249/2/3 248/2/3
f 251/2/3 248/2/3 247/2/3
f 251/2/3 247/2/3 246/2/3
f 251/2/3 246/2/3 245/2/3
f 251/2/3 244/2/3 243/2/3
f 252/2/3 250/2/3 251/2/3
f 260/1/3 254/1/3 253/1/3
f 260/2/3 255/2/3 254/2/3
f 261/2/3 255/2/3 260/2/3
f 262/2/3 255/2/3 261/2/3
f 263/2/3 255/2/3 262/2/3
f 264/1/3 256/1/3 255/1/3
f 264/2/3 255/2/3 263/2/3
f 265/2/3 257/2/3 256/2/3
f 265/1/3 256/1/3 264/1/3
f 266/2/3 257/2/3 265/2/3
f 267/1/3 260/1/3 253/1/3
f 267/1/3 261/1/3 260/1/3
f 268/2/3 262/2/3 261/2/3
f 268/1/3 261/1/3 267/1/3
f 269/1/3 263/1/3 262/1/3
f 269/2/3 262/2/3 268/2/3
f 270/2/3 264/2/3 263/2/3
f 270/1/3 263/1/3 269/1/3
f 270/2/3 265/2/3 264/2/3
f 271/1/3 266/1/3 265/1/3
f 271/2/3 265/2/3 270/2/3
f 272/2/3 257/2/3 266/2/3
f 272/1/3 266/1/3 271/1/3
f 273/1/3 258/1/3 257/1/3
f 273/2/3 257/2/3 272/2/3
f 274/2/3 259/2/3 258/2/3
f 274/1/3 258/1/3 273/1/3
f 275/2/3 259/2/3 274/2/3
f 282/1/3 277/1/3 276/1/3
f 283/1/3 277/1/3 282/1/3
f 284/1/3 279/1/3 278/1/3
f 285/1/3 279/1/3 284/1/3
f 286/1/3 281/1/3 280/1/3
f 287/1/3 281/1/3 286/1/3
f 294/1/3 289/1/3 288/1/3
f 295/1/3 289/1/3 294/1/3
f 296/1/3 291/1/3 290/1/3
f 297/1/3 291/1/3 296/1/3
f 298/1/3 293/1/3 292/1/3
f 299/1/3 293/1/3 298/1/3
f 300/2/4 301/2/4 302/2/4
f 302/2/4 301/2/4 303/2/4
f 303/2/4 301/2/4 304/2/4
f 302/1/4 303/1/4 305/1/4
f 305/1/4 303/1/4 306/1/4
f 305/2/4 306/2/4 308/2/4
f 306/2/4 307/2/4 308/2/4
f 308/2/4 307/2/4 309/2/4
f 310/2/4 311/2/4 312/2/4
f 312/2/4 311/2/4 313/2/4
f 313/2/4 311/2/4 314/2/4
f 312/1/4 313/1/4 315/1/4
f 315/1/4 313/1/4 316/1/4
f 315/2/4 316/2/4 318/2/4
f 316/2/4 317/2/4 318/2/4
f 318/2/4 317/2/4 319/2/4
f 320/2/4 321/2/4 328/2/4
f 328/2/4 321/2/4 329/2/4
f 329/2/4 321/2/4 330/2/4
f 330/2/4 321/2/4 331/2/4
f 322/2/4 323/2/4 332/2/4
f 332/2/4 323/2/4 333/2/4
f 333/2/4 323/2/4 334/2/4
f 334/2/4 323/2/4 335/2/4
f 324/2/4 325/2/4 336/2/4
f 336/2/4 325/2/4 337/2/4
f 326/2/4 327/2/4 338/2/4
f 338/2/4 327/2/4 339/2/4
f 339/2/4 327/2/4 340/2/4
f 340/2/4 327/2/4 341/2/4
f 329/2/4 330/2/4 343/2/4
f 343/2/4 330/2/4 344/2/4
f 333/2/4 334/2/4 347/2/4
f 347/2/4 334/2/4 348/2/4
f 339/2/4 340/2/4 353/2/4
f 353/2/4 340/2/4 354/2/4
f 344/2/4 345/2/4 356/2/4
f 342/2/4 343/2/4 356/2/4
f 343/2/4 344/2/4 356/2/4
f 356/2/4 345/2/4 357/2/4
f 346/2/4 347/2/4 358/2/4
f 347/2/4 348/2/4 358/2/4
f 348/2/4 349/2/4 358/2/4
f 358/2/4 349/2/4 359/2/4
f 350/2/4 351/2/4 360/2/4
f 360/2/4 351/2/4 361/2/4
f 354/2/4 355/2/4 362/2/4
f 353/2/4 354/2/4 362/2/4
f 352/2/4 353/2/4 362/2/4
f 362/2/4 355/2/4 363/2/4
f 364/2/4 365/2/4 368/2/4
f 368/2/4 365/2/4 369/2/4
f 369/2/4 365/2/4 370/2/4
f 370/2/4 365/2/4 371/2/4
f 371/2/4 365/2/4 372/2/4
f 372/2/4 365/2/4 373/2/4
f 373/2/4 365/2/4 374/2/4
f 365/1/4 366/1/4 375/1/4
f 374/2/4 365/2/4 375/2/4
f 366/2/4 367/2/4 376/2/4
f 375/1/4 366/1/4 376/1/4
f 376/2/4 367/2/4 377/2/4
f 369/1/4 370/1/4 378/1/4
f 378/1/4 370/1/4 379/1/4
f 371/1/4 372/1/4 380/1/4
f 380/1/4 372/1/4 381/1/4
f 373/1/4 374/1/4 382/1/4
f 382/1/4 374/1/4 383/1/4
f 384/1/4 385/1/4 391/1/4
f 391/1/4 385/1/4 392/1/4
f 386/1/4 387/1/4 393/1/4
f 393/1/4 387/1/4 394/1/4
f 388/1/4 389/1/4 395/1/4
f 395/1/4 389/1/4 396/1/4
f 395/2/4 396/2/4 400/2/4
f 393/2/4 394/2/4 400/2/4
f 391/2/4 392/2/4 400/2/4
f 396/2/4 397/2/4 400/2/4
f 394/2/4 395/2/4 400/2/4
f 390/2/4 391/2/4 400/2/4
f 392/2/4 393/2/4 400/2/4
f 397/1/4 398/1/4 401/1/4
f 400/2/4 397/2/4 401/2/4
f 398/2/4 399/2/4 402/2/4
f 401/1/4 398/1/4 402/1/4
f 402/2/4 399/2/4 403/2/4
f 412/1/5 405/1/5 404/1/5
f 413/1/5 405/1/5 412/1/5
f 414/2/5 407/2/5 406/2/5
f 415/2/5 407/2/5 414/2/5
f 416/2/5 409/2/5 408/2/5
f 417/2/5 409/2/5 416/2/5
f 418/1/5 411/1/5 410/1/5
f 419/1/5 411/1/5 418/1/5
f 420/2/5 413/2/5 412/2/5
f 421/2/5 413/2/5 420/2/5
f 422/2/5 419/2/5 418/2/5
f 423/2/5 419/2/5 422/2/5
f 426/2/5 425/2/5 424/2/5
f 427/2/5 425/2/5 426/2/5
f 434/1/5 429/1/5 428/1/5
f 434/1/5 430/1/5 429/1/5
f 435/1/5 430/1/5 434/1/5
f 436/1/5 433/1/5 432/1/5
f 436/1/5 432/1/5 431/1/5
f 437/1/5 433/1/5 436/1/5
f 440/2/5 439/2/5 438/2/5
f 441/2/5 439/2/5 440/2/5
f 448/1/5 443/1/5 442/1/5
f 448/1/5 444/1/5 443/1/5
f 449/1/5 444/1/5 448/1/5
f 450/1/5 447/1/5 446/1/5
f 450/1/5 446/1/5 445/1/5
f 451/1/5 447/1/5 450/1/5
f 458/1/5 453/1/5 452/1/5
f 458/1/5 454/1/5 453/1/5
f 459/1/5 454/1/5 458/1/5
f 460/1/5 457/1/5 456/1/5
f 460/1/5 456/1/5 455/1/5
f 461/1/5 457/1/5 460/1/5
f 464/2/5 463/2/5 462/2/5
f 465/2/5 463/2/5 464/2/5
f 470/2/5 467/2/5 466/2/5
f 471/1/5 468/1/5 467/1/5
f 471/2/5 467/2/5 470/2/5
f 472/2/5 469/2/5 468/2/5
f 472/1/5 468/1/5 471/1/5
f 473/2/5 469/2/5 472/2/5
f 478/2/5 475/2/5 474/2/5
f 479/1/5 476/1/5 475/1/5
f 479/2/5 475/2/5 478/2/5
f 480/2/5 477/2/5 476/2/5
f 480/1/5 476/1/5 479/1/5
f 481/2/5 477/2/5 480/2/5
f 482/2/6 483/2/6 484/2/6
f 484/2/6 483/2/6 485/2/6
f 486/1/6 487/1/6 492/1/6
f 487/1/6 488/1/6 492/1/6
f 492/1/6 488/1/6 493/1/6
f 490/1/6 491/1/6 494/1/6
f 489/1/6 490/1/6 494/1/6
f 494/1/6 491/1/6 495/1/6
f 496/2/6 497/2/6 498/2/6
f 498/2/6 497/2/6 499/2/6
f 500/1/6 501/1/6 506/1/6
f 501/1/6 502/1/6 506/1/6
f 506/1/6 502/1/6 507/1/6
f 504/1/6 505/1/6 508/1/6
f 503/1/6 504/1/6 508/1/6
f 508/1/6 505/1/6 509/1/6
f 510/1/6 511/1/6 516/1/6
f 511/1/6 512/1/6 516/1/6
f 516/1/6 512/1/6 517/1/6
f 514/1/6 515/1/6 518/1/6
f 513/1/6 514/1/6 518/1/6
f 518/1/6 515/1/6 519/1/6
f 520/2/6 521/2/6 522/2/6
f 522/2/6 521/2/6 523/2/6
f 524/2/6 525/2/6 528/2/6
f 528/2/6 525/2/6 529/2/6
f 526/2/6 527/2/6 530/2/6
f 530/2/6 527/2/6 531/2/6
f 532/1/6 533/1/6 536/1/6
f 536/1/6 533/1/6 537/1/6
f 534/2/6 535/2/6 540/2/6
f 540/2/6 535/2/6 541/2/6
f 538/2/6 539/2/6 542/2/6
f 542/2/6 539/2/6 543/2/6
f 544/2/6 545/2/6 548/2/6
f 548/2/6 545/2/6 549/2/6
f 546/2/6 547/2/6 550/2/6
f 550/2/6 547/2/6 551/2/6
f 552/1/6 553/1/6 554/1/6
f 554/1/6 553/1/6 555/1/6
f 556/2/6 557/2/6 560/2/6
f 560/2/6 557/2/6 561/2/6
f 558/2/6 559/2/6 562/2/6
f 562/2/6 559/2/6 563/2/6
