# Made in Blockbench 4.12.6
mtllib YellowMetalFence_BB.mtl

o cuboid
v 0.425 0.29999999999999993 0.012499999999999956
v 0.425 0.29999999999999993 -0.012499999999999956
v 0.0625 0.32499999999999996 0.012499999999999956
v 0.0625 0.32499999999999996 -0.012499999999999956
v 0.075 0.30000000000000004 -0.012499999999999956
v 0.075 0.30000000000000004 0.012499999999999956
v 0.018305826175840832 0.2995558261758407 0.012499999999999956
v 0.018305826175840832 0.2995558261758407 -0.012499999999999956
v 0.03080582617584083 0.27455582617584073 0.012499999999999956
v 0.03080582617584083 0.27455582617584073 -0.012499999999999956
v 0.4031331504496163 0.29961529749780114 -0.012499999999999949
v 0.40311684955038307 0.3253847025021989 -0.012499999999999949
v 0.40311684955038307 0.3253847025021989 0.012499999999999949
v 0.4031331504496163 0.29961529749780114 0.012499999999999949
v 0.4260993895694011 0.0000096700074747047 -0.012499999999999956
v 0.4042325400190174 -0.00037503249472412015 -0.012499999999999949
v 0.4260993895694011 0.0000096700074747047 0.012499999999999956
v 0.4042325400190174 -0.00037503249472412015 0.012499999999999949
v 0.0125 0.27455582617584073 -0.012499999999999956
v 0.0125 0.27455582617584073 0.012499999999999956
v 0.0125 0.2995558261758407 0.012499999999999956
v 0.0125 0.2995558261758407 -0.012499999999999956
v 0.0125 -0.0004441738241593163 0.012499999999999956
v 0.0125 -0.0004441738241593163 -0.012499999999999956
v -0.425 0.29999999999999993 0.012499999999999956
v -0.425 0.29999999999999993 -0.012499999999999956
v -0.0625 0.32499999999999996 0.012499999999999956
v -0.0625 0.32499999999999996 -0.012499999999999956
v -0.075 0.30000000000000004 -0.012499999999999956
v -0.075 0.30000000000000004 0.012499999999999956
v -0.018305826175840832 0.2995558261758407 0.012499999999999956
v -0.018305826175840832 0.2995558261758407 -0.012499999999999956
v -0.03080582617584083 0.27455582617584073 0.012499999999999956
v -0.03080582617584083 0.27455582617584073 -0.012499999999999956
v -0.4031331504496163 0.29961529749780114 -0.012499999999999949
v -0.40311684955038307 0.3253847025021989 -0.012499999999999949
v -0.40311684955038307 0.3253847025021989 0.012499999999999949
v -0.4031331504496163 0.29961529749780114 0.012499999999999949
v -0.4260993895694011 0.0000096700074747047 -0.012499999999999956
v -0.4042325400190174 -0.00037503249472412015 -0.012499999999999949
v -0.4260993895694011 0.0000096700074747047 0.012499999999999956
v -0.4042325400190174 -0.00037503249472412015 0.012499999999999949
v -0.0125 0.27455582617584073 -0.012499999999999956
v -0.0125 0.27455582617584073 0.012499999999999956
v -0.0125 0.2995558261758407 0.012499999999999956
v -0.0125 0.2995558261758407 -0.012499999999999956
v -0.0125 -0.0004441738241593163 0.012499999999999956
v -0.0125 -0.0004441738241593163 -0.012499999999999956
vt 0.199440625 0.9745843750000001
vt 0.20859375 0.9745843750000001
vt 0.20859375 0.987084375
vt 0.205690625 0.987084375
vt 0.223996875 0.768334375
vt 0.22109375 0.768334375
vt 0.22109375 0.7558343750000001
vt 0.230246875 0.7558343750000001
vt 0.13635468750000002 0.49687500000000007
vt 0.1272015625 0.49687500000000007
vt 0.1272015625 0.4843750000000001
vt 0.13635468750000002 0.4843750000000001
vt 0.375 0.65625
vt 0.34375 0.65625
vt 0.34375 0.625
vt 0.375 0.625
vt 0.416403125 0.78125
vt 0.41640937499999997 0.7683625000000001
vt 0.42734375 0.76855625
vt 0.0023437500000000056 0.98730625
vt 0.013278125000000002 0.9871125000000001
vt 0.013284374999999987 1
vt 0.223996875 0.768334375
vt 0.230246875 0.7558343750000001
vt 0.25234375 0.76855625
vt 0.24609375 0.78105625
vt 0.5328125 0.74169375
vt 0.5453125 0.74169375
vt 0.5453125 0.767190625
vt 0.5328125 0.767190625
vt 0.199440625 0.9745843750000001
vt 0.205690625 0.987084375
vt 0.18359375 0.99980625
vt 0.17734375 0.98730625
vt 0.13635468750000002 0.49687500000000007
vt 0.13635468750000002 0.4843750000000001
vt 0.16185468749999998 0.4843750000000001
vt 0.1618546875 0.49687500000000007
vt 0.013284374999999987 1
vt 0.013278125000000002 0.9871125000000001
vt 0.17734375 0.98730625
vt 0.18359375 0.99980625
vt 0.5453125 0.9375
vt 0.5328125 0.9375
vt 0.5328125 0.767190625
vt 0.5453125 0.767190625
vt 0.41640937499999997 0.7683625000000001
vt 0.416403125 0.78125
vt 0.24609375 0.78105625
vt 0.25234375 0.76855625
vt 0.32592343749999997 0.484375
vt 0.32592343749999997 0.49687499999999996
vt 0.1618546875 0.49687500000000007
vt 0.16185468749999998 0.4843750000000001
vt 0.375 0.6875
vt 0.375 0.71875
vt 0.34375 0.71875
vt 0.34375 0.6875
vt 0 0.5
vt 0 0.34375
vt 0.03125 0.34375
vt 0.03125 0.5
vt 0.0023437500000000056 0.98730625
vt 0.0017937500000000106 0.8373125
vt 0.012728125000000007 0.83711875
vt 0.013278125000000002 0.9871125000000001
vt 0.46875 0.9375
vt 0.46875 0.78125
vt 0.5 0.78125
vt 0.5 0.9375
vt 0.41640937499999997 0.7683625000000001
vt 0.416959375 0.61836875
vt 0.42789374999999996 0.6185625
vt 0.42734375 0.76855625
vt 0.270871875 0.43437499999999996
vt 0.26796875 0.43437499999999996
vt 0.26796875 0.421875
vt 0.270871875 0.421875
vt 0.25546875 0.421875
vt 0.26796875 0.421875
vt 0.26796875 0.43437499999999996
vt 0.25546875 0.43437499999999996
vt 0.20859375 0.7558343750000001
vt 0.22109375 0.7558343750000001
vt 0.22109375 0.768334375
vt 0.20859375 0.768334375
vt 0.22109375 0.987084375
vt 0.20859375 0.987084375
vt 0.20859375 0.9745843750000001
vt 0.22109375 0.9745843750000001
vt 0.375 0.90625
vt 0.375 0.9375
vt 0.34375 0.9375
vt 0.34375 0.90625
vt 0.0625 0.8125
vt 0.09375 0.8125
vt 0.09375 0.9375
vt 0.0625 0.9375
vt 0.20859375 0.618334375
vt 0.22109375 0.618334375
vt 0.22109375 0.7558343750000001
vt 0.20859375 0.7558343750000001
vt 0.20859375 0.837084375
vt 0.22109375 0.837084375
vt 0.22109375 0.9745843750000001
vt 0.20859375 0.9745843750000001
vt 0.125 0.9375
vt 0.125 0.8125
vt 0.15625 0.8125
vt 0.15625 0.9375
vt 0.0625 0.71875
vt 0.0625 0.59375
vt 0.09375 0.59375
vt 0.09375 0.71875
vt 0.28125 0.9375
vt 0.28125 0.8125
vt 0.3125 0.8125
vt 0.3125 0.9375
vt 0.22109375 0.987084375
vt 0.22109375 0.9745843750000001
vt 0.230246875 0.9745843750000001
vt 0.223996875 0.987084375
vt 0.20859375 0.7558343750000001
vt 0.20859375 0.768334375
vt 0.205690625 0.768334375
vt 0.199440625 0.7558343750000001
vt 0.5759234375 0.4843750000000001
vt 0.5759234375 0.49687500000000007
vt 0.5667703125 0.49687500000000007
vt 0.5667703125 0.4843750000000001
vt 0.5625 0.65625
vt 0.5625 0.6875
vt 0.53125 0.6875
vt 0.53125 0.65625
vt 0.013278125000000002 0.7683625000000001
vt 0.013284374999999987 0.78125
vt 0.0023437500000000056 0.76855625
vt 0.41640937499999997 0.9871125000000001
vt 0.42734375 0.98730625
vt 0.416403125 1
vt 0.17734375 0.76855625
vt 0.199440625 0.7558343750000001
vt 0.205690625 0.768334375
vt 0.18359375 0.78105625
vt 0.1265625 0.267190625
vt 0.1265625 0.24169375000000004
vt 0.1390625 0.24169375000000004
vt 0.1390625 0.267190625
vt 0.24609375 0.99980625
vt 0.223996875 0.987084375
vt 0.230246875 0.9745843750000001
vt 0.25234375 0.98730625
vt 0.5412703125 0.4843750000000001
vt 0.5667703125 0.4843750000000001
vt 0.5667703125 0.49687500000000007
vt 0.5412703125 0.49687500000000007
vt 0.25234375 0.98730625
vt 0.41640937499999997 0.9871125000000001
vt 0.416403125 1
vt 0.24609375 0.99980625
vt 0.1390625 0.267190625
vt 0.1390625 0.4375
vt 0.1265625 0.4375
vt 0.1265625 0.267190625
vt 0.18359375 0.78105625
vt 0.013284374999999987 0.78125
vt 0.013278125000000002 0.7683625000000001
vt 0.17734375 0.76855625
vt 0.5412703125 0.49687500000000007
vt 0.37720156250000003 0.49687499999999996
vt 0.37720156250000003 0.484375
vt 0.5412703125 0.4843750000000001
vt 0.375 0.875
vt 0.34375 0.875
vt 0.34375 0.84375
vt 0.375 0.84375
vt 0.0625 0.34375
vt 0.09375 0.34375
vt 0.09375 0.5
vt 0.0625 0.5
vt 0.416959375 0.83711875
vt 0.42789374999999996 0.8373125
vt 0.42734375 0.98730625
vt 0.41640937499999997 0.9871125000000001
vt 0.46875 0.59375
vt 0.5 0.59375
vt 0.5 0.75
vt 0.46875 0.75
vt 0.0017937500000000106 0.6185625
vt 0.012728125000000007 0.61836875
vt 0.013278125000000002 0.7683625000000001
vt 0.0023437500000000056 0.76855625
vt 0.25546875 0.421875
vt 0.25546875 0.43437499999999996
vt 0.252565625 0.43437499999999996
vt 0.252565625 0.421875
vt 0.28125 0.71875
vt 0.28125 0.59375
vt 0.3125 0.59375
vt 0.3125 0.71875
vt 0.125 0.59375
vt 0.15625 0.59375
vt 0.15625 0.71875
vt 0.125 0.71875
vn 0 0 -1
vn 0 0 1
vn 0 -1 0
vn 0.7574131160484557 0.6529359628920502 0
vn -3.1732127975902623e-16 -2.0072726572550578e-19 1
vn -3.1732127975902623e-16 -2.0072726572550578e-19 -1
vn 0 0 1
vn -0.4989503570772684 0.8666305678733393 0
vn 0 0 -1
vn 0.4989503570772684 -0.8666305678733393 0
vn 2.114659564397344e-17 1.3376658275931271e-20 -1
vn -0.0011294281458533624 0.9999993621958283 0
vn 2.0371537566751178e-17 1.2886381390821528e-20 1
vn -0.0011723967459007062 -0.999999312742699 0
vn 0.017590233110417408 -0.9998452798804031 0
vn 0.9999932848712666 0.0036647254159358875 0
vn -3.1730435333289527e-16 -1.162841136874093e-18 -1
vn -0.9999932848712665 -0.003664725415935887 0
vn -3.1730435333289527e-16 -1.1628411368740929e-18 1
vn 0 -1 0
vn 0 -1 0
vn 0 0 1
vn 0 0 -1
vn 0 -1 0
vn 1 0 0
vn 0 0 1
vn 0 0 -1
vn 0 0 1
vn 1 0 0
vn 0 0 -1
vn 0 0 -1
vn 0 0 1
vn 0 -1 0
vn -0.7574131160484556 0.6529359628920502 0
vn 3.1732127975902623e-16 -2.0072726572550578e-19 1
vn 3.1732127975902623e-16 -2.0072726572550578e-19 -1
vn 0 0 1
vn 0.4989503570772684 0.8666305678733393 0
vn 0 0 -1
vn -0.4989503570772684 -0.8666305678733393 0
vn -2.1146595643973447e-17 1.3376658275931274e-20 -1
vn 0.0011294281458533624 0.9999993621958283 0
vn -2.0371537566751175e-17 1.2886381390821526e-20 1
vn 0.0011723967459007062 -0.999999312742699 0
vn -0.017590233110417405 -0.9998452798804031 0
vn -0.9999932848712666 0.0036647254159358875 0
vn 3.1730435333289527e-16 -1.162841136874093e-18 -1
vn 0.9999932848712665 -0.003664725415935887 0
vn 3.1730435333289527e-16 -1.162841136874093e-18 1
vn 0 -1 0
vn -1 0 0
vn -1 0 0
usemtl m_ed3f9074-a494-6276-f9b8-17c18aab95ca
f 10/1/1 19/2/1 22/3/1 8/4/1
f 7/5/2 21/6/2 20/7/2 9/8/2
f 9/9/3 20/10/3 19/11/3 10/12/3
f 12/13/4 13/14/4 1/15/4 2/16/4
f 13/17/5 14/18/5 1/19/5
f 2/20/6 11/21/6 12/22/6
f 7/23/7 9/24/7 6/25/7 3/26/7
f 8/27/8 7/28/8 3/29/8 4/30/8
f 10/31/9 8/32/9 4/33/9 5/34/9
f 9/35/10 10/36/10 5/37/10 6/38/10
f 12/39/11 11/40/11 5/41/11 4/42/11
f 13/43/12 12/44/12 4/45/12 3/46/12
f 14/47/13 13/48/13 3/49/13 6/50/13
f 11/51/14 14/52/14 6/53/14 5/54/14
f 16/55/15 15/56/15 17/57/15 18/58/15
f 1/59/16 17/60/16 15/61/16 2/62/16
f 2/63/17 15/64/17 16/65/17 11/66/17
f 11/67/18 16/68/18 18/69/18 14/70/18
f 14/71/19 18/72/19 17/73/19 1/74/19
f 7/75/20 21/76/20 22/77/20 8/78/20
f 46/79/21 22/80/21 21/81/21 45/82/21
f 44/83/22 20/84/22 21/85/22 45/86/22
f 46/87/23 22/88/23 19/89/23 43/90/23
f 24/91/24 23/92/24 47/93/24 48/94/24
f 23/95/25 24/96/25 19/97/25 20/98/25
f 47/99/26 23/100/26 20/101/26 44/102/26
f 24/103/27 48/104/27 43/105/27 19/106/27
f 44/107/28 47/108/28 23/109/28 20/110/28
f 20/111/29 23/112/29 24/113/29 19/114/29
f 19/115/30 24/116/30 48/117/30 43/118/30
f 46/119/31 43/120/31 34/121/31 32/122/31
f 44/123/32 45/124/32 31/125/32 33/126/32
f 43/127/33 44/128/33 33/129/33 34/130/33
f 25/131/34 37/132/34 36/133/34 26/134/34
f 38/135/35 37/136/35 25/137/35
f 35/138/36 26/139/36 36/140/36
f 30/141/37 33/142/37 31/143/37 27/144/37
f 27/145/38 31/146/38 32/147/38 28/148/38
f 28/149/39 32/150/39 34/151/39 29/152/39
f 29/153/40 34/154/40 33/155/40 30/156/40
f 29/157/41 35/158/41 36/159/41 28/160/41
f 28/161/42 36/162/42 37/163/42 27/164/42
f 27/165/43 37/166/43 38/167/43 30/168/43
f 30/169/44 38/170/44 35/171/44 29/172/44
f 41/173/45 39/174/45 40/175/45 42/176/45
f 39/177/46 41/178/46 25/179/46 26/180/46
f 40/181/47 39/182/47 26/183/47 35/184/47
f 42/185/48 40/186/48 35/187/48 38/188/48
f 41/189/49 42/190/49 38/191/49 25/192/49
f 46/193/50 45/194/50 31/195/50 32/196/50
f 43/197/51 48/198/51 47/199/51 44/200/51
f 48/201/52 47/202/52 44/203/52 43/204/52
o cuboid
v 0.0062500000000000056 0.26249999999999996 0.006249999999999989
v 0.0062500000000000056 0.26249999999999996 -0.006249999999999989
v 0.0062500000000000056 0.25 0.006249999999999989
v 0.0062500000000000056 0.25 -0.006249999999999989
v 0.40625 0.26249999999999996 0.006249999999999989
v 0.40625 0.26249999999999996 -0.006249999999999989
v 0.40625 0.25 0.006249999999999989
v 0.40625 0.25 -0.006249999999999989
vt 0 0.53125
vt 0.1875 0.53125
vt 0.1875 0.5625
vt 0 0.5625
vt 0.40625 0.53125
vt 0.40625 0.5625
vt 0.21875 0.5625
vt 0.21875 0.53125
vt 0.625 0.53125
vt 0.625 0.5625
vt 0.4375 0.5625
vt 0.4375 0.53125
vt 0.65625 1
vt 0.46875 1
vt 0.46875 0.96875
vt 0.65625 0.96875
vt 0.5625 0.59375
vt 0.5625 0.625
vt 0.53125 0.625
vt 0.53125 0.59375
vt 0.21875 0.4375
vt 0.1875 0.4375
vt 0.1875 0.40625
vt 0.21875 0.40625
vn 0 1 0
vn 0 -1 0
vn 0 0 1
vn 0 0 -1
vn -1 0 0
vn 1 0 0
usemtl m_ed3f9074-a494-6276-f9b8-17c18aab95ca
f 49/205/53 53/206/53 54/207/53 50/208/53
f 56/209/54 55/210/54 51/211/54 52/212/54
f 55/213/55 53/214/55 49/215/55 51/216/55
f 50/217/56 54/218/56 56/219/56 52/220/56
f 51/221/57 49/222/57 50/223/57 52/224/57
f 54/225/58 53/226/58 55/227/58 56/228/58
o cuboid
v -0.0062500000000000056 0.26249999999999996 0.006249999999999989
v -0.0062500000000000056 0.26249999999999996 -0.006249999999999989
v -0.0062500000000000056 0.25 0.006249999999999989
v -0.0062500000000000056 0.25 -0.006249999999999989
v -0.40625 0.26249999999999996 0.006249999999999989
v -0.40625 0.26249999999999996 -0.006249999999999989
v -0.40625 0.25 0.006249999999999989
v -0.40625 0.25 -0.006249999999999989
vt 0.375 0.59375
vt 0.375 0.53125
vt 0.3125 0.53125
vt 0.3125 0.59375
vt 0.40625 0.625
vt 0.46875 0.625
vt 0.46875 0.5625
vt 0.40625 0.5625
vt 0.3125 0.65625
vt 0.9375 0.65625
vt 0.9375 0.625
vt 0.3125 0.625
vt 0.3125 0.625
vt 0.3125 0.65625
vt 0.9375 0.65625
vt 0.9375 0.625
vt 0.9375 0.65625
vt 0.3125 0.65625
vt 0.3125 0.625
vt 0.9375 0.625
vt 0 0.5625
vt 0 0.625
vt 0.1875 0.625
vt 0.1875 0.5625
vn 0 1 0
vn 0 -1 0
vn 0 0 1
vn 0 0 -1
vn 1 0 0
vn -1 0 0
usemtl m_ed3f9074-a494-6276-f9b8-17c18aab95ca
f 62/229/59 61/230/59 57/231/59 58/232/59
f 59/233/60 63/234/60 64/235/60 60/236/60
f 57/237/61 61/238/61 63/239/61 59/240/61
f 64/241/62 62/242/62 58/243/62 60/244/62
f 58/245/63 57/246/63 59/247/63 60/248/63
f 63/249/64 61/250/64 62/251/64 64/252/64