# MagicaVoxel @ Ephtracy

# group
o 

# material
mtllib Box0.mtl
usemtl palette

# normals
vn -1 0 0
vn 1 0 0
vn 0 0 1
vn 0 0 -1
vn 0 -1 0
vn 0 1 0

# texcoords
vt 0.0761719 0.5
vt 0.0800781 0.5
vt 0.0839844 0.5

# verts
v -0.2 0 0.2
v -0.2 0 -0.2
v -0.2 0.2 0.3
v -0.2 0.2 0.2
v -0.2 0.2 0.1
v -0.2 0.2 -0.1
v -0.2 0.2 -0.2
v -0.2 0.2 -0.3
v -0.2 0.3 0.3
v -0.2 0.3 0.1
v -0.2 0.3 -0.1
v -0.2 0.3 -0.3
v 0.1 0.1 0.1
v 0.1 0.1 -0.1
v 0.1 0.2 0.1
v 0.1 0.2 -0.1
v -0.1 0.1 0.1
v -0.1 0.1 -0.1
v -0.1 0.2 0.1
v -0.1 0.2 -0.1
v 0.2 0 0.2
v 0.2 0 -0.2
v 0.2 0.2 0.3
v 0.2 0.2 0.2
v 0.2 0.2 0.1
v 0.2 0.2 -0.1
v 0.2 0.2 -0.2
v 0.2 0.2 -0.3
v 0.2 0.3 0.3
v 0.2 0.3 0.1
v 0.2 0.3 -0.1
v 0.2 0.3 -0.3
v -0.2 0.2 0.3
v -0.2 0.3 0.3
v 0.2 0.2 0.3
v 0.2 0.3 0.3
v -0.2 0 0.2
v -0.2 0.2 0.2
v 0 0 0.2
v 0 0.2 0.2
v 0.1 0 0.2
v 0.1 0.2 0.2
v 0.2 0 0.2
v 0.2 0.2 0.2
v -0.2 0.2 -0.1
v -0.2 0.3 -0.1
v -0.1 0.1 -0.1
v -0.1 0.2 -0.1
v 0 0.1 -0.1
v 0 0.2 -0.1
v 0.1 0.1 -0.1
v 0.1 0.2 -0.1
v 0.2 0.2 -0.1
v 0.2 0.3 -0.1
v -0.2 0.2 0.1
v -0.2 0.3 0.1
v -0.1 0.1 0.1
v -0.1 0.2 0.1
v 0 0.1 0.1
v 0 0.2 0.1
v 0.1 0.1 0.1
v 0.1 0.2 0.1
v 0.2 0.2 0.1
v 0.2 0.3 0.1
v -0.2 0 -0.2
v -0.2 0.2 -0.2
v 0 0 -0.2
v 0 0.2 -0.2
v 0.1 0 -0.2
v 0.1 0.2 -0.2
v 0.2 0 -0.2
v 0.2 0.2 -0.2
v -0.2 0.2 -0.3
v -0.2 0.3 -0.3
v 0.2 0.2 -0.3
v 0.2 0.3 -0.3
v -0.2 0 0.2
v 0 0 0.2
v 0.1 0 0.2
v 0.2 0 0.2
v -0.2 0 -0.2
v 0 0 -0.2
v 0.1 0 -0.2
v 0.2 0 -0.2
v -0.2 0.2 0.3
v 0.2 0.2 0.3
v -0.2 0.2 0.2
v 0 0.2 0.2
v 0.1 0.2 0.2
v 0.2 0.2 0.2
v -0.2 0.2 -0.2
v 0 0.2 -0.2
v 0.1 0.2 -0.2
v 0.2 0.2 -0.2
v -0.2 0.2 -0.3
v 0.2 0.2 -0.3
v -0.1 0.1 0.1
v 0 0.1 0.1
v 0.1 0.1 0.1
v -0.1 0.1 -0.1
v 0 0.1 -0.1
v 0.1 0.1 -0.1
v -0.2 0.2 0.1
v -0.1 0.2 0.1
v 0.1 0.2 0.1
v 0.2 0.2 0.1
v -0.2 0.2 -0.1
v -0.1 0.2 -0.1
v 0.1 0.2 -0.1
v 0.2 0.2 -0.1
v -0.2 0.3 0.3
v 0.2 0.3 0.3
v -0.2 0.3 0.1
v 0.2 0.3 0.1
v -0.2 0.3 -0.1
v 0.2 0.3 -0.1
v -0.2 0.3 -0.3
v 0.2 0.3 -0.3

# faces
f 4/2/1 2/2/1 1/2/1
f 5/2/1 2/2/1 4/2/1
f 6/2/1 2/2/1 5/2/1
f 7/2/1 2/2/1 6/2/1
f 9/3/1 4/3/1 3/3/1
f 9/3/1 5/3/1 4/3/1
f 10/3/1 5/3/1 9/3/1
f 11/3/1 8/3/1 7/3/1
f 11/3/1 7/3/1 6/3/1
f 12/3/1 8/3/1 11/3/1
f 15/2/1 14/2/1 13/2/1
f 16/2/1 14/2/1 15/2/1
f 17/2/2 18/2/2 19/2/2
f 19/2/2 18/2/2 20/2/2
f 21/2/2 22/2/2 24/2/2
f 24/2/2 22/2/2 25/2/2
f 25/2/2 22/2/2 26/2/2
f 26/2/2 22/2/2 27/2/2
f 23/3/2 24/3/2 29/3/2
f 24/3/2 25/3/2 29/3/2
f 29/3/2 25/3/2 30/3/2
f 27/3/2 28/3/2 31/3/2
f 26/3/2 27/3/2 31/3/2
f 31/3/2 28/3/2 32/3/2
f 35/3/3 34/3/3 33/3/3
f 36/3/3 34/3/3 35/3/3
f 39/2/3 38/2/3 37/2/3
f 40/2/3 38/2/3 39/2/3
f 41/1/3 40/1/3 39/1/3
f 42/1/3 40/1/3 41/1/3
f 43/2/3 42/2/3 41/2/3
f 44/2/3 42/2/3 43/2/3
f 48/3/3 46/3/3 45/3/3
f 49/2/3 48/2/3 47/2/3
f 50/3/3 46/3/3 48/3/3
f 50/2/3 48/2/3 49/2/3
f 51/1/3 50/1/3 49/1/3
f 52/3/3 46/3/3 50/3/3
f 52/1/3 50/1/3 51/1/3
f 53/3/3 46/3/3 52/3/3
f 54/3/3 46/3/3 53/3/3
f 55/3/4 56/3/4 58/3/4
f 57/2/4 58/2/4 59/2/4
f 58/3/4 56/3/4 60/3/4
f 59/2/4 58/2/4 60/2/4
f 59/1/4 60/1/4 61/1/4
f 60/3/4 56/3/4 62/3/4
f 61/1/4 60/1/4 62/1/4
f 62/3/4 56/3/4 63/3/4
f 63/3/4 56/3/4 64/3/4
f 65/2/4 66/2/4 67/2/4
f 67/2/4 66/2/4 68/2/4
f 67/1/4 68/1/4 69/1/4
f 69/1/4 68/1/4 70/1/4
f 69/2/4 70/2/4 71/2/4
f 71/2/4 70/2/4 72/2/4
f 73/3/4 74/3/4 75/3/4
f 75/3/4 74/3/4 76/3/4
f 81/2/5 78/2/5 77/2/5
f 82/1/5 79/1/5 78/1/5
f 82/2/5 78/2/5 81/2/5
f 83/2/5 80/2/5 79/2/5
f 83/1/5 79/1/5 82/1/5
f 84/2/5 80/2/5 83/2/5
f 87/3/5 86/3/5 85/3/5
f 88/3/5 86/3/5 87/3/5
f 89/3/5 86/3/5 88/3/5
f 90/3/5 86/3/5 89/3/5
f 95/3/5 92/3/5 91/3/5
f 95/3/5 94/3/5 93/3/5
f 95/3/5 93/3/5 92/3/5
f 96/3/5 94/3/5 95/3/5
f 97/2/6 98/2/6 100/2/6
f 98/1/6 99/1/6 101/1/6
f 100/2/6 98/2/6 101/2/6
f 101/1/6 99/1/6 102/1/6
f 103/2/6 104/2/6 107/2/6
f 107/2/6 104/2/6 108/2/6
f 105/2/6 106/2/6 109/2/6
f 109/2/6 106/2/6 110/2/6
f 111/3/6 112/3/6 113/3/6
f 113/3/6 112/3/6 114/3/6
f 115/3/6 116/3/6 117/3/6
f 117/3/6 116/3/6 118/3/6
