# Made in Blockbench 4.12.6
mtllib Path_Standard_Corner.mtl

o cylinder
v 0.9375 0 1.5
v 0.9375 0.3125 1.5
v 0.9375000000000002 0 -0.0625
v 0.9375000000000002 0.3125 -0.0625
v 0.45466094628914416 0 0.013974193288822656
v 0.45466094628914416 0.3125 0.013974193288822656
v 0.01908554329301093 0 0.23591094628914444
v 0.01908554329301093 0.3125 0.23591094628914444
v -0.3265890537108551 0 0.5815855432930106
v -0.3265890537108551 0.3125 0.5815855432930106
v -0.5485258067111773 0 1.0171609462891444
v -0.5485258067111773 0.3125 1.0171609462891444
v -0.625 0 1.4999999999999998
v -0.625 0.3125 1.4999999999999998
v 0.45466094628914416 0.25 0.013974193288822656
v 0.9375000000000002 0.25 -0.0625
v 0.9375 0.25 1.5
v -0.625 0.25 1.4999999999999998
v -0.5485258067111773 0.25 1.0171609462891444
v -0.3265890537108551 0.25 0.5815855432930106
v 0.01908554329301093 0.25 0.23591094628914444
v 0.43534738414070995 0.25 -0.04546683897962445
v 0.9277228459349858 0.25 -0.12423052128719614
v 0.9278812735213163 0.26120566698711906 1.4392697511259664
v -0.6867305212871961 0.25 1.4902228459349853
v -0.6079668389796244 0.25 0.9978473841407102
v -0.3771526158592893 0.25 0.544848965024731
v -0.017651034975268654 0.25 0.18534738414071028
v -0.6079668389796244 0.3125 0.9978473841407102
v -0.6867305212871961 0.3125 1.4902228459349853
v -0.3771526158592893 0.3125 0.544848965024731
v -0.017651034975268654 0.3125 0.18534738414071028
v 0.43534738414070995 0.3125 -0.04546683897962445
v 0.9277228459349858 0.3125 -0.12423052128719614
vt 0.5255828124999999 0.728309375
vt 0.5859375 0.71875
vt 0.5859375 0.9140625
vt 0.20224375 0.90625
vt 0.20224375 0.8984375
vt 0.2645734375 0.8984375
vt 0.2645734375 0.90625
vt 0.484326953125 0.71103359375
vt 0.423972265625 0.70147421875
vt 0.484326953125 0.51572109375
vt 0.4711359375 0.7560515624999999
vt 0.5255828124999999 0.728309375
vt 0.5859375 0.9140625
vt 0.2645734375 0.90625
vt 0.2645734375 0.8984375
vt 0.328125 0.8984375
vt 0.328125 0.90625
vt 0.423972265625 0.70147421875
vt 0.369525390625 0.67373203125
vt 0.484326953125 0.51572109375
vt 0.4279265625 0.7992609374999999
vt 0.4711359375 0.7560515624999999
vt 0.5859375 0.9140625
vt 0.005879687500000008 0.8046875
vt 0.005879687500000008 0.796875
vt 0.06943125 0.796875
vt 0.06943125 0.8046875
vt 0.369525390625 0.67373203125
vt 0.326316015625 0.6305226562499999
vt 0.484326953125 0.51572109375
vt 0.40018437500000004 0.8537078124999999
vt 0.4279265625 0.7992609374999999
vt 0.5859375 0.9140625
vt 0.06943125 0.8046875
vt 0.06943125 0.796875
vt 0.13298281250000002 0.796875
vt 0.13298281250000002 0.8046875
vt 0.326316015625 0.6305226562499999
vt 0.298573828125 0.57607578125
vt 0.484326953125 0.51572109375
vt 0.390625 0.9140625
vt 0.40018437500000004 0.8537078124999999
vt 0.5859375 0.9140625
vt 0.13298281250000002 0.8046875
vt 0.13298281250000002 0.796875
vt 0.1953125 0.796875
vt 0.1953125 0.8046875
vt 0.298573828125 0.57607578125
vt 0.289014453125 0.51572109375
vt 0.484326953125 0.51572109375
vt 0.0859375 0.65625
vt 0.0859375 0.6484375
vt 0.28125 0.6484375
vt 0.28125 0.65625
vt 0.40625 1
vt 0.40625 0.9921875
vt 0.6015625 0.9921875
vt 0.6015625 1
vt 0.0795171875 0.734375
vt 0.0795171875 0.765625
vt 0.018409375000000006 0.765625
vt 0.018409375000000006 0.734375
vt 0.28125 0.6171875
vt 0.28125 0.6484375
vt 0.0859375 0.6484375
vt 0.0859375 0.6171875
vt 0.6015625 0.9609375
vt 0.6015625 0.9921875
vt 0.40625 0.9921875
vt 0.40625 0.9609375
vt 0.5859375 0.9296875
vt 0.5859375 0.9609375
vt 0.5248296875 0.9609375
vt 0.5248296875 0.9296875
vt 0.5248296875 0.9296875
vt 0.5248296875 0.9609375
vt 0.463721875 0.9609375
vt 0.463721875 0.9296875
vt 0.463721875 0.9296875
vt 0.463721875 0.9609375
vt 0.40261406250000004 0.9609375
vt 0.40261406250000004 0.9296875
vt 0.140625 0.734375
vt 0.140625 0.765625
vt 0.0795171875 0.765625
vt 0.0795171875 0.734375
vt 0.000048046874999999045 0.76430703125
vt 0.009893359375000008 0.70276015625
vt 0.01732382812500001 0.7051742187500001
vt 0.007764453125000001 0.76552890625
vt 0.3984375 1
vt 0.3984375 0.9921875
vt 0.40625 0.9921875
vt 0.40625 1
vt 0.291143359375 0.57848984375
vt 0.281298046875 0.51694296875
vt 0.289014453125 0.51572109375
vt 0.298573828125 0.57607578125
vt 0.009893359375000008 0.70276015625
vt 0.03874570312499999 0.64613515625
vt 0.045066015625 0.6507273437500001
vt 0.01732382812500001 0.7051742187500001
vt 0.319995703125 0.63511484375
vt 0.291143359375 0.57848984375
vt 0.298573828125 0.57607578125
vt 0.326316015625 0.6305226562499999
vt 0.03874570312499999 0.64613515625
vt 0.083683203125 0.60119765625
vt 0.088275390625 0.60751796875
vt 0.045066015625 0.6507273437500001
vt 0.364933203125 0.68005234375
vt 0.319995703125 0.63511484375
vt 0.326316015625 0.6305226562499999
vt 0.369525390625 0.67373203125
vt 0.083683203125 0.60119765625
vt 0.14030820312499998 0.5723453125
vt 0.142722265625 0.57977578125
vt 0.088275390625 0.60751796875
vt 0.421558203125 0.7089046875
vt 0.364933203125 0.68005234375
vt 0.369525390625 0.67373203125
vt 0.423972265625 0.70147421875
vt 0.2890625 0.6484375
vt 0.2890625 0.65625
vt 0.28125 0.65625
vt 0.28125 0.6484375
vt 0.14030820312499998 0.5723453125
vt 0.20185507812499998 0.5625
vt 0.20307695312500001 0.57021640625
vt 0.142722265625 0.57977578125
vt 0.483105078125 0.71875
vt 0.421558203125 0.7089046875
vt 0.423972265625 0.70147421875
vt 0.484326953125 0.71103359375
vn 0 -1 0
vn -0.15795844869084114 0 -0.9874457597697117
vn 0 1 0
vn 0 -1 0
vn -0.45399049973954697 0 -0.8910065241883679
vn 0 1 0
vn 0 -1 0
vn -0.7071067811865477 0 -0.7071067811865475
vn 0 1 0
vn 0 -1 0
vn -0.8910065241883677 0 -0.45399049973954714
vn 0 1 0
vn 0 -1 0
vn -0.9874457597697115 0 -0.15795844869084133
vn 0 1 0
vn 1 0 1.2246467991473532e-16
vn -1.8369701987210297e-16 0 1
vn -0.1564344650402309 0 -0.9876883405951379
vn 1 0 1.2246467991473532e-16
vn -1.8369701987210297e-16 0 1
vn -0.9876883405951379 0 -0.15643446504023115
vn -0.8910065241883679 0 -0.45399049973954714
vn -0.7071067811865477 0 -0.7071067811865475
vn -0.45399049973954686 0 -0.8910065241883679
vn 0 -1 0
vn -0.15643446504023104 0 0.9876883405951378
vn 0 1 0
vn 0 -1 0
vn 0 1 0
vn 0 -1 0
vn 0 1 0
vn 0 -1 0
vn 0 1 0
vn 0.9876883405951378 0 -0.15643446504023079
vn 0 -1 0
vn 0 1 0
usemtl m_8b8af9f2-fc0d-4fac-f147-ed601e2fee25
f 5/1/1 3/2/1 1/3/1
f 34/4/2 23/5/2 22/6/2 33/7/2
f 4/8/3 6/9/3 2/10/3
f 7/11/4 5/12/4 1/13/4
f 33/14/5 22/15/5 28/16/5 32/17/5
f 6/18/6 8/19/6 2/20/6
f 9/21/7 7/22/7 1/23/7
f 32/24/8 28/25/8 27/26/8 31/27/8
f 8/28/9 10/29/9 2/30/9
f 11/31/10 9/32/10 1/33/10
f 31/34/11 27/35/11 26/36/11 29/37/11
f 10/38/12 12/39/12 2/40/12
f 13/41/13 11/42/13 1/43/13
f 29/44/14 26/45/14 25/46/14 30/47/14
f 12/48/15 14/49/15 2/50/15
f 2/51/16 17/52/16 16/53/16 4/54/16
f 14/55/17 18/56/17 17/57/17 2/58/17
f 5/59/18 15/60/18 16/61/18 3/62/18
f 3/63/19 16/64/19 17/65/19 1/66/19
f 1/67/20 17/68/20 18/69/20 13/70/20
f 13/71/21 18/72/21 19/73/21 11/74/21
f 11/75/22 19/76/22 20/77/22 9/78/22
f 9/79/23 20/80/23 21/81/23 7/82/23
f 7/83/24 21/84/24 15/85/24 5/86/24
f 25/87/25 26/88/25 19/89/25 18/90/25
f 30/91/26 25/92/26 18/93/26 14/94/26
f 29/95/27 30/96/27 14/97/27 12/98/27
f 26/99/28 27/100/28 20/101/28 19/102/28
f 31/103/29 29/104/29 12/105/29 10/106/29
f 27/107/30 28/108/30 21/109/30 20/110/30
f 32/111/31 31/112/31 10/113/31 8/114/31
f 28/115/32 22/116/32 15/117/32 21/118/32
f 33/119/33 32/120/33 8/121/33 6/122/33
f 23/123/34 34/124/34 4/125/34 16/126/34
f 22/127/35 23/128/35 16/129/35 15/130/35
f 34/131/36 33/132/36 6/133/36 4/134/36