# MagicaVoxel @ Ephtracy

# group
o 

# material
mtllib DoorFrame.mtl
usemtl palette

# normals
vn -1 0 0
vn 1 0 0
vn 0 0 1
vn 0 0 -1
vn 0 -1 0
vn 0 1 0

# texcoords
vt 0.0371094 0.5
vt 0.0410156 0.5
vt 0.0761719 0.5

# verts
v -0.8 -1.1 0.15
v -0.8 -1.1 -0.15
v -0.8 -1 0.15
v -0.8 -1 -0.15
v -0.8 1.1 0.15
v -0.8 1.1 -0.15
v 0.6 -1.1 0.15
v 0.6 -1.1 -0.15
v 0.6 -1 0.15
v 0.6 -1 -0.15
v 0.6 0.9 0.15
v 0.6 0.9 -0.15
v -0.6 -1.1 0.15
v -0.6 -1.1 -0.15
v -0.6 -1 0.15
v -0.6 -1 -0.15
v -0.6 0.9 0.15
v -0.6 0.9 -0.15
v 0.8 -1.1 0.15
v 0.8 -1.1 -0.15
v 0.8 -1 0.15
v 0.8 -1 -0.15
v 0.8 1.1 0.15
v 0.8 1.1 -0.15
v -0.8 -1.1 0.15
v -0.8 -1 0.15
v -0.8 1.1 0.15
v -0.6 -1.1 0.15
v -0.6 -1 0.15
v -0.6 0.9 0.15
v 0.6 -1.1 0.15
v 0.6 -1 0.15
v 0.6 0.9 0.15
v 0.8 -1.1 0.15
v 0.8 -1 0.15
v 0.8 1.1 0.15
v -0.8 -1.1 -0.15
v -0.8 -1 -0.15
v -0.8 1.1 -0.15
v -0.6 -1.1 -0.15
v -0.6 -1 -0.15
v -0.6 0.9 -0.15
v 0.6 -1.1 -0.15
v 0.6 -1 -0.15
v 0.6 0.9 -0.15
v 0.8 -1.1 -0.15
v 0.8 -1 -0.15
v 0.8 1.1 -0.15
v -0.8 -1.1 0.15
v -0.6 -1.1 0.15
v 0.6 -1.1 0.15
v 0.8 -1.1 0.15
v -0.8 -1.1 -0.15
v -0.6 -1.1 -0.15
v 0.6 -1.1 -0.15
v 0.8 -1.1 -0.15
v -0.6 0.9 0.15
v 0.6 0.9 0.15
v -0.6 0.9 -0.15
v 0.6 0.9 -0.15
v -0.8 1.1 0.15
v 0.8 1.1 0.15
v -0.8 1.1 -0.15
v 0.8 1.1 -0.15

# faces
f 3/2/1 2/2/1 1/2/1
f 4/2/1 2/2/1 3/2/1
f 5/1/1 4/1/1 3/1/1
f 6/1/1 4/1/1 5/1/1
f 9/2/1 8/2/1 7/2/1
f 10/2/1 8/2/1 9/2/1
f 11/1/1 10/1/1 9/1/1
f 12/1/1 10/1/1 11/1/1
f 13/2/2 14/2/2 15/2/2
f 15/2/2 14/2/2 16/2/2
f 15/1/2 16/1/2 17/1/2
f 17/1/2 16/1/2 18/1/2
f 19/2/2 20/2/2 21/2/2
f 21/2/2 20/2/2 22/2/2
f 21/1/2 22/1/2 23/1/2
f 23/1/2 22/1/2 24/1/2
f 28/2/3 26/2/3 25/2/3
f 29/1/3 27/1/3 26/1/3
f 29/2/3 26/2/3 28/2/3
f 30/1/3 27/1/3 29/1/3
f 33/1/3 27/1/3 30/1/3
f 34/2/3 32/2/3 31/2/3
f 35/1/3 33/1/3 32/1/3
f 35/2/3 32/2/3 34/2/3
f 36/1/3 27/1/3 33/1/3
f 36/1/3 33/1/3 35/1/3
f 37/2/4 38/2/4 40/2/4
f 38/1/4 39/1/4 41/1/4
f 40/2/4 38/2/4 41/2/4
f 41/1/4 39/1/4 42/1/4
f 42/1/4 39/1/4 45/1/4
f 43/2/4 44/2/4 46/2/4
f 44/1/4 45/1/4 47/1/4
f 46/2/4 44/2/4 47/2/4
f 45/1/4 39/1/4 48/1/4
f 47/1/4 45/1/4 48/1/4
f 53/2/5 50/2/5 49/2/5
f 54/2/5 50/2/5 53/2/5
f 55/2/5 52/2/5 51/2/5
f 56/2/5 52/2/5 55/2/5
f 59/1/5 58/1/5 57/1/5
f 60/1/5 58/1/5 59/1/5
f 61/1/6 62/1/6 63/1/6
f 63/1/6 62/1/6 64/1/6
