# Made in Blockbench 4.12.6
mtllib Motorway_Bridge.mtl

o cuboid
v 1.1875000000000009 0.375 1.5
v 1.1875000000000009 0.375 -1.5
v 1.1875000000000009 0 1.5
v 1.1875000000000009 0 -1.5
v -1.1875000000000009 0.375 1.5
v -1.1875000000000009 0.375 -1.5
v -1.1875000000000009 0 1.5
v -1.1875000000000009 0 -1.5
vt 0.2060546875 0.712890625
vt 0.1591796875 0.712890625
vt 0.1591796875 0.70703125
vt 0.2060546875 0.70703125
vt 0.2451171875 0.953125
vt 0.2822265625 0.953125
vt 0.2822265625 1
vt 0.2451171875 1
vt 0.2822265625 0.9052734375
vt 0.2822265625 0.9521484375
vt 0.2451171875 0.9521484375
vt 0.2451171875 0.9052734375
vt 0.052734375 0.6982421875
vt 0.052734375 0.7041015625
vt 0.015625 0.7041015625
vt 0.015625 0.6982421875
vt 0.0908203125 0.7041015625
vt 0.0537109375 0.7041015625
vt 0.0537109375 0.6982421875
vt 0.0908203125 0.6982421875
vt 0.25390625 0.70703125
vt 0.25390625 0.712890625
vt 0.20703125 0.712890625
vt 0.20703125 0.70703125
vn 1 0 0
vn 0 1 0
vn 0 -1 0
vn 0 0 1
vn 0 0 -1
vn -1 0 0
usemtl m_2868580a-831b-a2e1-93bd-0578c2eb6597
f 2/1/1 1/2/1 3/3/1 4/4/1
f 5/5/2 1/6/2 2/7/2 6/8/2
f 4/9/3 3/10/3 7/11/3 8/12/3
f 3/13/4 1/14/4 5/15/4 7/16/4
f 6/17/5 2/18/5 4/19/5 8/20/5
f 7/21/6 5/22/6 6/23/6 8/24/6
o cuboid
v -1.1875 0.25 1.5
v -1.1875 0.25 -1.5
v -1.1875 0 1.5
v -1.1875 0 -1.5
v -13.4375 0.25 1.5
v -13.4375 0.25 -1.5
v -13.4375 0 1.5
v -13.4375 0 -1.5
vt 0.345703125 0.9404296875
vt 0.298828125 0.9404296875
vt 0.298828125 0.9365234375
vt 0.345703125 0.9365234375
vt 0 0.76171875
vt 0.19140625 0.76171875
vt 0.19140625 0.80859375
vt 0 0.80859375
vt 0.3837890625 0.76171875
vt 0.3837890625 0.80859375
vt 0.1923828125 0.80859375
vt 0.1923828125 0.76171875
vt 0.474609375 0.9765625
vt 0.474609375 0.98046875
vt 0.283203125 0.98046875
vt 0.283203125 0.9765625
vt 0.474609375 0.9755859375
vt 0.283203125 0.9755859375
vt 0.283203125 0.9716796875
vt 0.474609375 0.9716796875
vt 0.345703125 0.931640625
vt 0.345703125 0.935546875
vt 0.298828125 0.935546875
vt 0.298828125 0.931640625
vn 1 0 0
vn 0 1 0
vn 0 -1 0
vn 0 0 1
vn 0 0 -1
vn -1 0 0
usemtl m_2868580a-831b-a2e1-93bd-0578c2eb6597
f 10/25/7 9/26/7 11/27/7 12/28/7
f 13/29/8 9/30/8 10/31/8 14/32/8
f 12/33/9 11/34/9 15/35/9 16/36/9
f 11/37/10 9/38/10 13/39/10 15/40/10
f 14/41/11 10/42/11 12/43/11 16/44/11
f 15/45/12 13/46/12 14/47/12 16/48/12
o cuboid
v -0.4999999999999982 -0.625 1.5
v -0.4999999999999982 -0.625 -1.5
v -0.4999999999999982 -0.875 1.5
v -0.4999999999999982 -0.875 -1.5
v 15.124999999999998 -0.625 1.5
v 15.124999999999998 -0.625 -1.5
v 15.124999999999998 -0.875 1.5
v 15.124999999999998 -0.875 -1.5
vt 0.345703125 0.9267578125
vt 0.345703125 0.9306640625
vt 0.298828125 0.9306640625
vt 0.298828125 0.9267578125
vt 0 1
vt 0 0.953125
vt 0.244140625 0.953125
vt 0.244140625 1
vt 0.244140625 0.9521484375
vt 0 0.9521484375
vt 0 0.9052734375
vt 0.244140625 0.9052734375
vt 0.52734375 1
vt 0.283203125 1
vt 0.283203125 0.99609375
vt 0.52734375 0.99609375
vt 0.52734375 0.9912109375
vt 0.52734375 0.9951171875
vt 0.283203125 0.9951171875
vt 0.283203125 0.9912109375
vt 0.345703125 0.92578125
vt 0.298828125 0.92578125
vt 0.298828125 0.921875
vt 0.345703125 0.921875
vn -1 0 0
vn 0 1 0
vn 0 -1 0
vn 0 0 1
vn 0 0 -1
vn 1 0 0
usemtl m_2868580a-831b-a2e1-93bd-0578c2eb6597
f 19/49/13 17/50/13 18/51/13 20/52/13
f 18/53/14 17/54/14 21/55/14 22/56/14
f 23/57/15 19/58/15 20/59/15 24/60/15
f 21/61/16 17/62/16 19/63/16 23/64/16
f 20/65/17 18/66/17 22/67/17 24/68/17
f 22/69/18 21/70/18 23/71/18 24/72/18
o cuboid
v -13.4375 0.375 1.5
v -13.4375 0.375 -1.5
v -13.4375 0 1.5
v -13.4375 0 -1.5
v -15.5625 0.375 1.5
v -15.5625 0.375 -1.5
v -15.5625 0 1.5
v -15.5625 0 -1.5
vt 0.3017578125 0.712890625
vt 0.2548828125 0.712890625
vt 0.2548828125 0.70703125
vt 0.3017578125 0.70703125
vt 0.2451171875 0.857421875
vt 0.2783203125 0.857421875
vt 0.2783203125 0.904296875
vt 0.2451171875 0.904296875
vt 0.2783203125 0.8095703125
vt 0.2783203125 0.8564453125
vt 0.2451171875 0.8564453125
vt 0.2451171875 0.8095703125
vt 0.125 0.6982421875
vt 0.125 0.7041015625
vt 0.091796875 0.7041015625
vt 0.091796875 0.6982421875
vt 0.33203125 0.9609375
vt 0.298828125 0.9609375
vt 0.298828125 0.955078125
vt 0.33203125 0.955078125
vt 0.2060546875 0.7001953125
vt 0.2060546875 0.7060546875
vt 0.1591796875 0.7060546875
vt 0.1591796875 0.7001953125
vn 1 0 0
vn 0 1 0
vn 0 -1 0
vn 0 0 1
vn 0 0 -1
vn -1 0 0
usemtl m_2868580a-831b-a2e1-93bd-0578c2eb6597
f 26/73/19 25/74/19 27/75/19 28/76/19
f 29/77/20 25/78/20 26/79/20 30/80/20
f 28/81/21 27/82/21 31/83/21 32/84/21
f 27/85/22 25/86/22 29/87/22 31/88/22
f 30/89/23 26/90/23 28/91/23 32/92/23
f 31/93/24 29/94/24 30/95/24 32/96/24
o cuboid
v 13.4375 0.375 1.5
v 13.4375 0.375 -1.5
v 13.4375 0 1.5
v 13.4375 0 -1.5
v 15.5625 0.375 1.5
v 15.5625 0.375 -1.5
v 15.5625 0 1.5
v 15.5625 0 -1.5
vt 0.25390625 0.7001953125
vt 0.25390625 0.7060546875
vt 0.20703125 0.7060546875
vt 0.20703125 0.7001953125
vt 0.279296875 0.904296875
vt 0.279296875 0.857421875
vt 0.3125 0.857421875
vt 0.3125 0.904296875
vt 0.3125 0.8564453125
vt 0.279296875 0.8564453125
vt 0.279296875 0.8095703125
vt 0.3125 0.8095703125
vt 0.33203125 0.9541015625
vt 0.298828125 0.9541015625
vt 0.298828125 0.9482421875
vt 0.33203125 0.9482421875
vt 0.33203125 0.94140625
vt 0.33203125 0.947265625
vt 0.298828125 0.947265625
vt 0.298828125 0.94140625
vt 0.3017578125 0.7060546875
vt 0.2548828125 0.7060546875
vt 0.2548828125 0.7001953125
vt 0.3017578125 0.7001953125
vn -1 0 0
vn 0 1 0
vn 0 -1 0
vn 0 0 1
vn 0 0 -1
vn 1 0 0
usemtl m_2868580a-831b-a2e1-93bd-0578c2eb6597
f 35/97/25 33/98/25 34/99/25 36/100/25
f 34/101/26 33/102/26 37/103/26 38/104/26
f 39/105/27 35/106/27 36/107/27 40/108/27
f 37/109/28 33/110/28 35/111/28 39/112/28
f 36/113/29 34/114/29 38/115/29 40/116/29
f 38/117/30 37/118/30 39/119/30 40/120/30
o cuboid
v -15.46875 0.53125 1.5
v -15.46875 0.53125 -1.5
v -15.46875 0.46875 1.5
v -15.46875 0.46875 -1.5
v -15.40625 0.53125 1.5
v -15.40625 0.53125 -1.5
v -15.40625 0.46875 1.5
v -15.40625 0.46875 -1.5
vt 0.345703125 0.9150390625
vt 0.345703125 0.916015625
vt 0.298828125 0.916015625
vt 0.298828125 0.9150390625
vt 0.26953125 0.65234375
vt 0.2705078125 0.65234375
vt 0.2705078125 0.69921875
vt 0.26953125 0.69921875
vt 0.2724609375 0.65234375
vt 0.2724609375 0.69921875
vt 0.271484375 0.69921875
vt 0.271484375 0.65234375
vt 0.150390625 0.703125
vt 0.150390625 0.7041015625
vt 0.1494140625 0.7041015625
vt 0.1494140625 0.703125
vt 0.15234375 0.7041015625
vt 0.1513671875 0.7041015625
vt 0.1513671875 0.703125
vt 0.15234375 0.703125
vt 0.3203125 0.69921875
vt 0.2734375 0.69921875
vt 0.2734375 0.6982421875
vt 0.3203125 0.6982421875
vn -1 0 0
vn 0 1 0
vn 0 -1 0
vn 0 0 1
vn 0 0 -1
vn 1 0 0
usemtl m_2868580a-831b-a2e1-93bd-0578c2eb6597
f 43/121/31 41/122/31 42/123/31 44/124/31
f 41/125/32 45/126/32 46/127/32 42/128/32
f 48/129/33 47/130/33 43/131/33 44/132/33
f 47/133/34 45/134/34 41/135/34 43/136/34
f 42/137/35 46/138/35 48/139/35 44/140/35
f 46/141/36 45/142/36 47/143/36 48/144/36
o cuboid
v 15.441984647969957 0.02076817939789377 0.8125
v 15.441984647969957 0.02076817939789377 0.6875
v 15.183165602867437 -0.9451576468911747 0.8125
v 15.183165602867437 -0.9451576468911747 0.6875
v 15.321243919683823 0.05312056003570875 0.8125
v 15.321243919683823 0.05312056003570875 0.6875
v 15.062424874581303 -0.9128052662533596 0.8125
v 15.062424874581303 -0.9128052662533596 0.6875
vt 0.0234375 0.6953125
vt 0.021484375 0.6953125
vt 0.021484375 0.6796875
vt 0.0234375 0.6796875
vt 0.1259765625 0.7041015625
vt 0.1259765625 0.7021484375
vt 0.1279296875 0.7021484375
vt 0.1279296875 0.7041015625
vt 0.130859375 0.7041015625
vt 0.12890625 0.7041015625
vt 0.12890625 0.7021484375
vt 0.130859375 0.7021484375
vt 0.0263671875 0.6953125
vt 0.0244140625 0.6953125
vt 0.0244140625 0.6796875
vt 0.0263671875 0.6796875
vt 0.029296875 0.6796875
vt 0.029296875 0.6953125
vt 0.02734375 0.6953125
vt 0.02734375 0.6796875
vt 0.0322265625 0.6796875
vt 0.0322265625 0.6953125
vt 0.0302734375 0.6953125
vt 0.0302734375 0.6796875
vn 0.9659258262890683 -0.25881904510252074 0
vn 0.25881904510252074 0.9659258262890683 0
vn -0.25881904510252074 -0.9659258262890683 0
vn 0 0 1
vn 0 0 -1
vn -0.9659258262890683 0.25881904510252074 0
usemtl m_2868580a-831b-a2e1-93bd-0578c2eb6597
f 50/145/37 49/146/37 51/147/37 52/148/37
f 54/149/38 53/150/38 49/151/38 50/152/38
f 51/153/39 55/154/39 56/155/39 52/156/39
f 49/157/40 53/158/40 55/159/40 51/160/40
f 56/161/41 54/162/41 50/163/41 52/164/41
f 55/165/42 53/166/42 54/167/42 56/168/42
o cuboid
v -15.46875 1.03125 1.5
v -15.46875 1.03125 -1.5
v -15.46875 0.96875 1.5
v -15.46875 0.96875 -1.5
v -15.40625 1.03125 1.5
v -15.40625 1.03125 -1.5
v -15.40625 0.96875 1.5
v -15.40625 0.96875 -1.5
vt 0.0625 0.6962890625
vt 0.0625 0.697265625
vt 0.015625 0.697265625
vt 0.015625 0.6962890625
vt 0.0634765625 0.650390625
vt 0.064453125 0.650390625
vt 0.064453125 0.697265625
vt 0.0634765625 0.697265625
vt 0.06640625 0.650390625
vt 0.06640625 0.697265625
vt 0.0654296875 0.697265625
vt 0.0654296875 0.650390625
vt 0.154296875 0.703125
vt 0.154296875 0.7041015625
vt 0.1533203125 0.7041015625
vt 0.1533203125 0.703125
vt 0.15625 0.7041015625
vt 0.1552734375 0.7041015625
vt 0.1552734375 0.703125
vt 0.15625 0.703125
vt 0.1142578125 0.697265625
vt 0.0673828125 0.697265625
vt 0.0673828125 0.6962890625
vt 0.1142578125 0.6962890625
vn -1 0 0
vn 0 1 0
vn 0 -1 0
vn 0 0 1
vn 0 0 -1
vn 1 0 0
usemtl m_2868580a-831b-a2e1-93bd-0578c2eb6597
f 59/169/43 57/170/43 58/171/43 60/172/43
f 57/173/44 61/174/44 62/175/44 58/176/44
f 64/177/45 63/178/45 59/179/45 60/180/45
f 63/181/46 61/182/46 57/183/46 59/184/46
f 58/185/47 62/186/47 64/187/47 60/188/47
f 62/189/48 61/190/48 63/191/48 64/192/48
o cuboid
v 15.46875 0.53125 1.5
v 15.46875 0.53125 -1.5
v 15.46875 0.46875 1.5
v 15.46875 0.46875 -1.5
v 15.40625 0.53125 1.5
v 15.40625 0.53125 -1.5
v 15.40625 0.46875 1.5
v 15.40625 0.46875 -1.5
vt 0.3203125 0.697265625
vt 0.2734375 0.697265625
vt 0.2734375 0.6962890625
vt 0.3203125 0.6962890625
vt 0.115234375 0.697265625
vt 0.115234375 0.650390625
vt 0.1162109375 0.650390625
vt 0.1162109375 0.697265625
vt 0.1181640625 0.697265625
vt 0.1171875 0.697265625
vt 0.1171875 0.650390625
vt 0.1181640625 0.650390625
vt 0.158203125 0.7041015625
vt 0.1572265625 0.7041015625
vt 0.1572265625 0.703125
vt 0.158203125 0.703125
vt 0.150390625 0.701171875
vt 0.150390625 0.7021484375
vt 0.1494140625 0.7021484375
vt 0.1494140625 0.701171875
vt 0.349609375 0.7119140625
vt 0.349609375 0.712890625
vt 0.302734375 0.712890625
vt 0.302734375 0.7119140625
vn 1 0 0
vn 0 1 0
vn 0 -1 0
vn 0 0 1
vn 0 0 -1
vn -1 0 0
usemtl m_2868580a-831b-a2e1-93bd-0578c2eb6597
f 66/193/49 65/194/49 67/195/49 68/196/49
f 70/197/50 69/198/50 65/199/50 66/200/50
f 67/201/51 71/202/51 72/203/51 68/204/51
f 65/205/52 69/206/52 71/207/52 67/208/52
f 72/209/53 70/210/53 66/211/53 68/212/53
f 71/213/54 69/214/54 70/215/54 72/216/54
o cuboid
v -15.46875 1 0.03125
v -15.46875 1 -0.03125
v -15.46875 0.25 0.03125
v -15.46875 0.25 -0.03125
v -15.40625 1 0.03125
v -15.40625 1 -0.03125
v -15.40625 0.25 0.03125
v -15.40625 0.25 -0.03125
vt 0.07421875 0.68359375
vt 0.07421875 0.6953125
vt 0.0732421875 0.6953125
vt 0.0732421875 0.68359375
vt 0.1513671875 0.701171875
vt 0.15234375 0.701171875
vt 0.15234375 0.7021484375
vt 0.1513671875 0.7021484375
vt 0.154296875 0.701171875
vt 0.154296875 0.7021484375
vt 0.1533203125 0.7021484375
vt 0.1533203125 0.701171875
vt 0.076171875 0.68359375
vt 0.076171875 0.6953125
vt 0.0751953125 0.6953125
vt 0.0751953125 0.68359375
vt 0.078125 0.6953125
vt 0.0771484375 0.6953125
vt 0.0771484375 0.68359375
vt 0.078125 0.68359375
vt 0.080078125 0.6953125
vt 0.0791015625 0.6953125
vt 0.0791015625 0.68359375
vt 0.080078125 0.68359375
vn -1 0 0
vn 0 1 0
vn 0 -1 0
vn 0 0 1
vn 0 0 -1
vn 1 0 0
usemtl m_2868580a-831b-a2e1-93bd-0578c2eb6597
f 75/217/55 73/218/55 74/219/55 76/220/55
f 73/221/56 77/222/56 78/223/56 74/224/56
f 80/225/57 79/226/57 75/227/57 76/228/57
f 79/229/58 77/230/58 73/231/58 75/232/58
f 74/233/59 78/234/59 80/235/59 76/236/59
f 78/237/60 77/238/60 79/239/60 80/240/60
o cuboid
v 15.46875 1.03125 1.5
v 15.46875 1.03125 -1.5
v 15.46875 0.96875 1.5
v 15.46875 0.96875 -1.5
v 15.40625 1.03125 1.5
v 15.40625 1.03125 -1.5
v 15.40625 0.96875 1.5
v 15.40625 0.96875 -1.5
vt 0.349609375 0.7109375
vt 0.302734375 0.7109375
vt 0.302734375 0.7099609375
vt 0.349609375 0.7099609375
vt 0.119140625 0.697265625
vt 0.119140625 0.650390625
vt 0.1201171875 0.650390625
vt 0.1201171875 0.697265625
vt 0.1220703125 0.697265625
vt 0.12109375 0.697265625
vt 0.12109375 0.650390625
vt 0.1220703125 0.650390625
vt 0.15625 0.7021484375
vt 0.1552734375 0.7021484375
vt 0.1552734375 0.701171875
vt 0.15625 0.701171875
vt 0.158203125 0.701171875
vt 0.158203125 0.7021484375
vt 0.1572265625 0.7021484375
vt 0.1572265625 0.701171875
vt 0.349609375 0.7080078125
vt 0.349609375 0.708984375
vt 0.302734375 0.708984375
vt 0.302734375 0.7080078125
vn 1 0 0
vn 0 1 0
vn 0 -1 0
vn 0 0 1
vn 0 0 -1
vn -1 0 0
usemtl m_2868580a-831b-a2e1-93bd-0578c2eb6597
f 82/241/61 81/242/61 83/243/61 84/244/61
f 86/245/62 85/246/62 81/247/62 82/248/62
f 83/249/63 87/250/63 88/251/63 84/252/63
f 81/253/64 85/254/64 87/255/64 83/256/64
f 88/257/65 86/258/65 82/259/65 84/260/65
f 87/261/66 85/262/66 86/263/66 88/264/66
o plane
v 15.128678572608193 -0.8902777310730008 1.5
v 15.128678572608193 -0.8902777310730008 -1.5
v 15.371321427391807 0.015277731073000789 1.5
v 15.371321427391807 0.015277731073000789 -1.5
vt 0.2978515625 0.9609375
vt 0.283203125 0.9609375
vt 0.283203125 0.9140625
vt 0.2978515625 0.9140625
vn 0.9659258262890683 -0.25881904510252074 0
usemtl m_2868580a-831b-a2e1-93bd-0578c2eb6597
f 90/265/67 92/266/67 91/267/67 89/268/67
o plane
v -15.128678572608193 -0.8902777310730008 1.5
v -15.128678572608193 -0.8902777310730008 -1.5
v -15.371321427391807 0.015277731073000789 1.5
v -15.371321427391807 0.015277731073000789 -1.5
vt 0.0146484375 0.666015625
vt 0.0146484375 0.712890625
vt 0 0.712890625
vt 0 0.666015625
vn -0.9659258262890683 -0.25881904510252074 0
usemtl m_2868580a-831b-a2e1-93bd-0578c2eb6597
f 95/269/68 96/270/68 94/271/68 93/272/68
o cuboid
v -15.441984647969957 0.02076817939789377 -0.6875
v -15.441984647969957 0.02076817939789377 -0.8125
v -15.183165602867437 -0.9451576468911747 -0.6875
v -15.183165602867437 -0.9451576468911747 -0.8125
v -15.321243919683823 0.05312056003570875 -0.6875
v -15.321243919683823 0.05312056003570875 -0.8125
v -15.062424874581303 -0.9128052662533596 -0.6875
v -15.062424874581303 -0.9128052662533596 -0.8125
vt 0.03515625 0.6796875
vt 0.03515625 0.6953125
vt 0.033203125 0.6953125
vt 0.033203125 0.6796875
vt 0.1318359375 0.7021484375
vt 0.1337890625 0.7021484375
vt 0.1337890625 0.7041015625
vt 0.1318359375 0.7041015625
vt 0.13671875 0.7021484375
vt 0.13671875 0.7041015625
vt 0.134765625 0.7041015625
vt 0.134765625 0.7021484375
vt 0.0380859375 0.6796875
vt 0.0380859375 0.6953125
vt 0.0361328125 0.6953125
vt 0.0361328125 0.6796875
vt 0.041015625 0.6953125
vt 0.0390625 0.6953125
vt 0.0390625 0.6796875
vt 0.041015625 0.6796875
vt 0.0439453125 0.6953125
vt 0.0419921875 0.6953125
vt 0.0419921875 0.6796875
vt 0.0439453125 0.6796875
vn -0.9659258262890683 -0.25881904510252074 0
vn -0.25881904510252074 0.9659258262890683 0
vn 0.25881904510252074 -0.9659258262890683 0
vn 0 0 1
vn 0 0 -1
vn 0.9659258262890683 0.25881904510252074 0
usemtl m_2868580a-831b-a2e1-93bd-0578c2eb6597
f 99/273/69 97/274/69 98/275/69 100/276/69
f 97/277/70 101/278/70 102/279/70 98/280/70
f 104/281/71 103/282/71 99/283/71 100/284/71
f 103/285/72 101/286/72 97/287/72 99/288/72
f 98/289/73 102/290/73 104/291/73 100/292/73
f 102/293/74 101/294/74 103/295/74 104/296/74
o cuboid
v 15.46875 1 0.03125
v 15.46875 1 -0.03125
v 15.46875 0.25 0.03125
v 15.46875 0.25 -0.03125
v 15.40625 1 0.03125
v 15.40625 1 -0.03125
v 15.40625 0.25 0.03125
v 15.40625 0.25 -0.03125
vt 0.08203125 0.6953125
vt 0.0810546875 0.6953125
vt 0.0810546875 0.68359375
vt 0.08203125 0.68359375
vt 0.1259765625 0.701171875
vt 0.1259765625 0.7001953125
vt 0.126953125 0.7001953125
vt 0.126953125 0.701171875
vt 0.12890625 0.701171875
vt 0.1279296875 0.701171875
vt 0.1279296875 0.7001953125
vt 0.12890625 0.7001953125
vt 0.083984375 0.6953125
vt 0.0830078125 0.6953125
vt 0.0830078125 0.68359375
vt 0.083984375 0.68359375
vt 0.0859375 0.68359375
vt 0.0859375 0.6953125
vt 0.0849609375 0.6953125
vt 0.0849609375 0.68359375
vt 0.087890625 0.68359375
vt 0.087890625 0.6953125
vt 0.0869140625 0.6953125
vt 0.0869140625 0.68359375
vn 1 0 0
vn 0 1 0
vn 0 -1 0
vn 0 0 1
vn 0 0 -1
vn -1 0 0
usemtl m_2868580a-831b-a2e1-93bd-0578c2eb6597
f 106/297/75 105/298/75 107/299/75 108/300/75
f 110/301/76 109/302/76 105/303/76 106/304/76
f 107/305/77 111/306/77 112/307/77 108/308/77
f 105/309/78 109/310/78 111/311/78 107/312/78
f 112/313/79 110/314/79 106/315/79 108/316/79
f 111/317/80 109/318/80 110/319/80 112/320/80
o cuboid
v -15.441984647969957 0.02076817939789377 0.8125
v -15.441984647969957 0.02076817939789377 0.6875
v -15.183165602867437 -0.9451576468911747 0.8125
v -15.183165602867437 -0.9451576468911747 0.6875
v -15.321243919683823 0.05312056003570875 0.8125
v -15.321243919683823 0.05312056003570875 0.6875
v -15.062424874581303 -0.9128052662533596 0.8125
v -15.062424874581303 -0.9128052662533596 0.6875
vt 0.046875 0.6796875
vt 0.046875 0.6953125
vt 0.044921875 0.6953125
vt 0.044921875 0.6796875
vt 0.1376953125 0.7021484375
vt 0.1396484375 0.7021484375
vt 0.1396484375 0.7041015625
vt 0.1376953125 0.7041015625
vt 0.142578125 0.7021484375
vt 0.142578125 0.7041015625
vt 0.140625 0.7041015625
vt 0.140625 0.7021484375
vt 0.0498046875 0.6796875
vt 0.0498046875 0.6953125
vt 0.0478515625 0.6953125
vt 0.0478515625 0.6796875
vt 0.052734375 0.6953125
vt 0.05078125 0.6953125
vt 0.05078125 0.6796875
vt 0.052734375 0.6796875
vt 0.0556640625 0.6953125
vt 0.0537109375 0.6953125
vt 0.0537109375 0.6796875
vt 0.0556640625 0.6796875
vn -0.9659258262890683 -0.25881904510252074 0
vn -0.25881904510252074 0.9659258262890683 0
vn 0.25881904510252074 -0.9659258262890683 0
vn 0 0 1
vn 0 0 -1
vn 0.9659258262890683 0.25881904510252074 0
usemtl m_2868580a-831b-a2e1-93bd-0578c2eb6597
f 115/321/81 113/322/81 114/323/81 116/324/81
f 113/325/82 117/326/82 118/327/82 114/328/82
f 120/329/83 119/330/83 115/331/83 116/332/83
f 119/333/84 117/334/84 113/335/84 115/336/84
f 114/337/85 118/338/85 120/339/85 116/340/85
f 118/341/86 117/342/86 119/343/86 120/344/86
o cuboid
v 15.441984647969957 0.02076817939789377 -0.6875
v 15.441984647969957 0.02076817939789377 -0.8125
v 15.183165602867437 -0.9451576468911747 -0.6875
v 15.183165602867437 -0.9451576468911747 -0.8125
v 15.321243919683823 0.05312056003570875 -0.6875
v 15.321243919683823 0.05312056003570875 -0.8125
v 15.062424874581303 -0.9128052662533596 -0.6875
v 15.062424874581303 -0.9128052662533596 -0.8125
vt 0.05859375 0.6953125
vt 0.056640625 0.6953125
vt 0.056640625 0.6796875
vt 0.05859375 0.6796875
vt 0.1435546875 0.7041015625
vt 0.1435546875 0.7021484375
vt 0.1455078125 0.7021484375
vt 0.1455078125 0.7041015625
vt 0.1484375 0.7041015625
vt 0.146484375 0.7041015625
vt 0.146484375 0.7021484375
vt 0.1484375 0.7021484375
vt 0.0615234375 0.6953125
vt 0.0595703125 0.6953125
vt 0.0595703125 0.6796875
vt 0.0615234375 0.6796875
vt 0.0693359375 0.6796875
vt 0.0693359375 0.6953125
vt 0.0673828125 0.6953125
vt 0.0673828125 0.6796875
vt 0.072265625 0.6796875
vt 0.072265625 0.6953125
vt 0.0703125 0.6953125
vt 0.0703125 0.6796875
vn 0.9659258262890683 -0.25881904510252074 0
vn 0.25881904510252074 0.9659258262890683 0
vn -0.25881904510252074 -0.9659258262890683 0
vn 0 0 1
vn 0 0 -1
vn -0.9659258262890683 0.25881904510252074 0
usemtl m_2868580a-831b-a2e1-93bd-0578c2eb6597
f 122/345/87 121/346/87 123/347/87 124/348/87
f 126/349/88 125/350/88 121/351/88 122/352/88
f 123/353/89 127/354/89 128/355/89 124/356/89
f 121/357/90 125/358/90 127/359/90 123/360/90
f 128/361/91 126/362/91 122/363/91 124/364/91
f 127/365/92 125/366/92 126/367/92 128/368/92
o cuboid
v 0.4999999999999982 -0.625 1.5
v 0.4999999999999982 -0.625 -1.5
v 0.4999999999999982 -0.875 1.5
v 0.4999999999999982 -0.875 -1.5
v -15.124999999999998 -0.625 1.5
v -15.124999999999998 -0.625 -1.5
v -15.124999999999998 -0.875 1.5
v -15.124999999999998 -0.875 -1.5
vt 0.345703125 0.9208984375
vt 0.298828125 0.9208984375
vt 0.298828125 0.9169921875
vt 0.345703125 0.9169921875
vt 0 0.857421875
vt 0.244140625 0.857421875
vt 0.244140625 0.904296875
vt 0 0.904296875
vt 0.244140625 0.8095703125
vt 0.244140625 0.8564453125
vt 0 0.8564453125
vt 0 0.8095703125
vt 0.52734375 0.986328125
vt 0.52734375 0.990234375
vt 0.283203125 0.990234375
vt 0.283203125 0.986328125
vt 0.52734375 0.9853515625
vt 0.283203125 0.9853515625
vt 0.283203125 0.9814453125
vt 0.52734375 0.9814453125
vt 0.1728515625 0.6953125
vt 0.1728515625 0.69921875
vt 0.1259765625 0.69921875
vt 0.1259765625 0.6953125
vn 1 0 0
vn 0 1 0
vn 0 -1 0
vn 0 0 1
vn 0 0 -1
vn -1 0 0
usemtl m_2868580a-831b-a2e1-93bd-0578c2eb6597
f 130/369/93 129/370/93 131/371/93 132/372/93
f 133/373/94 129/374/94 130/375/94 134/376/94
f 132/377/95 131/378/95 135/379/95 136/380/95
f 131/381/96 129/382/96 133/383/96 135/384/96
f 134/385/97 130/386/97 132/387/97 136/388/97
f 135/389/98 133/390/98 134/391/98 136/392/98
o cuboid
v 1.1875 0.25 1.5
v 1.1875 0.25 -1.5
v 1.1875 0 1.5
v 1.1875 0 -1.5
v 13.4375 0.25 1.5
v 13.4375 0.25 -1.5
v 13.4375 0 1.5
v 13.4375 0 -1.5
vt 0.220703125 0.6953125
vt 0.220703125 0.69921875
vt 0.173828125 0.69921875
vt 0.173828125 0.6953125
vt 0 0.7607421875
vt 0 0.7138671875
vt 0.19140625 0.7138671875
vt 0.19140625 0.7607421875
vt 0.3837890625 0.7607421875
vt 0.1923828125 0.7607421875
vt 0.1923828125 0.7138671875
vt 0.3837890625 0.7138671875
vt 0.474609375 0.970703125
vt 0.283203125 0.970703125
vt 0.283203125 0.966796875
vt 0.474609375 0.966796875
vt 0.474609375 0.9619140625
vt 0.474609375 0.9658203125
vt 0.283203125 0.9658203125
vt 0.283203125 0.9619140625
vt 0.2685546875 0.69921875
vt 0.2216796875 0.69921875
vt 0.2216796875 0.6953125
vt 0.2685546875 0.6953125
vn -1 0 0
vn 0 1 0
vn 0 -1 0
vn 0 0 1
vn 0 0 -1
vn 1 0 0
usemtl m_2868580a-831b-a2e1-93bd-0578c2eb6597
f 139/393/99 137/394/99 138/395/99 140/396/99
f 138/397/100 137/398/100 141/399/100 142/400/100
f 143/401/101 139/402/101 140/403/101 144/404/101
f 141/405/102 137/406/102 139/407/102 143/408/102
f 140/409/103 138/410/103 142/411/103 144/412/103
f 142/413/104 141/414/104 143/415/104 144/416/104
o cuboid
v -15.434375 1 1.5
v -15.434375 1 -1.5
v -15.434375 0.5 1.5
v -15.434375 0.5 -1.5
v -15.440625 1 1.5
v -15.440625 1 -1.5
v -15.440625 0.5 1.5
v -15.440625 0.5 -1.5
vt 0.330078125 0.9130859375
vt 0.283203125 0.9130859375
vt 0.283203125 0.9052734375
vt 0.330078125 0.9052734375
vt 0.123046875 0.650390625
vt 0.1240234375 0.650390625
vt 0.1240234375 0.697265625
vt 0.123046875 0.697265625
vt 0.0166015625 0.6484375
vt 0.0166015625 0.6953125
vt 0.015625 0.6953125
vt 0.015625 0.6484375
vt 0.08984375 0.6875
vt 0.08984375 0.6953125
vt 0.0888671875 0.6953125
vt 0.0888671875 0.6875
vt 0.091796875 0.6953125
vt 0.0908203125 0.6953125
vt 0.0908203125 0.6875
vt 0.091796875 0.6875
vt 0.0625 0.705078125
vt 0.0625 0.712890625
vt 0.015625 0.712890625
vt 0.015625 0.705078125
vn 1 0 0
vn 0 1 0
vn 0 -1 0
vn 0 0 1
vn 0 0 -1
vn -1 0 0
usemtl m_2868580a-831b-a2e1-93bd-0578c2eb6597
f 146/417/105 145/418/105 147/419/105 148/420/105
f 149/421/106 145/422/106 146/423/106 150/424/106
f 148/425/107 147/426/107 151/427/107 152/428/107
f 147/429/108 145/430/108 149/431/108 151/432/108
f 150/433/109 146/434/109 148/435/109 152/436/109
f 151/437/110 149/438/110 150/439/110 152/440/110
o cuboid
v 15.434375 1 1.5
v 15.434375 1 -1.5
v 15.434375 0.5 1.5
v 15.434375 0.5 -1.5
v 15.440625 1 1.5
v 15.440625 1 -1.5
v 15.440625 0.5 1.5
v 15.440625 0.5 -1.5
vt 0.1103515625 0.705078125
vt 0.1103515625 0.712890625
vt 0.0634765625 0.712890625
vt 0.0634765625 0.705078125
vt 0.017578125 0.6953125
vt 0.017578125 0.6484375
vt 0.0185546875 0.6484375
vt 0.0185546875 0.6953125
vt 0.0205078125 0.6953125
vt 0.01953125 0.6953125
vt 0.01953125 0.6484375
vt 0.0205078125 0.6484375
vt 0.09375 0.6953125
vt 0.0927734375 0.6953125
vt 0.0927734375 0.6875
vt 0.09375 0.6875
vt 0.095703125 0.6875
vt 0.095703125 0.6953125
vt 0.0947265625 0.6953125
vt 0.0947265625 0.6875
vt 0.158203125 0.712890625
vt 0.111328125 0.712890625
vt 0.111328125 0.705078125
vt 0.158203125 0.705078125
vn -1 0 0
vn 0 1 0
vn 0 -1 0
vn 0 0 1
vn 0 0 -1
vn 1 0 0
usemtl m_2868580a-831b-a2e1-93bd-0578c2eb6597
f 155/441/111 153/442/111 154/443/111 156/444/111
f 154/445/112 153/446/112 157/447/112 158/448/112
f 159/449/113 155/450/113 156/451/113 160/452/113
f 157/453/114 153/454/114 155/455/114 159/456/114
f 156/457/115 154/458/115 158/459/115 160/460/115
f 158/461/116 157/462/116 159/463/116 160/464/116