# MagicaVoxel @ Ephtracy

# group
o 

# material
mtllib NeonOpenSign0.mtl
usemtl palette

# normals
vn -1 0 0
vn 1 0 0
vn 0 0 1
vn 0 0 -1
vn 0 -1 0
vn 0 1 0

# texcoords
vt 0.173828 0.5
vt 0.236328 0.5

# verts
v -0.95 -0.3 0.05
v -0.95 -0.3 -0.05
v -0.95 0.2 0.05
v -0.95 0.2 -0.05
v -0.85 0.2 0.05
v -0.85 0.2 -0.05
v -0.85 0.3 0.05
v -0.85 0.3 -0.05
v -0.65 -0.2 0.05
v -0.65 -0.2 -0.05
v -0.65 0.2 0.05
v -0.65 0.2 -0.05
v -0.55 -0.5 0.05
v -0.55 -0.5 -0.05
v -0.55 -0.4 0.05
v -0.55 -0.4 -0.05
v -0.55 0.4 0.05
v -0.55 0.4 -0.05
v -0.55 0.5 0.05
v -0.55 0.5 -0.05
v -0.45 -0.3 0.05
v -0.45 -0.3 -0.05
v -0.45 0.2 0.05
v -0.45 0.2 -0.05
v -0.35 -0.6 0.05
v -0.35 -0.6 -0.05
v -0.35 -0.5 0.05
v -0.35 -0.5 -0.05
v -0.35 0.2 0.05
v -0.35 0.2 -0.05
v -0.35 0.3 0.05
v -0.35 0.3 -0.05
v -0.35 0.5 0.05
v -0.35 0.5 -0.05
v -0.35 0.6 0.05
v -0.35 0.6 -0.05
v -0.15 0 0.05
v -0.15 0 -0.05
v -0.15 0.2 0.05
v -0.15 0.2 -0.05
v 0.05 -0.3 0.05
v 0.05 -0.3 -0.05
v 0.05 0.2 0.05
v 0.05 0.2 -0.05
v 0.15 0.2 0.05
v 0.15 0.2 -0.05
v 0.15 0.3 0.05
v 0.15 0.3 -0.05
v 0.45 -0.5 0.05
v 0.45 -0.5 -0.05
v 0.45 -0.4 0.05
v 0.45 -0.4 -0.05
v 0.45 0.4 0.05
v 0.45 0.4 -0.05
v 0.45 0.5 0.05
v 0.45 0.5 -0.05
v 0.55 -0.3 0.05
v 0.55 -0.3 -0.05
v 0.55 0.2 0.05
v 0.55 0.2 -0.05
v 0.65 0.2 0.05
v 0.65 0.2 -0.05
v 0.65 0.3 0.05
v 0.65 0.3 -0.05
v 0.85 -0.3 0.05
v 0.85 -0.3 -0.05
v 0.85 0.2 0.05
v 0.85 0.2 -0.05
v -0.85 -0.2 0.05
v -0.85 -0.2 -0.05
v -0.85 0.2 0.05
v -0.85 0.2 -0.05
v -0.65 -0.3 0.05
v -0.65 -0.3 -0.05
v -0.65 -0.2 0.05
v -0.65 -0.2 -0.05
v -0.55 -0.2 0.05
v -0.55 -0.2 -0.05
v -0.55 0.3 0.05
v -0.55 0.3 -0.05
v -0.35 -0.5 0.05
v -0.35 -0.5 -0.05
v -0.35 -0.4 0.05
v -0.35 -0.4 -0.05
v -0.35 -0.3 0.05
v -0.35 -0.3 -0.05
v -0.35 -0.1 0.05
v -0.35 -0.1 -0.05
v -0.35 0 0.05
v -0.35 0 -0.05
v -0.35 0.2 0.05
v -0.35 0.2 -0.05
v -0.35 0.4 0.05
v -0.35 0.4 -0.05
v -0.35 0.5 0.05
v -0.35 0.5 -0.05
v -0.15 -0.1 0.05
v -0.15 -0.1 -0.05
v -0.15 0 0.05
v -0.15 0 -0.05
v -0.0500001 0 0.05
v -0.0500001 0 -0.05
v -0.0500001 0.3 0.05
v -0.0500001 0.3 -0.05
v 0.15 -0.2 0.05
v 0.15 -0.2 -0.05
v 0.15 0 0.05
v 0.15 0 -0.05
v 0.15 0.1 0.05
v 0.15 0.1 -0.05
v 0.15 0.2 0.05
v 0.15 0.2 -0.05
v 0.35 0 0.05
v 0.35 0 -0.05
v 0.35 0.1 0.05
v 0.35 0.1 -0.05
v 0.45 -0.6 0.05
v 0.45 -0.6 -0.05
v 0.45 -0.5 0.05
v 0.45 -0.5 -0.05
v 0.45 -0.3 0.05
v 0.45 -0.3 -0.05
v 0.45 -0.2 0.05
v 0.45 -0.2 -0.05
v 0.45 0.2 0.05
v 0.45 0.2 -0.05
v 0.45 0.3 0.05
v 0.45 0.3 -0.05
v 0.45 0.5 0.05
v 0.45 0.5 -0.05
v 0.45 0.6 0.05
v 0.45 0.6 -0.05
v 0.65 -0.5 0.05
v 0.65 -0.5 -0.05
v 0.65 -0.4 0.05
v 0.65 -0.4 -0.05
v 0.65 -0.3 0.05
v 0.65 -0.3 -0.05
v 0.65 0.2 0.05
v 0.65 0.2 -0.05
v 0.65 0.4 0.05
v 0.65 0.4 -0.05
v 0.65 0.5 0.05
v 0.65 0.5 -0.05
v 0.95 -0.3 0.05
v 0.95 -0.3 -0.05
v 0.95 0.3 0.05
v 0.95 0.3 -0.05
v -0.95 -0.3 0.05
v -0.95 0.2 0.05
v -0.85 -0.2 0.05
v -0.85 0.2 0.05
v -0.85 0.3 0.05
v -0.65 -0.3 0.05
v -0.65 -0.2 0.05
v -0.65 0.2 0.05
v -0.55 -0.5 0.05
v -0.55 -0.4 0.05
v -0.55 -0.2 0.05
v -0.55 0.3 0.05
v -0.55 0.4 0.05
v -0.55 0.5 0.05
v -0.45 -0.3 0.05
v -0.45 0.2 0.05
v -0.35 -0.6 0.05
v -0.35 -0.5 0.05
v -0.35 -0.4 0.05
v -0.35 -0.3 0.05
v -0.35 -0.1 0.05
v -0.35 0 0.05
v -0.35 0.2 0.05
v -0.35 0.3 0.05
v -0.35 0.4 0.05
v -0.35 0.5 0.05
v -0.35 0.6 0.05
v -0.15 -0.1 0.05
v -0.15 0 0.05
v -0.15 0.2 0.05
v -0.0500001 0 0.05
v -0.0500001 0.3 0.05
v 0.05 -0.3 0.05
v 0.05 0.2 0.05
v 0.15 -0.2 0.05
v 0.15 0 0.05
v 0.15 0.1 0.05
v 0.15 0.2 0.05
v 0.15 0.3 0.05
v 0.35 0 0.05
v 0.35 0.1 0.05
v 0.45 -0.6 0.05
v 0.45 -0.5 0.05
v 0.45 -0.4 0.05
v 0.45 -0.3 0.05
v 0.45 -0.2 0.05
v 0.45 0.2 0.05
v 0.45 0.3 0.05
v 0.45 0.4 0.05
v 0.45 0.5 0.05
v 0.45 0.6 0.05
v 0.55 -0.3 0.05
v 0.55 0.2 0.05
v 0.65 -0.5 0.05
v 0.65 -0.4 0.05
v 0.65 -0.3 0.05
v 0.65 0.2 0.05
v 0.65 0.3 0.05
v 0.65 0.4 0.05
v 0.65 0.5 0.05
v 0.85 -0.3 0.05
v 0.85 0.2 0.05
v 0.95 -0.3 0.05
v 0.95 0.3 0.05
v -0.95 -0.3 -0.05
v -0.95 0.2 -0.05
v -0.85 -0.2 -0.05
v -0.85 0.2 -0.05
v -0.85 0.3 -0.05
v -0.65 -0.3 -0.05
v -0.65 -0.2 -0.05
v -0.65 0.2 -0.05
v -0.55 -0.5 -0.05
v -0.55 -0.4 -0.05
v -0.55 -0.2 -0.05
v -0.55 0.3 -0.05
v -0.55 0.4 -0.05
v -0.55 0.5 -0.05
v -0.45 -0.3 -0.05
v -0.45 0.2 -0.05
v -0.35 -0.6 -0.05
v -0.35 -0.5 -0.05
v -0.35 -0.4 -0.05
v -0.35 -0.3 -0.05
v -0.35 -0.1 -0.05
v -0.35 0 -0.05
v -0.35 0.2 -0.05
v -0.35 0.3 -0.05
v -0.35 0.4 -0.05
v -0.35 0.5 -0.05
v -0.35 0.6 -0.05
v -0.15 -0.1 -0.05
v -0.15 0 -0.05
v -0.15 0.2 -0.05
v -0.0500001 0 -0.05
v -0.0500001 0.3 -0.05
v 0.05 -0.3 -0.05
v 0.05 0.2 -0.05
v 0.15 -0.2 -0.05
v 0.15 0 -0.05
v 0.15 0.1 -0.05
v 0.15 0.2 -0.05
v 0.15 0.3 -0.05
v 0.35 0 -0.05
v 0.35 0.1 -0.05
v 0.45 -0.6 -0.05
v 0.45 -0.5 -0.05
v 0.45 -0.4 -0.05
v 0.45 -0.3 -0.05
v 0.45 -0.2 -0.05
v 0.45 0.2 -0.05
v 0.45 0.3 -0.05
v 0.45 0.4 -0.05
v 0.45 0.5 -0.05
v 0.45 0.6 -0.05
v 0.55 -0.3 -0.05
v 0.55 0.2 -0.05
v 0.65 -0.5 -0.05
v 0.65 -0.4 -0.05
v 0.65 -0.3 -0.05
v 0.65 0.2 -0.05
v 0.65 0.3 -0.05
v 0.65 0.4 -0.05
v 0.65 0.5 -0.05
v 0.85 -0.3 -0.05
v 0.85 0.2 -0.05
v 0.95 -0.3 -0.05
v 0.95 0.3 -0.05
v -0.35 -0.6 0.05
v 0.45 -0.6 0.05
v -0.35 -0.6 -0.05
v 0.45 -0.6 -0.05
v -0.55 -0.5 0.05
v -0.35 -0.5 0.05
v 0.45 -0.5 0.05
v 0.65 -0.5 0.05
v -0.55 -0.5 -0.05
v -0.35 -0.5 -0.05
v 0.45 -0.5 -0.05
v 0.65 -0.5 -0.05
v -0.95 -0.3 0.05
v -0.65 -0.3 0.05
v -0.45 -0.3 0.05
v -0.35 -0.3 0.05
v 0.05 -0.3 0.05
v 0.45 -0.3 0.05
v 0.55 -0.3 0.05
v 0.65 -0.3 0.05
v 0.85 -0.3 0.05
v 0.95 -0.3 0.05
v -0.95 -0.3 -0.05
v -0.65 -0.3 -0.05
v -0.45 -0.3 -0.05
v -0.35 -0.3 -0.05
v 0.05 -0.3 -0.05
v 0.45 -0.3 -0.05
v 0.55 -0.3 -0.05
v 0.65 -0.3 -0.05
v 0.85 -0.3 -0.05
v 0.95 -0.3 -0.05
v -0.65 -0.2 0.05
v -0.55 -0.2 0.05
v -0.65 -0.2 -0.05
v -0.55 -0.2 -0.05
v -0.35 -0.1 0.05
v -0.15 -0.1 0.05
v -0.35 -0.1 -0.05
v -0.15 -0.1 -0.05
v -0.15 0 0.05
v -0.0500001 0 0.05
v 0.15 0 0.05
v 0.35 0 0.05
v -0.15 0 -0.05
v -0.0500001 0 -0.05
v 0.15 0 -0.05
v 0.35 0 -0.05
v -0.85 0.2 0.05
v -0.65 0.2 0.05
v -0.35 0.2 0.05
v -0.15 0.2 0.05
v 0.15 0.2 0.05
v 0.45 0.2 0.05
v 0.65 0.2 0.05
v 0.85 0.2 0.05
v -0.85 0.2 -0.05
v -0.65 0.2 -0.05
v -0.35 0.2 -0.05
v -0.15 0.2 -0.05
v 0.15 0.2 -0.05
v 0.45 0.2 -0.05
v 0.65 0.2 -0.05
v 0.85 0.2 -0.05
v -0.55 0.4 0.05
v -0.35 0.4 0.05
v 0.45 0.4 0.05
v 0.65 0.4 0.05
v -0.55 0.4 -0.05
v -0.35 0.4 -0.05
v 0.45 0.4 -0.05
v 0.65 0.4 -0.05
v -0.35 0.5 0.05
v 0.45 0.5 0.05
v -0.35 0.5 -0.05
v 0.45 0.5 -0.05
v -0.35 -0.5 0.05
v 0.45 -0.5 0.05
v -0.35 -0.5 -0.05
v 0.45 -0.5 -0.05
v -0.55 -0.4 0.05
v -0.35 -0.4 0.05
v 0.45 -0.4 0.05
v 0.65 -0.4 0.05
v -0.55 -0.4 -0.05
v -0.35 -0.4 -0.05
v 0.45 -0.4 -0.05
v 0.65 -0.4 -0.05
v -0.85 -0.2 0.05
v -0.65 -0.2 0.05
v 0.15 -0.2 0.05
v 0.45 -0.2 0.05
v -0.85 -0.2 -0.05
v -0.65 -0.2 -0.05
v 0.15 -0.2 -0.05
v 0.45 -0.2 -0.05
v -0.35 0 0.05
v -0.15 0 0.05
v -0.35 0 -0.05
v -0.15 0 -0.05
v 0.15 0.1 0.05
v 0.35 0.1 0.05
v 0.15 0.1 -0.05
v 0.35 0.1 -0.05
v -0.95 0.2 0.05
v -0.85 0.2 0.05
v -0.45 0.2 0.05
v -0.35 0.2 0.05
v 0.05 0.2 0.05
v 0.15 0.2 0.05
v 0.55 0.2 0.05
v 0.65 0.2 0.05
v -0.95 0.2 -0.05
v -0.85 0.2 -0.05
v -0.45 0.2 -0.05
v -0.35 0.2 -0.05
v 0.05 0.2 -0.05
v 0.15 0.2 -0.05
v 0.55 0.2 -0.05
v 0.65 0.2 -0.05
v -0.85 0.3 0.05
v -0.55 0.3 0.05
v -0.35 0.3 0.05
v -0.0500001 0.3 0.05
v 0.15 0.3 0.05
v 0.45 0.3 0.05
v 0.65 0.3 0.05
v 0.95 0.3 0.05
v -0.85 0.3 -0.05
v -0.55 0.3 -0.05
v -0.35 0.3 -0.05
v -0.0500001 0.3 -0.05
v 0.15 0.3 -0.05
v 0.45 0.3 -0.05
v 0.65 0.3 -0.05
v 0.95 0.3 -0.05
v -0.55 0.5 0.05
v -0.35 0.5 0.05
v 0.45 0.5 0.05
v 0.65 0.5 0.05
v -0.55 0.5 -0.05
v -0.35 0.5 -0.05
v 0.45 0.5 -0.05
v 0.65 0.5 -0.05
v -0.35 0.6 0.05
v 0.45 0.6 0.05
v -0.35 0.6 -0.05
v 0.45 0.6 -0.05

# faces
f 3/2/1 2/2/1 1/2/1
f 4/2/1 2/2/1 3/2/1
f 7/2/1 6/2/1 5/2/1
f 8/2/1 6/2/1 7/2/1
f 11/2/1 10/2/1 9/2/1
f 12/2/1 10/2/1 11/2/1
f 15/1/1 14/1/1 13/1/1
f 16/1/1 14/1/1 15/1/1
f 19/1/1 18/1/1 17/1/1
f 20/1/1 18/1/1 19/1/1
f 23/2/1 22/2/1 21/2/1
f 24/2/1 22/2/1 23/2/1
f 27/1/1 26/1/1 25/1/1
f 28/1/1 26/1/1 27/1/1
f 31/2/1 30/2/1 29/2/1
f 32/2/1 30/2/1 31/2/1
f 35/1/1 34/1/1 33/1/1
f 36/1/1 34/1/1 35/1/1
f 39/2/1 38/2/1 37/2/1
f 40/2/1 38/2/1 39/2/1
f 43/2/1 42/2/1 41/2/1
f 44/2/1 42/2/1 43/2/1
f 47/2/1 46/2/1 45/2/1
f 48/2/1 46/2/1 47/2/1
f 51/1/1 50/1/1 49/1/1
f 52/1/1 50/1/1 51/1/1
f 55/1/1 54/1/1 53/1/1
f 56/1/1 54/1/1 55/1/1
f 59/2/1 58/2/1 57/2/1
f 60/2/1 58/2/1 59/2/1
f 63/2/1 62/2/1 61/2/1
f 64/2/1 62/2/1 63/2/1
f 67/2/1 66/2/1 65/2/1
f 68/2/1 66/2/1 67/2/1
f 69/2/2 70/2/2 71/2/2
f 71/2/2 70/2/2 72/2/2
f 73/2/2 74/2/2 75/2/2
f 75/2/2 74/2/2 76/2/2
f 77/2/2 78/2/2 79/2/2
f 79/2/2 78/2/2 80/2/2
f 81/1/2 82/1/2 83/1/2
f 83/1/2 82/1/2 84/1/2
f 85/2/2 86/2/2 87/2/2
f 87/2/2 86/2/2 88/2/2
f 89/2/2 90/2/2 91/2/2
f 91/2/2 90/2/2 92/2/2
f 93/1/2 94/1/2 95/1/2
f 95/1/2 94/1/2 96/1/2
f 97/2/2 98/2/2 99/2/2
f 99/2/2 98/2/2 100/2/2
f 101/2/2 102/2/2 103/2/2
f 103/2/2 102/2/2 104/2/2
f 105/2/2 106/2/2 107/2/2
f 107/2/2 106/2/2 108/2/2
f 109/2/2 110/2/2 111/2/2
f 111/2/2 110/2/2 112/2/2
f 113/2/2 114/2/2 115/2/2
f 115/2/2 114/2/2 116/2/2
f 117/1/2 118/1/2 119/1/2
f 119/1/2 118/1/2 120/1/2
f 121/2/2 122/2/2 123/2/2
f 123/2/2 122/2/2 124/2/2
f 125/2/2 126/2/2 127/2/2
f 127/2/2 126/2/2 128/2/2
f 129/1/2 130/1/2 131/1/2
f 131/1/2 130/1/2 132/1/2
f 133/1/2 134/1/2 135/1/2
f 135/1/2 134/1/2 136/1/2
f 137/2/2 138/2/2 139/2/2
f 139/2/2 138/2/2 140/2/2
f 141/1/2 142/1/2 143/1/2
f 143/1/2 142/1/2 144/1/2
f 145/2/2 146/2/2 147/2/2
f 147/2/2 146/2/2 148/2/2
f 151/2/3 150/2/3 149/2/3
f 152/2/3 150/2/3 151/2/3
f 154/2/3 151/2/3 149/2/3
f 155/2/3 151/2/3 154/2/3
f 156/2/3 153/2/3 152/2/3
f 159/2/3 156/2/3 155/2/3
f 160/2/3 153/2/3 156/2/3
f 160/2/3 156/2/3 159/2/3
f 166/1/3 158/1/3 157/1/3
f 167/1/3 158/1/3 166/1/3
f 168/2/3 164/2/3 163/2/3
f 169/2/3 164/2/3 168/2/3
f 170/2/3 164/2/3 169/2/3
f 171/2/3 164/2/3 170/2/3
f 173/1/3 162/1/3 161/1/3
f 174/1/3 162/1/3 173/1/3
f 176/2/3 170/2/3 169/2/3
f 177/2/3 170/2/3 176/2/3
f 178/2/3 172/2/3 171/2/3
f 179/2/3 178/2/3 177/2/3
f 180/2/3 172/2/3 178/2/3
f 180/2/3 178/2/3 179/2/3
f 183/2/3 182/2/3 181/2/3
f 184/2/3 182/2/3 183/2/3
f 185/2/3 182/2/3 184/2/3
f 186/2/3 182/2/3 185/2/3
f 188/2/3 185/2/3 184/2/3
f 189/2/3 185/2/3 188/2/3
f 190/1/3 166/1/3 165/1/3
f 191/1/3 166/1/3 190/1/3
f 193/2/3 183/2/3 181/2/3
f 194/2/3 183/2/3 193/2/3
f 195/2/3 187/2/3 186/2/3
f 196/2/3 187/2/3 195/2/3
f 198/1/3 175/1/3 174/1/3
f 199/1/3 175/1/3 198/1/3
f 202/1/3 192/1/3 191/1/3
f 203/1/3 192/1/3 202/1/3
f 204/2/3 201/2/3 200/2/3
f 205/2/3 201/2/3 204/2/3
f 207/1/3 198/1/3 197/1/3
f 208/1/3 198/1/3 207/1/3
f 210/2/3 206/2/3 205/2/3
f 211/2/3 210/2/3 209/2/3
f 212/2/3 206/2/3 210/2/3
f 212/2/3 210/2/3 211/2/3
f 213/2/4 214/2/4 215/2/4
f 215/2/4 214/2/4 216/2/4
f 213/2/4 215/2/4 218/2/4
f 218/2/4 215/2/4 219/2/4
f 216/2/4 217/2/4 220/2/4
f 219/2/4 220/2/4 223/2/4
f 220/2/4 217/2/4 224/2/4
f 223/2/4 220/2/4 224/2/4
f 221/1/4 222/1/4 230/1/4
f 230/1/4 222/1/4 231/1/4
f 227/2/4 228/2/4 232/2/4
f 232/2/4 228/2/4 233/2/4
f 233/2/4 228/2/4 234/2/4
f 234/2/4 228/2/4 235/2/4
f 225/1/4 226/1/4 237/1/4
f 237/1/4 226/1/4 238/1/4
f 233/2/4 234/2/4 240/2/4
f 240/2/4 234/2/4 241/2/4
f 235/2/4 236/2/4 242/2/4
f 241/2/4 242/2/4 243/2/4
f 242/2/4 236/2/4 244/2/4
f 243/2/4 242/2/4 244/2/4
f 245/2/4 246/2/4 247/2/4
f 247/2/4 246/2/4 248/2/4
f 248/2/4 246/2/4 249/2/4
f 249/2/4 246/2/4 250/2/4
f 248/2/4 249/2/4 252/2/4
f 252/2/4 249/2/4 253/2/4
f 229/1/4 230/1/4 254/1/4
f 254/1/4 230/1/4 255/1/4
f 245/2/4 247/2/4 257/2/4
f 257/2/4 247/2/4 258/2/4
f 250/2/4 251/2/4 259/2/4
f 259/2/4 251/2/4 260/2/4
f 238/1/4 239/1/4 262/1/4
f 262/1/4 239/1/4 263/1/4
f 255/1/4 256/1/4 266/1/4
f 266/1/4 256/1/4 267/1/4
f 264/2/4 265/2/4 268/2/4
f 268/2/4 265/2/4 269/2/4
f 261/1/4 262/1/4 271/1/4
f 271/1/4 262/1/4 272/1/4
f 269/2/4 270/2/4 274/2/4
f 273/2/4 274/2/4 275/2/4
f 274/2/4 270/2/4 276/2/4
f 275/2/4 274/2/4 276/2/4
f 279/1/5 278/1/5 277/1/5
f 280/1/5 278/1/5 279/1/5
f 285/1/5 282/1/5 281/1/5
f 286/1/5 282/1/5 285/1/5
f 287/1/5 284/1/5 283/1/5
f 288/1/5 284/1/5 287/1/5
f 299/2/5 290/2/5 289/2/5
f 300/2/5 290/2/5 299/2/5
f 301/2/5 292/2/5 291/2/5
f 302/2/5 292/2/5 301/2/5
f 303/2/5 294/2/5 293/2/5
f 304/2/5 294/2/5 303/2/5
f 305/2/5 296/2/5 295/2/5
f 306/2/5 296/2/5 305/2/5
f 307/2/5 298/2/5 297/2/5
f 308/2/5 298/2/5 307/2/5
f 311/2/5 310/2/5 309/2/5
f 312/2/5 310/2/5 311/2/5
f 315/2/5 314/2/5 313/2/5
f 316/2/5 314/2/5 315/2/5
f 321/2/5 318/2/5 317/2/5
f 322/2/5 318/2/5 321/2/5
f 323/2/5 320/2/5 319/2/5
f 324/2/5 320/2/5 323/2/5
f 333/2/5 326/2/5 325/2/5
f 334/2/5 326/2/5 333/2/5
f 335/2/5 328/2/5 327/2/5
f 336/2/5 328/2/5 335/2/5
f 337/2/5 330/2/5 329/2/5
f 338/2/5 330/2/5 337/2/5
f 339/2/5 332/2/5 331/2/5
f 340/2/5 332/2/5 339/2/5
f 345/1/5 342/1/5 341/1/5
f 346/1/5 342/1/5 345/1/5
f 347/1/5 344/1/5 343/1/5
f 348/1/5 344/1/5 347/1/5
f 351/1/5 350/1/5 349/1/5
f 352/1/5 350/1/5 351/1/5
f 353/1/6 354/1/6 355/1/6
f 355/1/6 354/1/6 356/1/6
f 357/1/6 358/1/6 361/1/6
f 361/1/6 358/1/6 362/1/6
f 359/1/6 360/1/6 363/1/6
f 363/1/6 360/1/6 364/1/6
f 365/2/6 366/2/6 369/2/6
f 369/2/6 366/2/6 370/2/6
f 367/2/6 368/2/6 371/2/6
f 371/2/6 368/2/6 372/2/6
f 373/2/6 374/2/6 375/2/6
f 375/2/6 374/2/6 376/2/6
f 377/2/6 378/2/6 379/2/6
f 379/2/6 378/2/6 380/2/6
f 381/2/6 382/2/6 389/2/6
f 389/2/6 382/2/6 390/2/6
f 383/2/6 384/2/6 391/2/6
f 391/2/6 384/2/6 392/2/6
f 385/2/6 386/2/6 393/2/6
f 393/2/6 386/2/6 394/2/6
f 387/2/6 388/2/6 395/2/6
f 395/2/6 388/2/6 396/2/6
f 397/2/6 398/2/6 405/2/6
f 405/2/6 398/2/6 406/2/6
f 399/2/6 400/2/6 407/2/6
f 407/2/6 400/2/6 408/2/6
f 401/2/6 402/2/6 409/2/6
f 409/2/6 402/2/6 410/2/6
f 403/2/6 404/2/6 411/2/6
f 411/2/6 404/2/6 412/2/6
f 413/1/6 414/1/6 417/1/6
f 417/1/6 414/1/6 418/1/6
f 415/1/6 416/1/6 419/1/6
f 419/1/6 416/1/6 420/1/6
f 421/1/6 422/1/6 423/1/6
f 423/1/6 422/1/6 424/1/6
